<svg xmlns="http://www.w3.org/2000/svg" xmlns:xlink="http://www.w3.org/1999/xlink" width="110" height="110" viewBox="0 0 110 110">
  <defs>
    <clipPath id="clip-path">
      <rect id="Rectángulo_34517" data-name="Rectángulo 34517" width="110" height="110" transform="translate(331 584)" fill="#fff"/>
    </clipPath>
  </defs>
  <g id="_1" data-name="1" transform="translate(-331 -584)" clip-path="url(#clip-path)">
    <g id="viaje" transform="translate(331 584)">
      <path id="Trazado_117402" data-name="Trazado 117402" d="M108.183,54.795A53.389,53.389,0,1,1,54.795,1.406,53.389,53.389,0,0,1,108.183,54.795Zm0,0" transform="translate(0.205 0.205)" fill="#6adcfa"/>
      <path id="Trazado_117403" data-name="Trazado 117403" d="M101.911,54.795a53.39,53.39,0,0,1-53.389,53.389q-2.072,0-4.108-.154a53.393,53.393,0,0,0,0-106.468q2.034-.155,4.108-.154a53.39,53.39,0,0,1,53.389,53.389Zm0,0" transform="translate(6.477 0.205)" fill="#00d2f9"/>
      <path id="Trazado_117404" data-name="Trazado 117404" d="M87.274,64.648a6.015,6.015,0,0,0-1.762-4.254L81.138,56.02a6.015,6.015,0,0,1-1.762-4.254v-5.4a6.015,6.015,0,0,0-1.762-4.254l-10.8-10.8a6.015,6.015,0,0,0-4.254-1.762H58.9a5.835,5.835,0,0,1-5.835-5.835v-1.2a5.837,5.837,0,0,1,1.71-4.127L68.078,5.083a53.4,53.4,0,0,1,19.2,84.524Zm0,0" transform="translate(7.738 0.741)" fill="#9ad63b"/>
      <path id="Trazado_117405" data-name="Trazado 117405" d="M85.709,77.171A53.429,53.429,0,0,0,63.795,7.8l2.718-2.718a53.4,53.4,0,0,1,19.2,84.524Zm0,0" transform="translate(9.304 0.741)" fill="#8ec737"/>
      <path id="Trazado_117406" data-name="Trazado 117406" d="M79.691,63.988a6.221,6.221,0,0,1-6.217,6.218H64.245a6.216,6.216,0,0,0-4.4,1.819L48.814,83.06,44.375,87.5a6.208,6.208,0,0,0-1.822,4.4V99A6.18,6.18,0,0,1,41.777,102,53.442,53.442,0,0,1,4.309,32.812H26.666a6.22,6.22,0,0,1,5.567,3.446l2.155,4.331a6.218,6.218,0,0,0,5.567,3.446H59.739a6.218,6.218,0,0,1,4.4,1.822L77.869,59.591a6.218,6.218,0,0,1,1.822,4.4Zm0,0" transform="translate(0.205 4.785)" fill="#ffc26d"/>
      <path id="Trazado_117407" data-name="Trazado 117407" d="M48.754,79.943l-4.439,4.441a6.208,6.208,0,0,0-1.822,4.4v7.1a6.18,6.18,0,0,1-.775,3.008,53.438,53.438,0,0,1-39.9-44.7H23Zm0,0" transform="translate(0.265 7.902)" fill="#9ad63b"/>
      <path id="Trazado_117408" data-name="Trazado 117408" d="M21.366,90.327,8.381,77.341a2.277,2.277,0,0,1,0-3.219L9.612,72.89a2.276,2.276,0,0,1,2.693-.393l9.024,4.88L26.211,86.4a2.277,2.277,0,0,1-.393,2.693l-1.231,1.231a2.278,2.278,0,0,1-3.22,0Zm0,0" transform="translate(1.125 10.533)" fill="#1475cc"/>
      <path id="Trazado_117409" data-name="Trazado 117409" d="M50.4,89.9,12.089,51.591a2.278,2.278,0,0,1,0-3.22l1.71-1.709a2.275,2.275,0,0,1,2.988-.2L38.793,63.2l16.74,22.008a2.277,2.277,0,0,1-.2,2.988l-1.71,1.71a2.277,2.277,0,0,1-3.219,0Zm0,0" transform="translate(1.666 6.708)" fill="#1475cc"/>
      <path id="Trazado_117410" data-name="Trazado 117410" d="M40.822,69.322c-10.846,10.847-27.872,24-30.259,21.615S21.332,71.525,32.179,60.679s15.277-11.408,17.664-9.021,1.825,6.818-9.021,17.664Zm0,0" transform="translate(1.499 7.365)" fill="#caf1fd"/>
      <path id="Trazado_117411" data-name="Trazado 117411" d="M40.823,69.322c-10.846,10.847-27.872,24-30.259,21.615-.68-.68-.1-2.539,1.318-5.1,6.462-3.58,17.394-12.529,25.159-20.3S47.3,53.3,47.212,50.5a3.741,3.741,0,0,1,2.631,1.153c2.388,2.388,1.827,6.817-9.02,17.664Zm0,0" transform="translate(1.499 7.365)" fill="#9de7fc"/>
      <path id="Trazado_117412" data-name="Trazado 117412" d="M86.91,9.392l-12.787,3.14a1.288,1.288,0,0,0-.6,2.163l9.645,9.645a1.288,1.288,0,0,0,2.163-.6l3.14-12.787A1.288,1.288,0,0,0,86.91,9.392Zm0,0" transform="translate(10.667 1.364)" fill="#ff6672"/>
      <path id="Trazado_117413" data-name="Trazado 117413" d="M98.559,21.42,100.7,12.7a2.9,2.9,0,0,0-3.508-3.509l-8.744,2.148a55,55,0,0,0-69.707,2.308,1.611,1.611,0,1,0,2.126,2.422A51.918,51.918,0,0,1,72.956,6.406L61.37,17.991a7.4,7.4,0,0,0-2.181,5.265v1.2A7.456,7.456,0,0,0,66.636,31.9H70.3a4.376,4.376,0,0,1,3.114,1.29l.557.558L72.8,34.92A1.611,1.611,0,0,0,75.079,37.2l1.169-1.168L84.213,44A4.376,4.376,0,0,1,85.5,47.11v5.4A7.58,7.58,0,0,0,87.737,57.9l4.374,4.374A4.376,4.376,0,0,1,93.4,65.39v6.523a1.611,1.611,0,1,0,3.223,0V65.39A7.581,7.581,0,0,0,94.39,60l-4.374-4.373a4.377,4.377,0,0,1-1.29-3.114v-5.4a7.577,7.577,0,0,0-2.234-5.393l-10.8-10.8A7.575,7.575,0,0,0,70.3,28.682H66.636a4.229,4.229,0,0,1-4.224-4.224v-1.2A4.2,4.2,0,0,1,63.65,20.27L76.189,7.73a51.576,51.576,0,0,1,8.169,4.616A2.9,2.9,0,0,0,83.048,17.2l3.769,3.769a1.565,1.565,0,0,0-.295.231l-.911.911a1.611,1.611,0,0,0,2.279,2.279l.911-.911a1.6,1.6,0,0,0,.232-.295l3.661,3.662a2.907,2.907,0,0,0,2.053.848,2.865,2.865,0,0,0,.778-.107A2.9,2.9,0,0,0,97.557,25.5a51.818,51.818,0,0,1-.934,60.313V79.993a1.611,1.611,0,1,0-3.223,0v9.74q-.867.958-1.789,1.879a51.823,51.823,0,0,1-47.467,14.019,7.782,7.782,0,0,0,.225-1.85v-7.1a4.57,4.57,0,0,1,1.35-3.257l.441-.441,4.767,4.767a3.887,3.887,0,0,0,5.5,0l1.709-1.71a3.9,3.9,0,0,0,.346-5.1L54.041,85.1l7.15-7.152A4.577,4.577,0,0,1,64.45,76.6h9.227a7.83,7.83,0,0,0,5.536-13.366L65.48,49.5a7.868,7.868,0,0,0-1.518-1.188l.138-.138A1.611,1.611,0,0,0,61.821,45.9L60.49,47.231c-.181-.013-.363-.021-.547-.021H40.158a4.582,4.582,0,0,1-4.124-2.553l-2.155-4.332a7.788,7.788,0,0,0-7.008-4.339H6.84a51.689,51.689,0,0,1,8.84-14.672,1.611,1.611,0,0,0-2.446-2.1A55.018,55.018,0,0,0,8.124,83.782a3.886,3.886,0,0,0,.243,5.231L11.9,92.549q-.23.42-.431.815c-1.039,2.046-2.04,4.586-.548,6.079a2.682,2.682,0,0,0,1.977.757A9.914,9.914,0,0,0,17,98.894c.263-.133.535-.278.815-.431L21.352,102a3.879,3.879,0,0,0,5.326.156A55.006,55.006,0,0,0,110,55,54.442,54.442,0,0,0,98.558,21.42Zm-3.991,2.742L85.73,15.325l11.714-2.878ZM43.442,91.146a7.768,7.768,0,0,0-2.3,5.536v7.1a4.615,4.615,0,0,1-.13,1.079,51.507,51.507,0,0,1-12.179-5.172,3.912,3.912,0,0,0-.085-3.52l-2.02-3.735c3.335-2.545,6.919-5.523,10.316-8.564L43.883,90.7Zm12.415,2.617-1.71,1.71a.665.665,0,0,1-.94,0L39.434,81.7c1.407-1.307,2.763-2.607,4.027-3.871.192-.193.377-.381.564-.571L55.916,92.889a.667.667,0,0,1-.06.873ZM5.69,39.209H26.87a4.582,4.582,0,0,1,4.124,2.553l2.155,4.332a7.788,7.788,0,0,0,7.009,4.338H59.944a4.578,4.578,0,0,1,3.258,1.35L76.935,65.515a4.608,4.608,0,0,1-3.256,7.865H64.45a7.779,7.779,0,0,0-5.537,2.291l-6.841,6.842L46.284,74.9c3.573-3.852,5.873-7.005,6.989-9.578,1.334-3.077,1.068-5.581-.791-7.441s-4.362-2.126-7.44-.791c-2.574,1.116-5.727,3.416-9.578,6.99l-16.037-12.2a3.9,3.9,0,0,0-5.1.346l-1.71,1.709a3.888,3.888,0,0,0,0,5.5l1.041,1.041H3.511A51.856,51.856,0,0,1,5.69,39.209ZM28.667,70.932,26.745,69.01a1.611,1.611,0,0,0-2.279,2.279l2.028,2.028c-3.041,3.4-6.019,6.981-8.563,10.316L14.2,81.613a3.914,3.914,0,0,0-3.636-.029A51.483,51.483,0,0,1,3.955,63.7H16.879l2.211,2.211a1.611,1.611,0,1,0,2.279-2.279L18.685,60.95h0l-3.792-3.792a.666.666,0,0,1,0-.941l1.71-1.71a.668.668,0,0,1,.874-.059L33.108,66.34c-.19.187-.378.371-.57.564-1.265,1.265-2.566,2.62-3.871,4.027Zm-18.022,15.8a.665.665,0,0,1,0-.941l1.231-1.231a.669.669,0,0,1,.786-.115l3.325,1.8Q14.654,88.1,13.614,89.7Zm9.374-.526a171.477,171.477,0,0,1,14.8-17.025c6.434-6.434,11.023-9.672,13.7-9.672a2.289,2.289,0,0,1,1.689.65c2.112,2.112-.923,7.289-9.021,15.386a171.478,171.478,0,0,1-17.025,14.8c-6.023,4.536-9.32,6.175-10.683,6.545.369-1.363,2.008-4.66,6.544-10.683ZM24.1,99.915a.664.664,0,0,1-.471-.2l-2.969-2.969q1.6-1.036,3.458-2.373l1.8,3.325a.67.67,0,0,1-.115.786L24.572,99.72a.664.664,0,0,1-.47.2Zm0,0" transform="translate(0 0)"/>
      <path id="Trazado_117414" data-name="Trazado 117414" d="M48.768,49.37a1.607,1.607,0,0,0,1.14-.472l.911-.911a1.612,1.612,0,0,0-2.279-2.279l-.911.911a1.611,1.611,0,0,0,1.14,2.751Zm0,0" transform="translate(6.877 6.597)"/>
      <path id="Trazado_117415" data-name="Trazado 117415" d="M60.284,38.637l1.83-1.83a1.611,1.611,0,0,0-2.279-2.279l-1.83,1.83a1.611,1.611,0,0,0,2.279,2.279Zm0,0" transform="translate(8.39 4.967)"/>
      <path id="Trazado_117416" data-name="Trazado 117416" d="M71.015,23.35l-1.83,1.83a1.612,1.612,0,0,0,2.279,2.279l1.83-1.83a1.611,1.611,0,1,0-2.279-2.279Zm0,0" transform="translate(10.021 3.336)"/>
    </g>
  </g>
</svg>
