<svg xmlns="http://www.w3.org/2000/svg" xmlns:xlink="http://www.w3.org/1999/xlink" width="113" height="113" viewBox="0 0 113 113">
  <defs>
    <clipPath id="clip-path">
      <rect id="Rectángulo_34624" data-name="Rectángulo 34624" width="113" height="113" transform="translate(1164 985)" fill="#fff"/>
    </clipPath>
  </defs>
  <g id="_10" data-name="10" transform="translate(-1164 -985)" clip-path="url(#clip-path)">
    <g id="parque" transform="translate(1164 984.973)">
      <g id="Grupo_83794" data-name="Grupo 83794">
        <path id="Trazado_117959" data-name="Trazado 117959" d="M60.031,91.813h7.063v8.828H60.031Z" fill="#82502f"/>
        <path id="Trazado_117960" data-name="Trazado 117960" d="M24.719,91.813h7.063v8.828H24.719Z" transform="translate(56.5 192.453) rotate(180)" fill="#82502f"/>
        <path id="Trazado_117961" data-name="Trazado 117961" d="M58.266,77.688h7.063V84.75H58.266Z" fill="#82502f"/>
        <path id="Trazado_117962" data-name="Trazado 117962" d="M26.484,77.688h7.063V84.75H26.484Z" transform="translate(60.031 162.438) rotate(180)" fill="#82502f"/>
      </g>
      <path id="Trazado_117963" data-name="Trazado 117963" d="M84.75,44.141h7.063v56.5H84.75Z" transform="translate(176.563 144.781) rotate(180)" fill="#aa6f45"/>
      <path id="Trazado_117964" data-name="Trazado 117964" d="M71.172,35.207a12.359,12.359,0,0,0,17.109,17.3,12.359,12.359,0,0,0,17.109-17.3,12.359,12.359,0,0,0-4.873-22.724,12.359,12.359,0,0,0-24.472,0,12.359,12.359,0,0,0-4.873,22.724Z" fill="#59b22b"/>
      <path id="Trazado_117965" data-name="Trazado 117965" d="M111.234,24.719a12.359,12.359,0,0,0-10.717-12.236,12.359,12.359,0,0,0-5.791-8.828H93.578A12.359,12.359,0,0,0,81.342,14.372,12.359,12.359,0,0,0,76.469,37.1a12.236,12.236,0,0,0-2.313,7.045,12.359,12.359,0,0,0,5.915,10.594h1.148a12.359,12.359,0,0,0,7.063-2.225,12.359,12.359,0,0,0,17.109-17.3,12.359,12.359,0,0,0,5.844-10.488Z" fill="#4b961f"/>
      <path id="Trazado_117966" data-name="Trazado 117966" d="M19.422,84.75H72.391v7.063H19.422Z" fill="#c89164"/>
      <path id="Trazado_117967" data-name="Trazado 117967" d="M22.953,88.281H72.391v3.531H22.953Z" fill="#aa6f45"/>
      <path id="Trazado_117968" data-name="Trazado 117968" d="M21.188,61.8H70.625V77.688H21.188Z" fill="#c89164"/>
      <path id="Trazado_117969" data-name="Trazado 117969" d="M24.719,65.328H70.625V77.688H24.719Z" fill="#aa6f45"/>
      <path id="Trazado_117970" data-name="Trazado 117970" d="M4.414,37.078H16.773v7.945a6.18,6.18,0,1,1-12.359,0Z" fill="#ffdc5d"/>
      <path id="Trazado_117971" data-name="Trazado 117971" d="M4.414,37.078H16.773v3.531H4.414Z" fill="#ffbe39"/>
      <path id="Trazado_117972" data-name="Trazado 117972" d="M15.891,30.016H5.3L1.766,37.078H19.422Z" fill="#c89164"/>
      <path id="Trazado_117973" data-name="Trazado 117973" d="M7.063,33.547,5.3,37.078H19.422l-1.766-3.531Z" fill="#aa6f45"/>
      <path id="Trazado_117974" data-name="Trazado 117974" d="M1.766,100.641H111.234v10.594H1.766Z" fill="#91e957"/>
      <path id="Trazado_117975" data-name="Trazado 117975" d="M1.766,104.172H111.234v7.063H1.766Z" fill="#82d246"/>
      <path id="Trazado_117976" data-name="Trazado 117976" d="M111.234,98.875H93.578v-42.5a11.707,11.707,0,0,0,1.766.124,14.125,14.125,0,0,0,14.125-14.125,13.948,13.948,0,0,0-1.766-6.692,14.125,14.125,0,0,0-5.738-24.719,14.125,14.125,0,0,0-27.508,0,14.125,14.125,0,0,0-5.738,24.719,13.949,13.949,0,0,0-1.624,6.692A14.125,14.125,0,0,0,81.219,56.5a11.707,11.707,0,0,0,1.766-.124v42.5H68.859v-5.3h3.531a1.766,1.766,0,0,0,1.766-1.766V84.75a1.766,1.766,0,0,0-1.766-1.766h-5.3V79.453h3.531a1.766,1.766,0,0,0,1.766-1.766V61.8a1.766,1.766,0,0,0-1.766-1.766H21.188A1.766,1.766,0,0,0,19.422,61.8V77.688a1.766,1.766,0,0,0,1.766,1.766h3.531v3.531h-5.3a1.766,1.766,0,0,0-1.766,1.766v7.063a1.766,1.766,0,0,0,1.766,1.766h3.531v5.3H12.359V52.757a7.945,7.945,0,0,0,6.18-7.733v-6.18h.883a1.766,1.766,0,0,0,1.571-2.56l-3.531-7.062a1.766,1.766,0,0,0-1.571-.971H5.3a1.766,1.766,0,0,0-1.571.971L.194,36.284a1.766,1.766,0,0,0,1.571,2.56h.883v6.18a7.945,7.945,0,0,0,6.18,7.733V98.875H1.766A1.766,1.766,0,0,0,0,100.641v10.594A1.766,1.766,0,0,0,1.766,113H111.234A1.766,1.766,0,0,0,113,111.234V100.641A1.766,1.766,0,0,0,111.234,98.875ZM81.219,52.969a10.594,10.594,0,1,1,0-21.187,1.766,1.766,0,0,0,0-3.531,14.125,14.125,0,0,0-10.347,4.555A10.59,10.59,0,0,1,82.984,15.537a1.764,1.764,0,1,0,1.766-3.055,13.984,13.984,0,0,0-6.445-1.766,10.594,10.594,0,0,1,20.464,2,1.766,1.766,0,0,0,1.518,1.518,10.594,10.594,0,0,1,6.074,17.956,10.47,10.47,0,0,1-7.486,3.125,1.766,1.766,0,0,0,0,3.531,13.6,13.6,0,0,0,5.862-1.324A10.594,10.594,0,0,1,89.288,51.062a1.766,1.766,0,0,0-2.013,0,10.488,10.488,0,0,1-6.056,1.907Zm8.828,2.49V98.875H86.516V55.458a13.612,13.612,0,0,0,1.766-.865,13.613,13.613,0,0,0,1.766.865ZM22.953,75.922V63.563H68.859V75.922Zm40.609,3.531v3.531H60.031V79.453Zm-7.062,0v3.531H35.313V79.453Zm-24.719,0v3.531H28.25V79.453ZM21.188,90.047V86.516H70.625v3.531Zm44.141,3.531v5.3H61.8v-5.3Zm-7.062,0v5.3H33.547v-5.3Zm-28.25,0v5.3H26.484v-5.3ZM4.626,35.313l1.766-3.531h8.4l1.766,3.531ZM6.18,45.023v-6.18h8.828v6.18a4.414,4.414,0,0,1-8.828,0Zm103.289,64.445H3.531v-7.062H109.469Z"/>
      <path id="Trazado_117977" data-name="Trazado 117977" d="M26.484,8.828a3.92,3.92,0,0,1,3.531,2.189l.194.371a1.766,1.766,0,0,0,3.143,0l.194-.371a3.92,3.92,0,0,1,3.531-2.189,1.766,1.766,0,0,0,0-3.531,7.486,7.486,0,0,0-5.3,2.189,7.486,7.486,0,0,0-5.3-2.189,1.766,1.766,0,0,0,0,3.531Z"/>
      <path id="Trazado_117978" data-name="Trazado 117978" d="M40.609,17.656a3.92,3.92,0,0,1,3.531,2.189l.194.371a1.766,1.766,0,0,0,3.143,0l.194-.371A3.92,3.92,0,0,1,51.2,17.656a1.766,1.766,0,0,0,0-3.531,7.486,7.486,0,0,0-5.3,2.189,7.486,7.486,0,0,0-5.3-2.189,1.766,1.766,0,0,0,0,3.531Z"/>
    </g>
  </g>
</svg>
