<svg xmlns="http://www.w3.org/2000/svg" xmlns:xlink="http://www.w3.org/1999/xlink" width="110" height="110" viewBox="0 0 110 110">
  <defs>
    <clipPath id="clip-path">
      <rect id="Rectángulo_34519" data-name="Rectángulo 34519" width="110" height="110" transform="translate(745 544)" fill="#fff"/>
    </clipPath>
  </defs>
  <g id="_2" data-name="2" transform="translate(-745 -544)" clip-path="url(#clip-path)">
    <g id="gimnasio" transform="translate(745 544)">
      <g id="Grupo_83581" data-name="Grupo 83581">
        <path id="Trazado_117417" data-name="Trazado 117417" d="M98.791,30.236H12.069V5.477A3.375,3.375,0,0,1,15.444,2.1H95.415a3.375,3.375,0,0,1,3.375,3.375Z" fill="#f7f7f7"/>
      </g>
      <g id="Grupo_83582" data-name="Grupo 83582">
        <path id="Trazado_117418" data-name="Trazado 117418" d="M95.415,2.1H88.97a3.375,3.375,0,0,1,3.375,3.375V30.235h6.445V5.477A3.375,3.375,0,0,0,95.415,2.1Z" fill="#e8e8e8"/>
      </g>
      <g id="Grupo_83583" data-name="Grupo 83583">
        <path id="Trazado_117419" data-name="Trazado 117419" d="M84.355,24.43H82.427a2.073,2.073,0,0,1-2.073-2.073V10.2a2.073,2.073,0,0,1,2.073-2.073h1.928A2.073,2.073,0,0,1,86.428,10.2v12.16A2.073,2.073,0,0,1,84.355,24.43Z" fill="#a29aa5"/>
      </g>
      <g id="Grupo_83584" data-name="Grupo 83584">
        <path id="Trazado_117420" data-name="Trazado 117420" d="M65.815,13.521H80.354v5.511H65.815Z" transform="translate(146.169 32.552) rotate(180)" fill="#766d78"/>
      </g>
      <g id="Grupo_83585" data-name="Grupo 83585">
        <path id="Trazado_117421" data-name="Trazado 117421" d="M89.273,19.032H86.518V13.521h2.755a2.755,2.755,0,1,1,0,5.511Z" fill="#766d78"/>
      </g>
      <g id="Grupo_83586" data-name="Grupo 83586">
        <path id="Trazado_117422" data-name="Trazado 117422" d="M61.814,24.43h1.928a2.073,2.073,0,0,0,2.073-2.073V10.2a2.073,2.073,0,0,0-2.073-2.073H61.814A2.073,2.073,0,0,0,59.741,10.2v12.16A2.073,2.073,0,0,0,61.814,24.43Z" fill="#a29aa5"/>
      </g>
      <g id="Grupo_83587" data-name="Grupo 83587">
        <path id="Trazado_117423" data-name="Trazado 117423" d="M56.9,19.032h2.755V13.521H56.9a2.755,2.755,0,0,0,0,5.511Z" fill="#766d78"/>
      </g>
      <g id="Grupo_83588" data-name="Grupo 83588">
        <path id="Trazado_117424" data-name="Trazado 117424" d="M5.772,32.836h98.455V107.9H5.772Z" fill="#f7e365"/>
      </g>
      <g id="Grupo_83589" data-name="Grupo 83589">
        <path id="Trazado_117425" data-name="Trazado 117425" d="M97.782,32.836h6.445V107.9H97.782Z" fill="#f3d332"/>
      </g>
      <g id="Grupo_83590" data-name="Grupo 83590">
        <path id="Trazado_117426" data-name="Trazado 117426" d="M104.94,37.133H5.06a3.448,3.448,0,1,1,0-6.9h99.88a3.448,3.448,0,0,1,0,6.9Z" fill="#766d78"/>
      </g>
      <g id="Grupo_83591" data-name="Grupo 83591">
        <path id="Trazado_117427" data-name="Trazado 117427" d="M5.772,91.1h98.455v16.8H5.772Z" fill="#dbb72b"/>
      </g>
      <g id="Grupo_83592" data-name="Grupo 83592">
        <path id="Trazado_117428" data-name="Trazado 117428" d="M97.287,91.1h6.94v16.8h-6.94Z" fill="#caa828"/>
      </g>
      <g id="Grupo_83593" data-name="Grupo 83593">
        <path id="Trazado_117429" data-name="Trazado 117429" d="M31.149,52.757H55V107.9H31.149Z" fill="#9ec8fc"/>
      </g>
      <g id="Grupo_83594" data-name="Grupo 83594">
        <path id="Trazado_117430" data-name="Trazado 117430" d="M55,52.757H78.851V107.9H55Z" fill="#9ec8fc"/>
      </g>
      <g id="Grupo_83595" data-name="Grupo 83595">
        <path id="Trazado_117431" data-name="Trazado 117431" d="M70.742,52.757h8.109V107.9H70.742Z" fill="#80b6fc"/>
      </g>
      <path id="Trazado_117432" data-name="Trazado 117432" d="M49.654,79.92v3.545" fill="#9ec8fc"/>
      <path id="Trazado_117433" data-name="Trazado 117433" d="M60.459,79.92v3.545" fill="#9ec8fc"/>
      <g id="Grupo_83596" data-name="Grupo 83596">
        <path id="Trazado_117434" data-name="Trazado 117434" d="M21.684,12.249c-.922,0-1.456.518-1.456,1.618v4.287c0,1.1.534,1.618,1.44,1.618s1.456-.518,1.456-1.618V17.6h-.955c-.485,0-.76-.469-.76-.971,0-.469.275-.971.76-.971h2.718a.747.747,0,0,1,.76.793v1.7c0,2.783-1.747,3.818-3.98,3.818S17.7,20.937,17.7,18.154V13.867c0-2.783,1.763-3.818,3.883-3.818,2.313,0,4.061,1.165,4.061,3.219,0,.971-.4,1.2-1.262,1.2-.68,0-1.246-.178-1.262-.76s-.065-1.456-1.44-1.456Z"/>
        <path id="Trazado_117435" data-name="Trazado 117435" d="M30.566,17.038a.418.418,0,0,0-.065-.226l-3.349-5.549a.381.381,0,0,1-.032-.178c0-.6,1.019-1.035,1.715-1.035a.728.728,0,0,1,.728.469l2.265,4.158,2.249-4.158a.714.714,0,0,1,.728-.469c.7,0,1.715.437,1.715,1.035a.38.38,0,0,1-.032.178l-3.333,5.549a.42.42,0,0,0-.065.226V21.1c0,.518-.631.777-1.262.777s-1.262-.259-1.262-.777V17.038Z"/>
        <path id="Trazado_117436" data-name="Trazado 117436" d="M44.14,17.685a.928.928,0,0,1-.841.469.829.829,0,0,1-.793-.469L40.969,14.87V21.1c0,.518-.631.777-1.262.777s-1.262-.259-1.262-.777V11.31a1.168,1.168,0,0,1,1.262-1.262c.906,0,1.294.1,1.957,1.262l1.666,2.912L45,11.31c.663-1.165,1.052-1.262,1.958-1.262a1.161,1.161,0,0,1,1.262,1.262V21.1c0,.518-.631.777-1.262.777s-1.262-.259-1.262-.777V15.032Z"/>
      </g>
      <g id="Grupo_83597" data-name="Grupo 83597">
        <path id="Trazado_117437" data-name="Trazado 117437" d="M49.654,85.076a1.611,1.611,0,0,0,1.611-1.611V79.92a1.611,1.611,0,0,0-3.223,0v3.545A1.611,1.611,0,0,0,49.654,85.076Z"/>
        <path id="Trazado_117438" data-name="Trazado 117438" d="M60.459,85.076a1.611,1.611,0,0,0,1.611-1.611V79.92a1.611,1.611,0,0,0-3.223,0v3.545A1.611,1.611,0,0,0,60.459,85.076Z"/>
        <path id="Trazado_117439" data-name="Trazado 117439" d="M110,33.684a5.066,5.066,0,0,0-5.06-5.06H100.4V5.477A4.992,4.992,0,0,0,95.415.491H15.444a4.992,4.992,0,0,0-4.987,4.987V28.624H5.06a5.059,5.059,0,0,0-.9,10.038V74.37a1.611,1.611,0,0,0,3.223,0V38.744h95.233V54.93a1.611,1.611,0,1,0,3.223,0V38.662A5.067,5.067,0,0,0,110,33.684ZM13.68,5.477a1.766,1.766,0,0,1,1.764-1.764H95.415a1.766,1.766,0,0,1,1.764,1.764V28.624H13.68Zm91.26,30.044H5.06a1.837,1.837,0,1,1,0-3.674h99.88a1.837,1.837,0,0,1,0,3.674Z"/>
        <path id="Trazado_117440" data-name="Trazado 117440" d="M104.228,59.764a1.611,1.611,0,0,0-1.611,1.611V89.488H80.462V52.757a1.611,1.611,0,0,0-1.611-1.611h-47.7a1.611,1.611,0,0,0-1.611,1.611V89.488H7.384V80.816a1.611,1.611,0,0,0-3.223,0V107.9a1.611,1.611,0,0,0,1.611,1.611h98.455a1.611,1.611,0,0,0,1.611-1.611V61.376a1.612,1.612,0,0,0-1.612-1.612Zm-1.611,37.908h-3.21V92.71h3.21Zm-22.154,3.223H90.676v5.392H80.462Zm6.372-3.223V92.71h9.349v4.962ZM80.468,92.71h3.144v4.962h-3.15V92.71h.006ZM77.24,106.287H56.611V54.368H77.24ZM32.76,54.368H53.389v51.918H32.76ZM13.9,97.672V92.71h9.349v4.962Zm15.633,3.223v5.392H20.969v-5.392Zm0-3.223H26.476V92.71h3.061ZM10.682,92.71v4.962h-3.3V92.71Zm-3.3,8.184H17.746v5.392H7.384ZM93.9,106.287v-5.392h8.718v5.392H93.9Z"/>
        <path id="Trazado_117441" data-name="Trazado 117441" d="M56.9,20.643h1.233v1.713a3.689,3.689,0,0,0,3.685,3.685h1.928a3.689,3.689,0,0,0,3.685-3.685V20.643H78.742v1.713a3.689,3.689,0,0,0,3.685,3.685h1.928a3.689,3.689,0,0,0,3.685-3.685V20.643h1.233a4.367,4.367,0,1,0,0-8.733H88.04V10.2a3.689,3.689,0,0,0-3.685-3.685H82.427A3.689,3.689,0,0,0,78.742,10.2V11.91H67.426V10.2a3.689,3.689,0,0,0-3.685-3.685H61.814A3.689,3.689,0,0,0,58.129,10.2V11.91H56.9a4.367,4.367,0,1,0,0,8.733Zm31.233-5.511h1.144a1.144,1.144,0,1,1,0,2.288H88.129ZM81.965,10.2a.462.462,0,0,1,.462-.462h1.928a.463.463,0,0,1,.462.462v12.16a.462.462,0,0,1-.462.462H82.427a.463.463,0,0,1-.462-.462V10.2Zm-3.223,4.936V17.42H67.426V15.132ZM61.352,10.2a.462.462,0,0,1,.462-.462h1.928a.463.463,0,0,1,.462.462v12.16a.462.462,0,0,1-.462.462H61.814a.463.463,0,0,1-.462-.462ZM56.9,15.132H58.04V17.42H56.9a1.144,1.144,0,1,1,0-2.288Z"/>
      </g>
    </g>
  </g>
</svg>
