<svg xmlns="http://www.w3.org/2000/svg" xmlns:xlink="http://www.w3.org/1999/xlink" width="110" height="110" viewBox="0 0 110 110">
  <defs>
    <clipPath id="clip-path">
      <rect id="Rectángulo_34520" data-name="Rectángulo 34520" width="110" height="110" transform="translate(1165 544)" fill="#fff"/>
    </clipPath>
  </defs>
  <g id="_3" data-name="3" transform="translate(-1165 -544)" clip-path="url(#clip-path)">
    <g id="casa" transform="translate(1165 544)">
      <path id="Trazado_117442" data-name="Trazado 117442" d="M10.205,77.559H16.65v11.6H10.205Z" fill="#a35418"/>
      <circle id="Elipse_4777" data-name="Elipse 4777" cx="11.816" cy="11.816" r="11.816" transform="translate(1.611 57.578)" fill="#64cc56"/>
      <path id="Trazado_117443" data-name="Trazado 117443" d="M13.428,57.578a11.83,11.83,0,0,0-3.223.445,11.821,11.821,0,0,1,0,22.743,11.818,11.818,0,1,0,3.223-23.188Z" fill="#50a645"/>
      <path id="Trazado_117444" data-name="Trazado 117444" d="M93.35,77.559h6.445v11.6H93.35Z" fill="#a35418"/>
      <circle id="Elipse_4778" data-name="Elipse 4778" cx="11.816" cy="11.816" r="11.816" transform="translate(84.756 57.578)" fill="#64cc56"/>
      <path id="Trazado_117445" data-name="Trazado 117445" d="M96.572,57.578a11.83,11.83,0,0,0-3.223.445,11.821,11.821,0,0,1,0,22.743,11.818,11.818,0,1,0,3.223-23.188Z" fill="#50a645"/>
      <path id="Trazado_117446" data-name="Trazado 117446" d="M87.227,89.16H22.773V42.136L55,17.4,87.227,42.134Z" fill="#ffd180"/>
      <path id="Trazado_117447" data-name="Trazado 117447" d="M80.781,37.188V89.16h6.445V42.134Z" fill="#ffba63"/>
      <path id="Trazado_117448" data-name="Trazado 117448" d="M93.915,42.99,56.962,14.631a3.223,3.223,0,0,0-3.924,0L16.085,42.99A3.223,3.223,0,0,0,20.009,48.1L55,21.25,89.991,48.1a3.223,3.223,0,1,0,3.924-5.113Z" fill="#ff7043"/>
      <path id="Trazado_117449" data-name="Trazado 117449" d="M104.951,96.035H5.049a3.438,3.438,0,0,1,0-6.875h99.9a3.438,3.438,0,0,1,0,6.875Z" fill="#a35418"/>
      <path id="Trazado_117450" data-name="Trazado 117450" d="M104.951,89.16H98.506a3.438,3.438,0,0,1,0,6.875h6.445a3.438,3.438,0,0,0,0-6.875Z" fill="#8c4815"/>
      <path id="Trazado_117451" data-name="Trazado 117451" d="M32.012,58.223H51.348V89.16H32.012Z" fill="#bf6724"/>
      <path id="Trazado_117452" data-name="Trazado 117452" d="M44.9,58.223h6.445V89.16H44.9Z" fill="#a35418"/>
      <path id="Trazado_117453" data-name="Trazado 117453" d="M79.277,77.559H57.793a.859.859,0,0,1-.859-.859V71.973a.859.859,0,0,1,.859-.859H79.277a.859.859,0,0,1,.859.859V76.7A.859.859,0,0,1,79.277,77.559Z" fill="#ff7043"/>
      <path id="Trazado_117454" data-name="Trazado 117454" d="M79.277,71.113H72.832a.859.859,0,0,1,.859.859V76.7a.859.859,0,0,1-.859.859h6.445a.859.859,0,0,0,.859-.859V71.973A.859.859,0,0,0,79.277,71.113Z" fill="#ff5722"/>
      <path id="Trazado_117455" data-name="Trazado 117455" d="M59.082,58.223H77.988V71.113H59.082Z" fill="#b2ebf2"/>
      <path id="Trazado_117456" data-name="Trazado 117456" d="M71.543,58.223h6.445V71.113H71.543Z" fill="#80deea"/>
      <circle id="Elipse_4779" data-name="Elipse 4779" cx="7.52" cy="7.52" r="7.52" transform="translate(47.48 32.987)" fill="#b2ebf2"/>
      <g id="Grupo_83598" data-name="Grupo 83598">
        <path id="Trazado_117457" data-name="Trazado 117457" d="M104.951,87.549h-3.545v-5.63A13.427,13.427,0,1,0,88.838,58.413V49.249l.172.132a4.833,4.833,0,0,0,6.778-.892,4.84,4.84,0,0,0-.892-6.778l-13-9.981a1.611,1.611,0,0,0-1.962,2.557l13,9.981a1.612,1.612,0,0,1-.983,2.89,1.6,1.6,0,0,1-.979-.333L55.981,19.97a1.611,1.611,0,0,0-1.962,0L19.028,46.824a1.611,1.611,0,1,1-1.962-2.557l36.953-28.36a1.614,1.614,0,0,1,1.962,0L74.477,30.1a1.611,1.611,0,0,0,1.962-2.557L57.943,13.35a4.842,4.842,0,0,0-5.886,0L15.1,41.711a4.834,4.834,0,1,0,5.886,7.67l.172-.132v9.164A13.428,13.428,0,1,0,8.594,81.918v5.63H5.049a5.049,5.049,0,0,0,0,10.1h84.3a1.611,1.611,0,0,0,0-3.223H5.049a1.826,1.826,0,0,1,0-3.652h99.9a1.826,1.826,0,0,1,0,3.652H96.311a1.611,1.611,0,0,0,0,3.223h8.641a5.049,5.049,0,0,0,0-10.1Zm-8.379-28.36A10.205,10.205,0,1,1,88.838,76.05V62.738a10.138,10.138,0,0,1,7.734-3.549ZM88.838,80.375a13.254,13.254,0,0,0,2.9,1.55v5.623h-2.9Zm-67.676,0v7.174h-2.9V81.925a13.254,13.254,0,0,0,2.9-1.55ZM3.223,69.394a10.2,10.2,0,0,1,17.939-6.656V76.05A10.2,10.2,0,0,1,3.223,69.394Zm8.594,18.155V82.722a13.477,13.477,0,0,0,1.611.1,13.667,13.667,0,0,0,1.611-.1v4.823H11.816Zm41.143,0V58.222a1.611,1.611,0,0,0-1.611-1.611H32.012A1.611,1.611,0,0,0,30.4,58.222V77.294a1.611,1.611,0,0,0,3.223,0V59.833H49.736V87.549H33.623V84.213a1.611,1.611,0,0,0-3.223,0v3.336H24.385V46.775L55,23.279l30.615,23.5V87.549Zm42,0V82.725a13.667,13.667,0,0,0,1.611.1,13.477,13.477,0,0,0,1.611-.1v4.827H94.961Z"/>
        <path id="Trazado_117458" data-name="Trazado 117458" d="M79.6,69.525v-11.3a1.611,1.611,0,0,0-1.611-1.611H59.082a1.611,1.611,0,0,0-1.611,1.611v11.3a2.473,2.473,0,0,0-2.148,2.447V76.7a2.474,2.474,0,0,0,2.471,2.471H79.277A2.474,2.474,0,0,0,81.748,76.7V71.972A2.473,2.473,0,0,0,79.6,69.525ZM76.377,69.5h-6.23V59.833h6.23ZM60.693,59.833h6.23V69.5h-6.23ZM78.525,75.947H58.545V72.724h19.98Z"/>
        <path id="Trazado_117459" data-name="Trazado 117459" d="M64.131,40.505A9.131,9.131,0,1,0,55,49.636a9.141,9.141,0,0,0,9.131-9.131Zm-3.42-1.512h-4.1V34.822A5.93,5.93,0,0,1,60.711,38.993Zm-7.323-4.171v4.171h-4.1A5.93,5.93,0,0,1,53.389,34.822Zm-4.044,7.394h4.044v3.973A5.931,5.931,0,0,1,49.345,42.216Zm7.266,3.973V42.216h4.044A5.931,5.931,0,0,1,56.611,46.188Z"/>
      </g>
    </g>
  </g>
</svg>
