<svg id="audio" xmlns="http://www.w3.org/2000/svg" width="111.667" height="111.667" viewBox="0 0 111.667 111.667">
  <path id="Trazado_118266" data-name="Trazado 118266" d="M108.944,9.861V97.333a5.583,5.583,0,0,1-5.583,5.583H6.583A5.583,5.583,0,0,1,1,97.333V9.861L2.861,8H107.083Z" transform="translate(0.861 6.889)" fill="#e4f1ff"/>
  <path id="Trazado_118267" data-name="Trazado 118267" d="M108.944,6.583v9.306H1V6.583A5.583,5.583,0,0,1,6.583,1h96.778a5.583,5.583,0,0,1,5.583,5.583Z" transform="translate(0.861 0.861)" fill="#6e7689"/>
  <path id="Trazado_118268" data-name="Trazado 118268" d="M28,43.85h7.444V57.157H28Z" transform="translate(24.111 37.76)" fill="#a3bdce"/>
  <path id="Trazado_118269" data-name="Trazado 118269" d="M25.722,50H48.056a3.722,3.722,0,0,1,3.722,3.722v1.861a1.861,1.861,0,0,1-1.861,1.861H23.861A1.861,1.861,0,0,1,22,55.583V53.722A3.722,3.722,0,0,1,25.722,50Z" transform="translate(18.944 43.055)" fill="#b5cedd"/>
  <rect id="Rectángulo_34650" data-name="Rectángulo 34650" width="34" height="49" rx="9" transform="translate(39 25.667)" fill="#6e7689"/>
  <g id="Grupo_83995" data-name="Grupo 83995">
    <path id="Trazado_118270" data-name="Trazado 118270" d="M104.222,0H7.444A7.444,7.444,0,0,0,0,7.444v16.75a1.861,1.861,0,0,0,3.722,0V18.611H107.944v85.611a3.722,3.722,0,0,1-3.722,3.722H7.444a3.722,3.722,0,0,1-3.722-3.722V33.5A1.861,1.861,0,0,0,0,33.5v70.722a7.444,7.444,0,0,0,7.444,7.444h96.778a7.444,7.444,0,0,0,7.444-7.444V7.444A7.444,7.444,0,0,0,104.222,0Zm3.722,14.889H3.722V7.444A3.722,3.722,0,0,1,7.444,3.722h96.778a3.722,3.722,0,0,1,3.722,3.722Z" fill="#12263f"/>
    <path id="Trazado_118271" data-name="Trazado 118271" d="M7.722,4H5.861a1.861,1.861,0,0,0,0,3.722H7.722A1.861,1.861,0,0,0,7.722,4Z" transform="translate(3.444 3.444)" fill="#12263f"/>
    <path id="Trazado_118272" data-name="Trazado 118272" d="M12.722,4H10.861a1.861,1.861,0,1,0,0,3.722h1.861a1.861,1.861,0,1,0,0-3.722Z" transform="translate(7.75 3.444)" fill="#12263f"/>
    <path id="Trazado_118273" data-name="Trazado 118273" d="M17.722,4H15.861a1.861,1.861,0,1,0,0,3.722h1.861a1.861,1.861,0,1,0,0-3.722Z" transform="translate(12.056 3.444)" fill="#12263f"/>
    <path id="Trazado_118274" data-name="Trazado 118274" d="M61.028,4H49.861a1.861,1.861,0,0,0,0,3.722H61.028a1.861,1.861,0,0,0,0-3.722Z" transform="translate(41.333 3.444)" fill="#12263f"/>
    <path id="Trazado_118275" data-name="Trazado 118275" d="M42.056,13A18.632,18.632,0,0,0,23.444,31.611V42.778H19.722V40.917a1.861,1.861,0,0,0-3.722,0V46.5A26.089,26.089,0,0,0,36.472,71.938V80H30.889a5.583,5.583,0,0,0-5.583,5.583v1.861a3.722,3.722,0,0,0,3.722,3.722H55.083a3.722,3.722,0,0,0,3.722-3.722V85.583A5.583,5.583,0,0,0,53.222,80H47.639V71.938A26.089,26.089,0,0,0,68.111,46.5V40.917a1.861,1.861,0,0,0-3.722,0v1.861H60.667V31.611A18.632,18.632,0,0,0,42.056,13ZM53.222,83.722a1.861,1.861,0,0,1,1.861,1.861v1.861H29.028V85.583a1.861,1.861,0,0,1,1.861-1.861ZM40.194,80V72.461c.618.045,1.232.095,1.861.095s1.243-.05,1.861-.095V80ZM64.389,46.5a22.333,22.333,0,0,1-44.667,0h3.722a18.611,18.611,0,0,0,37.222,0ZM49.5,33.472h7.444V44.639H49.5a1.861,1.861,0,1,0,0,3.722h7.316a14.876,14.876,0,0,1-29.521,0h7.316a1.861,1.861,0,0,0,0-3.722H27.167V33.472h7.444a1.861,1.861,0,0,0,0-3.722H27.3a14.876,14.876,0,0,1,29.521,0H49.5a1.861,1.861,0,1,0,0,3.722Z" transform="translate(13.778 11.194)" fill="#12263f"/>
    <path id="Trazado_118276" data-name="Trazado 118276" d="M23.258,13.6A25.936,25.936,0,0,0,16,31.639a1.861,1.861,0,0,0,3.722,0A22.237,22.237,0,0,1,25.94,16.177,1.861,1.861,0,1,0,23.258,13.6Z" transform="translate(13.778 11.167)" fill="#12263f"/>
    <path id="Trazado_118277" data-name="Trazado 118277" d="M17.619,13.776A30.36,30.36,0,0,0,12,31.611a1.861,1.861,0,1,0,3.722,0,26.657,26.657,0,0,1,4.921-15.665,1.861,1.861,0,0,0-3.024-2.17Z" transform="translate(10.333 11.194)" fill="#12263f"/>
    <path id="Trazado_118278" data-name="Trazado 118278" d="M38.953,13.517a1.861,1.861,0,0,0-.054,2.632A22.237,22.237,0,0,1,45.117,31.61a1.861,1.861,0,1,0,3.722,0,25.936,25.936,0,0,0-7.258-18.038A1.861,1.861,0,0,0,38.953,13.517Z" transform="translate(33.05 11.195)" fill="#12263f"/>
    <path id="Trazado_118279" data-name="Trazado 118279" d="M50.3,33.472a1.861,1.861,0,0,0,1.861-1.861,30.36,30.36,0,0,0-5.619-17.835,1.861,1.861,0,1,0-3.024,2.17,26.657,26.657,0,0,1,4.921,15.665A1.861,1.861,0,0,0,50.3,33.472Z" transform="translate(37.173 11.194)" fill="#12263f"/>
  </g>
</svg>
