<svg xmlns="http://www.w3.org/2000/svg" width="315" height="248.51" viewBox="0 0 315 248.51">
  <g id="_33" data-name="33" transform="translate(-265 -3249.678)">
    <g id="Grupo_85023" data-name="Grupo 85023">
      <rect id="Rectángulo_34651" data-name="Rectángulo 34651" width="315" height="170" transform="translate(265 3328.188)" fill="#6b8dff"/>
      <g id="Grupo_84254" data-name="Grupo 84254" transform="translate(267.564 3211.015)">
        <g id="Grupo_84000" data-name="Grupo 84000" transform="translate(12.141 38.664)">
          <path id="Trazado_118280" data-name="Trazado 118280" d="M150.733,260.461q-1.2-.2-2.42-.329c-9.524-1-19.038,1.6-28.608,1.95-17.246.633-34.142-6.148-48.252-16.087S45.68,223.081,34.517,209.919c-12-14.151-24.265-30.864-22.133-49.294,1.554-13.433,10.581-24.753,20.16-34.3,12.117-12.078,25.638-22.591,38.6-33.715,12.9-11.062,23.176-25.694,36.23-36.083,25.318-20.152,64.385-22.921,93.363-9.99,18.593,8.3,33.9,22.359,50.84,33.646,12.12,8.075,25.648,15.244,33.431,27.553,9.43,14.915,8.31,34.063,5.164,51.426-5.324,29.378-16.037,58.687-36.5,80.429s-52.013,34.594-80.929,27.161C165.35,264.852,158.235,261.7,150.733,260.461Z" transform="translate(-12.141 -38.664)" fill="#ffd947"/>
        </g>
        <g id="Grupo_84229" data-name="Grupo 84229" transform="translate(32.71 60.126)">
          <g id="Grupo_84019" data-name="Grupo 84019" transform="translate(123.813)">
            <g id="Grupo_84002" data-name="Grupo 84002">
              <g id="Grupo_84001" data-name="Grupo 84001">
                <path id="Trazado_118281" data-name="Trazado 118281" d="M134.367,59.239c22.789-3.536,46.766,3.96,64.017,19.139a75.143,75.143,0,0,1,12.749,14.5c.608.906,2.084.054,1.471-.859-13.172-19.613-35.278-32.407-58.69-34.917a76.871,76.871,0,0,0-20,.491c-1.08.168-.621,1.809.453,1.642Z" transform="translate(-133.298 -56.674)" fill="#6791ce"/>
              </g>
            </g>
            <g id="Grupo_84004" data-name="Grupo 84004" transform="translate(82.05 42.88)">
              <g id="Grupo_84003" data-name="Grupo 84003">
                <path id="Trazado_118282" data-name="Trazado 118282" d="M202.261,93.937a50.331,50.331,0,0,1,5.552,16.349c.169,1.08,1.811.621,1.642-.453a51.72,51.72,0,0,0-5.724-16.756c-.526-.962-2-.1-1.471.86Z" transform="translate(-202.149 -92.656)" fill="#6791ce"/>
              </g>
            </g>
            <g id="Grupo_84006" data-name="Grupo 84006" transform="translate(34.117 12.469)">
              <g id="Grupo_84005" data-name="Grupo 84005">
                <path id="Trazado_118283" data-name="Trazado 118283" d="M162.292,68.771a72.708,72.708,0,0,1,21.9,26.415c.481.984,1.951.122,1.471-.86A74.468,74.468,0,0,0,163.151,67.3c-.879-.654-1.73.823-.859,1.471Z" transform="translate(-161.927 -67.137)" fill="#6791ce"/>
              </g>
            </g>
            <g id="Grupo_84008" data-name="Grupo 84008" transform="translate(6.916 5.766)">
              <g id="Grupo_84007" data-name="Grupo 84007">
                <path id="Trazado_118284" data-name="Trazado 118284" d="M139.922,63.255a34.243,34.243,0,0,1,13.085,1.929c1.036.366,1.481-1.28.453-1.643a35.579,35.579,0,0,0-13.538-1.989c-1.092.051-1.1,1.755,0,1.7Z" transform="translate(-139.101 -61.512)" fill="#3e9b7e"/>
              </g>
            </g>
            <g id="Grupo_84010" data-name="Grupo 84010" transform="translate(39.574 9.561)">
              <g id="Grupo_84009" data-name="Grupo 84009">
                <path id="Trazado_118285" data-name="Trazado 118285" d="M166.916,66.292a103.472,103.472,0,0,1,42.641,48.786c.417,1,2.066.558,1.642-.453a105.364,105.364,0,0,0-43.423-49.8.852.852,0,0,0-.86,1.471Z" transform="translate(-166.506 -64.697)" fill="#3e9b7e"/>
              </g>
            </g>
            <g id="Grupo_84012" data-name="Grupo 84012" transform="translate(31.235 20.294)">
              <g id="Grupo_84011" data-name="Grupo 84011">
                <path id="Trazado_118286" data-name="Trazado 118286" d="M159.613,74.99a121.63,121.63,0,0,1,12.378,37.823c.166,1.08,1.807.621,1.642-.453a123.053,123.053,0,0,0-12.55-38.231c-.506-.971-1.977-.111-1.471.86Z" transform="translate(-159.508 -73.703)" fill="#3e9b7e"/>
              </g>
            </g>
            <g id="Grupo_84014" data-name="Grupo 84014" transform="translate(56.541 55.106)">
              <g id="Grupo_84013" data-name="Grupo 84013">
                <path id="Trazado_118287" data-name="Trazado 118287" d="M180.78,103.993l2.114,6.4a.87.87,0,0,0,1.048.595.861.861,0,0,0,.595-1.048l-2.114-6.4a.871.871,0,0,0-1.047-.595.859.859,0,0,0-.595,1.047Z" transform="translate(-180.744 -102.916)" fill="#3e9b7e"/>
              </g>
            </g>
            <g id="Grupo_84016" data-name="Grupo 84016" transform="translate(28.32 14.48)">
              <g id="Grupo_84015" data-name="Grupo 84015">
                <path id="Trazado_118288" data-name="Trazado 118288" d="M157.358,70.226a72.709,72.709,0,0,1,22.884,30.809c.392,1.012,2.039.572,1.642-.453a74.309,74.309,0,0,0-23.321-31.561c-.853-.67-2.066.528-1.2,1.2Z" transform="translate(-157.062 -68.825)" fill="#f85955"/>
              </g>
            </g>
            <g id="Grupo_84018" data-name="Grupo 84018" transform="translate(21.38 3.201)">
              <g id="Grupo_84017" data-name="Grupo 84017">
                <path id="Trazado_118289" data-name="Trazado 118289" d="M151.684,60.91a90.083,90.083,0,0,1,40.45,35.459A87.585,87.585,0,0,1,199,110.294c.392,1.011,2.039.572,1.642-.453a91.836,91.836,0,0,0-34.084-42.678,88.823,88.823,0,0,0-14.018-7.723c-.994-.437-1.861,1.03-.859,1.471Z" transform="translate(-151.239 -59.359)" fill="#f85955"/>
              </g>
            </g>
          </g>
          <g id="Grupo_84200" data-name="Grupo 84200" transform="translate(0 0.652)">
            <g id="Grupo_84195" data-name="Grupo 84195">
              <g id="Grupo_84020" data-name="Grupo 84020" transform="translate(0 46.444)">
                <path id="Trazado_118290" data-name="Trazado 118290" d="M98.216,179.8c-8.185,5.879-18.188,8.723-28.163,10.143C62.706,190.99,55.075,191.3,48,189.066c-10.137-3.194-18.7-12.608-18.6-23.236a21.257,21.257,0,0,1,17.176-20.1c-4.031-7.634-1.224-18.151,6.075-22.76s18.5-2.244,23.661,4.676a66.332,66.332,0,0,1,50.176-31.437c3.606-.321,5.161,4.644,5.917,8.185s.247,7.213-.265,10.8q-2.715,19.016-5.429,38.033c-.527,3.693-1.117,7.547-3.3,10.575-1.921,2.672-4.861,4.39-7.713,6.032L98.274,179.863C98.437,179.341,98.052,180.324,98.216,179.8Z" transform="translate(-29.401 -96.194)" fill="#173449"/>
              </g>
              <g id="Grupo_84021" data-name="Grupo 84021" transform="translate(26.727 98.864)">
                <path id="Trazado_118291" data-name="Trazado 118291" d="M126.925,234.126c3.9-11.115-2.478-23.342-.95-35.02,1-7.658,5.371-14.71,5.485-22.432a41.489,41.489,0,0,0-1.631-10.407c-2.286-9.321-4.806-19.087-11.376-26.084.652,4.475-1.809,7.708-4.326,11.466a34.488,34.488,0,0,1-22.092,14.537c-3.56.66-7.251.76-10.659,1.982-7.288,2.615-11.825,9.715-15.814,16.35a86.888,86.888,0,0,0-7.441,14.323c-1.914,5.166-2.826,10.641-3.728,16.075l-2.288,13.8a8.74,8.74,0,0,0,.055,4.549,7.559,7.559,0,0,0,1.667,2.391c6.8,7.2,17.032,10.369,26.933,10.545s19.637-2.32,29.183-4.954C115.917,239.6,124.875,239.972,126.925,234.126Z" transform="translate(-51.829 -140.182)" fill="#3e9b7e"/>
              </g>
              <g id="Grupo_84022" data-name="Grupo 84022" transform="translate(15.911 108.179)">
                <path id="Trazado_118292" data-name="Trazado 118292" d="M64.593,148a94.3,94.3,0,0,0-21.825,61.737c.086,4.638.852,9.887,4.646,12.558a14.908,14.908,0,0,0,6.305,2.114c18.482,3,37.361.418,55.9-2.164a65.772,65.772,0,0,1,1.308-11.072c-12.071-2.557-24.25-6.167-36.319-8.724a4.881,4.881,0,0,1-2.635-1.143,4.525,4.525,0,0,1-.961-2.556,30.706,30.706,0,0,1,1.965-15.721c1.406-3.452,3.444-6.646,4.546-10.207C80.5,163.225,73.773,152.074,64.593,148Z" transform="translate(-42.753 -147.998)" fill="#fcc0b4"/>
              </g>
              <g id="Grupo_84056" data-name="Grupo 84056" transform="translate(49.908 48.138)">
                <g id="Grupo_84023" data-name="Grupo 84023">
                  <path id="Trazado_118293" data-name="Trazado 118293" d="M103.97,143.058c.975-5.776,1.062-7.593,2.165-13.128,3.655,1.451,8.2,2.729,12.135,1.339,2.723-.96,2.874-5.091,3.542-7.9A53.615,53.615,0,0,0,122.8,104a8.442,8.442,0,0,0-1.275-3.961,6.492,6.492,0,0,0-4.376-2.313,12.291,12.291,0,0,0-9.323,2.717,16.015,16.015,0,0,0-5.23,8.319,3.851,3.851,0,0,0-4.458-3.17,6.656,6.656,0,0,0-3.52,2.538,8.677,8.677,0,0,0-1.381,2.181,5.468,5.468,0,0,0,7.238,7.073c-3.106,6.763-6.816,14.908-9.922,21.672l-19.273,5.794s16.1,17.277,31.835,18.148c0,0,9.252-9.8,12.985-11.762Z" transform="translate(-71.281 -97.616)" fill="#fcc0b4"/>
                </g>
                <g id="Grupo_84028" data-name="Grupo 84028" transform="translate(25.26 11.508)">
                  <g id="Grupo_84025" data-name="Grupo 84025">
                    <g id="Grupo_84024" data-name="Grupo 84024">
                      <path id="Trazado_118294" data-name="Trazado 118294" d="M95.895,107.274a3.756,3.756,0,0,0-2.883,5.692.251.251,0,0,0,.434-.254,3.255,3.255,0,0,1,2.449-4.935c.318-.035.322-.536,0-.5Z" transform="translate(-92.478 -107.273)" fill="#173449"/>
                    </g>
                  </g>
                  <g id="Grupo_84027" data-name="Grupo 84027" transform="translate(0.691 2.2)">
                    <g id="Grupo_84026" data-name="Grupo 84026">
                      <path id="Trazado_118295" data-name="Trazado 118295" d="M93.242,109.614a1.562,1.562,0,0,1,.821.621,1.544,1.544,0,0,1,.272,1.027.253.253,0,0,0,.25.251.256.256,0,0,0,.251-.251,2.11,2.11,0,0,0-1.461-2.133.252.252,0,0,0-.133.485Z" transform="translate(-93.058 -109.119)" fill="#173449"/>
                    </g>
                  </g>
                </g>
                <g id="Grupo_84030" data-name="Grupo 84030" transform="translate(24.804 44.029)">
                  <g id="Grupo_84029" data-name="Grupo 84029">
                    <path id="Trazado_118296" data-name="Trazado 118296" d="M94.356,136.527a4.194,4.194,0,0,0-1.884-1.933.251.251,0,0,0-.254.434,3.724,3.724,0,0,1,1.7,1.753.253.253,0,0,0,.343.089.258.258,0,0,0,.091-.343Z" transform="translate(-92.095 -134.563)" fill="#173449"/>
                  </g>
                </g>
                <g id="Grupo_84032" data-name="Grupo 84032" transform="translate(28.885 44.73)">
                  <g id="Grupo_84031" data-name="Grupo 84031">
                    <path id="Trazado_118297" data-name="Trazado 118297" d="M95.985,137.309a4.278,4.278,0,0,1,1.552-1.691.251.251,0,0,0-.254-.434,4.782,4.782,0,0,0-1.732,1.871.256.256,0,0,0,.091.343.254.254,0,0,0,.343-.089Z" transform="translate(-95.52 -135.15)" fill="#173449"/>
                  </g>
                </g>
                <g id="Grupo_84055" data-name="Grupo 84055" transform="translate(29.884 7.992)">
                  <g id="Grupo_84049" data-name="Grupo 84049">
                    <g id="Grupo_84042" data-name="Grupo 84042" transform="translate(8.225)">
                      <g id="Grupo_84037" data-name="Grupo 84037" transform="translate(1.313 4.79)">
                        <g id="Grupo_84034" data-name="Grupo 84034">
                          <g id="Grupo_84033" data-name="Grupo 84033">
                            <path id="Trazado_118298" data-name="Trazado 118298" d="M104.392,108.582a4.331,4.331,0,0,0,1.391,3.792,1.9,1.9,0,0,0,1.758.428,2.38,2.38,0,0,0,1.258-1.144,17.76,17.76,0,0,0,1-2.289c.122-.3-.363-.429-.485-.133a15.687,15.687,0,0,1-.982,2.23,1.49,1.49,0,0,1-1.519.884,2.492,2.492,0,0,1-1.534-1.444,4.132,4.132,0,0,1-.384-2.323c.038-.321-.465-.318-.5,0Z" transform="translate(-104.362 -108.342)" fill="#173449"/>
                          </g>
                        </g>
                        <g id="Grupo_84036" data-name="Grupo 84036" transform="translate(8.512 0.822)">
                          <g id="Grupo_84035" data-name="Grupo 84035">
                            <path id="Trazado_118299" data-name="Trazado 118299" d="M111.509,109.789c.189,1.142.491,2.5,1.64,3.048a1.908,1.908,0,0,0,1.5.12,1.809,1.809,0,0,0,1.025-1.269,8.736,8.736,0,0,0,.2-1.053l.207-1.288c.051-.316-.433-.452-.484-.133a21.847,21.847,0,0,1-.4,2.312,1.2,1.2,0,0,1-1.183,1.033c-1.467-.05-1.833-1.754-2.024-2.9-.052-.318-.536-.184-.484.133Z" transform="translate(-111.505 -109.032)" fill="#173449"/>
                          </g>
                        </g>
                      </g>
                      <g id="Grupo_84039" data-name="Grupo 84039">
                        <g id="Grupo_84038" data-name="Grupo 84038">
                          <path id="Trazado_118300" data-name="Trazado 118300" d="M103.874,106.982a9.491,9.491,0,0,1,4.4-1.864.412.412,0,0,0,.285-.5.419.419,0,0,0-.5-.286,9.993,9.993,0,0,0-4.6,1.947.421.421,0,0,0-.147.559.41.41,0,0,0,.559.147Z" transform="translate(-103.26 -104.322)" fill="#173449"/>
                        </g>
                      </g>
                      <g id="Grupo_84041" data-name="Grupo 84041" transform="translate(10.03 0.686)">
                        <g id="Grupo_84040" data-name="Grupo 84040">
                          <path id="Trazado_118301" data-name="Trazado 118301" d="M112.085,105.718a11.458,11.458,0,0,1,3.015.807.412.412,0,0,0,.5-.286.42.42,0,0,0-.285-.5,12.246,12.246,0,0,0-3.233-.835.411.411,0,0,0-.409.409.418.418,0,0,0,.409.409Z" transform="translate(-111.676 -104.898)" fill="#173449"/>
                        </g>
                      </g>
                    </g>
                    <g id="Grupo_84044" data-name="Grupo 84044" transform="translate(0 15.847)">
                      <g id="Grupo_84043" data-name="Grupo 84043">
                        <path id="Trazado_118302" data-name="Trazado 118302" d="M96.383,117.862a13.21,13.21,0,0,0,.2,3.251,5.47,5.47,0,0,0,1.106,2.674,9.137,9.137,0,0,0,2.3,1.662,27.612,27.612,0,0,0,3,1.519c.293.128.549-.305.253-.434a27.936,27.936,0,0,1-2.641-1.314,11.255,11.255,0,0,1-2.354-1.584,4.7,4.7,0,0,1-1.157-2.574,12.7,12.7,0,0,1-.2-3.2c.02-.323-.483-.322-.5,0Z" transform="translate(-96.358 -117.62)" fill="#173449"/>
                      </g>
                    </g>
                    <g id="Grupo_84045" data-name="Grupo 84045" transform="translate(7.195 8.488)">
                      <ellipse id="Elipse_4786" data-name="Elipse 4786" cx="1.476" cy="2.276" rx="1.476" ry="2.276" transform="matrix(0.209, -0.978, 0.978, 0.209, 0, 2.886)" fill="#f47471"/>
                    </g>
                    <g id="Grupo_84046" data-name="Grupo 84046" transform="translate(18.549 10.226)">
                      <ellipse id="Elipse_4787" data-name="Elipse 4787" cx="1.476" cy="1.357" rx="1.476" ry="1.357" transform="matrix(0.209, -0.978, 0.978, 0.209, 0, 2.886)" fill="#f47471"/>
                    </g>
                    <g id="Grupo_84048" data-name="Grupo 84048" transform="translate(16.418 10.533)">
                      <g id="Grupo_84047" data-name="Grupo 84047">
                        <path id="Trazado_118303" data-name="Trazado 118303" d="M110.573,113.754a2,2,0,0,1,1.126-.023,1.074,1.074,0,0,1,.7.607.807.807,0,0,1-.067.823.742.742,0,0,1-.306.214,1,1,0,0,1-.449.049,2.046,2.046,0,0,1-.539-.128,2.829,2.829,0,0,1-.527-.271.251.251,0,0,0-.254.434c.672.433,1.758.761,2.4.092a1.272,1.272,0,0,0,.272-1.219,1.53,1.53,0,0,0-.851-.993,2.4,2.4,0,0,0-1.636-.07.251.251,0,0,0,.133.484Z" transform="translate(-110.135 -113.161)" fill="#173449"/>
                      </g>
                    </g>
                  </g>
                  <g id="Grupo_84054" data-name="Grupo 84054" transform="translate(11.675 13.04)">
                    <g id="Grupo_84051" data-name="Grupo 84051" transform="translate(0.758)">
                      <g id="Grupo_84050" data-name="Grupo 84050">
                        <path id="Trazado_118304" data-name="Trazado 118304" d="M107.067,115.441a3.94,3.94,0,0,0-.222,1.982,1.733,1.733,0,0,0,.965,1.245,2.682,2.682,0,0,0,1.777-.031,3.45,3.45,0,0,0,1.484-.947c.217-.238-.137-.595-.356-.355a2.934,2.934,0,0,1-1.2.8,2.356,2.356,0,0,1-1.456.092,1.243,1.243,0,0,1-.738-.991,3.6,3.6,0,0,1,.234-1.66.252.252,0,0,0-.485-.133Z" transform="translate(-106.791 -115.265)" fill="#173449"/>
                      </g>
                    </g>
                    <g id="Grupo_84053" data-name="Grupo 84053" transform="translate(0 3.263)">
                      <g id="Grupo_84052" data-name="Grupo 84052">
                        <path id="Trazado_118305" data-name="Trazado 118305" d="M106.162,118.323a.957.957,0,0,0,.952.719.26.26,0,0,0,.178-.074.248.248,0,0,0,.074-.178.256.256,0,0,0-.251-.251.665.665,0,0,1-.119,0l.067.01a.724.724,0,0,1-.174-.048l.06.026a.876.876,0,0,1-.164-.1l.051.039a.814.814,0,0,1-.129-.128l.039.051a.752.752,0,0,1-.091-.155l.025.06a.824.824,0,0,1-.033-.1.253.253,0,0,0-.309-.176.257.257,0,0,0-.175.31Z" transform="translate(-106.155 -118.004)" fill="#173449"/>
                      </g>
                    </g>
                  </g>
                </g>
              </g>
              <g id="Grupo_84090" data-name="Grupo 84090" transform="translate(65.301 168.411)">
                <g id="Grupo_84057" data-name="Grupo 84057">
                  <path id="Trazado_118306" data-name="Trazado 118306" d="M105.372,215.125a4.281,4.281,0,0,0-1.131-4.752c-2.315-1.956-6.3-1.239-8.179-3.619-1.43-1.813-.74-4.671.987-6.2a9.791,9.791,0,0,1,6.472-2.008c16.733-.172,29.726,20.415,18.893,34.539-5.571,7.262-16.283,9.908-24.719,6.355S83.7,226.611,84.233,217.473c.21-3.607,1.471-7.433,4.463-9.461s7.909-1.229,9.159,2.163c.688,1.866.216,4.133,1.376,5.748a3.708,3.708,0,0,0,5.552.157A3.467,3.467,0,0,0,105.372,215.125Z" transform="translate(-84.198 -198.541)" fill="#f7ae57"/>
                </g>
                <g id="Grupo_84058" data-name="Grupo 84058" transform="translate(23.738 5.486)">
                  <path id="Trazado_118307" data-name="Trazado 118307" d="M111.787,204.114a4.964,4.964,0,0,1,1.97,4.905,4.5,4.5,0,0,1-3.866,3.5,4.659,4.659,0,0,1-2.607-.577,6.939,6.939,0,0,1-3.159-5.259c-.15-2.085,2.153-3.324,3.953-3.511A5.434,5.434,0,0,1,111.787,204.114Z" transform="translate(-104.117 -203.144)" fill="#f85955"/>
                </g>
                <g id="Grupo_84059" data-name="Grupo 84059" transform="translate(26.392 19)">
                  <path id="Trazado_118308" data-name="Trazado 118308" d="M114.386,215.127a6.825,6.825,0,0,1,3.922,4.247,4.642,4.642,0,0,1-1.965,5.189,6.566,6.566,0,0,1-3.069.649,8.5,8.5,0,0,1-3.3-.452c-2.494-.976-3.519-3.552-3.626-6.068a3.722,3.722,0,0,1,3.1-3.96A7.484,7.484,0,0,1,114.386,215.127Z" transform="translate(-106.344 -214.485)" fill="#fff"/>
                </g>
                <g id="Grupo_84060" data-name="Grupo 84060" transform="translate(14.66 25.239)">
                  <path id="Trazado_118309" data-name="Trazado 118309" d="M102.979,220.048a6.966,6.966,0,0,1,3.648,4.377,5.327,5.327,0,0,1-1.139,5.464,6.248,6.248,0,0,1-3.7,1.3,5.349,5.349,0,0,1-2.77-.338c-1.776-.854-2.349-3.089-2.485-5.055a7.065,7.065,0,0,1,.579-3.9c.657-1.2,1.678-1.419,2.854-1.852A3.639,3.639,0,0,1,102.979,220.048Z" transform="translate(-96.5 -219.72)" fill="#3e9b7e"/>
                </g>
                <g id="Grupo_84061" data-name="Grupo 84061" transform="translate(3.884 15.43)">
                  <path id="Trazado_118310" data-name="Trazado 118310" d="M95.494,214.447a5.162,5.162,0,0,1-.729,5.463,4.058,4.058,0,0,1-4.116,1.375,4.738,4.738,0,0,1-2.826-3.162,5.916,5.916,0,0,1-.122-3.711,4.66,4.66,0,0,1,2.717-2.843,4.684,4.684,0,0,1,3.562,1.052A4.982,4.982,0,0,1,95.494,214.447Z" transform="translate(-87.457 -211.489)" fill="#6791ce"/>
                </g>
                <g id="Grupo_84063" data-name="Grupo 84063" transform="translate(29.98 8.321)">
                  <g id="Grupo_84062" data-name="Grupo 84062">
                    <path id="Trazado_118311" data-name="Trazado 118311" d="M111.576,206.642a1.113,1.113,0,0,1-.417.576.642.642,0,0,1-.591.13c-.26-.1-.366-.44-.468-.674-.147-.335-.274-.677-.388-1.025-.072-.218-.418-.125-.346.1a12.26,12.26,0,0,0,.476,1.227,1.142,1.142,0,0,0,.682.739,1.3,1.3,0,0,0,1.4-.972.18.18,0,0,0-.347-.1Z" transform="translate(-109.356 -205.524)" fill="#173449"/>
                  </g>
                </g>
                <g id="Grupo_84065" data-name="Grupo 84065" transform="translate(23.942 7.878)">
                  <g id="Grupo_84064" data-name="Grupo 84064">
                    <path id="Trazado_118312" data-name="Trazado 118312" d="M112.578,210.54a4.45,4.45,0,0,1-5.966.5c-1.72-1.337-2.068-3.674-1.942-5.717.014-.231-.344-.23-.359,0-.137,2.234.315,4.748,2.256,6.13a4.811,4.811,0,0,0,6.265-.661c.159-.168-.1-.422-.254-.254Z" transform="translate(-104.289 -205.152)" fill="#173449"/>
                  </g>
                </g>
                <g id="Grupo_84067" data-name="Grupo 84067" transform="translate(33.835 21.818)">
                  <g id="Grupo_84066" data-name="Grupo 84066">
                    <path id="Trazado_118313" data-name="Trazado 118313" d="M115.083,218.925c-.266-.529-.291-1.183-.7-1.643a1.2,1.2,0,0,0-1.374-.33c-.611.319-.412,1.114-.259,1.641.145.5.443,1.108,1.015,1.2a1.088,1.088,0,0,0,.794-.157.753.753,0,0,0,.337-.758.269.269,0,0,0-.329-.187.274.274,0,0,0-.187.329c-.008-.064,0,.008,0,.019,0,.062.018-.044,0,.012,0,.013-.008.027-.013.041.019-.061,0,0-.007.01s-.041.057-.015.025-.019.019-.02.02a.418.418,0,0,1-.049.043c.049-.038-.011,0-.018.01l-.06.032c-.062.035.031-.01-.01,0s-.082.024-.124.035-.012,0,0,0c-.024,0-.048,0-.07.006a.476.476,0,0,1-.071,0c-.014,0-.081-.013-.023,0-.038-.008-.075-.018-.112-.03-.066-.021.036.026-.021-.011-.02-.014-.043-.026-.064-.04a1.107,1.107,0,0,1-.172-.17,1.706,1.706,0,0,1-.256-.562,3.237,3.237,0,0,1-.147-.663.532.532,0,0,1,.031-.26.368.368,0,0,1,.043-.071c-.035.046.014-.011.019-.015s.039-.033,0,0a.62.62,0,0,1,.076-.046c-.05.029.042-.01.062-.017.066-.021-.051,0,.019,0l.046,0c.024,0,.048,0,.07,0,.075,0-.031-.007.013,0a1.166,1.166,0,0,1,.157.039l.046.017c-.05-.019.026.013.03.014a1.052,1.052,0,0,1,.112.064.735.735,0,0,1,.063.043c-.033-.025,0,0,.006.007a1.323,1.323,0,0,1,.114.117c.029.036-.027-.05.01.015.024.039.049.076.071.117s.055.1.075.15a3.718,3.718,0,0,1,.133.387,5.37,5.37,0,0,0,.3.838.268.268,0,0,0,.462-.271Z" transform="translate(-112.59 -216.849)" fill="#301b1b"/>
                  </g>
                </g>
                <g id="Grupo_84069" data-name="Grupo 84069" transform="translate(26.135 20.858)">
                  <g id="Grupo_84068" data-name="Grupo 84068">
                    <path id="Trazado_118314" data-name="Trazado 118314" d="M116.547,224.033a32.112,32.112,0,0,1-3.99.756,4.518,4.518,0,0,1-3.575-1.344,10.912,10.912,0,0,1-1.149-1.393,7.07,7.07,0,0,1-1.02-1.677,9.406,9.406,0,0,1-.18-4.16c.03-.229-.33-.226-.359,0a9.2,9.2,0,0,0,.254,4.416,8.406,8.406,0,0,0,1.089,1.733,10.448,10.448,0,0,0,1.225,1.447,4.789,4.789,0,0,0,3.45,1.348,26.548,26.548,0,0,0,4.35-.778c.226-.042.131-.388-.1-.347Z" transform="translate(-106.129 -216.044)" fill="#173449"/>
                  </g>
                </g>
                <g id="Grupo_84071" data-name="Grupo 84071" transform="translate(14.569 27.06)">
                  <g id="Grupo_84070" data-name="Grupo 84070">
                    <path id="Trazado_118315" data-name="Trazado 118315" d="M106.207,228.412a6.247,6.247,0,0,1-7.217,1.127c-1.256-.708-1.828-2.364-2.077-3.706a8.176,8.176,0,0,1,.4-4.369c.081-.216-.266-.31-.347-.1a8.469,8.469,0,0,0,.529,7.114c1.129,1.969,3.742,2.392,5.8,1.919a6.569,6.569,0,0,0,3.162-1.736c.164-.162-.089-.416-.254-.254Z" transform="translate(-96.424 -221.248)" fill="#173449"/>
                  </g>
                </g>
                <g id="Grupo_84073" data-name="Grupo 84073" transform="translate(21.327 27.935)">
                  <g id="Grupo_84072" data-name="Grupo 84072">
                    <path id="Trazado_118316" data-name="Trazado 118316" d="M103.643,224.389a2.852,2.852,0,0,0-1.285-2.377c-.194-.126-.374.185-.181.31a2.485,2.485,0,0,1,1.107,2.068.179.179,0,0,0,.359,0Z" transform="translate(-102.095 -221.982)" fill="#173449"/>
                  </g>
                </g>
                <g id="Grupo_84075" data-name="Grupo 84075" transform="translate(19.097 27.278)">
                  <g id="Grupo_84074" data-name="Grupo 84074">
                    <path id="Trazado_118317" data-name="Trazado 118317" d="M100.8,221.431H100.4a.179.179,0,0,0-.179.179.176.176,0,0,0,.052.128.184.184,0,0,0,.126.052h.393a.189.189,0,0,0,.128-.052.181.181,0,0,0,.052-.128.184.184,0,0,0-.052-.126.189.189,0,0,0-.128-.052Z" transform="translate(-100.223 -221.431)" fill="#173449"/>
                  </g>
                </g>
                <g id="Grupo_84077" data-name="Grupo 84077" transform="translate(9.395 17.574)">
                  <g id="Grupo_84076" data-name="Grupo 84076">
                    <path id="Trazado_118318" data-name="Trazado 118318" d="M93.658,215.438c.01.322.025.782-.325.938s-.539-.375-.636-.621a3.68,3.68,0,0,1-.147-2.244.179.179,0,0,0-.346-.1,4.012,4.012,0,0,0,.342,2.862.892.892,0,0,0,.439.448.666.666,0,0,0,.585-.07,1.279,1.279,0,0,0,.447-1.218.179.179,0,0,0-.359,0Z" transform="translate(-92.081 -213.288)" fill="#173449"/>
                  </g>
                </g>
                <g id="Grupo_84079" data-name="Grupo 84079" transform="translate(3.981 17.306)">
                  <g id="Grupo_84078" data-name="Grupo 84078">
                    <path id="Trazado_118319" data-name="Trazado 118319" d="M94.335,219.7a3.53,3.53,0,0,1-5.041-.337,5.448,5.448,0,0,1-1.268-2.693,4.961,4.961,0,0,1,.4-3.336.18.18,0,0,0-.31-.181,5.89,5.89,0,0,0,.156,5.35,4.329,4.329,0,0,0,3.948,2.468,3.4,3.4,0,0,0,2.373-1.017c.16-.167-.094-.422-.254-.254Z" transform="translate(-87.538 -213.063)" fill="#173449"/>
                  </g>
                </g>
                <g id="Grupo_84081" data-name="Grupo 84081" transform="translate(11.348 3.011)">
                  <g id="Grupo_84080" data-name="Grupo 84080">
                    <path id="Trazado_118320" data-name="Trazado 118320" d="M101.427,216.568a4.067,4.067,0,0,0,.327-7.3c-1.795-.931-3.941-.574-5.618-1.832a5.246,5.246,0,0,1-1.674-6.155c.085-.215-.263-.309-.346-.1a5.623,5.623,0,0,0,4.109,7.562c1.928.431,4.014.505,4.984,2.539a3.711,3.711,0,0,1-1.963,4.968c-.212.093-.029.4.181.31Z" transform="translate(-93.72 -201.068)" fill="#173449"/>
                  </g>
                </g>
                <g id="Grupo_84083" data-name="Grupo 84083" transform="translate(37.833 14.039)">
                  <g id="Grupo_84082" data-name="Grupo 84082">
                    <path id="Trazado_118321" data-name="Trazado 118321" d="M115.964,210.6a18.385,18.385,0,0,1,.562,14.159c-.081.217.266.311.347.1a18.745,18.745,0,0,0-.6-14.435c-.1-.21-.406-.027-.31.181Z" transform="translate(-115.945 -210.322)" fill="#173449"/>
                  </g>
                </g>
                <g id="Grupo_84085" data-name="Grupo 84085" transform="translate(35.356 31.091)">
                  <g id="Grupo_84084" data-name="Grupo 84084">
                    <path id="Trazado_118322" data-name="Trazado 118322" d="M115.512,224.689l-1.6,1.815c-.151.173.1.427.254.254l1.6-1.815c.151-.173-.1-.428-.254-.254Z" transform="translate(-113.867 -224.631)" fill="#173449"/>
                  </g>
                </g>
                <g id="Grupo_84087" data-name="Grupo 84087" transform="translate(6.389 31.074)">
                  <g id="Grupo_84086" data-name="Grupo 84086">
                    <path id="Trazado_118323" data-name="Trazado 118323" d="M96.323,231.685a15.9,15.9,0,0,1-6.435-6.976c-.1-.209-.408-.027-.31.181a16.221,16.221,0,0,0,6.564,7.1.18.18,0,0,0,.181-.31Z" transform="translate(-89.559 -224.616)" fill="#173449"/>
                  </g>
                </g>
                <g id="Grupo_84089" data-name="Grupo 84089" transform="translate(5.065 29.117)">
                  <g id="Grupo_84088" data-name="Grupo 84088">
                    <path id="Trazado_118324" data-name="Trazado 118324" d="M89.207,223.936a1.436,1.436,0,0,0-.454-.909.179.179,0,0,0-.254.254c.026.024.052.048.076.074s.044.057.069.081c-.014-.013-.017-.021,0,0l.015.02.027.041c.02.032.039.064.056.1l.023.045.01.023c.011.02-.013-.035,0,0s.025.066.035.1a1,1,0,0,1,.027.1l.01.049,0,.031c0,.024-.006-.046,0,0a.2.2,0,0,0,.052.128.179.179,0,0,0,.306-.128Z" transform="translate(-88.448 -222.975)" fill="#173449"/>
                  </g>
                </g>
              </g>
              <g id="Grupo_84091" data-name="Grupo 84091" transform="translate(79.058 175.11)">
                <path id="Trazado_118325" data-name="Trazado 118325" d="M102.581,204.285a3.493,3.493,0,0,1,3.656,1.089,3.336,3.336,0,0,1,.372,2.872,6.676,6.676,0,0,1-1.566,2.529,6.842,6.842,0,0,1-4.981,2.556,4.618,4.618,0,0,1-4.3-3.823c-.245-1.844,2.151-2.19,3.288-3.081A9.693,9.693,0,0,1,102.581,204.285Z" transform="translate(-95.742 -204.163)" fill="#fcc0b4"/>
              </g>
              <g id="Grupo_84092" data-name="Grupo 84092" transform="translate(99.273 172.661)">
                <path id="Trazado_118326" data-name="Trazado 118326" d="M113.336,207.213c.409.377,1.044.6,1.164,1.142a2.233,2.233,0,0,1-.157.983,2.373,2.373,0,0,0,2.12,2.795,2.645,2.645,0,0,0,1.553,3.32,3.024,3.024,0,1,0,5.467-1.084,1.7,1.7,0,0,1-.352-.671,1.753,1.753,0,0,1,.155-.745,2.69,2.69,0,0,0-2.665-3.307,5.154,5.154,0,0,0,.359-2.792,1.779,1.779,0,0,0-2.107-1.4,3.159,3.159,0,0,0-1.882-3.129,3.246,3.246,0,0,0-3.807,1.169C112.574,204.443,112.468,206.412,113.336,207.213Z" transform="translate(-112.706 -202.108)" fill="#fcc0b4"/>
              </g>
              <g id="Grupo_84093" data-name="Grupo 84093" transform="translate(9.272 91.451)">
                <path id="Trazado_118327" data-name="Trazado 118327" d="M121.261,141.375c-1.715,3.846-6.081,6.627-10.255,7.188a20.588,20.588,0,0,1-12.162-2.575,30.371,30.371,0,0,1-12.316-12.027c-12.246.837-22.467,9.59-28.875,20.059s-9.843,22.44-14.807,33.667c-3,6.781-6.658,13.9-5.415,21.211,11.169,1.757,22.645-.984,33.723-3.243.993-.2,2.066-1.207,3.022-1.54a103.186,103.186,0,0,1,3.779-13.967c1.6-4.8,4.136-9.989,8.957-11.519,4.692-1.49,9.642,1.086,14.559,1.343,7.337.384,13.973-4.449,18.761-10.022,3.567-4.149,6.571-9.012,7.356-14.428A15.091,15.091,0,0,0,121.261,141.375Z" transform="translate(-37.182 -133.961)" fill="#3e9b7e"/>
              </g>
              <g id="Grupo_84137" data-name="Grupo 84137" transform="translate(92.414)">
                <g id="Grupo_84130" data-name="Grupo 84130" transform="translate(12.109)">
                  <g id="Grupo_84117" data-name="Grupo 84117">
                    <g id="Grupo_84094" data-name="Grupo 84094" transform="translate(31.88 13.61)">
                      <path id="Trazado_118328" data-name="Trazado 118328" d="M144.634,79.782a14.736,14.736,0,0,1,1.782-9.8,2.9,2.9,0,0,1,1.006-1.139c1.07-.595,2.439.234,3.038,1.3.964,1.72.684,3.84.377,5.788l-1.7,10.78a135.636,135.636,0,0,1,3.321-13.671,3.385,3.385,0,0,1,1.519-2.3,2.346,2.346,0,0,1,2.529.7c1.714,1.8,1.106,4.716.242,7.043a59.272,59.272,0,0,1-5.626,11.295c1.343-2.045,2.853-4,4.195-6.048a6.492,6.492,0,0,1,1.515-1.789,2.207,2.207,0,0,1,2.219-.316c1.243.627,1.164,2.443.652,3.737-1.8,4.551-6.33,7.323-10.569,9.772a1.038,1.038,0,0,1-.605.2,1.022,1.022,0,0,1-.654-.516,22.122,22.122,0,0,1-4.009-12.136C143.826,81.13,145.869,80.716,144.634,79.782Z" transform="translate(-143.863 -68.641)" fill="#fcc0b4"/>
                    </g>
                    <g id="Grupo_84114" data-name="Grupo 84114">
                      <g id="Grupo_84095" data-name="Grupo 84095" transform="translate(12.475 14.277)">
                        <path id="Trazado_118329" data-name="Trazado 118329" d="M129.247,69.2c8.027,5.81,16.169,11.727,22.252,19.547a15.075,15.075,0,0,1,2.973,5.4,3.209,3.209,0,0,1-.265,2.68,2.826,2.826,0,0,1-1.608.968c-2.873.74-5.754-1.081-7.982-3.041-7.418-6.527-12.3-15.386-17.04-24.057C128.189,70.12,128.638,69.778,129.247,69.2Z" transform="translate(-127.579 -69.201)" fill="#f7ae57"/>
                      </g>
                      <g id="Grupo_84096" data-name="Grupo 84096" transform="translate(12.475 14.277)">
                        <path id="Trazado_118330" data-name="Trazado 118330" d="M127.579,70.7s5.42,10.028,8.083,13.673c0,0,4.973-3.157,6-5.672,0,0-8.065-6.7-12.419-9.5Z" transform="translate(-127.579 -69.201)" fill="#6791ce"/>
                      </g>
                      <g id="Grupo_84097" data-name="Grupo 84097">
                        <path id="Trazado_118331" data-name="Trazado 118331" d="M127.091,76.363a5.892,5.892,0,0,1-4.859-3.71,14.692,14.692,0,0,1-.694-4.17,10.138,10.138,0,0,0-.958-4.1,3.847,3.847,0,0,0-3.388-2.162,3.505,3.505,0,0,1,3.788-.446c-.449-.23-1.032-1.68-1.517-2.112a12.022,12.022,0,0,0-2.354-1.363c2.22-1.624,6.66-1.126,9.13-.4a14.566,14.566,0,0,1,7.605,5.378,7.407,7.407,0,0,1,1.635,4.412c-.055,2.168-1.5,4.026-2.958,5.631a8.7,8.7,0,0,1-4.04,2.915A4.445,4.445,0,0,1,127.091,76.363Z" transform="translate(-117.111 -57.221)" fill="#173449"/>
                      </g>
                      <g id="Grupo_84099" data-name="Grupo 84099" transform="translate(12.779 6.245)">
                        <g id="Grupo_84098" data-name="Grupo 84098">
                          <path id="Trazado_118332" data-name="Trazado 118332" d="M129.712,70.661a7.573,7.573,0,0,0,.383-4.219,12.567,12.567,0,0,0-1.877-3.887c-.139-.219-.491-.017-.35.2a12.6,12.6,0,0,1,1.8,3.654,7.134,7.134,0,0,1-.35,4.14c-.089.245.3.352.391.107Z" transform="translate(-127.835 -62.461)" fill="#fff"/>
                        </g>
                      </g>
                      <g id="Grupo_84101" data-name="Grupo 84101" transform="translate(11.154 4.103)">
                        <g id="Grupo_84100" data-name="Grupo 84100">
                          <path id="Trazado_118333" data-name="Trazado 118333" d="M127.581,61.712l-.729-.949a.226.226,0,0,0-.122-.093.21.21,0,0,0-.156.02.206.206,0,0,0-.073.278l.729.947a.224.224,0,0,0,.12.094.208.208,0,0,0,.157-.021.2.2,0,0,0,.073-.276Z" transform="translate(-126.471 -60.663)" fill="#fff"/>
                        </g>
                      </g>
                      <g id="Grupo_84103" data-name="Grupo 84103" transform="translate(4.5 4.941)">
                        <g id="Grupo_84102" data-name="Grupo 84102">
                          <path id="Trazado_118334" data-name="Trazado 118334" d="M123.846,68.141a14.237,14.237,0,0,0-2.57-6.685c-.151-.21-.5-.008-.35.2a13.824,13.824,0,0,1,2.516,6.482c.03.256.435.259.405,0Z" transform="translate(-120.887 -61.367)" fill="#fff"/>
                        </g>
                      </g>
                      <g id="Grupo_84105" data-name="Grupo 84105" transform="translate(17.708 22.252)">
                        <g id="Grupo_84104" data-name="Grupo 84104">
                          <path id="Trazado_118335" data-name="Trazado 118335" d="M135.815,81.567a45.683,45.683,0,0,1-3.469-5.572c-.123-.231-.472-.026-.35.2a45.922,45.922,0,0,0,3.469,5.572c.153.209.5.007.35-.2Z" transform="translate(-131.971 -75.893)" fill="#fff"/>
                        </g>
                      </g>
                      <g id="Grupo_84107" data-name="Grupo 84107" transform="translate(16.331 19.849)">
                        <g id="Grupo_84106" data-name="Grupo 84106">
                          <path id="Trazado_118336" data-name="Trazado 118336" d="M131.941,75.323l-.75-1.347a.2.2,0,0,0-.35.2l.75,1.348a.2.2,0,1,0,.35-.2Z" transform="translate(-130.815 -73.876)" fill="#fff"/>
                        </g>
                      </g>
                      <g id="Grupo_84109" data-name="Grupo 84109" transform="translate(22.578 29.861)">
                        <g id="Grupo_84108" data-name="Grupo 84108">
                          <path id="Trazado_118337" data-name="Trazado 118337" d="M136.089,82.525a39.108,39.108,0,0,0,9.711,9.3c1.492,1,3.5,2.342,5.377,1.617,2.023-.781,1.188-3,.342-4.365-.116-.186-.411-.015-.3.173.5.8,1.183,1.929.823,2.912-.455,1.247-2.037,1.258-3.094.955a15.725,15.725,0,0,1-4.732-2.83,38.755,38.755,0,0,1-7.837-7.934c-.129-.175-.425,0-.3.173Z" transform="translate(-136.057 -82.278)" fill="#173449"/>
                        </g>
                      </g>
                      <g id="Grupo_84111" data-name="Grupo 84111" transform="translate(35.336 33.509)">
                        <g id="Grupo_84110" data-name="Grupo 84110">
                          <path id="Trazado_118338" data-name="Trazado 118338" d="M148.26,86.851l-1.207-1.462a.171.171,0,0,0-.241,0,.174.174,0,0,0,0,.242l1.206,1.462a.172.172,0,0,0,.242,0,.176.176,0,0,0,0-.242Z" transform="translate(-146.763 -85.339)" fill="#173449"/>
                        </g>
                      </g>
                      <g id="Grupo_84113" data-name="Grupo 84113" transform="translate(25.619 30.638)">
                        <g id="Grupo_84112" data-name="Grupo 84112">
                          <path id="Trazado_118339" data-name="Trazado 118339" d="M138.656,83.224a28.189,28.189,0,0,0,4.885,4.21c.445.3.895.6,1.365.865a1.934,1.934,0,0,0,1.162.311c.685-.083,1.227-.895.628-1.446-.161-.149-.4.092-.241.241a.453.453,0,0,1-.014.682.824.824,0,0,1-.709.179,3.216,3.216,0,0,1-1.1-.533q-1.044-.649-2.027-1.388a27.83,27.83,0,0,1-3.7-3.362c-.15-.162-.391.08-.242.241Z" transform="translate(-138.609 -82.93)" fill="#173449"/>
                        </g>
                      </g>
                    </g>
                    <g id="Grupo_84115" data-name="Grupo 84115" transform="translate(18.874 24.021)">
                      <path id="Trazado_118340" data-name="Trazado 118340" d="M148.25,109.435c.061-2.2,1.2-4.2,2-6.259s1.2-4.542-.082-6.336c-1.006-1.41-2.769-2.006-4.325-2.767a9.548,9.548,0,0,1-4.027-3.345,5.145,5.145,0,0,1-.368-5.049c.356-.659.888-1.211,1.255-1.865a4.324,4.324,0,0,0-4.139-6.421c-3.164.269-5,3.782-5.427,6.929-.89,6.5,1.575,12.944,3.995,19.044C138.65,107.2,144.159,108.917,148.25,109.435Z" transform="translate(-132.949 -77.378)" fill="#fcc0b4"/>
                    </g>
                    <g id="Grupo_84116" data-name="Grupo 84116" transform="translate(24.066 19.988)">
                      <path id="Trazado_118341" data-name="Trazado 118341" d="M143.962,74.768a11.158,11.158,0,0,1,4.35,5.59,6.968,6.968,0,0,1,.649,4.608c-.453,1.517-2.206,2.723-3.645,2.063-1.593-.731-1.7-2.946-2.724-4.365-1.451-2.008-4.211-2.315-5.1-4.866-.692-1.989.62-3.372,2.549-3.718A5.921,5.921,0,0,1,143.962,74.768Z" transform="translate(-137.306 -73.993)" fill="#fcc0b4"/>
                    </g>
                  </g>
                  <g id="Grupo_84119" data-name="Grupo 84119" transform="translate(18.558 24)">
                    <g id="Grupo_84118" data-name="Grupo 84118">
                      <path id="Trazado_118342" data-name="Trazado 118342" d="M133.174,85.952c.609-3.393,2.463-8.813,6.962-8.03a3.485,3.485,0,0,1,2.818,4.578c-.459,1.7-1.6,3.134-2.059,4.843a4.073,4.073,0,0,0,.416,3.486c.829,1.18,2.255,1.653,3.415,2.414,3.033,1.989,3.2,5.926,2.082,9.064-.108.3.377.436.485.133,1.046-2.926,1.053-6.749-1.435-8.978-1.468-1.316-4.07-1.76-4.593-3.918-.578-2.393,1.438-4.555,2.111-6.713A4.083,4.083,0,0,0,138.85,77.4c-4.052.542-5.544,4.98-6.161,8.415-.057.316.428.452.485.133Z" transform="translate(-132.684 -77.36)" fill="#173449"/>
                    </g>
                  </g>
                  <g id="Grupo_84121" data-name="Grupo 84121" transform="translate(20.938 24.763)">
                    <g id="Grupo_84120" data-name="Grupo 84120">
                      <path id="Trazado_118343" data-name="Trazado 118343" d="M134.73,79.913a3.486,3.486,0,0,0,6.3-1.673c.041-.319-.462-.317-.5,0a2.989,2.989,0,0,1-5.366,1.421c-.192-.256-.628-.006-.434.253Z" transform="translate(-134.681 -78.001)" fill="#173449"/>
                    </g>
                  </g>
                  <g id="Grupo_84123" data-name="Grupo 84123" transform="translate(29.112 20.361)">
                    <g id="Grupo_84122" data-name="Grupo 84122">
                      <path id="Trazado_118344" data-name="Trazado 118344" d="M141.549,82.02c.464,1.789,1.089,3.866,2.955,4.651A2.481,2.481,0,0,0,147.987,85a8.725,8.725,0,0,0-.158-2.855,14.37,14.37,0,0,0-.82-2.895,14.674,14.674,0,0,0-3.195-4.872.252.252,0,0,0-.356.355,14.076,14.076,0,0,1,4.034,8.732,2.725,2.725,0,0,1-.554,2.449,2.168,2.168,0,0,1-2.207.3c-1.733-.7-2.273-2.7-2.7-4.333a.251.251,0,0,0-.484.133Z" transform="translate(-141.54 -74.306)" fill="#173449"/>
                    </g>
                  </g>
                  <g id="Grupo_84125" data-name="Grupo 84125" transform="translate(32.932 27.575)">
                    <g id="Grupo_84124" data-name="Grupo 84124">
                      <path id="Trazado_118345" data-name="Trazado 118345" d="M146.633,80.389a3.585,3.585,0,0,0-1.531,4.7c.147.288.579.035.434-.253a3.079,3.079,0,0,1,1.351-4.017c.29-.144.036-.578-.254-.434Z" transform="translate(-144.746 -80.36)" fill="#173449"/>
                    </g>
                  </g>
                  <g id="Grupo_84127" data-name="Grupo 84127" transform="translate(36.293 17.705)">
                    <g id="Grupo_84126" data-name="Grupo 84126">
                      <path id="Trazado_118346" data-name="Trazado 118346" d="M149.974,72.256c-1.326,5.061-.5,10.487-2.391,15.422-.116.3.371.434.485.133,1.894-4.938,1.063-10.361,2.391-15.422a.252.252,0,0,0-.485-.133Z" transform="translate(-147.566 -72.078)" fill="#173449"/>
                    </g>
                  </g>
                  <g id="Grupo_84129" data-name="Grupo 84129" transform="translate(38.425 23.411)">
                    <g id="Grupo_84128" data-name="Grupo 84128">
                      <path id="Trazado_118347" data-name="Trazado 118347" d="M155.235,77.033a76.086,76.086,0,0,1-5.84,11.389c-.172.274.263.527.434.253a76.89,76.89,0,0,0,5.892-11.508c.123-.3-.363-.429-.485-.133Z" transform="translate(-149.355 -76.866)" fill="#173449"/>
                    </g>
                  </g>
                </g>
                <g id="Grupo_84131" data-name="Grupo 84131" transform="translate(3.967 48.314)">
                  <path id="Trazado_118348" data-name="Trazado 118348" d="M110.292,153.278c3.177-2.528,7.759-.835,11.782-.285,3.636.5,7.324-.062,10.952-.62,4.265-.655,9.04-1.625,11.4-5.241,1.6-2.454,1.671-5.568,1.629-8.5a210.81,210.81,0,0,0-4.588-40.874c3.571,1.741,7.964,4.055,11.536,5.8a253.855,253.855,0,0,1,16.9,47,23.355,23.355,0,0,1,.97,7.607,16.521,16.521,0,0,1-3.426,8.212c-6.422,8.659-17.513,12.222-27.93,15q-12.643,3.375-25.425,6.2C111.74,175.028,110.109,152.216,110.292,153.278Z" transform="translate(-110.278 -97.763)" fill="#fcc0b4"/>
                </g>
                <g id="Grupo_84132" data-name="Grupo 84132" transform="translate(0 90.122)">
                  <path id="Trazado_118349" data-name="Trazado 118349" d="M107.729,141.556a105.373,105.373,0,0,0,25.307,2.694,3.143,3.143,0,0,0,1.982-.487c.442-.361.663-.938,1.1-1.307,1.138-.966,3-.063,4.329-.753,1.22-.636,1.425-2.29,1.291-3.659s-.429-2.864.293-4.035c.978-1.587,3.541-1.108,5.4-1.052a63.153,63.153,0,0,1,11.8,1.194,36.339,36.339,0,0,1,16.678,8.727,36.036,36.036,0,0,1-29.3,34.645c-8.38,1.586-17.891.418-24.592,5.7-2.5,1.965-5.193,4.922-8.2,3.893-1.766-.6-2.784-2.422-3.507-4.142-3.9-9.268-3.91-19.728-2.544-29.689C108.278,149.589,109.051,145.038,107.729,141.556Z" transform="translate(-106.95 -132.846)" fill="#3e9b7e"/>
                </g>
                <g id="Grupo_84134" data-name="Grupo 84134" transform="translate(31.933 102.255)">
                  <g id="Grupo_84133" data-name="Grupo 84133">
                    <path id="Trazado_118350" data-name="Trazado 118350" d="M135.827,149.021a16.191,16.191,0,0,1-1.077-2.445,6.291,6.291,0,0,1-.5-2.172c.018-.448.206-1,.79-.84a2.394,2.394,0,0,1,.962.792c.536.579,1.084,1.146,1.65,1.695a41.461,41.461,0,0,0,7.552,5.779.251.251,0,0,0,.254-.434,41.227,41.227,0,0,1-9.1-7.394c-.447-.483-1.045-1.144-1.788-.933a1.227,1.227,0,0,0-.807,1.124,5.78,5.78,0,0,0,.468,2.422,16.916,16.916,0,0,0,1.161,2.662c.154.285.588.031.434-.254Z" transform="translate(-133.746 -143.027)" fill="#173449"/>
                  </g>
                </g>
                <g id="Grupo_84136" data-name="Grupo 84136" transform="translate(35.945 99.875)">
                  <g id="Grupo_84135" data-name="Grupo 84135">
                    <path id="Trazado_118351" data-name="Trazado 118351" d="M137.173,141.471a25.7,25.7,0,0,0,6.743,5.888.251.251,0,0,0,.254-.434,25.3,25.3,0,0,1-6.641-5.81c-.2-.251-.557.106-.355.355Z" transform="translate(-137.113 -141.03)" fill="#173449"/>
                  </g>
                </g>
              </g>
              <g id="Grupo_84139" data-name="Grupo 84139" transform="translate(95.06 102)">
                <g id="Grupo_84138" data-name="Grupo 84138" transform="translate(0)">
                  <path id="Trazado_118352" data-name="Trazado 118352" d="M109.17,143.056v7.731a.251.251,0,0,0,.5,0v-7.731a.251.251,0,0,0-.5,0Z" transform="translate(-109.17 -142.813)" fill="#173449"/>
                </g>
              </g>
              <g id="Grupo_84141" data-name="Grupo 84141" transform="translate(71.932 113.435)">
                <g id="Grupo_84140" data-name="Grupo 84140">
                  <path id="Trazado_118353" data-name="Trazado 118353" d="M114.3,152.718q2.731,8.938,5.462,17.877c1.717,5.619,3.716,11.848,1.287,17.573-2.237,5.272-7.67,6.981-12.894,7.766-5.931.893-12.21,1.665-18.076.038a.252.252,0,0,0-.135.485c4.842,1.342,9.833,1.006,14.766.425,3.946-.464,8.113-.9,11.651-2.853,8.734-4.808,6.355-15.48,3.983-23.249q-2.78-9.1-5.56-18.2c-.094-.309-.579-.176-.484.133Z" transform="translate(-89.763 -152.409)" fill="#173449"/>
                </g>
              </g>
              <g id="Grupo_84143" data-name="Grupo 84143" transform="translate(65.992 153.457)">
                <g id="Grupo_84142" data-name="Grupo 84142" transform="translate(0 0)">
                  <path id="Trazado_118354" data-name="Trazado 118354" d="M87.095,187.635l-1.889-1.572a.26.26,0,0,0-.355,0,.254.254,0,0,0,0,.356l1.889,1.572a.26.26,0,0,0,.355,0,.254.254,0,0,0,0-.356Z" transform="translate(-84.778 -185.993)" fill="#173449"/>
                </g>
              </g>
              <g id="Grupo_84145" data-name="Grupo 84145" transform="translate(44.999 100.098)">
                <g id="Grupo_84144" data-name="Grupo 84144">
                  <path id="Trazado_118355" data-name="Trazado 118355" d="M67.192,141.6a39.058,39.058,0,0,1,4.233,19.348c-.013.323.49.323.5,0a39.587,39.587,0,0,0-4.3-19.6c-.148-.287-.58-.033-.434.254Z" transform="translate(-67.162 -141.217)" fill="#173449"/>
                </g>
              </g>
              <g id="Grupo_84147" data-name="Grupo 84147" transform="translate(41.529 124.633)">
                <g id="Grupo_84146" data-name="Grupo 84146">
                  <path id="Trazado_118356" data-name="Trazado 118356" d="M72.51,162.048q-.375,10.332-1.174,20.641c-.263,3.363-.471,6.753-.918,10.1-.437,3.27-1.965,7.31-5.925,7.192a.251.251,0,0,0,0,.5c6.744.2,6.617-9.2,7.011-13.737q1.067-12.327,1.507-24.7c.012-.323-.49-.323-.5,0Z" transform="translate(-64.25 -161.806)" fill="#173449"/>
                </g>
              </g>
              <g id="Grupo_84149" data-name="Grupo 84149" transform="translate(8.708 165.583)">
                <g id="Grupo_84148" data-name="Grupo 84148" transform="translate(0 0)">
                  <path id="Trazado_118357" data-name="Trazado 118357" d="M58.011,196.169l-10.421.465-5,.224-2.5.112c-.192.008-2.9.055-2.864-.018.135-.291-.3-.546-.434-.253-.515,1.109,1.587.848,2.047.828l6.252-.279,12.923-.578c.322-.014.323-.516,0-.5Z" transform="translate(-36.708 -196.169)" fill="#173449"/>
                </g>
              </g>
              <g id="Grupo_84151" data-name="Grupo 84151" transform="translate(79.349 174.46)">
                <g id="Grupo_84150" data-name="Grupo 84150" transform="translate(0 0)">
                  <path id="Trazado_118358" data-name="Trazado 118358" d="M96.1,212.115a6.655,6.655,0,0,0,9.991-2.6c.794-1.751.757-4.014-.872-5.278-1.356-1.053-2.941-.647-4.222.286-1.337.975-2.667,2.692-4.494,2.52-.322-.03-.321.473,0,.5a4.7,4.7,0,0,0,3.333-1.436c1-.826,2.1-1.983,3.5-2.02a2.66,2.66,0,0,1,2.218,1.219,3.785,3.785,0,0,1,.419,3.053,6.163,6.163,0,0,1-3.414,4,6.254,6.254,0,0,1-6.2-.683c-.263-.188-.515.247-.254.434Z" transform="translate(-95.987 -203.617)" fill="#173449"/>
                </g>
              </g>
              <g id="Grupo_84153" data-name="Grupo 84153" transform="translate(86.301 176.426)">
                <g id="Grupo_84152" data-name="Grupo 84152" transform="translate(0 0)">
                  <path id="Trazado_118359" data-name="Trazado 118359" d="M104.7,205.267a2.921,2.921,0,0,0-1.567,5.364c.267.184.518-.251.253-.434a2.419,2.419,0,0,1,1.314-4.427.252.252,0,0,0,0-.5Z" transform="translate(-101.82 -205.267)" fill="#173449"/>
                </g>
              </g>
              <g id="Grupo_84155" data-name="Grupo 84155" transform="translate(98.939 174.576)">
                <g id="Grupo_84154" data-name="Grupo 84154" transform="translate(0 0)">
                  <path id="Trazado_118360" data-name="Trazado 118360" d="M112.986,203.789a2.23,2.23,0,0,0,.293,3.225,3.247,3.247,0,0,0,3.855-.143,6.161,6.161,0,0,0,1.636-1.9.251.251,0,0,0-.434-.254c-.76,1.3-2.023,2.556-3.658,2.346a1.957,1.957,0,0,1-1.605-1.131,1.632,1.632,0,0,1,.268-1.789.251.251,0,0,0-.355-.355Z" transform="translate(-112.425 -203.715)" fill="#173449"/>
                </g>
              </g>
              <g id="Grupo_84157" data-name="Grupo 84157" transform="translate(100.476 178.161)">
                <g id="Grupo_84156" data-name="Grupo 84156" transform="translate(0 0)">
                  <path id="Trazado_118361" data-name="Trazado 118361" d="M114.455,206.787a2.537,2.537,0,0,0,.114,3.685,3.782,3.782,0,0,0,4.488.07,7.575,7.575,0,0,0,2.045-2.069c.187-.265-.249-.516-.434-.254-1.026,1.455-2.641,2.867-4.559,2.464a2.293,2.293,0,0,1-1.776-1.465,1.913,1.913,0,0,1,.477-2.076c.244-.213-.112-.567-.355-.356Z" transform="translate(-113.715 -206.723)" fill="#173449"/>
                </g>
              </g>
              <g id="Grupo_84159" data-name="Grupo 84159" transform="translate(102.45 182.626)">
                <g id="Grupo_84158" data-name="Grupo 84158">
                  <path id="Trazado_118362" data-name="Trazado 118362" d="M115.889,210.539a1.839,1.839,0,0,0-.344,2.084,2.437,2.437,0,0,0,1.963,1.426,5.949,5.949,0,0,0,2.988-.467,9.671,9.671,0,0,0,2.706-1.605c.248-.209-.108-.561-.355-.356a7.862,7.862,0,0,1-4.712,1.971,2.226,2.226,0,0,1-2.013-.931,1.411,1.411,0,0,1,.123-1.767c.237-.219-.119-.574-.355-.355Z" transform="translate(-115.372 -210.47)" fill="#173449"/>
                </g>
              </g>
              <g id="Grupo_84161" data-name="Grupo 84161" transform="translate(104.409 185.957)">
                <g id="Grupo_84160" data-name="Grupo 84160">
                  <path id="Trazado_118363" data-name="Trazado 118363" d="M117.017,213.507a3.507,3.507,0,0,0,6.137,2.472c.216-.241-.139-.6-.355-.355a3.005,3.005,0,0,1-5.28-2.116c.011-.323-.491-.323-.5,0Z" transform="translate(-117.015 -213.265)" fill="#173449"/>
                </g>
              </g>
              <g id="Grupo_84163" data-name="Grupo 84163" transform="translate(99.538 176.042)">
                <g id="Grupo_84162" data-name="Grupo 84162" transform="translate(0 0)">
                  <path id="Trazado_118364" data-name="Trazado 118364" d="M113.356,205.895a2.258,2.258,0,0,1,2.854.113c.236.219.592-.135.355-.356A2.772,2.772,0,0,0,113,205.54a.252.252,0,0,0,0,.355.256.256,0,0,0,.355,0Z" transform="translate(-112.927 -204.945)" fill="#173449"/>
                </g>
              </g>
              <g id="Grupo_84165" data-name="Grupo 84165" transform="translate(101.007 179.688)">
                <g id="Grupo_84164" data-name="Grupo 84164" transform="translate(0 0)">
                  <path id="Trazado_118365" data-name="Trazado 118365" d="M114.626,209.629a2.025,2.025,0,0,1,3.7.175c.116.3.6.168.484-.133a2.525,2.525,0,0,0-4.62-.294c-.15.286.284.54.434.253Z" transform="translate(-114.161 -208.004)" fill="#173449"/>
                </g>
              </g>
              <g id="Grupo_84167" data-name="Grupo 84167" transform="translate(102.883 183.79)">
                <g id="Grupo_84166" data-name="Grupo 84166" transform="translate(0 0)">
                  <path id="Trazado_118366" data-name="Trazado 118366" d="M116.152,212.512a1.845,1.845,0,0,1,3.036.6.252.252,0,0,0,.485-.133,2.352,2.352,0,0,0-3.877-.823c-.206.247.148.6.355.356Z" transform="translate(-115.735 -211.447)" fill="#173449"/>
                </g>
              </g>
              <g id="Grupo_84169" data-name="Grupo 84169" transform="translate(104.644 187.09)">
                <g id="Grupo_84168" data-name="Grupo 84168" transform="translate(0 0)">
                  <path id="Trazado_118367" data-name="Trazado 118367" d="M117.588,214.858a2.047,2.047,0,0,1,2.743,1.492.252.252,0,0,0,.309.176.258.258,0,0,0,.175-.31,2.548,2.548,0,0,0-3.48-1.792.252.252,0,0,0-.091.343.257.257,0,0,0,.343.091Z" transform="translate(-117.213 -214.216)" fill="#173449"/>
                </g>
              </g>
              <g id="Grupo_84179" data-name="Grupo 84179" transform="translate(70.584 35.617)">
                <g id="Grupo_84170" data-name="Grupo 84170" transform="translate(0 3.262)">
                  <path id="Trazado_118368" data-name="Trazado 118368" d="M112.511,106.035a18.816,18.816,0,0,0-7.411-.419c-1.221.26-2.383.761-3.608,1a17.484,17.484,0,0,1-6.056-.234c-2.249-.352-4.748-.853-6.049-2.721-1.438-2.065-.69-5.1,1.126-6.843a11.368,11.368,0,0,1,6.914-2.656c2.506-.235,5.047-.1,7.529-.511,1.138-.191,2.482-.747,2.584-1.9a8.731,8.731,0,0,1,.015-.919c.17-.853,1.294-1.158,2.128-.912s1.521.844,2.332,1.158a9.917,9.917,0,0,0,2.743.417,14.84,14.84,0,0,1,11.669,7.86c1.378,2.685,1.6,5.95-.993,7.993-1.84,1.45-4.859.226-6.878-.161Z" transform="translate(-88.631 -89.846)" fill="#f85955"/>
                </g>
                <g id="Grupo_84172" data-name="Grupo 84172" transform="translate(15.679)">
                  <g id="Grupo_84171" data-name="Grupo 84171">
                    <path id="Trazado_118369" data-name="Trazado 118369" d="M107.233,92.12a11.535,11.535,0,0,0-5.063-4.984c-.288-.143-.543.29-.254.434a11.083,11.083,0,0,1,4.882,4.8c.15.287.583.033.435-.253Z" transform="translate(-101.788 -87.108)" fill="#173449"/>
                  </g>
                </g>
                <g id="Grupo_84174" data-name="Grupo 84174" transform="translate(5.294 8.753)">
                  <g id="Grupo_84173" data-name="Grupo 84173">
                    <path id="Trazado_118370" data-name="Trazado 118370" d="M97.406,94.454a4.722,4.722,0,0,0-3.939,2.163,2.987,2.987,0,0,0,.626,3.765c1.264.965,3.022.615,4.468.381a21.13,21.13,0,0,1,6.93.019c.316.054.452-.43.133-.485a21.429,21.429,0,0,0-5.187-.265,27.446,27.446,0,0,1-4.615.458,2.343,2.343,0,0,1-2.109-3.164c.5-1.559,2.186-2.255,3.694-2.37.321-.024.323-.527,0-.5Z" transform="translate(-93.074 -94.453)" fill="#173449"/>
                  </g>
                </g>
                <g id="Grupo_84176" data-name="Grupo 84176" transform="translate(25.016 8.45)">
                  <g id="Grupo_84175" data-name="Grupo 84175">
                    <path id="Trazado_118371" data-name="Trazado 118371" d="M109.863,100.3a13.236,13.236,0,0,0,5.367-1.429,2.855,2.855,0,0,0,1.53-1.895,4.58,4.58,0,0,0-.664-2.648c-.142-.29-.576-.036-.434.254a3.765,3.765,0,0,1,.571,2.47,2.867,2.867,0,0,1-1.64,1.6,13.743,13.743,0,0,1-4.731,1.148c-.317.037-.322.54,0,.5Z" transform="translate(-109.623 -94.199)" fill="#173449"/>
                  </g>
                </g>
                <g id="Grupo_84178" data-name="Grupo 84178" transform="translate(27.149 6.301)">
                  <g id="Grupo_84177" data-name="Grupo 84177">
                    <path id="Trazado_118372" data-name="Trazado 118372" d="M113.127,93.767a4.287,4.287,0,0,0-1.337-1.337.254.254,0,0,0-.344.089.257.257,0,0,0,.091.344c.061.038.122.079.18.12l.093.067s.05.039.024.018.018.014.023.019a3.917,3.917,0,0,1,.323.29,3.742,3.742,0,0,1,.284.316l.032.041c-.037-.045.007.008.011.014.021.027.042.055.062.083.043.062.086.125.126.189a.251.251,0,0,0,.434-.254Z" transform="translate(-111.413 -92.395)" fill="#173449"/>
                  </g>
                </g>
              </g>
              <g id="Grupo_84194" data-name="Grupo 84194" transform="translate(55.547 80.111)">
                <g id="Grupo_84180" data-name="Grupo 84180">
                  <path id="Trazado_118373" data-name="Trazado 118373" d="M108.36,139.882c-1.82,2.227-4.1,4.615-6.975,4.517-1.866-.066-3.51-1.194-4.993-2.327-2.667-2.037-5.4-4.58-5.727-7.92-.23-2.375.828-4.673,1.977-6.764a2.151,2.151,0,0,0,.344-.963c.011-.757-.759-1.274-1.472-1.528-3.184-1.134-6.586.064-9.5,1.422-2.669,1.245-5.05,3.156-5.811,6.154a5.952,5.952,0,0,0-.064,2.741c.7,3.181,3.9,5.137,5.452,8,2.223,4.1.72,9.1-.2,13.673-1.6,7.924-1.264,16.093-.924,24.168l.489,11.559a1.622,1.622,0,0,0,2.356,1.8l8.118-1.6a2.147,2.147,0,0,0,1.275-.566,2.027,2.027,0,0,0,.355-1.227c.261-4.816-1.344-9.531-1.686-14.341a27.684,27.684,0,0,1,3.614-15.7,5.912,5.912,0,0,1,3.034-2.961c1.239-.387,2.613-.012,3.867-.354,2.362-.646,3.408-3.486,5.549-4.677,1.391-.775,3.1-.767,4.531-1.465,1.946-.947,2.215-3.293,2.744-5.391C115.777,141.912,111.111,141.281,108.36,139.882Z" transform="translate(-76.013 -124.445)" fill="#f85955"/>
                </g>
                <g id="Grupo_84193" data-name="Grupo 84193" transform="translate(1.571 1.678)">
                  <g id="Grupo_84182" data-name="Grupo 84182" transform="translate(0 10.786)">
                    <g id="Grupo_84181" data-name="Grupo 84181">
                      <path id="Trazado_118374" data-name="Trazado 118374" d="M77.376,135.269a67.523,67.523,0,0,0,18.289,18.074,9.579,9.579,0,0,0,5.172,1.911c1.788-.026,3.112-1.049,4.422-2.155,1.983-1.672,3.939-3.378,5.907-5.068,1.432-1.229,2.926-2.356,3.608-4.169.113-.3-.372-.434-.485-.133-.741,1.97-2.675,3.258-4.217,4.581q-2.338,2.006-4.676,4.012c-2.131,1.824-4.084,3.032-6.924,1.938a21.73,21.73,0,0,1-4.9-3A69.3,69.3,0,0,1,77.81,135.015c-.184-.263-.62-.012-.434.254Z" transform="translate(-77.331 -134.903)" fill="#173449"/>
                    </g>
                  </g>
                  <g id="Grupo_84184" data-name="Grupo 84184" transform="translate(8.853)">
                    <g id="Grupo_84183" data-name="Grupo 84183">
                      <path id="Trazado_118375" data-name="Trazado 118375" d="M90.083,125.86a7.252,7.252,0,0,0-5.239,6.179c-.491,3.445,1.231,6.774,3.383,9.335.209.248.562-.108.355-.355C86.6,138.661,85,135.637,85.3,132.465a6.807,6.807,0,0,1,4.921-6.119c.316-.073.182-.558-.133-.485Z" transform="translate(-84.76 -125.853)" fill="#173449"/>
                    </g>
                  </g>
                  <g id="Grupo_84186" data-name="Grupo 84186" transform="translate(14.8 17.435)">
                    <g id="Grupo_84185" data-name="Grupo 84185">
                      <path id="Trazado_118376" data-name="Trazado 118376" d="M89.83,140.907c2.122,1.95,4.642,3.71,7.57,4.09a7.506,7.506,0,0,0,6.819-2.435c.2-.249-.15-.607-.355-.355a7.081,7.081,0,0,1-6.669,2.256,14.128,14.128,0,0,1-7.01-3.911c-.238-.218-.593.136-.355.355Z" transform="translate(-89.751 -140.484)" fill="#173449"/>
                    </g>
                  </g>
                  <g id="Grupo_84188" data-name="Grupo 84188" transform="translate(7.869 22.545)">
                    <g id="Grupo_84187" data-name="Grupo 84187">
                      <path id="Trazado_118377" data-name="Trazado 118377" d="M86.043,144.95a72.253,72.253,0,0,0-.68,31.624c.063.316.548.182.484-.133a71.642,71.642,0,0,1,.682-31.357c.077-.313-.408-.447-.485-.133Z" transform="translate(-83.935 -144.771)" fill="#173449"/>
                    </g>
                  </g>
                  <g id="Grupo_84190" data-name="Grupo 84190" transform="translate(12.409 25.802)">
                    <g id="Grupo_84189" data-name="Grupo 84189">
                      <path id="Trazado_118378" data-name="Trazado 118378" d="M88.395,147.743l-.648,5.349c-.039.321.464.317.5,0l.648-5.349c.039-.321-.464-.317-.5,0Z" transform="translate(-87.744 -147.504)" fill="#173449"/>
                    </g>
                  </g>
                  <g id="Grupo_84192" data-name="Grupo 84192" transform="translate(11.474 51.408)">
                    <g id="Grupo_84191" data-name="Grupo 84191">
                      <path id="Trazado_118379" data-name="Trazado 118379" d="M86.964,169.307a66.591,66.591,0,0,1,.889,12.448.252.252,0,0,0,.5,0,67.41,67.41,0,0,0-.907-12.582c-.054-.318-.537-.184-.485.133Z" transform="translate(-86.96 -168.991)" fill="#173449"/>
                    </g>
                  </g>
                </g>
              </g>
            </g>
            <g id="Grupo_84196" data-name="Grupo 84196" transform="translate(18.041 120.852)">
              <path id="Trazado_118380" data-name="Trazado 118380" d="M58.384,159.642a2.76,2.76,0,1,1,4.315,3.443c-1,1.236-2.973,1.538-3.626,2.985a3.681,3.681,0,0,0-.225,1.685c.1,2.029.679,4.039.51,6.065s-1.426,4.2-3.442,4.458c-1.6.206-3.253-.833-4.77-.293-1.832.652-2.753,3.381-4.686,3.165a2.429,2.429,0,0,1-1.9-2.274,7.094,7.094,0,0,1,.67-3.112c1.553-4.083,3.077-8.179,4.66-12.251.454-1.167,1.312-3.315,2.772-3.537,1.574-.238,1.567,2.171,2.924,2.489C57.1,162.823,57.678,160.536,58.384,159.642Z" transform="translate(-44.54 -158.633)" fill="#f85955"/>
            </g>
            <g id="Grupo_84197" data-name="Grupo 84197" transform="translate(103.028 103.494)">
              <path id="Trazado_118381" data-name="Trazado 118381" d="M121.328,151.305c1.241-.747,2.917-1.093,4.09-.242a12.563,12.563,0,0,1,1.23,1.25,4.055,4.055,0,1,0,5.247-6.165c-2.01-1.627-4.968-1.64-7.422-1.89-1.816-.186-3.979-.462-5.664.425-2.008,1.059-2.155,3.339-2.612,5.311-.238,1.026-.986,4.257.97,4.122C118.613,154.019,120.133,152.026,121.328,151.305Z" transform="translate(-115.857 -144.067)" fill="#fff"/>
            </g>
            <g id="Grupo_84198" data-name="Grupo 84198" transform="translate(81.291 130.883)">
              <path id="Trazado_118382" data-name="Trazado 118382" d="M104.7,173.777a11.214,11.214,0,0,0-5.429,3.722,7.725,7.725,0,0,0-1.481,6.3,3.8,3.8,0,0,0,1.671,2.513c1.726.962,3.834-.237,5.81-.224,2.683.018,5.305,2.294,7.792,1.289a5.688,5.688,0,0,0,2.777-3.424c1.67-4.21,2.289-9.155-.029-13.223-1.1-1.939-4.512-5.774-6.187-2.231a18.668,18.668,0,0,1-1.472,3.382C107.3,173.025,105.984,173.346,104.7,173.777Z" transform="translate(-97.616 -167.05)" fill="#f7ae57"/>
            </g>
            <g id="Grupo_84199" data-name="Grupo 84199" transform="translate(40.264 194.662)">
              <path id="Trazado_118383" data-name="Trazado 118383" d="M70.913,222.762c1.629-.234,2.792-1.816,4.407-2.134A4.663,4.663,0,0,1,79.132,222a4.58,4.58,0,0,1,1.465,2.065c.528,1.8-.819,3.74-2.554,4.445a8.9,8.9,0,0,1-5.524-.014,37.98,37.98,0,0,0-4.813-1.188c-1.252-.153-2.716.113-3.718-.828-1.9-1.788-.082-4.2,2.059-4.457C67.729,221.819,69.237,223,70.913,222.762Z" transform="translate(-63.188 -220.569)" fill="#f85955"/>
            </g>
          </g>
          <g id="Grupo_84228" data-name="Grupo 84228" transform="translate(120.05 62.985)">
            <g id="Grupo_84213" data-name="Grupo 84213">
              <g id="Grupo_84209" data-name="Grupo 84209" transform="translate(0 11.797)">
                <g id="Grupo_84201" data-name="Grupo 84201" transform="translate(2.488)">
                  <path id="Trazado_118384" data-name="Trazado 118384" d="M226.769,241.814H132.228l20.437-122.387h94.542Z" transform="translate(-132.228 -119.426)" fill="#f7ae57"/>
                </g>
                <g id="Grupo_84202" data-name="Grupo 84202" transform="translate(13.243 12.28)">
                  <path id="Trazado_118385" data-name="Trazado 118385" d="M214.284,224.273H141.253l20.437-94.542h73.031Z" transform="translate(-141.253 -129.731)" fill="#ffbd76"/>
                </g>
                <g id="Grupo_84203" data-name="Grupo 84203" transform="translate(18.126 54.021)">
                  <rect id="Rectángulo_34655" data-name="Rectángulo 34655" width="86.367" height="5.9" fill="#f7ae57"/>
                </g>
                <g id="Grupo_84204" data-name="Grupo 84204" transform="translate(18.979)">
                  <path id="Trazado_118386" data-name="Trazado 118386" d="M150.012,119.426l-3.946,23.629,28.292-23.629Z" transform="translate(-146.066 -119.426)" fill="#d6793a"/>
                </g>
                <g id="Grupo_84205" data-name="Grupo 84205" transform="translate(93.15)">
                  <path id="Trazado_118387" data-name="Trazado 118387" d="M232.653,119.426l-3.235,19.246-21.111-19.246Z" transform="translate(-208.307 -119.426)" fill="#d6793a"/>
                </g>
                <g id="Grupo_84206" data-name="Grupo 84206" transform="translate(2.488 99.298)">
                  <path id="Trazado_118388" data-name="Trazado 118388" d="M132.228,225.841l3.855-23.089L151.6,225.841Z" transform="translate(-132.228 -202.752)" fill="#d6793a"/>
                </g>
                <g id="Grupo_84207" data-name="Grupo 84207" transform="translate(81.213 99.298)">
                  <path id="Trazado_118389" data-name="Trazado 118389" d="M214.106,225.841l3.855-23.089L198.29,225.841Z" transform="translate(-198.29 -202.752)" fill="#d6793a"/>
                </g>
                <g id="Grupo_84208" data-name="Grupo 84208">
                  <path id="Trazado_118390" data-name="Trazado 118390" d="M153.065,119.426,132.628,241.814l-2.488-3.236L149.119,122Z" transform="translate(-130.14 -119.426)" fill="#d6793a"/>
                </g>
              </g>
              <g id="Grupo_84210" data-name="Grupo 84210" transform="translate(48.584)">
                <path id="Trazado_118391" data-name="Trazado 118391" d="M173.023,269.7h0a2.113,2.113,0,0,1-2.094-2.4l21.224-155.952a2.112,2.112,0,0,1,2.094-1.828h0a2.113,2.113,0,0,1,2.094,2.4L175.117,267.877A2.113,2.113,0,0,1,173.023,269.7Z" transform="translate(-170.909 -109.527)" fill="#173449"/>
              </g>
              <g id="Grupo_84211" data-name="Grupo 84211" transform="translate(17.617 76.409)">
                <path id="Trazado_118392" data-name="Trazado 118392" d="M146.286,258.776a1.274,1.274,0,0,1-.231-.02,1.36,1.36,0,0,1-1.112-1.572l12.894-75.115a10.115,10.115,0,0,1,9.992-8.424h35.554a10.139,10.139,0,0,1,10.127,10.642l-3.631,73.2a1.362,1.362,0,1,1-2.721-.136l3.631-73.194a7.415,7.415,0,0,0-7.406-7.782H167.83a7.4,7.4,0,0,0-7.307,6.16l-12.894,75.114A1.363,1.363,0,0,1,146.286,258.776Z" transform="translate(-144.923 -173.645)" fill="#173449"/>
              </g>
              <g id="Grupo_84212" data-name="Grupo 84212" transform="translate(27.749 107.727)">
                <rect id="Rectángulo_34656" data-name="Rectángulo 34656" width="55.778" height="2.725" fill="#173449"/>
              </g>
            </g>
            <g id="Grupo_84215" data-name="Grupo 84215" transform="translate(90.83 16.259)">
              <g id="Grupo_84214" data-name="Grupo 84214">
                <path id="Trazado_118393" data-name="Trazado 118393" d="M206.407,123.533l16.366,22.507c.188.26.624.01.434-.253L206.84,123.28c-.188-.26-.624-.008-.434.254Z" transform="translate(-206.359 -123.17)" fill="#173449"/>
              </g>
            </g>
            <g id="Grupo_84217" data-name="Grupo 84217" transform="translate(96.068 29.122)">
              <g id="Grupo_84216" data-name="Grupo 84216">
                <path id="Trazado_118394" data-name="Trazado 118394" d="M210.8,134.324q3.21,4.254,6.766,8.226c.217.242.571-.114.356-.355q-3.514-3.92-6.689-8.124c-.192-.255-.628-.006-.434.253Z" transform="translate(-210.755 -133.964)" fill="#173449"/>
              </g>
            </g>
            <g id="Grupo_84219" data-name="Grupo 84219" transform="translate(10.718 104.317)">
              <g id="Grupo_84218" data-name="Grupo 84218">
                <path id="Trazado_118395" data-name="Trazado 118395" d="M139.167,197.442A149.608,149.608,0,0,0,151.4,216.13c.194.253.632,0,.434-.254A149.52,149.52,0,0,1,139.6,197.188c-.156-.284-.59-.03-.434.254Z" transform="translate(-139.134 -197.064)" fill="#173449"/>
              </g>
            </g>
            <g id="Grupo_84221" data-name="Grupo 84221" transform="translate(13.991 102.679)">
              <g id="Grupo_84220" data-name="Grupo 84220">
                <path id="Trazado_118396" data-name="Trazado 118396" d="M141.906,196.073a29.1,29.1,0,0,0,3.688,5.97c.2.253.555-.1.355-.355a28.653,28.653,0,0,1-3.61-5.869c-.136-.293-.568-.038-.434.254Z" transform="translate(-141.88 -195.689)" fill="#173449"/>
              </g>
            </g>
            <g id="Grupo_84223" data-name="Grupo 84223" transform="translate(3.286 12.664)">
              <g id="Grupo_84222" data-name="Grupo 84222">
                <path id="Trazado_118397" data-name="Trazado 118397" d="M152.953,120.335q-9.022,46.978-16.177,94.288-2.013,13.324-3.875,26.67c-.044.316.44.453.484.133q6.621-47.377,15.115-94.464,2.4-13.262,4.938-26.494c.061-.316-.423-.452-.485-.133Z" transform="translate(-132.898 -120.154)" fill="#173449"/>
              </g>
            </g>
            <g id="Grupo_84225" data-name="Grupo 84225" transform="translate(49.859 56.323)">
              <g id="Grupo_84224" data-name="Grupo 84224">
                <path id="Trazado_118398" data-name="Trazado 118398" d="M172.445,171.656l7.825-14.487c.154-.285-.279-.539-.434-.254L172.011,171.4c-.154.285.28.539.434.254Z" transform="translate(-171.979 -156.79)" fill="#173449"/>
              </g>
            </g>
            <g id="Grupo_84227" data-name="Grupo 84227" transform="translate(50.438 33.277)">
              <g id="Grupo_84226" data-name="Grupo 84226">
                <path id="Trazado_118399" data-name="Trazado 118399" d="M172.964,165.687q4.794-14.129,10.684-27.85c.126-.294-.306-.551-.434-.254q-5.915,13.771-10.735,27.97c-.1.307.381.439.485.133Z" transform="translate(-172.465 -137.451)" fill="#173449"/>
              </g>
            </g>
          </g>
        </g>
        <g id="Grupo_84253" data-name="Grupo 84253" transform="translate(23.411 67.77)">
          <g id="Grupo_84231" data-name="Grupo 84231" transform="translate(54.717 24.688)">
            <g id="Grupo_84230" data-name="Grupo 84230">
              <path id="Trazado_118400" data-name="Trazado 118400" d="M67.63,98.7c2.8,1.821,6.125-.035,7.833-2.452a20.379,20.379,0,0,0,2.485-4.941c.458-1.314.458-2.973-.978-3.662-1.067-.511-1.9.126-2.32,1.108a4.1,4.1,0,0,0,.164,3.289c1.238,2.687,4.285,3.253,6.822,2.082,3.893-1.8,5.064-6.184,5.96-10.005.074-.315-.41-.448-.484-.133-.794,3.38-1.715,7.228-4.845,9.223-2.609,1.664-6.39,1.275-7.261-2.106a3.411,3.411,0,0,1,.05-2.016c.373-1.019,1.367-1.5,2.208-.609,1.357,1.434-.386,4.192-1.12,5.634-1.457,2.859-4.783,6.412-8.26,4.155-.273-.176-.524.259-.254.434Z" transform="translate(-67.514 -83.804)" fill="#173449"/>
            </g>
          </g>
          <g id="Grupo_84233" data-name="Grupo 84233" transform="translate(233.299 30.046)">
            <g id="Grupo_84232" data-name="Grupo 84232">
              <path id="Trazado_118401" data-name="Trazado 118401" d="M217.453,88.719a22.627,22.627,0,0,1,7.974,15.081c.124,1.316.325,2.978-.3,4.195l-.41.605L224,106.592c.162-.3,1.681-.445,1.8-.449a6.808,6.808,0,0,1,2.481.38c3.276,1.132,5.278,4.165,6.477,7.251a52.878,52.878,0,0,1,2.294,7.869,17.6,17.6,0,0,1,.169,8.567c-.241.825-1.053,3.684-2.263,2.412-1.477-1.55-.154-3.954,1.774-4.124,4.02-.354,5.064,4.48,5.211,7.48a30.541,30.541,0,0,1-5.751,19.2c-.188.263.247.515.434.254a31.158,31.158,0,0,0,5.251-12c.752-3.751,1.25-8.5-.324-12.106-1.022-2.345-4.4-4.707-6.772-2.551-1.537,1.4-1.084,4.4,1.059,4.857a.262.262,0,0,0,.284-.116c2.836-3.909,2.209-8.883,1.107-13.3-1.134-4.542-2.425-10.005-6.436-12.913a7.584,7.584,0,0,0-6.069-1.517c-1.216.306-2.662,1.527-1.872,2.922.615,1.087,1.845.807,2.483-.073,1.155-1.592.716-4.141.462-5.927a23.093,23.093,0,0,0-7.99-14.338c-.246-.207-.6.145-.355.355Z" transform="translate(-217.37 -88.301)" fill="#173449"/>
            </g>
          </g>
          <g id="Grupo_84235" data-name="Grupo 84235" transform="translate(0 84.481)">
            <g id="Grupo_84234" data-name="Grupo 84234">
              <path id="Trazado_118402" data-name="Trazado 118402" d="M22.66,136c-2.1,1.684-.86,5.539,1.74,5.876a3.9,3.9,0,0,0,3.793-2.2,3.661,3.661,0,0,0-.541-4.12,4.624,4.624,0,0,0-4.573-1.442.251.251,0,0,0,.133.484c2.5-.663,5.626,1.6,4.747,4.339a3.562,3.562,0,0,1-2.98,2.457,2.666,2.666,0,0,1-2.622-1.777,2.8,2.8,0,0,1,.658-3.264c.251-.2-.106-.557-.355-.355Z" transform="translate(-21.598 -133.98)" fill="#173449"/>
            </g>
          </g>
          <g id="Grupo_84237" data-name="Grupo 84237" transform="translate(121.98 65.648)">
            <g id="Grupo_84236" data-name="Grupo 84236">
              <path id="Trazado_118403" data-name="Trazado 118403" d="M130.03,124.252a6.56,6.56,0,0,0,.237-4.248,2.711,2.711,0,0,0-2.413-1.828c-2.38.017-3.573,3.125-3.832,5.069-.29,2.166.373,4.63,2.553,5.547,2.1.882,4.608-.1,6.1-1.666,2.133-2.245,2.454-5.62,2.734-8.552.031-.322-.472-.319-.5,0-.224,2.344-.465,4.812-1.649,6.9a5.959,5.959,0,0,1-4.962,3.144c-4.8.041-4.67-6.887-1.889-9.317a2,2,0,0,1,3.173.447c.826,1.337.362,2.972-.033,4.371a.251.251,0,0,0,.484.133Z" transform="translate(-123.957 -118.176)" fill="#173449"/>
            </g>
          </g>
          <g id="Grupo_84242" data-name="Grupo 84242" transform="translate(240.933 122.716)">
            <g id="Grupo_84239" data-name="Grupo 84239" transform="translate(0 1.521)">
              <g id="Grupo_84238" data-name="Grupo 84238">
                <path id="Trazado_118404" data-name="Trazado 118404" d="M223.842,167.776a58.906,58.906,0,0,1,6.679,9.164.251.251,0,0,0,.434-.254,59.615,59.615,0,0,0-6.757-9.265c-.216-.242-.57.114-.356.355Z" transform="translate(-223.776 -167.34)" fill="#173449"/>
              </g>
            </g>
            <g id="Grupo_84241" data-name="Grupo 84241" transform="translate(1.918)">
              <g id="Grupo_84240" data-name="Grupo 84240">
                <path id="Trazado_118405" data-name="Trazado 118405" d="M225.89,176.436a17.385,17.385,0,0,1,4.837-9.942c.226-.231-.128-.586-.355-.355a17.94,17.94,0,0,0-4.985,10.3c-.04.319.462.317.5,0Z" transform="translate(-225.385 -166.064)" fill="#173449"/>
              </g>
            </g>
          </g>
          <g id="Grupo_84247" data-name="Grupo 84247" transform="translate(92.752)">
            <g id="Grupo_84244" data-name="Grupo 84244" transform="translate(0 2.625)">
              <g id="Grupo_84243" data-name="Grupo 84243">
                <path id="Trazado_118406" data-name="Trazado 118406" d="M99.513,65.711a63.417,63.417,0,0,1,8.741,9.281c.194.253.63,0,.434-.254a64,64,0,0,0-8.82-9.382c-.243-.211-.6.143-.355.355Z" transform="translate(-99.431 -65.291)" fill="#173449"/>
              </g>
            </g>
            <g id="Grupo_84246" data-name="Grupo 84246" transform="translate(1.505)">
              <g id="Grupo_84245" data-name="Grupo 84245">
                <path id="Trazado_118407" data-name="Trazado 118407" d="M101.183,75.242a44.9,44.9,0,0,1,4.02-11.774c.145-.287-.288-.542-.434-.253a45.375,45.375,0,0,0-4.07,11.893c-.061.316.423.45.484.133Z" transform="translate(-100.694 -63.088)" fill="#173449"/>
              </g>
            </g>
          </g>
          <g id="Grupo_84252" data-name="Grupo 84252" transform="translate(122.456 145.706)">
            <g id="Grupo_84249" data-name="Grupo 84249" transform="translate(0 3.699)">
              <g id="Grupo_84248" data-name="Grupo 84248">
                <path id="Trazado_118408" data-name="Trazado 118408" d="M124.427,188.893l5.746,5.978c.225.234.58-.122.355-.355l-5.745-5.979c-.225-.234-.58.123-.356.356Z" transform="translate(-124.356 -188.46)" fill="#173449"/>
              </g>
            </g>
            <g id="Grupo_84251" data-name="Grupo 84251" transform="translate(0.584)">
              <g id="Grupo_84250" data-name="Grupo 84250">
                <path id="Trazado_118409" data-name="Trazado 118409" d="M125.308,196.878l5.446-11.14c.141-.29-.292-.545-.435-.254l-5.445,11.14c-.142.29.291.545.434.254Z" transform="translate(-124.846 -185.356)" fill="#173449"/>
              </g>
            </g>
          </g>
        </g>
      </g>
    </g>
  </g>
</svg>
