<svg xmlns="http://www.w3.org/2000/svg" width="315" height="246.817" viewBox="0 0 315 246.817">
  <g id="_34" data-name="34" transform="translate(70.147 -3250.999)">
    <g id="_33" data-name="33" transform="translate(-335.147 -0.372)">
      <g id="Grupo_85023" data-name="Grupo 85023">
        <rect id="Rectángulo_34651" data-name="Rectángulo 34651" width="315" height="170" transform="translate(265 3328.188)" fill="#6b8dff"/>
      </g>
    </g>
    <g id="Grupo_85024" data-name="Grupo 85024" transform="translate(4937.5 11293.811)">
      <g id="Grupo_84430" data-name="Grupo 84430" transform="translate(-5254.65 -8103.897)">
        <g id="Grupo_84255" data-name="Grupo 84255" transform="translate(264.356 61.085)">
          <path id="Trazado_118410" data-name="Trazado 118410" d="M346.238,264.007c-10.139-1.131-20.5-.889-30.362-3.492-16.823-4.438-30.791-17.039-39.248-32.246s-11.81-32.826-12.234-50.221c-.322-13.234,1.241-27.219,8.99-37.953,13.383-18.535,39.409-20.979,60.368-30.109,22.593-9.843,40.37-28.413,62.5-39.257,36.664-17.964,85.122-10.551,112.331,19.891,11.363,12.714,18.771,28.476,24.519,44.53,7.645,21.345,12.658,43.966,11.333,66.6s-9.429,45.356-25.217,61.63c-4.589,4.73-9.894,8.945-16.087,11.2-11.117,4.052-23.4,1.343-35.01-.946-15.6-3.074-31.538-5.265-47.47-4.452A103.48,103.48,0,0,0,397.066,273c-1.853.538-3.743,1.469-5.624,1.842-1.859.37-3.577-.523-5.394-1.112-4.027-1.3-8.062-2.586-12.125-3.78A162.376,162.376,0,0,0,346.238,264.007Z" transform="translate(-264.356 -61.085)" fill="#ffd947"/>
        </g>
        <g id="Grupo_84403" data-name="Grupo 84403" transform="translate(287.806 79.925)">
          <g id="Grupo_84256" data-name="Grupo 84256" transform="translate(108.196)">
            <path id="Trazado_118411" data-name="Trazado 118411" d="M368.7,125.427c-5.794-5.65-5.455-15.612-.987-22.36S379.778,92.294,387.44,89.69s15.7-4.078,23.174-7.189c5.4-2.247,10.478-5.34,16.143-6.773a6.051,6.051,0,0,1,4.206.069,5.419,5.419,0,0,1,2.38,3.21,13.821,13.821,0,0,1-.964,11.093c-.692,1.244-1.615,2.6-1.2,3.966.4,1.324,1.879,1.982,2.679,3.108,1.937,2.727-.763,6.286-3.262,8.508l-9.843,8.752c-5.236,4.655-10.855,9.5-17.756,10.7-2.807.489-5.68.339-8.521.545-6.141.448-11.5,2.767-16.83,5.687-3.722,2.041-7.3,3.571-10.861.344a6.954,6.954,0,0,1-2.468-3.749c-.221-1.277.424-1.233,1.519-1.593Q367.266,125.9,368.7,125.427Z" transform="translate(-364.268 -75.383)" fill="#173449"/>
          </g>
          <g id="Grupo_84290" data-name="Grupo 84290" transform="translate(83.019 21.589)">
            <g id="Grupo_84257" data-name="Grupo 84257">
              <path id="Trazado_118412" data-name="Trazado 118412" d="M386.836,149.7c1.242-7.363,1.353-9.681,2.76-16.736,4.659,1.85,10.453,3.479,15.471,1.708,3.472-1.224,3.664-6.489,4.515-10.072a68.338,68.338,0,0,0,1.261-24.693,10.765,10.765,0,0,0-1.626-5.05,8.278,8.278,0,0,0-5.579-2.949,15.673,15.673,0,0,0-11.886,3.464,20.411,20.411,0,0,0-6.667,10.607,4.909,4.909,0,0,0-5.684-4.041,8.477,8.477,0,0,0-4.488,3.236,11,11,0,0,0-1.762,2.78,6.971,6.971,0,0,0,9.229,9.016c-3.959,8.624-8.691,19.008-12.65,27.63l-24.571,7.388s21.182,6.242,41.236,7.352c0,0,11.147,3.287,15.9.789Z" transform="translate(-345.16 -91.769)" fill="#fcc0b4"/>
            </g>
            <g id="Grupo_84262" data-name="Grupo 84262" transform="translate(32.204 14.673)">
              <g id="Grupo_84259" data-name="Grupo 84259">
                <g id="Grupo_84258" data-name="Grupo 84258">
                  <path id="Trazado_118413" data-name="Trazado 118413" d="M373.958,102.907a4.788,4.788,0,0,0-3.677,7.255.321.321,0,0,0,.553-.323,4.15,4.15,0,0,1,3.124-6.292c.406-.043.41-.684,0-.64Z" transform="translate(-369.601 -102.904)" fill="#173449"/>
                </g>
              </g>
              <g id="Grupo_84261" data-name="Grupo 84261" transform="translate(0.881 2.804)">
                <g id="Grupo_84260" data-name="Grupo 84260">
                  <path id="Trazado_118414" data-name="Trazado 118414" d="M370.5,105.663a2,2,0,0,1,1.046.793,1.958,1.958,0,0,1,.347,1.308.32.32,0,1,0,.64,0,2.691,2.691,0,0,0-1.863-2.72.32.32,0,0,0-.17.618Z" transform="translate(-370.269 -105.033)" fill="#173449"/>
                </g>
              </g>
            </g>
            <g id="Grupo_84264" data-name="Grupo 84264" transform="translate(31.623 56.134)">
              <g id="Grupo_84263" data-name="Grupo 84263">
                <path id="Trazado_118415" data-name="Trazado 118415" d="M372.042,136.876a5.34,5.34,0,0,0-2.4-2.464.326.326,0,0,0-.437.115.322.322,0,0,0,.115.437,4.75,4.75,0,0,1,2.171,2.235.323.323,0,0,0,.439.115.327.327,0,0,0,.115-.437Z" transform="translate(-369.16 -134.372)" fill="#173449"/>
              </g>
            </g>
            <g id="Grupo_84266" data-name="Grupo 84266" transform="translate(36.826 57.027)">
              <g id="Grupo_84265" data-name="Grupo 84265">
                <path id="Trazado_118416" data-name="Trazado 118416" d="M373.7,137.8a5.462,5.462,0,0,1,1.978-2.156.321.321,0,0,0-.324-.553,6.111,6.111,0,0,0-2.207,2.385.329.329,0,0,0,.115.439.324.324,0,0,0,.439-.115Z" transform="translate(-373.109 -135.049)" fill="#173449"/>
              </g>
            </g>
            <g id="Grupo_84289" data-name="Grupo 84289" transform="translate(38.099 10.19)">
              <g id="Grupo_84283" data-name="Grupo 84283">
                <g id="Grupo_84276" data-name="Grupo 84276" transform="translate(10.486)">
                  <g id="Grupo_84271" data-name="Grupo 84271" transform="translate(1.674 6.106)">
                    <g id="Grupo_84268" data-name="Grupo 84268">
                      <g id="Grupo_84267" data-name="Grupo 84267">
                        <path id="Trazado_118417" data-name="Trazado 118417" d="M383.342,104.441a5.527,5.527,0,0,0,1.773,4.836,2.423,2.423,0,0,0,2.241.544,3.033,3.033,0,0,0,1.6-1.457,22.977,22.977,0,0,0,1.273-2.919c.155-.382-.464-.548-.618-.17a20.021,20.021,0,0,1-1.253,2.842,1.9,1.9,0,0,1-1.937,1.128,3.185,3.185,0,0,1-1.955-1.842,5.278,5.278,0,0,1-.489-2.962c.047-.408-.593-.4-.64,0Z" transform="translate(-383.304 -104.137)" fill="#173449"/>
                      </g>
                    </g>
                    <g id="Grupo_84270" data-name="Grupo 84270" transform="translate(10.852 1.048)">
                      <g id="Grupo_84269" data-name="Grupo 84269">
                        <path id="Trazado_118418" data-name="Trazado 118418" d="M391.545,105.9c.242,1.456.626,3.185,2.091,3.887a2.442,2.442,0,0,0,1.916.153,2.307,2.307,0,0,0,1.306-1.618,11.615,11.615,0,0,0,.257-1.344l.265-1.642c.065-.4-.553-.576-.618-.17a27.442,27.442,0,0,1-.511,2.948,1.532,1.532,0,0,1-1.509,1.318c-1.87-.065-2.335-2.237-2.579-3.7-.067-.406-.685-.235-.618.17Z" transform="translate(-391.54 -104.932)" fill="#173449"/>
                      </g>
                    </g>
                  </g>
                  <g id="Grupo_84273" data-name="Grupo 84273">
                    <g id="Grupo_84272" data-name="Grupo 84272">
                      <path id="Trazado_118419" data-name="Trazado 118419" d="M382.817,102.892a12.105,12.105,0,0,1,5.614-2.377.524.524,0,0,0,.365-.64.534.534,0,0,0-.642-.364,12.741,12.741,0,0,0-5.863,2.481.539.539,0,0,0-.187.714.524.524,0,0,0,.713.186Z" transform="translate(-382.034 -99.502)" fill="#173449"/>
                    </g>
                  </g>
                  <g id="Grupo_84275" data-name="Grupo 84275" transform="translate(12.787 0.875)">
                    <g id="Grupo_84274" data-name="Grupo 84274">
                      <path id="Trazado_118420" data-name="Trazado 118420" d="M392.258,101.211a14.673,14.673,0,0,1,3.845,1.028.524.524,0,0,0,.642-.364.534.534,0,0,0-.364-.64,15.6,15.6,0,0,0-4.123-1.066.525.525,0,0,0-.52.522.532.532,0,0,0,.52.52Z" transform="translate(-391.738 -100.166)" fill="#173449"/>
                    </g>
                  </g>
                </g>
                <g id="Grupo_84278" data-name="Grupo 84278" transform="translate(0 20.203)">
                  <g id="Grupo_84277" data-name="Grupo 84277">
                    <path id="Trazado_118421" data-name="Trazado 118421" d="M374.107,115.143a16.875,16.875,0,0,0,.257,4.145,6.954,6.954,0,0,0,1.41,3.409,11.624,11.624,0,0,0,2.926,2.12,35.7,35.7,0,0,0,3.821,1.937c.374.163.7-.389.323-.553a35.744,35.744,0,0,1-3.368-1.675,14.431,14.431,0,0,1-3-2.02A5.985,5.985,0,0,1,375,119.224a16.172,16.172,0,0,1-.254-4.081c.025-.411-.615-.41-.64,0Z" transform="translate(-374.075 -114.835)" fill="#173449"/>
                  </g>
                </g>
                <g id="Grupo_84279" data-name="Grupo 84279" transform="translate(9.174 10.822)">
                  <ellipse id="Elipse_4788" data-name="Elipse 4788" cx="1.881" cy="2.902" rx="1.881" ry="2.902" transform="matrix(0.209, -0.978, 0.978, 0.209, 0, 3.679)" fill="#f47471"/>
                </g>
                <g id="Grupo_84280" data-name="Grupo 84280" transform="translate(23.649 13.037)">
                  <ellipse id="Elipse_4789" data-name="Elipse 4789" cx="1.881" cy="1.73" rx="1.881" ry="1.73" transform="matrix(0.209, -0.978, 0.978, 0.209, 0, 3.679)" fill="#f47471"/>
                </g>
                <g id="Grupo_84282" data-name="Grupo 84282" transform="translate(20.932 13.428)">
                  <g id="Grupo_84281" data-name="Grupo 84281">
                    <path id="Trazado_118422" data-name="Trazado 118422" d="M390.52,110.451a2.538,2.538,0,0,1,1.436-.029,1.372,1.372,0,0,1,.895.773,1.035,1.035,0,0,1-.086,1.05.941.941,0,0,1-.391.273,1.269,1.269,0,0,1-.572.063,2.669,2.669,0,0,1-.686-.163,3.533,3.533,0,0,1-.672-.345.321.321,0,1,0-.324.553c.856.552,2.241.971,3.056.117a1.623,1.623,0,0,0,.346-1.553,1.946,1.946,0,0,0-1.086-1.266,3.059,3.059,0,0,0-2.086-.091.321.321,0,0,0,.17.618Z" transform="translate(-389.961 -109.693)" fill="#173449"/>
                  </g>
                </g>
              </g>
              <g id="Grupo_84288" data-name="Grupo 84288" transform="translate(14.885 16.625)">
                <g id="Grupo_84285" data-name="Grupo 84285" transform="translate(0.966)">
                  <g id="Grupo_84284" data-name="Grupo 84284">
                    <path id="Trazado_118423" data-name="Trazado 118423" d="M386.458,112.344a5.053,5.053,0,0,0-.283,2.527,2.212,2.212,0,0,0,1.232,1.588,3.426,3.426,0,0,0,2.265-.04,4.4,4.4,0,0,0,1.891-1.208c.278-.3-.174-.758-.453-.453a3.72,3.72,0,0,1-1.534,1.02,3.02,3.02,0,0,1-1.857.119,1.591,1.591,0,0,1-.941-1.266,4.588,4.588,0,0,1,.3-2.116c.12-.4-.5-.564-.618-.17Z" transform="translate(-386.105 -112.12)" fill="#173449"/>
                  </g>
                </g>
                <g id="Grupo_84287" data-name="Grupo 84287" transform="translate(0 4.162)">
                  <g id="Grupo_84286" data-name="Grupo 84286">
                    <path id="Trazado_118424" data-name="Trazado 118424" d="M385.381,115.685a1.218,1.218,0,0,0,1.215.916.334.334,0,0,0,.227-.094.32.32,0,0,0-.227-.547.844.844,0,0,1-.153,0l.084.011a.917.917,0,0,1-.221-.059l.076.032a.928.928,0,0,1-.209-.123l.065.05a1,1,0,0,1-.163-.162l.05.065a.923.923,0,0,1-.116-.2l.033.076a.8.8,0,0,1-.042-.134.322.322,0,0,0-.394-.223.328.328,0,0,0-.224.394Z" transform="translate(-385.372 -115.278)" fill="#173449"/>
                  </g>
                </g>
              </g>
            </g>
          </g>
          <g id="Grupo_84291" data-name="Grupo 84291" transform="translate(0 70.106)">
            <path id="Trazado_118425" data-name="Trazado 118425" d="M392.819,132.076c-13.284-2.5-26.812,3.3-40.31,2.54-7.607-.428-14.923-2.925-22.4-4.409a85.247,85.247,0,0,0-37.672,1.046c-2.5.643-5.077,1.459-6.929,3.257-2.121,2.059-2.971,5.108-3.247,8.052-1.283,13.716,8.538,26.755,21.024,32.577s26.99,5.6,40.551,3.165c2.449-.439,7.064,1.366,7.973,3.683s.719,4.9.517,7.379q-1.7,20.7-3.4,41.4c-.468,5.7-.905,11.628,1.175,16.952,2.948,7.542,10.322,12.351,17.61,15.884,9.57,4.638,19.947,8,30.581,8.159s21.571-3.144,29.333-10.416c10.132-9.492,13.78-25.369,16.5-38.983.614-3.07-.7-6.817.686-9.626,5.562,5.314,3.807,14.867,7.445,21.644,4.866,9.069,16.827,13.022,26.682,10.053s17.29-11.8,20.186-21.681c1.12-3.822,1.627-7.981.362-11.758-2.592-7.738-11.293-11.231-17.458-16.58-15.4-13.357-15.138-39.022-30.837-52.022-7.817-6.472-18.352-8.616-28.487-9.143s-20.357.341-30.405-1.084C392.942,130.085,392.18,134.157,392.819,132.076Z" transform="translate(-282.153 -128.59)" fill="#ffecd9"/>
          </g>
          <g id="Grupo_84320" data-name="Grupo 84320" transform="translate(102.789 61.906)">
            <g id="Grupo_84292" data-name="Grupo 84292" transform="translate(0 0.678)">
              <path id="Trazado_118426" data-name="Trazado 118426" d="M446.863,195.283c10.006,8.787,23.763,20.333,33.769,29.121,1.739,1.527,3.874,2.5,6.018,1.623a14.825,14.825,0,0,0,8.99-13.957,8.334,8.334,0,0,0-2.552-6.118c-1.739-1.465-4.655-1.634-6.161.07-1.745,1.974-.856,5.052.241,7.447-11.118-8.464-21.753-16.681-32.021-26.157,5.978-7.08,5.978-18.581.549-26.089s-14.42-11.74-23.488-13.64a4.927,4.927,0,0,0-3.326.113c-1.493.8-1.795,2.751-2.132,4.409a11.087,11.087,0,0,1-3.666,6.7c-2.057,1.592-5.243,1.9-7.194.182-3.722-3.285-.219-9.142.809-14,1.642-7.755-4.289-15.367-11.35-18.97-13.9-7.093-32.847-1.721-40.957,11.612s-4.168,32.628,8.524,41.709c2.948,2.111,6.591,3.746,10.129,2.951,3.11-.7,5.492-3.107,7.881-5.218s5.317-4.124,8.482-3.745,5.722,4.523,3.58,6.883A11.637,11.637,0,0,1,400.235,182c-4.186,2.557-5.061,8.678-2.925,13.094s6.723,6.9,11,9.3C429.021,216.006,445.93,195.882,446.863,195.283Z" transform="translate(-360.165 -122.881)" fill="#f85955"/>
            </g>
            <g id="Grupo_84293" data-name="Grupo 84293" transform="translate(79.149 61.324)">
              <path id="Trazado_118427" data-name="Trazado 118427" d="M466.24,203.39c-.274-1.474-1.5-2.558-2.65-3.518q-18.233-15.232-36.66-30.23a2.336,2.336,0,0,0-1.638-.725,2.284,2.284,0,0,0-1.306.882q-1.494,1.66-2.846,3.44a2.98,2.98,0,0,0-.852,2.411,3.027,3.027,0,0,0,1.136,1.427l35.917,29.851c1.331,1.105,3.077,2.481,4.92,2.353.835-.058,1.312-.752,1.876-1.3a8.69,8.69,0,0,0,1.61-2A3.9,3.9,0,0,0,466.24,203.39Z" transform="translate(-420.235 -168.908)" fill="#724444"/>
            </g>
            <g id="Grupo_84295" data-name="Grupo 84295" transform="translate(48.396 29.029)">
              <g id="Grupo_84294" data-name="Grupo 84294">
                <path id="Trazado_118428" data-name="Trazado 118428" d="M398.834,144.469c-2.465.892-2.109,4.037-1.472,6.053a9.4,9.4,0,0,0,4.515,5.655c2.887,1.427,5.762.39,8.771.163a5.087,5.087,0,0,1,3.78.825c.667.59,1.24,1.874.6,2.672-.88,1.095.669,2.663,1.559,1.557a4.288,4.288,0,0,0-.771-5.94c-2.211-1.882-5.326-1.362-7.94-.933a8.79,8.79,0,0,1-4.476-.075,5.975,5.975,0,0,1-2.609-1.995,8.393,8.393,0,0,1-1.474-3.127c-.109-.443-.6-2.478.1-2.733,1.323-.478.751-2.609-.586-2.124Z" transform="translate(-396.895 -144.398)" fill="#724444"/>
              </g>
            </g>
            <g id="Grupo_84297" data-name="Grupo 84297" transform="translate(32.557 46.346)">
              <g id="Grupo_84296" data-name="Grupo 84296">
                <path id="Trazado_118429" data-name="Trazado 118429" d="M386.522,161.432c2.286-1.307,5.664-2.518,8.131-1.024,2.427,1.472,3.06,4.406,3.261,7.027.19,2.457.839,4.905,3.074,6.284a4.756,4.756,0,0,0,6.079-.871c.888-1.09-.661-2.658-1.559-1.557-1.654,2.029-4.259.48-5-1.548a21.134,21.134,0,0,1-.59-4.23,11.916,11.916,0,0,0-1.173-3.763,7.542,7.542,0,0,0-5.476-4.124,12.8,12.8,0,0,0-7.862,1.9,1.1,1.1,0,0,0,1.112,1.9Z" transform="translate(-384.874 -157.54)" fill="#724444"/>
              </g>
            </g>
            <g id="Grupo_84298" data-name="Grupo 84298" transform="translate(3.577 9.053)">
              <path id="Trazado_118430" data-name="Trazado 118430" d="M387.2,157.5a17.028,17.028,0,0,0,6.467-9.8c-5.137-3.5-9.909-7.024-15.452-9.839-2.743-1.393-5.8-3-6.734-5.927-.394-1.232-.992-3.029-2.223-2.633a2.928,2.928,0,0,0-1.17.654c-1.75,2.12-3.812,3.953-5,6.431-.563,1.173.091,3.547,1.332,3.932a3.451,3.451,0,0,0,1.8-.256c2.59-.635,4.969,1.484,6.8,3.424C377.557,148.307,382.648,152.668,387.2,157.5Z" transform="translate(-362.879 -129.237)" fill="#724444"/>
            </g>
            <g id="Grupo_84299" data-name="Grupo 84299" transform="translate(12.634)">
              <path id="Trazado_118431" data-name="Trazado 118431" d="M386.422,135.02a10.227,10.227,0,0,1-6.891-.685c-2.936-1.485-5.282-4.7-8.566-4.508a1.541,1.541,0,0,1-.908-.1c-.718-.444-.029-1.539.688-1.984a30.591,30.591,0,0,1,6.368-2.721,47.874,47.874,0,0,1,9.317-2.488,18.875,18.875,0,0,1,5.263.03,14.1,14.1,0,0,1,2.6.654c.884.316,1.568.406,1.494,1.409a12.206,12.206,0,0,1-4.573,8A11.957,11.957,0,0,1,386.422,135.02Z" transform="translate(-369.754 -122.367)" fill="#724444"/>
            </g>
            <g id="Grupo_84301" data-name="Grupo 84301" transform="translate(118.653 83.425)">
              <g id="Grupo_84300" data-name="Grupo 84300">
                <path id="Trazado_118432" data-name="Trazado 118432" d="M461.737,189.591a2.381,2.381,0,0,1,1.821,3.444c-.805,1.476-2.982,1.492-4.222.611-1.535-1.09-1.685-3.316-.987-4.923a3.958,3.958,0,0,1,4.319-2.5c3.963.689,4.927,5.04,4.273,8.43a17.444,17.444,0,0,1-5.06,9.131,6.981,6.981,0,0,1-5.354,2.27c-2.256-.217-4.183-1.755-5.883-3.123-.242-.2-.59.149-.345.345,1.776,1.43,3.728,2.966,6.069,3.245a7.3,7.3,0,0,0,5.743-2.287c3.336-3.1,6-8.16,5.484-12.818a6.446,6.446,0,0,0-2.81-4.873,4.774,4.774,0,0,0-4.882-.344c-3.127,1.789-3.5,7.632.588,8.45,1.6.32,3.5-.453,3.768-2.215a2.83,2.83,0,0,0-2.523-3.336.244.244,0,0,0,0,.488Z" transform="translate(-450.216 -185.682)" fill="#173449"/>
              </g>
            </g>
            <g id="Grupo_84303" data-name="Grupo 84303" transform="translate(32.862 29.969)">
              <g id="Grupo_84302" data-name="Grupo 84302">
                <path id="Trazado_118433" data-name="Trazado 118433" d="M477.9,212.823q-36.461-25.3-71.863-52.073-10.2-7.718-20.307-15.558c-.354-.274-.855.22-.5.5q35.1,27.221,71.305,52.985,10.459,7.441,21.007,14.756c.373.26.726-.35.356-.607Z" transform="translate(-385.106 -145.111)" fill="#301b1b"/>
              </g>
            </g>
            <g id="Grupo_84305" data-name="Grupo 84305" transform="translate(30.874 32.876)">
              <g id="Grupo_84304" data-name="Grupo 84304">
                <path id="Trazado_118434" data-name="Trazado 118434" d="M476.905,214.957q-36.574-25.891-72.6-52.536-10.123-7.489-20.2-15.035c-.362-.271-.714.34-.354.609q35.87,26.854,72.291,52.962,10.234,7.334,20.511,14.608c.37.262.722-.348.356-.607Z" transform="translate(-383.597 -147.317)" fill="#301b1b"/>
              </g>
            </g>
            <g id="Grupo_84307" data-name="Grupo 84307" transform="translate(33.515 27.239)">
              <g id="Grupo_84306" data-name="Grupo 84306">
                <path id="Trazado_118435" data-name="Trazado 118435" d="M473.333,208.584c-20.215-19.87-44.966-34-67.864-50.417-6.621-4.749-13.089-9.708-19.256-15.037-.341-.3-.841.2-.5.5,21.56,18.631,46.671,32.428,69.135,49.856a203.666,203.666,0,0,1,17.984,15.6c.323.318.821-.179.5-.5Z" transform="translate(-385.601 -143.039)" fill="#301b1b"/>
              </g>
            </g>
            <g id="Grupo_84309" data-name="Grupo 84309" transform="translate(11.899 4.794)">
              <g id="Grupo_84308" data-name="Grupo 84308">
                <path id="Trazado_118436" data-name="Trazado 118436" d="M450.663,181.546c5.313-7.17,1.758-16.8-4.069-22.438-3.583-3.464-7.954-5.97-12.3-8.352-1.655-.908-3.534-2.167-5.522-1.793-1.825.345-3.107,2.046-4.181,3.413-1.727,2.2-3.262,4.764-5.849,6.061-3.226,1.617-6.84.457-7.546-3.3-.916-4.876,3.023-9.073,2.851-13.93-.324-9.259-9.682-14.394-17.889-15.066a48.9,48.9,0,0,0-15.915,1.48c-4.351,1.129-8.488,3.168-11.011,7.023-.171.264.25.507.422.245,2.507-3.83,6.667-5.78,10.984-6.863a50.769,50.769,0,0,1,13.885-1.488c5.181.174,10.455,1.53,14.322,5.155,3.517,3.3,5.589,8.085,4.31,12.886-.979,3.677-3.357,7.214-2.323,11.163a5.133,5.133,0,0,0,6.525,3.741c4.256-1.1,6.074-5.338,8.848-8.279,1.188-1.261,2.619-2.109,4.4-1.665a16.4,16.4,0,0,1,3.71,1.787c2.09,1.149,4.166,2.323,6.164,3.627,4.568,2.983,8.91,6.794,10.969,11.98,1.874,4.721,1.895,10.169-1.215,14.366-.187.253.236.5.422.246Z" transform="translate(-369.196 -126.005)" fill="#173449"/>
              </g>
            </g>
            <g id="Grupo_84311" data-name="Grupo 84311" transform="translate(3.385 22.037)">
              <g id="Grupo_84310" data-name="Grupo 84310">
                <path id="Trazado_118437" data-name="Trazado 118437" d="M420.509,197.7a24.1,24.1,0,0,1-12.492-1.154c-3.68-1.389-7.624-3.994-8.628-8.047-1.548-6.252,7.707-12.577,3.431-18.66-1.514-2.154-4.324-2.538-6.745-2.062-3.432.675-6.108,3.178-9.269,4.509-6.933,2.915-14.608-1.107-18.739-6.809-5.384-7.431-5.126-17.427-4.577-26.152.02-.314-.469-.312-.489,0-.5,8-.683,16.594,3.111,23.909,2.752,5.307,8.109,9.682,14.149,10.429a14.543,14.543,0,0,0,9.285-2.231c3.37-1.953,8.57-5.407,12.242-2.041s.148,8.77-1.547,12.162c-1.38,2.763-2.135,5.732-.758,8.654,3.465,7.352,14,9.16,21.156,7.964.31-.051.179-.522-.129-.47Z" transform="translate(-362.734 -139.092)" fill="#173449"/>
              </g>
            </g>
            <g id="Grupo_84313" data-name="Grupo 84313" transform="translate(83.609 43.933)">
              <g id="Grupo_84312" data-name="Grupo 84312">
                <path id="Trazado_118438" data-name="Trazado 118438" d="M430.128,165.546a13.39,13.39,0,0,0-6.147-9.8c-.267-.167-.513.254-.246.42a12.869,12.869,0,0,1,5.9,9.377c.036.308.523.312.489,0Z" transform="translate(-423.62 -155.71)" fill="#173449"/>
              </g>
            </g>
            <g id="Grupo_84315" data-name="Grupo 84315" transform="translate(85.495 49.504)">
              <g id="Grupo_84314" data-name="Grupo 84314">
                <path id="Trazado_118439" data-name="Trazado 118439" d="M427.238,162.4l-1.731-2.337a.252.252,0,0,0-.333-.088.247.247,0,0,0-.087.335l1.73,2.337a.253.253,0,0,0,.335.087.245.245,0,0,0,.087-.333Z" transform="translate(-425.051 -159.938)" fill="#173449"/>
              </g>
            </g>
            <g id="Grupo_84317" data-name="Grupo 84317" transform="translate(7.644 28.124)">
              <g id="Grupo_84316" data-name="Grupo 84316">
                <path id="Trazado_118440" data-name="Trazado 118440" d="M365.969,143.944a43.374,43.374,0,0,0,6.658,18.275c.17.264.593.018.42-.245a42.892,42.892,0,0,1-6.591-18.03c-.038-.308-.527-.312-.488,0Z" transform="translate(-365.966 -143.711)" fill="#173449"/>
              </g>
            </g>
            <g id="Grupo_84319" data-name="Grupo 84319" transform="translate(12.577 35.293)">
              <g id="Grupo_84318" data-name="Grupo 84318">
                <path id="Trazado_118441" data-name="Trazado 118441" d="M369.715,149.459a12.618,12.618,0,0,0,1.929,4.768c.174.26.6.016.422-.246a12.256,12.256,0,0,1-1.88-4.653c-.055-.308-.526-.178-.47.13Z" transform="translate(-369.711 -149.152)" fill="#173449"/>
              </g>
            </g>
          </g>
          <g id="Grupo_84321" data-name="Grupo 84321" transform="translate(128.445 60.649)">
            <path id="Trazado_118442" data-name="Trazado 118442" d="M396.1,123.753s-3.815,5.679-16.466-.406C379.636,123.347,391.451,118.736,396.1,123.753Z" transform="translate(-379.636 -121.413)" fill="#fcc0b4"/>
          </g>
          <g id="Grupo_84354" data-name="Grupo 84354" transform="translate(64.424 52.247)">
            <g id="Grupo_84322" data-name="Grupo 84322" transform="translate(3.673)">
              <path id="Trazado_118443" data-name="Trazado 118443" d="M334.706,208.975a.869.869,0,0,1-.458-1.607l149.157-92.2a.867.867,0,1,1,.912,1.476l-149.155,92.2A.862.862,0,0,1,334.706,208.975Z" transform="translate(-333.835 -115.036)" fill="#301b1b"/>
            </g>
            <g id="Grupo_84323" data-name="Grupo 84323" transform="translate(0 40.363)">
              <path id="Trazado_118444" data-name="Trazado 118444" d="M344.289,181.644a9.068,9.068,0,0,0,.323,3.912,3.221,3.221,0,0,0,2.969,2.206c2.113-.133,2.983-2.737,3.284-4.834q.555-3.874.918-7.771l.029,16.269a3.412,3.412,0,0,0,.216,1.46c.846,1.8,3.673.829,4.928-.718,4.07-5.021,3.045-12.309,1.806-18.653,2.365.071,4.185,2.334,4.631,4.656s-.13,4.705-.6,7.026c-.175.863-.249,1.949.489,2.43a1.9,1.9,0,0,0,1.26.2,6.092,6.092,0,0,0,5.207-6.194c-.991.772.057,2.567,1.314,2.538s2.214-1.134,2.8-2.244c2.538-4.787,1.211-10.862-1.8-15.37s-7.439-7.824-11.641-11.246c-3.315-2.7-6.576-5.545-10.393-7.475a17.02,17.02,0,0,0-11.382-1.818c-3.291.773-7.051,3.43-7.549,7.018-.464,3.336,2.065,6.332,4.266,8.512,2.729,2.7,6.491,4.583,8.026,8.265C344.938,173.51,344.555,177.744,344.289,181.644Z" transform="translate(-331.048 -145.669)" fill="#fcc0b4"/>
            </g>
            <g id="Grupo_84325" data-name="Grupo 84325" transform="translate(14.894 77.885)">
              <g id="Grupo_84324" data-name="Grupo 84324">
                <path id="Trazado_118445" data-name="Trazado 118445" d="M346.6,174.362c-.394.178-.926-.111-1.318-.182a1.316,1.316,0,0,0-1.426.531,8.9,8.9,0,0,0-.876,1.745,13.69,13.69,0,0,0-.621,1.892.321.321,0,0,0,.618.17,13.546,13.546,0,0,1,.578-1.789,8.942,8.942,0,0,1,.817-1.64c.282-.418.689-.315,1.112-.2a2.036,2.036,0,0,0,1.439.026.323.323,0,0,0,.115-.437.328.328,0,0,0-.439-.115Z" transform="translate(-342.352 -174.146)" fill="#173449"/>
              </g>
            </g>
            <g id="Grupo_84327" data-name="Grupo 84327" transform="translate(18.97 59.98)">
              <g id="Grupo_84326" data-name="Grupo 84326">
                <path id="Trazado_118446" data-name="Trazado 118446" d="M347.367,173.1a32.671,32.671,0,0,0-1.29-12.322c-.119-.393-.738-.225-.617.17a32.207,32.207,0,0,1,1.266,12.152c-.036.411.6.408.64,0Z" transform="translate(-345.445 -160.557)" fill="#173449"/>
              </g>
            </g>
            <g id="Grupo_84329" data-name="Grupo 84329" transform="translate(25.734 60.904)">
              <g id="Grupo_84328" data-name="Grupo 84328">
                <path id="Trazado_118447" data-name="Trazado 118447" d="M352.851,167.574a32.985,32.985,0,0,0-1.633-6.1c-.144-.383-.763-.217-.618.17a32.879,32.879,0,0,1,1.633,6.1c.067.406.685.235.618-.17Z" transform="translate(-350.578 -161.259)" fill="#173449"/>
              </g>
            </g>
            <g id="Grupo_84331" data-name="Grupo 84331" transform="translate(31.691 57.248)">
              <g id="Grupo_84330" data-name="Grupo 84330">
                <path id="Trazado_118448" data-name="Trazado 118448" d="M361.144,181.084c1.136-1.273,1.2-3.056,1.214-4.683a22.9,22.9,0,0,0-.872-6.244,37.8,37.8,0,0,0-5.774-11.53c-.236-.335-.792-.016-.553.323a38.671,38.671,0,0,1,5.382,10.284,23.75,23.75,0,0,1,1.129,5.655c.123,1.81.307,4.3-.979,5.742-.273.307.178.762.453.453Z" transform="translate(-355.1 -158.484)" fill="#173449"/>
              </g>
            </g>
            <g id="Grupo_84333" data-name="Grupo 84333" transform="translate(22.66 82.259)">
              <g id="Grupo_84332" data-name="Grupo 84332">
                <path id="Trazado_118449" data-name="Trazado 118449" d="M353.057,177.473a4.549,4.549,0,0,0-4.721,5.491c.08.4.7.233.618-.17a3.911,3.911,0,0,1,4.1-4.68c.412.022.411-.618,0-.64Z" transform="translate(-348.246 -177.466)" fill="#173449"/>
              </g>
            </g>
            <g id="Grupo_84335" data-name="Grupo 84335" transform="translate(33.067 77.444)">
              <g id="Grupo_84334" data-name="Grupo 84334">
                <path id="Trazado_118450" data-name="Trazado 118450" d="M361.089,173.882a4.273,4.273,0,0,0-4.937,4.288c.026.41.668.412.64,0a3.63,3.63,0,0,1,4.127-3.671c.4.08.575-.536.17-.617Z" transform="translate(-356.144 -173.812)" fill="#173449"/>
              </g>
            </g>
            <g id="Grupo_84337" data-name="Grupo 84337" transform="translate(39.536 73.757)">
              <g id="Grupo_84336" data-name="Grupo 84336">
                <path id="Trazado_118451" data-name="Trazado 118451" d="M364.628,171.014a3.694,3.694,0,0,0-2.926,1.527,3.642,3.642,0,0,0-.377,3.453.331.331,0,0,0,.394.224.321.321,0,0,0,.224-.394,3.057,3.057,0,0,1,.273-2.9,3.019,3.019,0,0,1,2.413-1.266.32.32,0,0,0,0-.64Z" transform="translate(-361.053 -171.014)" fill="#173449"/>
              </g>
            </g>
            <g id="Grupo_84339" data-name="Grupo 84339" transform="translate(16.282 70.835)">
              <g id="Grupo_84338" data-name="Grupo 84338">
                <path id="Trazado_118452" data-name="Trazado 118452" d="M343.725,169.436h1.586a.32.32,0,1,0,0-.64h-1.586a.32.32,0,1,0,0,.64Z" transform="translate(-343.405 -168.796)" fill="#173449"/>
              </g>
            </g>
            <g id="Grupo_84341" data-name="Grupo 84341" transform="translate(16.509 69.475)">
              <g id="Grupo_84340" data-name="Grupo 84340">
                <path id="Trazado_118453" data-name="Trazado 118453" d="M343.983,168.621l.68-.227a.339.339,0,0,0,.191-.148.329.329,0,0,0,.032-.246.321.321,0,0,0-.394-.224l-.68.227a.339.339,0,0,0-.191.148.328.328,0,0,0-.032.246.319.319,0,0,0,.146.191.327.327,0,0,0,.248.033Z" transform="translate(-343.577 -167.763)" fill="#173449"/>
              </g>
            </g>
            <g id="Grupo_84343" data-name="Grupo 84343" transform="translate(24.662 73.527)">
              <g id="Grupo_84342" data-name="Grupo 84342">
                <path id="Trazado_118454" data-name="Trazado 118454" d="M350.171,171.7l1.356-.241a.322.322,0,0,0,.224-.394.328.328,0,0,0-.394-.224l-1.357.241a.322.322,0,0,0-.223.394.328.328,0,0,0,.394.224Z" transform="translate(-349.765 -170.839)" fill="#173449"/>
              </g>
            </g>
            <g id="Grupo_84345" data-name="Grupo 84345" transform="translate(24.44 71.754)">
              <g id="Grupo_84344" data-name="Grupo 84344">
                <path id="Trazado_118455" data-name="Trazado 118455" d="M350,170.575l1.585-.452a.323.323,0,0,0,.224-.394.327.327,0,0,0-.394-.224l-1.586.452a.321.321,0,0,0,.171.618Z" transform="translate(-349.597 -169.493)" fill="#173449"/>
              </g>
            </g>
            <g id="Grupo_84347" data-name="Grupo 84347" transform="translate(33.482 70.855)">
              <g id="Grupo_84346" data-name="Grupo 84346">
                <path id="Trazado_118456" data-name="Trazado 118456" d="M357.006,169.993c-.059.046.032-.024.042-.03l.088-.062c.061-.04.121-.078.184-.112s.111-.061.167-.088c.032-.016.065-.03.1-.045s.033-.014,0,0l.05-.02a3.119,3.119,0,0,1,.386-.121c.07-.017.141-.032.211-.043l.054-.008c-.041.005-.042.005-.005,0l.107-.011a.321.321,0,1,0,0-.642,3.425,3.425,0,0,0-1.833.729.319.319,0,0,0,0,.452.331.331,0,0,0,.453,0Z" transform="translate(-356.459 -168.811)" fill="#173449"/>
              </g>
            </g>
            <g id="Grupo_84349" data-name="Grupo 84349" transform="translate(33.271 68.801)">
              <g id="Grupo_84348" data-name="Grupo 84348">
                <path id="Trazado_118457" data-name="Trazado 118457" d="M356.7,168.537a1.181,1.181,0,0,0,.588-.307,1.193,1.193,0,0,0,.336-.573.335.335,0,0,0-.033-.246.32.32,0,0,0-.585.076.924.924,0,0,1-.043.133l.032-.076a.856.856,0,0,1-.112.19l.05-.065a.951.951,0,0,1-.162.163l.065-.05a.915.915,0,0,1-.2.116l.076-.032a.809.809,0,0,1-.183.053.324.324,0,0,0-.191.148.323.323,0,0,0,.115.439l.076.032a.316.316,0,0,0,.171,0Z" transform="translate(-356.299 -167.252)" fill="#173449"/>
              </g>
            </g>
            <g id="Grupo_84351" data-name="Grupo 84351" transform="translate(39.387 66.518)">
              <g id="Grupo_84350" data-name="Grupo 84350">
                <path id="Trazado_118458" data-name="Trazado 118458" d="M361.347,166.375l.907-.228a.324.324,0,0,0,.224-.394.327.327,0,0,0-.394-.224l-.907.228a.32.32,0,0,0,.17.618Z" transform="translate(-360.94 -165.519)" fill="#173449"/>
              </g>
            </g>
            <g id="Grupo_84353" data-name="Grupo 84353" transform="translate(38.95 65.171)">
              <g id="Grupo_84352" data-name="Grupo 84352">
                <path id="Trazado_118459" data-name="Trazado 118459" d="M360.917,165.137a.32.32,0,0,0,0-.64.32.32,0,0,0,0,.64Z" transform="translate(-360.609 -164.497)" fill="#173449"/>
              </g>
            </g>
          </g>
          <g id="Grupo_84386" data-name="Grupo 84386" transform="translate(188.497 129.523)">
            <g id="Grupo_84355" data-name="Grupo 84355">
              <path id="Trazado_118460" data-name="Trazado 118460" d="M438.214,221.8c7.463-6.235,12.474-14.868,16.945-23.5a8.047,8.047,0,0,0,1.285-4.544c-.2-1.588-1.791-3.092-3.3-2.575-2.531.866-1.581,5.479-4.031,6.556,3.048-5.575,6.186-11.974,4.22-18.017-.376-1.153-1.115-2.386-2.318-2.546-1.8-.237-2.837,1.958-3.282,3.722l-2.705,10.739a35.62,35.62,0,0,0,1.451-12.158,7.7,7.7,0,0,0-1.323-4.509c-1-1.237-3.019-1.775-4.215-.723a4.625,4.625,0,0,0-1.124,3.193l-1.12,13.114-1.81-8.915a3.2,3.2,0,0,0-.655-1.615c-.843-.9-2.464-.478-3.2.509a6.279,6.279,0,0,0-.893,3.526c-.181,3.764-.261,7.6-1.434,11.179-1.253,3.832-3.7,7.2-4.837,11.069a17.371,17.371,0,0,0,.306,10.368,18,18,0,0,0,2.407,4.713c.762,1.063,2.218,3.215,3.579,3.414C434.214,225.1,436.773,223.006,438.214,221.8Z" transform="translate(-425.212 -173.684)" fill="#fcc0b4"/>
            </g>
            <g id="Grupo_84357" data-name="Grupo 84357" transform="translate(11.126 6.729)">
              <g id="Grupo_84356" data-name="Grupo 84356">
                <path id="Trazado_118461" data-name="Trazado 118461" d="M433.681,179.174a25.859,25.859,0,0,1,1.21,15.868c-.1.4.52.571.617.17A26.43,26.43,0,0,0,434.3,179c-.154-.377-.773-.212-.618.17Z" transform="translate(-433.656 -178.791)" fill="#173449"/>
              </g>
            </g>
            <g id="Grupo_84359" data-name="Grupo 84359" transform="translate(18.281 3.767)">
              <g id="Grupo_84358" data-name="Grupo 84358">
                <path id="Trazado_118462" data-name="Trazado 118462" d="M441.272,176.848a41.209,41.209,0,0,1-2.165,18.906c-.14.389.478.555.618.17a41.637,41.637,0,0,0,2.187-19.076c-.049-.4-.69-.408-.64,0Z" transform="translate(-439.086 -176.544)" fill="#173449"/>
              </g>
            </g>
            <g id="Grupo_84361" data-name="Grupo 84361" transform="translate(22.264 15.105)">
              <g id="Grupo_84360" data-name="Grupo 84360">
                <path id="Trazado_118463" data-name="Trazado 118463" d="M447.183,185.379a29.4,29.4,0,0,1-5.013,11.251c-.242.333.312.652.553.323a29.83,29.83,0,0,0,5.077-11.4c.086-.4-.532-.574-.617-.17Z" transform="translate(-442.109 -185.148)" fill="#173449"/>
              </g>
            </g>
            <g id="Grupo_84363" data-name="Grupo 84363" transform="translate(8.676 6.465)">
              <g id="Grupo_84362" data-name="Grupo 84362">
                <path id="Trazado_118464" data-name="Trazado 118464" d="M431.8,178.9a4.856,4.856,0,0,0,.5,2.5,2.145,2.145,0,0,0,1.825,1.061,1.51,1.51,0,0,0,1.092-.455c.283-.3-.169-.752-.453-.453a.907.907,0,0,1-.835.257,1.779,1.779,0,0,1-.436-.14,1.49,1.49,0,0,1-.418-.3,3.555,3.555,0,0,1-.631-2.472.32.32,0,0,0-.64,0Z" transform="translate(-431.797 -178.591)" fill="#173449"/>
              </g>
            </g>
            <g id="Grupo_84365" data-name="Grupo 84365" transform="translate(16.93 0.423)">
              <g id="Grupo_84364" data-name="Grupo 84364">
                <path id="Trazado_118465" data-name="Trazado 118465" d="M438.326,174.235c-.267,1.224-.524,2.629.264,3.725a2.146,2.146,0,0,0,1.373.9,8.488,8.488,0,0,1,1.876.211.323.323,0,0,0,.394-.224.328.328,0,0,0-.224-.394,5.058,5.058,0,0,0-1.66-.188,1.555,1.555,0,0,1-1.206-.629c-.7-.939-.428-2.181-.2-3.232.087-.4-.53-.573-.618-.17Z" transform="translate(-438.062 -174.005)" fill="#173449"/>
              </g>
            </g>
            <g id="Grupo_84367" data-name="Grupo 84367" transform="translate(25.22 3.971)">
              <g id="Grupo_84366" data-name="Grupo 84366">
                <path id="Trazado_118466" data-name="Trazado 118466" d="M444.884,176.919c-.415,1.228-.9,2.792-.108,3.978a2.087,2.087,0,0,0,2.726.851c.35-.217.029-.771-.323-.553-.714.441-1.584-.125-1.941-.772-.559-1.012-.075-2.332.262-3.334.133-.391-.486-.56-.617-.17Z" transform="translate(-444.353 -176.698)" fill="#173449"/>
              </g>
            </g>
            <g id="Grupo_84369" data-name="Grupo 84369" transform="translate(27.694 18.375)">
              <g id="Grupo_84368" data-name="Grupo 84368">
                <path id="Trazado_118467" data-name="Trazado 118467" d="M447.65,187.647a2.2,2.2,0,0,0,.718,4.26c.412.018.411-.622,0-.64a1.562,1.562,0,0,1-.548-3,.33.33,0,0,0,.224-.394.322.322,0,0,0-.394-.224Z" transform="translate(-446.23 -187.63)" fill="#173449"/>
              </g>
            </g>
            <g id="Grupo_84371" data-name="Grupo 84371" transform="translate(9.347 18.015)">
              <g id="Grupo_84370" data-name="Grupo 84370">
                <path id="Trazado_118468" data-name="Trazado 118468" d="M432.787,188.423a2.293,2.293,0,0,1,.357-.225l.095-.045c.062-.029-.049.017.021-.009s.132-.047.2-.067.136-.037.2-.05l.079-.013c.037-.005.034-.005-.007,0l.051-.005a2.372,2.372,0,0,1,.422,0,.321.321,0,0,0,.32-.32.329.329,0,0,0-.32-.32,2.559,2.559,0,0,0-1.746.5.355.355,0,0,0-.148.191.328.328,0,0,0,.033.246.323.323,0,0,0,.437.116Z" transform="translate(-432.306 -187.357)" fill="#173449"/>
              </g>
            </g>
            <g id="Grupo_84373" data-name="Grupo 84373" transform="translate(9.796 16.216)">
              <g id="Grupo_84372" data-name="Grupo 84372">
                <path id="Trazado_118469" data-name="Trazado 118469" d="M433.053,186.842l1.36-.227a.322.322,0,0,0,.224-.394.33.33,0,0,0-.394-.224l-1.36.228a.322.322,0,0,0-.224.394.328.328,0,0,0,.394.223Z" transform="translate(-432.647 -185.991)" fill="#173449"/>
              </g>
            </g>
            <g id="Grupo_84375" data-name="Grupo 84375" transform="translate(16.595 17.122)">
              <g id="Grupo_84374" data-name="Grupo 84374">
                <path id="Trazado_118470" data-name="Trazado 118470" d="M438.127,187.319h1.812a.32.32,0,1,0,0-.64h-1.812a.32.32,0,1,0,0,.64Z" transform="translate(-437.807 -186.679)" fill="#173449"/>
              </g>
            </g>
            <g id="Grupo_84377" data-name="Grupo 84377" transform="translate(16.821 15.536)">
              <g id="Grupo_84376" data-name="Grupo 84376">
                <path id="Trazado_118471" data-name="Trazado 118471" d="M438.3,186.115h.905a.32.32,0,1,0,0-.64H438.3a.32.32,0,1,0,0,.64Z" transform="translate(-437.979 -185.475)" fill="#173449"/>
              </g>
            </g>
            <g id="Grupo_84379" data-name="Grupo 84379" transform="translate(22.725 17.791)">
              <g id="Grupo_84378" data-name="Grupo 84378">
                <path id="Trazado_118472" data-name="Trazado 118472" d="M442.551,187.731a2.21,2.21,0,0,0,1.575.569.32.32,0,1,0,0-.64c-.058,0-.116,0-.174,0l-.088-.005-.043-.005c-.036,0-.029,0,.02,0-.01.008-.072-.012-.086-.014l-.086-.018a1.746,1.746,0,0,1-.167-.05l-.083-.03.016.007-.04-.017c-.053-.025-.1-.053-.156-.082s-.1-.062-.146-.1l-.036-.025c.037.028.041.03.013.009s-.043-.038-.066-.058a.321.321,0,0,0-.453.453Z" transform="translate(-442.459 -187.187)" fill="#173449"/>
              </g>
            </g>
            <g id="Grupo_84381" data-name="Grupo 84381" transform="translate(22.714 16.669)">
              <g id="Grupo_84380" data-name="Grupo 84380">
                <path id="Trazado_118473" data-name="Trazado 118473" d="M442.684,186.965l.68.227a.32.32,0,0,0,.17-.618l-.68-.227a.32.32,0,1,0-.17.618Z" transform="translate(-442.451 -186.335)" fill="#173449"/>
              </g>
            </g>
            <g id="Grupo_84383" data-name="Grupo 84383" transform="translate(26.563 24.382)">
              <g id="Grupo_84382" data-name="Grupo 84382">
                <path id="Trazado_118474" data-name="Trazado 118474" d="M445.526,192.786l.905.455a.345.345,0,0,0,.248.032.32.32,0,0,0,.076-.585l-.905-.455a.345.345,0,0,0-.248-.033.334.334,0,0,0-.191.148.326.326,0,0,0,.115.439Z" transform="translate(-445.372 -192.189)" fill="#173449"/>
              </g>
            </g>
            <g id="Grupo_84385" data-name="Grupo 84385" transform="translate(25.204 25.731)">
              <g id="Grupo_84384" data-name="Grupo 84384">
                <path id="Trazado_118475" data-name="Trazado 118475" d="M444.435,193.76l.453.453a.329.329,0,0,0,.227.094.319.319,0,0,0,.32-.32.34.34,0,0,0-.094-.227l-.453-.453a.321.321,0,0,0-.453,0,.322.322,0,0,0-.094.227.329.329,0,0,0,.094.227Z" transform="translate(-444.341 -193.213)" fill="#173449"/>
              </g>
            </g>
          </g>
          <g id="Grupo_84388" data-name="Grupo 84388" transform="translate(55.841 86.01)">
            <g id="Grupo_84387" data-name="Grupo 84387">
              <path id="Trazado_118476" data-name="Trazado 118476" d="M350.564,148.35c-1.951-2.677-4.1-5.558-7.211-6.953-3.672-1.647-7.452-.231-10.893,1.308a16.551,16.551,0,0,0-4.628,2.7,9.124,9.124,0,0,0-2.426,4.605c-.86,3.269-1.752,7.184.854,9.916,2.352,2.465,6.193,2.863,9.4,3.087.411.029.41-.611,0-.64-3.326-.232-7.723-.676-9.659-3.822-1.214-1.969-.91-4.365-.434-6.51.49-2.211.987-4.583,2.716-6.182a18.884,18.884,0,0,1,5.546-3.06,13.889,13.889,0,0,1,6.85-1.486c4.2.468,7.024,4.2,9.331,7.362.24.331.8.011.552-.323Z" transform="translate(-324.533 -140.66)" fill="#173449"/>
            </g>
          </g>
          <g id="Grupo_84390" data-name="Grupo 84390" transform="translate(58.39 108.131)">
            <g id="Grupo_84389" data-name="Grupo 84389">
              <path id="Trazado_118477" data-name="Trazado 118477" d="M332.8,157.755a16.988,16.988,0,0,1-6.224,11.445c-.32.26.134.71.453.453a17.619,17.619,0,0,0,6.411-11.9c.042-.41-.6-.406-.64,0Z" transform="translate(-326.468 -157.449)" fill="#173449"/>
            </g>
          </g>
          <g id="Grupo_84392" data-name="Grupo 84392" transform="translate(36.207 72.768)">
            <g id="Grupo_84391" data-name="Grupo 84391">
              <path id="Trazado_118478" data-name="Trazado 118478" d="M345.919,143.48c-5.313-3.352-11.387-4.9-17.5-6.085-3.137-.606-6.289-1.132-9.413-1.8-2.7-.576-8.368-1.146-8.736-4.681-.041-.406-.683-.411-.64,0,.244,2.337,2.355,3.479,4.409,4.125a89.3,89.3,0,0,0,10.677,2.311c7.226,1.328,14.568,2.7,20.876,6.68.349.221.672-.333.323-.553Z" transform="translate(-309.633 -130.611)" fill="#173449"/>
            </g>
          </g>
          <g id="Grupo_84394" data-name="Grupo 84394" transform="translate(44.906 72.346)">
            <g id="Grupo_84393" data-name="Grupo 84393">
              <path id="Trazado_118479" data-name="Trazado 118479" d="M320.386,136.281a17.185,17.185,0,0,1-3.514-5.772c-.138-.385-.758-.219-.617.17a17.963,17.963,0,0,0,3.677,6.056c.281.3.733-.15.453-.453Z" transform="translate(-316.234 -130.29)" fill="#173449"/>
            </g>
          </g>
          <g id="Grupo_84396" data-name="Grupo 84396" transform="translate(90.333 74.175)">
            <g id="Grupo_84395" data-name="Grupo 84395">
              <path id="Trazado_118480" data-name="Trazado 118480" d="M361.082,131.816a69.615,69.615,0,0,0-10.355,20.809c-.12.4.5.564.618.17a69.054,69.054,0,0,1,10.289-20.655c.244-.333-.312-.654-.552-.324Z" transform="translate(-350.711 -131.678)" fill="#173449"/>
            </g>
          </g>
          <g id="Grupo_84398" data-name="Grupo 84398" transform="translate(183.249 159.242)">
            <g id="Grupo_84397" data-name="Grupo 84397">
              <path id="Trazado_118481" data-name="Trazado 118481" d="M427.553,196.284c-6.116,3.448-7.563,11.6-5.339,17.818a13.654,13.654,0,0,0,7.381,8.235,10.469,10.469,0,0,0,10.437-1.4c3.643-2.75,5.274-7.182,5.734-11.587.044-.41-.6-.407-.64,0-.494,4.725-2.473,9.541-6.811,11.947-4.39,2.436-9.654.961-12.839-2.734-5.227-6.062-5.12-17.482,2.4-21.722a.321.321,0,0,0-.323-.553Z" transform="translate(-421.23 -196.24)" fill="#173449"/>
            </g>
          </g>
          <g id="Grupo_84400" data-name="Grupo 84400" transform="translate(111.103 123.562)">
            <g id="Grupo_84399" data-name="Grupo 84399">
              <path id="Trazado_118482" data-name="Trazado 118482" d="M380.33,169.469a412.091,412.091,0,0,1-13.843,85.881.321.321,0,0,0,.618.17,412.915,412.915,0,0,0,13.865-86.051c.022-.412-.618-.411-.64,0Z" transform="translate(-366.474 -169.161)" fill="#173449"/>
            </g>
          </g>
          <g id="Grupo_84402" data-name="Grupo 84402" transform="translate(118.172 128.073)">
            <g id="Grupo_84401" data-name="Grupo 84401">
              <path id="Trazado_118483" data-name="Trazado 118483" d="M385.765,172.894a281.235,281.235,0,0,1-13.907,82.8c-.129.393.489.561.617.17a281.807,281.807,0,0,0,13.931-82.966.32.32,0,0,0-.64,0Z" transform="translate(-371.84 -172.584)" fill="#173449"/>
            </g>
          </g>
        </g>
        <g id="Grupo_84407" data-name="Grupo 84407" transform="translate(512.608 150.202)">
          <g id="Grupo_84404" data-name="Grupo 84404" transform="translate(0 28.54)">
            <circle id="Elipse_4790" data-name="Elipse 4790" cx="7.582" cy="7.582" r="7.582" fill="#173449"/>
          </g>
          <g id="Grupo_84405" data-name="Grupo 84405" transform="translate(5.899 6.735)">
            <rect id="Rectángulo_34658" data-name="Rectángulo 34658" width="1.532" height="26.218" transform="translate(0 0.35) rotate(-13.221)" fill="#173449"/>
          </g>
          <g id="Grupo_84406" data-name="Grupo 84406" transform="translate(4.99)">
            <rect id="Rectángulo_34659" data-name="Rectángulo 34659" width="16.599" height="7.521" transform="matrix(0.974, -0.229, 0.229, 0.974, 0, 3.796)" fill="#173449"/>
          </g>
        </g>
        <g id="Grupo_84411" data-name="Grupo 84411" transform="translate(309.441 219.514)">
          <g id="Grupo_84408" data-name="Grupo 84408" transform="translate(0 14.452)">
            <circle id="Elipse_4791" data-name="Elipse 4791" cx="6.144" cy="6.144" r="6.144" fill="#173449"/>
          </g>
          <g id="Grupo_84409" data-name="Grupo 84409" transform="translate(10.647 2.449)">
            <rect id="Rectángulo_34660" data-name="Rectángulo 34660" width="21.244" height="1.243" transform="translate(0 18.45) rotate(-60.28)" fill="#173449"/>
          </g>
          <g id="Grupo_84410" data-name="Grupo 84410" transform="translate(19.439)">
            <rect id="Rectángulo_34661" data-name="Rectángulo 34661" width="13.45" height="6.094" transform="translate(3.025 0) rotate(29.761)" fill="#173449"/>
          </g>
        </g>
        <g id="Grupo_84415" data-name="Grupo 84415" transform="translate(479.878 87.659)">
          <g id="Grupo_84412" data-name="Grupo 84412" transform="translate(7.393 24.96)">
            <circle id="Elipse_4792" data-name="Elipse 4792" cx="6.144" cy="6.144" r="6.144" fill="#173449"/>
          </g>
          <g id="Grupo_84413" data-name="Grupo 84413" transform="translate(1.847 9.847)">
            <rect id="Rectángulo_34662" data-name="Rectángulo 34662" width="1.242" height="21.243" transform="translate(0 0.792) rotate(-39.638)" fill="#173449"/>
          </g>
          <g id="Grupo_84414" data-name="Grupo 84414">
            <rect id="Rectángulo_34663" data-name="Rectángulo 34663" width="13.45" height="6.094" transform="matrix(0.77, -0.638, 0.638, 0.77, 0, 8.581)" fill="#173449"/>
          </g>
        </g>
        <g id="Grupo_84423" data-name="Grupo 84423" transform="translate(321.332 91.692)">
          <g id="Grupo_84418" data-name="Grupo 84418" transform="translate(0 3.864)">
            <g id="Grupo_84416" data-name="Grupo 84416" transform="translate(0 23.87)">
              <circle id="Elipse_4793" data-name="Elipse 4793" cx="8.59" cy="8.59" r="8.59" fill="#173449"/>
            </g>
            <g id="Grupo_84417" data-name="Grupo 84417" transform="translate(14.257)">
              <rect id="Rectángulo_34664" data-name="Rectángulo 34664" width="1.736" height="29.702" fill="#173449"/>
            </g>
          </g>
          <g id="Grupo_84421" data-name="Grupo 84421" transform="translate(27.699 3.864)">
            <g id="Grupo_84419" data-name="Grupo 84419" transform="translate(0 23.87)">
              <circle id="Elipse_4794" data-name="Elipse 4794" cx="8.59" cy="8.59" r="8.59" fill="#173449"/>
            </g>
            <g id="Grupo_84420" data-name="Grupo 84420" transform="translate(14.257)">
              <rect id="Rectángulo_34665" data-name="Rectángulo 34665" width="1.736" height="29.702" fill="#173449"/>
            </g>
          </g>
          <g id="Grupo_84422" data-name="Grupo 84422" transform="translate(14.105)">
            <rect id="Rectángulo_34666" data-name="Rectángulo 34666" width="29.792" height="8.521" fill="#173449"/>
          </g>
        </g>
        <g id="Grupo_84424" data-name="Grupo 84424" transform="translate(276.316 140.371)">
          <path id="Trazado_118484" data-name="Trazado 118484" d="M278.385,131.162a4.952,4.952,0,1,1,4.95-4.953A4.958,4.958,0,0,1,278.385,131.162Zm0-9.035a4.083,4.083,0,1,0,4.082,4.082A4.088,4.088,0,0,0,278.385,122.127Z" transform="translate(-273.433 -121.259)" fill="#173449"/>
        </g>
        <g id="Grupo_84425" data-name="Grupo 84425" transform="translate(287.372 205.538)">
          <path id="Trazado_118485" data-name="Trazado 118485" d="M290.145,187.36a8.321,8.321,0,1,1,8.322-8.322A8.331,8.331,0,0,1,290.145,187.36Zm0-15.774a7.454,7.454,0,1,0,7.454,7.452A7.461,7.461,0,0,0,290.145,171.585Z" transform="translate(-281.824 -170.717)" fill="#173449"/>
        </g>
        <g id="Grupo_84426" data-name="Grupo 84426" transform="translate(306.999 215.625)">
          <path id="Trazado_118486" data-name="Trazado 118486" d="M299.044,183.024a2.326,2.326,0,1,1,2.327-2.326A2.328,2.328,0,0,1,299.044,183.024Zm0-3.783A1.457,1.457,0,1,0,300.5,180.7,1.458,1.458,0,0,0,299.044,179.241Z" transform="translate(-296.72 -178.373)" fill="#173449"/>
        </g>
        <g id="Grupo_84427" data-name="Grupo 84427" transform="translate(457.903 128.205)">
          <path id="Trazado_118487" data-name="Trazado 118487" d="M417.65,124.828a6.4,6.4,0,1,1,6.4-6.4A6.409,6.409,0,0,1,417.65,124.828Zm0-11.935a5.534,5.534,0,1,0,5.533,5.534A5.541,5.541,0,0,0,417.65,112.893Z" transform="translate(-411.248 -112.026)" fill="#173449"/>
        </g>
        <g id="Grupo_84428" data-name="Grupo 84428" transform="translate(475.903 124.473)">
          <path id="Trazado_118488" data-name="Trazado 118488" d="M427.409,114.193a2.5,2.5,0,1,1,2.5-2.5A2.5,2.5,0,0,1,427.409,114.193Zm0-4.132a1.632,1.632,0,1,0,1.631,1.631A1.634,1.634,0,0,0,427.409,110.061Z" transform="translate(-424.909 -109.193)" fill="#173449"/>
        </g>
        <g id="Grupo_84429" data-name="Grupo 84429" transform="translate(491.501 158.055)">
          <path id="Trazado_118489" data-name="Trazado 118489" d="M441.56,144.308a4.814,4.814,0,1,1,4.815-4.815A4.819,4.819,0,0,1,441.56,144.308Zm0-8.761a3.946,3.946,0,1,0,3.946,3.946A3.951,3.951,0,0,0,441.56,135.547Z" transform="translate(-436.747 -134.68)" fill="#173449"/>
        </g>
      </g>
    </g>
  </g>
</svg>
