<svg xmlns="http://www.w3.org/2000/svg" width="315" height="239.319" viewBox="0 0 315 239.319">
  <g id="_35" data-name="35" transform="translate(4952.794 8437.319)">
    <g id="_33" data-name="33" transform="translate(-5217.794 -11696.188)">
      <g id="Grupo_85023" data-name="Grupo 85023">
        <rect id="Rectángulo_34651" data-name="Rectángulo 34651" width="315" height="170" transform="translate(265 3328.188)" fill="#6b8dff"/>
      </g>
    </g>
    <g id="Grupo_84585" data-name="Grupo 84585" transform="translate(-4963.16 -8726.667)">
      <g id="Grupo_84431" data-name="Grupo 84431" transform="translate(32.814 289.348)">
        <path id="Trazado_118490" data-name="Trazado 118490" d="M37.734,454.7c-7.109-16.773-6.916-37.2,3.227-52.336C48.568,391.017,60.8,383.606,69.536,373.1c11.332-13.619,16.1-31.505,25.736-46.371a83.138,83.138,0,0,1,58.93-36.766c15.919-1.921,32.069.872,47.5,5.241,22.261,6.3,44.746,16.885,57.44,36.228,10.528,16.04,12.929,35.882,18.924,54.108,3.85,11.708,9.277,23,11.2,35.177a63.707,63.707,0,0,1-13.427,49.559c-7.015,8.579-16.633,15.373-27.527,17.409-15.26,2.853-30.473-3.7-45.172-8.7a236.475,236.475,0,0,0-54.4-11.568c-17.864-1.638-36.944-.707-52.218,9.692-6.4,4.354-13.274,9.685-21.052,11.183-7.631,1.47-14.192-2.546-19.516-7.658A79.263,79.263,0,0,1,37.734,454.7Z" transform="translate(-32.814 -289.348)" fill="#ffd947"/>
      </g>
      <g id="Grupo_84534" data-name="Grupo 84534" transform="translate(44.554 326.484)">
        <g id="Grupo_84432" data-name="Grupo 84432" transform="translate(11.441 72.793)">
          <path id="Trazado_118491" data-name="Trazado 118491" d="M91.312,385.207c-9.455,6.016-17.208,14.565-24.459,23.352-9.018,10.929-17.937,24.043-16.476,38.456,1.205,11.888,9.6,21.967,19.658,27.453s21.609,7.035,32.917,7.574a209.438,209.438,0,0,0,31.447-.868c15.939-1.645,31.758-5.124,47.773-5.037,14,.076,27.948,2.878,41.917,1.975s28.733-6.39,36.312-18.817c6.908-11.324,6.1-27.291-1.91-37.776-3.457-4.523-7.992-7.97-12.532-11.256-9.115-6.6-18.486-12.788-27.854-18.977-7.8-5.15-15.67-10.339-24.328-13.61a80.98,80.98,0,0,0-21.811-4.607c-7.266-.619-14.547-.132-21.8-.611-2.229-.148-4.419-.585-6.659-.567-3.429.027-6.889.463-10.3.82a139.008,139.008,0,0,0-20.652,3.532A74.311,74.311,0,0,0,91.312,385.207Z" transform="translate(-50.219 -371.89)" fill="#f85955"/>
        </g>
        <g id="Grupo_84471" data-name="Grupo 84471" transform="translate(94.62)">
          <g id="Grupo_84433" data-name="Grupo 84433" transform="translate(10.398 54.597)">
            <path id="Trazado_118492" data-name="Trazado 118492" d="M141.106,385.765,137.189,359.4l-6.379-1.172-6.381,1.172-3.916,26.366s-1.139,10.351,10.3,13.085C142.245,396.116,141.106,385.765,141.106,385.765Z" transform="translate(-120.482 -358.227)" fill="#fcc0b4"/>
          </g>
          <g id="Grupo_84468" data-name="Grupo 84468">
            <g id="Grupo_84434" data-name="Grupo 84434" transform="translate(0.624)">
              <path id="Trazado_118493" data-name="Trazado 118493" d="M132.79,324a4.284,4.284,0,0,0-2.773,3.726,5.831,5.831,0,0,0-8.617,5.234,8.467,8.467,0,0,0-4.721,2.3,4.913,4.913,0,0,0-1.221,4.921,8.956,8.956,0,0,0-2.247,3.8c-.294,1.457.384,3.227,1.818,3.617,1.493.408,3.523-.625,4.407.645.4.571.316,1.393.766,1.922.77.9,2.348.142,2.81-.948s.317-2.348.666-3.48c.555-1.8,2.336-3.593,1.434-5.251a5.68,5.68,0,0,0,4.652-3.552,3.874,3.874,0,0,0,4.925-.8,4.606,4.606,0,0,0,4.8,1.6,5.029,5.029,0,0,0,.948,3.143l.6,1.052a4.622,4.622,0,0,0,1.908,2.136c.206.971-.007,1.987.129,2.97s.846,2.04,1.837,1.988c1.095-.057,1.715-1.377,2.773-1.665a12.294,12.294,0,0,1,1.719-.061,2.723,2.723,0,0,0,2.124-2.9,4.879,4.879,0,0,0-1.964-3.316,4.734,4.734,0,0,0,.16-8.77,6.049,6.049,0,0,0,2.189-3.83,2.957,2.957,0,0,0-2.463-3.224,5.441,5.441,0,0,0,.657-5.247,4.621,4.621,0,0,0-4.391-2.767,4.025,4.025,0,0,0-3.67,3.511c-.689-1.562-3.142-1.63-4.314-.389a4.248,4.248,0,0,0-1.019,3.115,6.34,6.34,0,0,1,.095.852c-.051.41-.182.2-.477.029a4.368,4.368,0,0,0-1.633-.554A4.127,4.127,0,0,0,132.79,324Z" transform="translate(-113.143 -317.232)" fill="#173449"/>
            </g>
            <g id="Grupo_84467" data-name="Grupo 84467" transform="translate(0 17.153)">
              <g id="Grupo_84435" data-name="Grupo 84435" transform="translate(5.804)">
                <path id="Trazado_118494" data-name="Trazado 118494" d="M146.447,361.507c.16-2.626.775-5.651.164-8.209a132.505,132.505,0,0,0-4.358-14.5,17.5,17.5,0,0,0-3.517-6.441c-1.722-1.765-4.411-2.8-6.715-1.927-2.3-.878-4.992.162-6.715,1.927a17.5,17.5,0,0,0-3.516,6.441,131.92,131.92,0,0,0-4.358,14.5,28.017,28.017,0,0,0-.221,8.035,10.407,10.407,0,0,0,3.035,7.076c1.561,1.43,5.013,2.783,7.7,3.684a13.754,13.754,0,0,0,8.958-.051,21.224,21.224,0,0,0,6.51-3.46A10.4,10.4,0,0,0,146.447,361.507Z" transform="translate(-117.033 -330.112)" fill="#fcc0b4"/>
              </g>
              <g id="Grupo_84442" data-name="Grupo 84442" transform="translate(12.798 12.896)">
                <g id="Grupo_84438" data-name="Grupo 84438">
                  <g id="Grupo_84436" data-name="Grupo 84436">
                    <ellipse id="Elipse_4795" data-name="Elipse 4795" cx="2.741" cy="3.191" rx="2.741" ry="3.191" fill="#fff"/>
                  </g>
                  <g id="Grupo_84437" data-name="Grupo 84437" transform="translate(1.697 2.998)">
                    <ellipse id="Elipse_4796" data-name="Elipse 4796" cx="1.028" cy="1.207" rx="1.028" ry="1.207" fill="#173449"/>
                  </g>
                </g>
                <g id="Grupo_84441" data-name="Grupo 84441" transform="translate(11.095 0.008)">
                  <g id="Grupo_84439" data-name="Grupo 84439">
                    <ellipse id="Elipse_4797" data-name="Elipse 4797" cx="2.741" cy="3.191" rx="2.741" ry="3.191" fill="#fff"/>
                  </g>
                  <g id="Grupo_84440" data-name="Grupo 84440" transform="translate(1.713 2.99)">
                    <ellipse id="Elipse_4798" data-name="Elipse 4798" cx="1.028" cy="1.207" rx="1.028" ry="1.207" fill="#173449"/>
                  </g>
                </g>
              </g>
              <g id="Grupo_84448" data-name="Grupo 84448" transform="translate(0 12.207)">
                <g id="Grupo_84443" data-name="Grupo 84443">
                  <path id="Trazado_118495" data-name="Trazado 118495" d="M120.425,339.828c-.036-.025-.073-.049-.111-.073a3.884,3.884,0,0,0-3.924.121,7.922,7.922,0,0,0-2.227,11.352,3.8,3.8,0,0,0,1.5,1.3,3.457,3.457,0,0,0,2.565-.079,6.532,6.532,0,0,0,3.616-3.849,10.3,10.3,0,0,0,.356-5.365A5.1,5.1,0,0,0,120.425,339.828Z" transform="translate(-112.675 -339.277)" fill="#fcc0b4"/>
                </g>
                <g id="Grupo_84445" data-name="Grupo 84445" transform="translate(3.666 2.957)">
                  <g id="Grupo_84444" data-name="Grupo 84444">
                    <path id="Trazado_118496" data-name="Trazado 118496" d="M117.518,341.56a6.192,6.192,0,0,0-1.55,7.165c.133.288.557.039.425-.248a5.7,5.7,0,0,1,1.473-6.57c.241-.205-.108-.553-.348-.348Z" transform="translate(-115.428 -341.497)" fill="#173449"/>
                  </g>
                </g>
                <g id="Grupo_84447" data-name="Grupo 84447" transform="translate(3.938 6.237)">
                  <g id="Grupo_84446" data-name="Grupo 84446">
                    <path id="Trazado_118497" data-name="Trazado 118497" d="M115.813,344.447a2.768,2.768,0,0,1,1.626,2.094.248.248,0,0,0,.3.172.252.252,0,0,0,.172-.3,3.253,3.253,0,0,0-1.971-2.437.247.247,0,0,0-.3.172.25.25,0,0,0,.172.3Z" transform="translate(-115.632 -343.96)" fill="#173449"/>
                  </g>
                </g>
              </g>
              <g id="Grupo_84454" data-name="Grupo 84454" transform="translate(31.427 12.207)">
                <g id="Grupo_84449" data-name="Grupo 84449">
                  <path id="Trazado_118498" data-name="Trazado 118498" d="M138.243,339.828c.036-.025.073-.049.111-.073a3.887,3.887,0,0,1,3.925.121,7.923,7.923,0,0,1,2.227,11.352,3.809,3.809,0,0,1-1.5,1.3,3.457,3.457,0,0,1-2.565-.079,6.532,6.532,0,0,1-3.616-3.849,10.3,10.3,0,0,1-.356-5.365A5.1,5.1,0,0,1,138.243,339.828Z" transform="translate(-136.272 -339.277)" fill="#fcc0b4"/>
                </g>
                <g id="Grupo_84451" data-name="Grupo 84451" transform="translate(3.536 2.957)">
                  <g id="Grupo_84450" data-name="Grupo 84450">
                    <path id="Trazado_118499" data-name="Trazado 118499" d="M139.008,341.907a5.7,5.7,0,0,1,1.473,6.57c-.132.285.293.535.425.248a6.194,6.194,0,0,0-1.549-7.165c-.24-.205-.59.142-.349.348Z" transform="translate(-138.927 -341.497)" fill="#173449"/>
                  </g>
                </g>
                <g id="Grupo_84453" data-name="Grupo 84453" transform="translate(3.497 6.237)">
                  <g id="Grupo_84452" data-name="Grupo 84452">
                    <path id="Trazado_118500" data-name="Trazado 118500" d="M140.872,343.973a3.249,3.249,0,0,0-1.97,2.437.252.252,0,0,0,.172.3.247.247,0,0,0,.3-.172A2.766,2.766,0,0,1,141,344.447a.255.255,0,0,0,.172-.3.249.249,0,0,0-.3-.172Z" transform="translate(-138.898 -343.96)" fill="#173449"/>
                  </g>
                </g>
              </g>
              <g id="Grupo_84456" data-name="Grupo 84456" transform="translate(12.483 8.464)">
                <g id="Grupo_84455" data-name="Grupo 84455">
                  <path id="Trazado_118501" data-name="Trazado 118501" d="M122.8,338.767c.775-1.336,2.484-1.484,3.869-1.5a.4.4,0,0,0,0-.8c-1.685.019-3.631.3-4.56,1.9a.4.4,0,0,0,.691.4Z" transform="translate(-122.048 -336.467)" fill="#173449"/>
                </g>
              </g>
              <g id="Grupo_84458" data-name="Grupo 84458" transform="translate(23.479 8.119)">
                <g id="Grupo_84457" data-name="Grupo 84457">
                  <path id="Trazado_118502" data-name="Trazado 118502" d="M130.809,337.084a5.176,5.176,0,0,1,3.965.914.4.4,0,0,0,.547-.144.41.41,0,0,0-.144-.547,5.973,5.973,0,0,0-4.58-.995.4.4,0,0,0-.28.493.408.408,0,0,0,.491.28Z" transform="translate(-130.304 -336.208)" fill="#173449"/>
                </g>
              </g>
              <g id="Grupo_84460" data-name="Grupo 84460" transform="translate(20.091 19.947)">
                <g id="Grupo_84459" data-name="Grupo 84459">
                  <path id="Trazado_118503" data-name="Trazado 118503" d="M128.072,345.943c.87-.35,2.018-.637,2.787.079a1.2,1.2,0,0,1,.425,1.072,1.315,1.315,0,0,1-.784.9,2.727,2.727,0,0,1-1.769.02.246.246,0,0,0-.131.474,3.341,3.341,0,0,0,1.946.015,1.9,1.9,0,0,0,1.145-1.059,1.855,1.855,0,0,0-1.606-2.316,4.049,4.049,0,0,0-2.144.344.253.253,0,0,0-.172.3.248.248,0,0,0,.3.172Z" transform="translate(-127.76 -345.089)" fill="#173449"/>
                </g>
              </g>
              <g id="Grupo_84462" data-name="Grupo 84462" transform="translate(16.758 24.522)">
                <g id="Grupo_84461" data-name="Grupo 84461">
                  <path id="Trazado_118504" data-name="Trazado 118504" d="M125.915,348.647c-.579,1.076-1.112,2.7-.041,3.665a2.638,2.638,0,0,0,3.345-.183,8.133,8.133,0,0,0,1.573-1.871c.178-.262-.248-.509-.425-.248-.766,1.123-1.819,2.584-3.383,2.3a1.443,1.443,0,0,1-1.224-1.286,3.828,3.828,0,0,1,.579-2.132c.15-.278-.274-.527-.425-.248Z" transform="translate(-125.257 -348.524)" fill="#173449"/>
                </g>
              </g>
              <g id="Grupo_84464" data-name="Grupo 84464" transform="translate(15.399 28.853)">
                <g id="Grupo_84463" data-name="Grupo 84463">
                  <path id="Trazado_118505" data-name="Trazado 118505" d="M124.253,351.954a1.264,1.264,0,0,0,.318,1.047,1.239,1.239,0,0,0,.962.425.246.246,0,0,0,0-.491,1.041,1.041,0,0,1-.113,0c-.02,0-.065-.016,0,0-.015,0-.032-.005-.047-.008a.881.881,0,0,1-.1-.027l-.052-.019c-.045-.017.047.023,0,0-.029-.013-.057-.028-.085-.044-.011-.008-.093-.051-.093-.063l.024.019-.025-.02-.036-.032a.976.976,0,0,1-.075-.075l-.032-.037c-.04-.048.021.033-.007-.007s-.037-.053-.053-.081a1.024,1.024,0,0,1-.051-.092l-.009-.021c-.011-.025-.009-.02.005.015l-.016-.045q-.016-.046-.028-.092l-.011-.055c-.011-.064,0,.044,0-.007,0-.032,0-.064,0-.1l0-.048,0-.032c-.005.039-.007.044,0,.017a.252.252,0,0,0-.172-.3.249.249,0,0,0-.3.172Z" transform="translate(-124.238 -351.776)" fill="#173449"/>
                </g>
              </g>
              <g id="Grupo_84465" data-name="Grupo 84465" transform="translate(9.871 20.298)">
                <ellipse id="Elipse_4799" data-name="Elipse 4799" cx="1.722" cy="2.656" rx="1.722" ry="2.656" transform="matrix(0.209, -0.978, 0.978, 0.209, 0, 3.367)" fill="#f47471"/>
              </g>
              <g id="Grupo_84466" data-name="Grupo 84466" transform="translate(25.848 19.927)">
                <ellipse id="Elipse_4800" data-name="Elipse 4800" cx="2.656" cy="1.722" rx="2.656" ry="1.722" transform="matrix(0.978, -0.209, 0.209, 0.978, 0, 1.112)" fill="#f47471"/>
              </g>
            </g>
          </g>
          <g id="Grupo_84470" data-name="Grupo 84470" transform="translate(11.022 56.3)">
            <g id="Grupo_84469" data-name="Grupo 84469">
              <path id="Trazado_118506" data-name="Trazado 118506" d="M121.06,359.974a14.91,14.91,0,0,0,8.127,2.44,33.362,33.362,0,0,0,5.077-.288,18.362,18.362,0,0,0,4.521-.956c.292-.115.165-.59-.131-.475a18.69,18.69,0,0,1-4.729.979,32.85,32.85,0,0,1-4.4.257,14.65,14.65,0,0,1-8.216-2.381c-.261-.181-.507.245-.249.425Z" transform="translate(-120.951 -359.505)" fill="#173449"/>
            </g>
          </g>
        </g>
        <g id="Grupo_84473" data-name="Grupo 84473" transform="translate(76.384 76.922)">
          <g id="Grupo_84472" data-name="Grupo 84472">
            <path id="Trazado_118507" data-name="Trazado 118507" d="M99.012,375.362a95.852,95.852,0,0,1,8.9,25.785c.06.31.534.18.475-.131a96.312,96.312,0,0,0-8.95-25.9c-.145-.282-.57-.033-.425.248Z" transform="translate(-98.983 -374.99)" fill="#173449"/>
          </g>
        </g>
        <g id="Grupo_84475" data-name="Grupo 84475" transform="translate(142.289 76.616)">
          <g id="Grupo_84474" data-name="Grupo 84474">
            <path id="Trazado_118508" data-name="Trazado 118508" d="M152.3,374.932a96.888,96.888,0,0,0-3.832,20c-.027.316.465.314.491,0a96.35,96.35,0,0,1,3.814-19.868.246.246,0,0,0-.474-.132Z" transform="translate(-148.467 -374.76)" fill="#173449"/>
          </g>
        </g>
        <g id="Grupo_84476" data-name="Grupo 84476" transform="translate(12.047 128.25)">
          <path id="Trazado_118509" data-name="Trazado 118509" d="M58.14,420.21c-4.4,3.654-7.583,9.1-7.462,14.822.092,4.352,2.028,8.449,4.271,12.178C61.689,458.419,73.015,468.24,86.091,468c5.159-.095,11.166-2.837,11.648-7.974.3-3.238-1.761-6.241-4.161-8.436s-5.238-3.934-7.3-6.447C82.6,440.658,81.957,434.51,81,428.79c-.725-4.312-1.859-8.89-4.7-12.338-1.035-1.257-2.49-3.152-4.292-2.9a27.111,27.111,0,0,0-6.826,2.369A30.319,30.319,0,0,0,58.14,420.21Z" transform="translate(-50.674 -413.53)" fill="#173449"/>
        </g>
        <g id="Grupo_84477" data-name="Grupo 84477" transform="translate(184.668 129.402)">
          <path id="Trazado_118510" data-name="Trazado 118510" d="M215.056,419.812a17.794,17.794,0,0,1,4.166,8.807,28.254,28.254,0,0,1-5.158,22.031,30.935,30.935,0,0,1-19.482,11.731c-4.083.69-8.774.385-11.639-2.606-3.055-3.191-2.942-8.208-2.257-12.572a77.565,77.565,0,0,1,7.681-23.473q1.44-2.793,3.1-5.464c.727-1.167,1.517-2.967,2.885-3.515s3.259-.3,4.691-.29a39.294,39.294,0,0,1,5.436.389C208.405,415.431,212.293,416.859,215.056,419.812Z" transform="translate(-180.288 -414.395)" fill="#173449"/>
        </g>
        <g id="Grupo_84531" data-name="Grupo 84531" transform="translate(20.462 99.87)">
          <g id="Grupo_84478" data-name="Grupo 84478" transform="translate(42.247 6.192)">
            <path id="Trazado_118511" data-name="Trazado 118511" d="M195.953,410.931c-1.265-2.505-4.183-3.641-6.889-4.384-4.952-1.362-11.38-2.847-16.513-3.009,1.014-2.259-.7-4.986-2.967-5.973s-4.862-.718-7.321-.429a5.025,5.025,0,0,0-2.467.738,1.73,1.73,0,0,0-.557,2.279,4.2,4.2,0,0,0,1.26.872c1.849,1.167.432,5.337-1.5,6.37-5.173-.314-27.514-.314-32.687,0-1.927-1.033-3.344-5.2-1.5-6.37a4.2,4.2,0,0,0,1.26-.872,1.732,1.732,0,0,0-.557-2.279,5.029,5.029,0,0,0-2.466-.738c-2.459-.289-5.052-.559-7.321.429s-3.981,3.714-2.967,5.973c-5.134.161-11.561,1.646-16.513,3.009-2.706.743-5.626,1.879-6.889,4.384-1.679,3.328.328,7.213,1.064,10.866.987,4.9-.17,10.712,3.264,14.345,3.931,4.159,11.716,2.831,15.153,7.408.615.819,1.033,1.774,1.667,2.578a6.3,6.3,0,0,0,9.625-.233c1.421-2,1.508-4.668,2.684-6.82,1.65-3.022,5.146-4.524,8.5-5.291,3.689-.844,18.977-.844,22.666,0,3.355.767,6.851,2.269,8.5,5.291,1.176,2.152,1.261,4.821,2.684,6.82a6.3,6.3,0,0,0,9.625.233c.634-.8,1.052-1.759,1.667-2.578,3.436-4.576,11.222-3.248,15.153-7.408,3.435-3.633,2.277-9.443,3.264-14.345C195.625,418.144,197.632,414.259,195.953,410.931Z" transform="translate(-88.714 -396.87)" fill="#6791ce"/>
          </g>
          <g id="Grupo_84498" data-name="Grupo 84498">
            <g id="Grupo_84479" data-name="Grupo 84479">
              <path id="Trazado_118512" data-name="Trazado 118512" d="M59.55,452.511a22.583,22.583,0,0,0,23.73,11.768,68.3,68.3,0,0,1,9.247-.88c2.73-.067,5.546.033,8.091-.958s5.04-3.495,4.748-6.21c.715-.78,1.963-.538,3.022-.537a5.572,5.572,0,0,0,4.732-2.717c.958-1.646,1.6-4.256.653-5.911a11.7,11.7,0,0,0,5.907-2.793c1.245-1.107,2.305-2.754,1.85-4.356a3.994,3.994,0,0,0-3.282-2.522,23.339,23.339,0,0,0-4.358-.017,13.607,13.607,0,0,1-5.951-1.046c3.192-1.786,7.069-1.629,10.725-1.5,4.255.147,8.873.083,12.01-3.148a5.923,5.923,0,0,0,1.224-6.927c-1.525-2.741-4.679-2.909-7.437-2.621-3.575.373-7.107,1.3-10.7,1.228-4.224-.08-8.8-1.851-10.2-6.152a5.622,5.622,0,0,1,2.886-7c5.2-2.182,10.3,5.4,15.414,2.75a5.622,5.622,0,0,0,2.8-5.7c-.514-4.332-3.929-7.007-7.237-9.327-3.071-2.152-6.283-4.235-9.909-5.2s-7.768-.646-10.722,1.665a52.423,52.423,0,0,0-4.045,4.215c-3.583,3.513-6.588-.867-21.783,21.916a17.872,17.872,0,0,1-3.163,2.247,22.734,22.734,0,0,0-8.441,29.37Z" transform="translate(-56.993 -392.22)" fill="#fcc0b4"/>
            </g>
            <g id="Grupo_84481" data-name="Grupo 84481" transform="translate(60.183 9.133)">
              <g id="Grupo_84480" data-name="Grupo 84480">
                <path id="Trazado_118513" data-name="Trazado 118513" d="M106.2,399.111a3.54,3.54,0,0,0-4,3.856,8.2,8.2,0,0,0,1.778,3.651,20.314,20.314,0,0,0,2.947,3.214c.236.208.586-.138.348-.348a20.033,20.033,0,0,1-2.416-2.524,11.6,11.6,0,0,1-1.938-3.122,3.04,3.04,0,0,1,3.146-4.252c.31.044.444-.43.131-.474Z" transform="translate(-102.182 -399.077)" fill="#173449"/>
              </g>
            </g>
            <g id="Grupo_84483" data-name="Grupo 84483" transform="translate(43.798 0.899)">
              <g id="Grupo_84482" data-name="Grupo 84482">
                <path id="Trazado_118514" data-name="Trazado 118514" d="M89.879,393.133v2.148a.247.247,0,0,0,.493,0v-2.148a.247.247,0,0,0-.493,0Z" transform="translate(-89.879 -392.895)" fill="#173449"/>
              </g>
            </g>
            <g id="Grupo_84485" data-name="Grupo 84485" transform="translate(45.55 1.096)">
              <g id="Grupo_84484" data-name="Grupo 84484">
                <path id="Trazado_118515" data-name="Trazado 118515" d="M91.4,393.213a4.278,4.278,0,0,0,.007,2.668c.1.3.574.172.474-.131a3.823,3.823,0,0,1-.007-2.407c.1-.3-.377-.43-.474-.131Z" transform="translate(-91.194 -393.043)" fill="#173449"/>
              </g>
            </g>
            <g id="Grupo_84487" data-name="Grupo 84487" transform="translate(68.798 30.828)">
              <g id="Grupo_84486" data-name="Grupo 84486">
                <path id="Trazado_118516" data-name="Trazado 118516" d="M112.8,415.559a2.619,2.619,0,0,0-2.969.786,6,6,0,0,0-1.133,3.726,5.189,5.189,0,0,0,.6,3.555c.782,1.024,2.132,1.168,3.324,1.251.316.023.314-.47,0-.491a3.947,3.947,0,0,1-2.875-.98,4.28,4.28,0,0,1-.578-3.049,7.07,7.07,0,0,1,.707-3.248,2.253,2.253,0,0,1,2.672-1.124c.288.125.538-.3.249-.425Z" transform="translate(-108.65 -415.368)" fill="#173449"/>
              </g>
            </g>
            <g id="Grupo_84489" data-name="Grupo 84489" transform="translate(51.947 31.906)">
              <g id="Grupo_84488" data-name="Grupo 84488">
                <path id="Trazado_118517" data-name="Trazado 118517" d="M97.576,416.282a8.27,8.27,0,0,0-.523,8.9.246.246,0,0,0,.425-.249,7.786,7.786,0,0,1,.523-8.4c.189-.254-.238-.5-.425-.249Z" transform="translate(-95.998 -416.177)" fill="#173449"/>
              </g>
            </g>
            <g id="Grupo_84491" data-name="Grupo 84491" transform="translate(44.588 54.878)">
              <g id="Grupo_84490" data-name="Grupo 84490">
                <path id="Trazado_118518" data-name="Trazado 118518" d="M102.818,433.426l-12.109.051a.247.247,0,0,0,0,.493l12.109-.052a.246.246,0,0,0,0-.491Z" transform="translate(-90.472 -433.426)" fill="#173449"/>
              </g>
            </g>
            <g id="Grupo_84493" data-name="Grupo 84493" transform="translate(40.882 63.099)">
              <g id="Grupo_84492" data-name="Grupo 84492">
                <path id="Trazado_118519" data-name="Trazado 118519" d="M95.932,439.671a47.739,47.739,0,0,0-8.008.23c-.31.036-.314.527,0,.493a47.6,47.6,0,0,1,8.008-.232c.316.017.314-.474,0-.491Z" transform="translate(-87.689 -439.598)" fill="#173449"/>
              </g>
            </g>
            <g id="Grupo_84494" data-name="Grupo 84494" transform="translate(40 31.948)">
              <path id="Trazado_118520" data-name="Trazado 118520" d="M90.122,422.4a3.1,3.1,0,1,1,3.1-3.1A3.1,3.1,0,0,1,90.122,422.4Zm0-5.815a2.72,2.72,0,1,0,2.721,2.72A2.722,2.722,0,0,0,90.122,416.585Z" transform="translate(-87.027 -416.209)" fill="#173449"/>
            </g>
            <g id="Grupo_84495" data-name="Grupo 84495" transform="translate(39.117 45.409)">
              <path id="Trazado_118521" data-name="Trazado 118521" d="M89.459,432.506a3.1,3.1,0,1,1,3.1-3.1A3.1,3.1,0,0,1,89.459,432.506Zm0-5.816a2.72,2.72,0,1,0,2.721,2.721A2.724,2.724,0,0,0,89.459,426.69Z" transform="translate(-86.364 -426.316)" fill="#173449"/>
            </g>
            <g id="Grupo_84496" data-name="Grupo 84496" transform="translate(37.119 55.994)">
              <path id="Trazado_118522" data-name="Trazado 118522" d="M87.49,439.517a2.626,2.626,0,1,1,2.625-2.626A2.63,2.63,0,0,1,87.49,439.517Zm0-4.934A2.308,2.308,0,1,0,89.8,436.89,2.31,2.31,0,0,0,87.49,434.582Z" transform="translate(-84.864 -434.264)" fill="#173449"/>
            </g>
            <g id="Grupo_84497" data-name="Grupo 84497" transform="translate(34.995 63.989)">
              <path id="Trazado_118523" data-name="Trazado 118523" d="M85.553,444.835a2.284,2.284,0,1,1,2.284-2.284A2.286,2.286,0,0,1,85.553,444.835Zm0-4.291a2.008,2.008,0,1,0,2.007,2.007A2.01,2.01,0,0,0,85.553,440.544Z" transform="translate(-83.269 -440.267)" fill="#173449"/>
            </g>
          </g>
          <g id="Grupo_84518" data-name="Grupo 84518" transform="translate(116.925)">
            <g id="Grupo_84499" data-name="Grupo 84499">
              <path id="Trazado_118524" data-name="Trazado 118524" d="M217.78,452.511a22.583,22.583,0,0,1-23.73,11.768,68.321,68.321,0,0,0-9.248-.88c-2.73-.067-5.544.033-8.089-.958s-5.04-3.495-4.749-6.21c-.714-.78-1.963-.538-3.022-.537a5.573,5.573,0,0,1-4.732-2.717c-.958-1.646-1.6-4.256-.653-5.911a11.7,11.7,0,0,1-5.907-2.793c-1.244-1.107-2.3-2.754-1.85-4.356a4,4,0,0,1,3.283-2.522,23.338,23.338,0,0,1,4.358-.017,13.6,13.6,0,0,0,5.949-1.046c-3.192-1.786-7.068-1.629-10.725-1.5-4.255.147-8.871.083-12.01-3.148a5.92,5.92,0,0,1-1.223-6.927c1.524-2.741,4.677-2.909,7.436-2.621,3.575.373,7.107,1.3,10.7,1.228,4.226-.08,8.8-1.851,10.2-6.152a5.622,5.622,0,0,0-2.885-7c-5.2-2.182-10.3,5.4-15.414,2.75a5.622,5.622,0,0,1-2.8-5.7c.513-4.332,3.929-7.007,7.237-9.327,3.07-2.152,6.283-4.235,9.907-5.2s7.77-.646,10.722,1.665a52.676,52.676,0,0,1,4.046,4.215c3.583,3.513,6.588-.867,21.782,21.916a17.964,17.964,0,0,0,3.164,2.247,22.736,22.736,0,0,1,8.441,29.37Z" transform="translate(-144.787 -392.22)" fill="#fcc0b4"/>
            </g>
            <g id="Grupo_84501" data-name="Grupo 84501" transform="translate(10.188 9.132)">
              <g id="Grupo_84500" data-name="Grupo 84500">
                <path id="Trazado_118525" data-name="Trazado 118525" d="M153.722,399.586a3.044,3.044,0,0,1,3.147,4.252,11.432,11.432,0,0,1-1.882,3.053,20.312,20.312,0,0,1-2.472,2.593c-.238.209.111.557.348.348a20.408,20.408,0,0,0,2.893-3.142,8.3,8.3,0,0,0,1.833-3.722,3.54,3.54,0,0,0-4-3.856c-.312.044-.18.518.13.474Z" transform="translate(-152.436 -399.077)" fill="#173449"/>
              </g>
            </g>
            <g id="Grupo_84503" data-name="Grupo 84503" transform="translate(31.26 0.899)">
              <g id="Grupo_84502" data-name="Grupo 84502">
                <path id="Trazado_118526" data-name="Trazado 118526" d="M168.258,393.133v2.148a.246.246,0,0,0,.491,0v-2.148a.246.246,0,0,0-.491,0Z" transform="translate(-168.258 -392.895)" fill="#173449"/>
              </g>
            </g>
            <g id="Grupo_84505" data-name="Grupo 84505" transform="translate(29.296 1.096)">
              <g id="Grupo_84504" data-name="Grupo 84504">
                <path id="Trazado_118527" data-name="Trazado 118527" d="M166.8,393.344a3.842,3.842,0,0,1-.007,2.407c-.1.3.374.43.474.131a4.287,4.287,0,0,0,.007-2.668c-.1-.3-.574-.17-.474.131Z" transform="translate(-166.784 -393.043)" fill="#173449"/>
              </g>
            </g>
            <g id="Grupo_84507" data-name="Grupo 84507" transform="translate(2.473 30.828)">
              <g id="Grupo_84506" data-name="Grupo 84506">
                <path id="Trazado_118528" data-name="Trazado 118528" d="M147.02,415.983a2.24,2.24,0,0,1,2.636,1.061,6.912,6.912,0,0,1,.744,3.311,4.422,4.422,0,0,1-.519,2.97c-.677.89-1.906.987-2.935,1.059-.313.021-.316.514,0,.491a4.331,4.331,0,0,0,3.307-1.225,5.155,5.155,0,0,0,.622-3.58,6.1,6.1,0,0,0-1.092-3.678,2.629,2.629,0,0,0-3.01-.834c-.289.126-.04.55.248.425Z" transform="translate(-146.643 -415.368)" fill="#173449"/>
              </g>
            </g>
            <g id="Grupo_84509" data-name="Grupo 84509" transform="translate(21.553 31.906)">
              <g id="Grupo_84508" data-name="Grupo 84508">
                <path id="Trazado_118529" data-name="Trazado 118529" d="M161.017,416.531a7.783,7.783,0,0,1,.522,8.4.246.246,0,0,0,.425.249,8.27,8.27,0,0,0-.522-8.9c-.188-.25-.614-.005-.425.249Z" transform="translate(-160.969 -416.177)" fill="#173449"/>
              </g>
            </g>
            <g id="Grupo_84511" data-name="Grupo 84511" transform="translate(18.378 54.878)">
              <g id="Grupo_84510" data-name="Grupo 84510">
                <path id="Trazado_118530" data-name="Trazado 118530" d="M158.823,433.917l12.109.052a.247.247,0,0,0,0-.493l-12.109-.051a.246.246,0,0,0,0,.491Z" transform="translate(-158.586 -433.426)" fill="#173449"/>
              </g>
            </g>
            <g id="Grupo_84513" data-name="Grupo 84513" transform="translate(26.19 63.099)">
              <g id="Grupo_84512" data-name="Grupo 84512">
                <path id="Trazado_118531" data-name="Trazado 118531" d="M164.688,440.163a47.578,47.578,0,0,1,8.007.232c.314.035.312-.457,0-.493a47.72,47.72,0,0,0-8.007-.23c-.314.017-.317.509,0,.491Z" transform="translate(-164.451 -439.598)" fill="#173449"/>
              </g>
            </g>
            <g id="Grupo_84514" data-name="Grupo 84514" transform="translate(29.359 31.948)">
              <path id="Trazado_118532" data-name="Trazado 118532" d="M169.927,422.4a3.1,3.1,0,1,1,3.1-3.1A3.1,3.1,0,0,1,169.927,422.4Zm0-5.815a2.72,2.72,0,1,0,2.72,2.72A2.722,2.722,0,0,0,169.927,416.585Z" transform="translate(-166.831 -416.209)" fill="#173449"/>
            </g>
            <g id="Grupo_84515" data-name="Grupo 84515" transform="translate(30.242 45.409)">
              <path id="Trazado_118533" data-name="Trazado 118533" d="M170.59,432.506a3.1,3.1,0,1,1,3.1-3.1A3.1,3.1,0,0,1,170.59,432.506Zm0-5.816a2.72,2.72,0,1,0,2.721,2.721A2.724,2.724,0,0,0,170.59,426.69Z" transform="translate(-167.494 -426.316)" fill="#173449"/>
            </g>
            <g id="Grupo_84516" data-name="Grupo 84516" transform="translate(33.179 55.994)">
              <path id="Trazado_118534" data-name="Trazado 118534" d="M172.325,439.517a2.626,2.626,0,1,1,2.625-2.626A2.63,2.63,0,0,1,172.325,439.517Zm0-4.934a2.308,2.308,0,1,0,2.307,2.308A2.31,2.31,0,0,0,172.325,434.582Z" transform="translate(-169.699 -434.264)" fill="#173449"/>
            </g>
            <g id="Grupo_84517" data-name="Grupo 84517" transform="translate(35.987 63.989)">
              <path id="Trazado_118535" data-name="Trazado 118535" d="M174.092,444.835a2.284,2.284,0,1,1,2.284-2.284A2.286,2.286,0,0,1,174.092,444.835Zm0-4.291a2.008,2.008,0,1,0,2.007,2.007A2.01,2.01,0,0,0,174.092,440.544Z" transform="translate(-171.808 -440.267)" fill="#173449"/>
            </g>
          </g>
          <g id="Grupo_84520" data-name="Grupo 84520" transform="translate(68.067 9.166)">
            <g id="Grupo_84519" data-name="Grupo 84519">
              <path id="Trazado_118536" data-name="Trazado 118536" d="M108.278,399.584a41.134,41.134,0,0,0,8.268,1,.247.247,0,0,0,0-.493,40.425,40.425,0,0,1-8.137-.983c-.308-.071-.44.4-.131.474Z" transform="translate(-108.102 -399.103)" fill="#173449"/>
            </g>
          </g>
          <g id="Grupo_84522" data-name="Grupo 84522" transform="translate(114.561 9.986)">
            <g id="Grupo_84521" data-name="Grupo 84521">
              <path id="Trazado_118537" data-name="Trazado 118537" d="M143.245,400.343a27.212,27.212,0,0,0,7.685-.147c.312-.049.18-.525-.131-.474a26.784,26.784,0,0,1-7.554.128c-.313-.039-.31.454,0,.493Z" transform="translate(-143.011 -399.718)" fill="#173449"/>
            </g>
          </g>
          <g id="Grupo_84524" data-name="Grupo 84524" transform="translate(68.06 17.23)">
            <g id="Grupo_84523" data-name="Grupo 84523">
              <path id="Trazado_118538" data-name="Trazado 118538" d="M108.334,406.1q27.836-1.095,55.683.474c.317.017.316-.474,0-.493q-27.814-1.568-55.683-.473c-.316.012-.318.5,0,.491Z" transform="translate(-108.096 -405.157)" fill="#173449"/>
            </g>
          </g>
          <g id="Grupo_84526" data-name="Grupo 84526" transform="translate(81.216 26.749)">
            <g id="Grupo_84525" data-name="Grupo 84525">
              <path id="Trazado_118539" data-name="Trazado 118539" d="M119.805,422.817c-.844-2.445-2.851-8.667.838-9.59a21.131,21.131,0,0,1,4.708-.176l4.828-.056,9.051-.1,4.828-.056c1.544-.017,4.846-.645,5.022,1.645a13.226,13.226,0,0,1-.886,4.219c-.5,1.826-.7,3.712-2.809,4.26a55.845,55.845,0,0,1-9.059,1.22c-3.118.276-6.242.437-9.368.577a19.555,19.555,0,0,1-4.751.015,2.925,2.925,0,0,1-2.427-2.012c-.128-.289-.553-.039-.425.248.739,1.678,1.891,2.255,3.764,2.361a79.625,79.625,0,0,0,9.405-.41c3.14-.2,6.278-.478,9.4-.924,2.115-.3,5.013-.221,5.971-2.5a31.081,31.081,0,0,0,1.1-3.875,8.45,8.45,0,0,0,.543-3.547c-.354-2.066-2.3-1.8-3.966-1.781l-20.216.232c-2.1.024-5.875-.63-6.949,1.822s.117,6.218.93,8.568c.1.3.578.17.474-.131Z" transform="translate(-117.975 -412.305)" fill="#173449"/>
            </g>
          </g>
          <g id="Grupo_84528" data-name="Grupo 84528" transform="translate(65.272 48.798)">
            <g id="Grupo_84527" data-name="Grupo 84527">
              <path id="Trazado_118540" data-name="Trazado 118540" d="M107.471,436.765a9.165,9.165,0,0,1-.947-4.3,3.234,3.234,0,0,1,2.328-2.887,6.981,6.981,0,0,1,1.879-.221c.63-.005,1.568-.108,2.03.411a3.082,3.082,0,0,1,.485.95c.148.378.286.76.413,1.148a22.138,22.138,0,0,1,.6,2.208c.067.309.541.178.474-.132a18.827,18.827,0,0,0-1.249-3.933,1.741,1.741,0,0,0-1.133-1.037,6.386,6.386,0,0,0-1.679-.107,5.331,5.331,0,0,0-3.211.852,3.917,3.917,0,0,0-1.43,2.81A9.65,9.65,0,0,0,107,436.9c.115.29.591.164.475-.132Z" transform="translate(-106.003 -428.861)" fill="#173449"/>
            </g>
          </g>
          <g id="Grupo_84530" data-name="Grupo 84530" transform="translate(119.423 49.195)">
            <g id="Grupo_84529" data-name="Grupo 84529">
              <path id="Trazado_118541" data-name="Trazado 118541" d="M147.241,435.633a8.449,8.449,0,0,1,.33-4.085,2.88,2.88,0,0,1,2.81-1.893,4.819,4.819,0,0,1,1.934.687,6.572,6.572,0,0,1,1.6,1.1,2.991,2.991,0,0,1,.376,2.075,12.7,12.7,0,0,1-.265,2.264c-.064.309.41.441.474.131a10.943,10.943,0,0,0,.222-3.83c-.18-1.147-1.406-1.761-2.337-2.261a3.982,3.982,0,0,0-3.32-.469,3.709,3.709,0,0,0-1.978,2.078,9.024,9.024,0,0,0-.342,4.2c.024.313.517.316.493,0Z" transform="translate(-146.663 -429.159)" fill="#173449"/>
            </g>
          </g>
        </g>
        <g id="Grupo_84533" data-name="Grupo 84533" transform="translate(0 2.727)">
          <g id="Grupo_84532" data-name="Grupo 84532">
            <path id="Trazado_118542" data-name="Trazado 118542" d="M156.959,450.183c1.015,16.8-9.359,32.434-23.517,40.775-16.419,9.673-37.048,9.116-54.688,3.351-8.657-2.83-17.283-6.866-24.075-13.045a37.96,37.96,0,0,1-11.9-21.654c-3.027-17.182,4.527-34.244,17.722-45.2,14.153-11.748,32.741-16.3,50.841-16.006a147.352,147.352,0,0,1,31.2,4.24c9.85,2.311,19.543,5.518,29.65,6.551a95.11,95.11,0,0,0,29.609-1.976,91.766,91.766,0,0,0,24.661-8.754c14.141-7.7,25.573-21.356,25.945-38.07.369-16.586-12.6-29.721-26.941-36.081A58.942,58.942,0,0,0,182,322.65a53.156,53.156,0,0,0-9.877,4.811c-.269.168-.021.593.248.425,13.844-8.594,31.292-10.264,46.76-5.427,16,5,32.259,18.244,32.776,36.213.534,18.645-13.078,33.435-29,41.061a99.456,99.456,0,0,1-26.947,8.1,88.822,88.822,0,0,1-32.35-.475c-10.138-2.087-20.005-5.257-30.2-7.12a125.1,125.1,0,0,0-30.014-2.147c-16.794,1.018-33.705,6.772-46.081,18.5-11.5,10.89-17.673,26.8-15.105,42.6a38.241,38.241,0,0,0,10.371,20.742c5.769,5.881,13.157,9.929,20.756,12.944,17.045,6.766,36.919,8.741,54.177,1.589,13.98-5.792,25.619-18.288,29.039-33.2a39.04,39.04,0,0,0,.9-11.075c-.02-.314-.511-.317-.493,0Z" transform="translate(-41.629 -319.279)" fill="#173449"/>
          </g>
        </g>
      </g>
      <g id="Grupo_84574" data-name="Grupo 84574" transform="translate(65.764 300.959)">
        <g id="Grupo_84543" data-name="Grupo 84543" transform="translate(127.751 19.209)">
          <g id="Grupo_84535" data-name="Grupo 84535" transform="translate(0)">
            <rect id="Rectángulo_34667" data-name="Rectángulo 34667" width="6.9" height="31.311" fill="#f85955"/>
          </g>
          <g id="Grupo_84536" data-name="Grupo 84536" transform="translate(12.092)">
            <rect id="Rectángulo_34668" data-name="Rectángulo 34668" width="6.9" height="31.311" fill="#f85955"/>
          </g>
          <g id="Grupo_84537" data-name="Grupo 84537" transform="translate(24.184)">
            <rect id="Rectángulo_34669" data-name="Rectángulo 34669" width="6.9" height="31.311" fill="#f85955"/>
          </g>
          <g id="Grupo_84538" data-name="Grupo 84538" transform="translate(36.276)">
            <rect id="Rectángulo_34670" data-name="Rectángulo 34670" width="6.9" height="31.311" fill="#f7ae57"/>
          </g>
          <g id="Grupo_84539" data-name="Grupo 84539" transform="translate(48.368)">
            <rect id="Rectángulo_34671" data-name="Rectángulo 34671" width="6.9" height="31.311" fill="#f7ae57"/>
          </g>
          <g id="Grupo_84540" data-name="Grupo 84540" transform="translate(60.46)">
            <rect id="Rectángulo_34672" data-name="Rectángulo 34672" width="6.9" height="31.311" fill="#f7ae57"/>
          </g>
          <g id="Grupo_84541" data-name="Grupo 84541" transform="translate(72.552)">
            <rect id="Rectángulo_34673" data-name="Rectángulo 34673" width="6.9" height="31.311" fill="#f7ae57"/>
          </g>
          <g id="Grupo_84542" data-name="Grupo 84542" transform="translate(84.644)">
            <rect id="Rectángulo_34674" data-name="Rectángulo 34674" width="6.9" height="31.311" fill="#f7ae57"/>
          </g>
        </g>
        <g id="Grupo_84548" data-name="Grupo 84548" transform="translate(133.621 58.36)">
          <g id="Grupo_84544" data-name="Grupo 84544" transform="translate(0)">
            <circle id="Elipse_4801" data-name="Elipse 4801" cx="19.25" cy="19.25" r="19.25" transform="translate(1.403 1.403)" fill="#173449"/>
            <path id="Trazado_118543" data-name="Trazado 118543" d="M178.537,383.191a20.652,20.652,0,1,1,20.651-20.652A20.677,20.677,0,0,1,178.537,383.191Zm0-38.5a17.848,17.848,0,1,0,17.846,17.848A17.867,17.867,0,0,0,178.537,344.691Z" transform="translate(-157.885 -341.886)" fill="#f85955"/>
          </g>
          <g id="Grupo_84547" data-name="Grupo 84547" transform="translate(8.923 6.979)">
            <g id="Grupo_84545" data-name="Grupo 84545" transform="translate(5.384)">
              <circle id="Elipse_4802" data-name="Elipse 4802" cx="6.346" cy="6.346" r="6.346" fill="#ffebca"/>
            </g>
            <g id="Grupo_84546" data-name="Grupo 84546" transform="translate(0 15.09)">
              <path id="Rectángulo_34675" data-name="Rectángulo 34675" d="M6.814,0h9.83a6.814,6.814,0,0,1,6.814,6.814V9.451a0,0,0,0,1,0,0H0a0,0,0,0,1,0,0V6.814A6.814,6.814,0,0,1,6.814,0Z" fill="#ffebca"/>
            </g>
          </g>
        </g>
        <g id="Grupo_84555" data-name="Grupo 84555" transform="translate(88.469)">
          <g id="Grupo_84549" data-name="Grupo 84549" transform="translate(0 1.024)">
            <circle id="Elipse_4803" data-name="Elipse 4803" cx="4.87" cy="4.87" r="4.87" fill="#173449"/>
          </g>
          <g id="Grupo_84550" data-name="Grupo 84550" transform="translate(14.249 1.024)">
            <circle id="Elipse_4804" data-name="Elipse 4804" cx="4.87" cy="4.87" r="4.87" fill="#173449"/>
          </g>
          <g id="Grupo_84551" data-name="Grupo 84551" transform="translate(28.497 1.024)">
            <circle id="Elipse_4805" data-name="Elipse 4805" cx="4.87" cy="4.87" r="4.87" fill="#173449"/>
          </g>
          <g id="Grupo_84552" data-name="Grupo 84552" transform="translate(41.723)">
            <circle id="Elipse_4806" data-name="Elipse 4806" cx="4.87" cy="4.87" r="4.87" transform="translate(1.023 1.024)" fill="#173449"/>
            <path id="Trazado_118544" data-name="Trazado 118544" d="M161.2,309.851a5.893,5.893,0,1,1,5.892-5.892A5.9,5.9,0,0,1,161.2,309.851Zm0-9.74a3.847,3.847,0,1,0,3.846,3.848A3.852,3.852,0,0,0,161.2,300.112Z" transform="translate(-155.31 -298.066)" fill="#3e9b7e"/>
          </g>
          <g id="Grupo_84553" data-name="Grupo 84553" transform="translate(56.994 1.024)">
            <circle id="Elipse_4807" data-name="Elipse 4807" cx="4.87" cy="4.87" r="4.87" fill="#173449"/>
          </g>
          <g id="Grupo_84554" data-name="Grupo 84554" transform="translate(70.22)">
            <circle id="Elipse_4808" data-name="Elipse 4808" cx="4.87" cy="4.87" r="4.87" transform="translate(1.023 1.024)" fill="#173449"/>
            <path id="Trazado_118545" data-name="Trazado 118545" d="M182.6,309.851a5.893,5.893,0,1,1,5.892-5.892A5.9,5.9,0,0,1,182.6,309.851Zm0-9.74a3.847,3.847,0,1,0,3.846,3.848A3.852,3.852,0,0,0,182.6,300.112Z" transform="translate(-176.707 -298.066)" fill="#f85955"/>
          </g>
        </g>
        <g id="Grupo_84573" data-name="Grupo 84573" transform="translate(0 9.2)">
          <g id="Grupo_84564" data-name="Grupo 84564">
            <g id="Grupo_84556" data-name="Grupo 84556">
              <path id="Rectángulo_34676" data-name="Rectángulo 34676" d="M2.407,0h45.06a2.407,2.407,0,0,1,2.407,2.407V85.785a0,0,0,0,1,0,0H0a0,0,0,0,1,0,0V2.407A2.407,2.407,0,0,1,2.407,0Z" fill="#6791ce"/>
            </g>
            <g id="Grupo_84557" data-name="Grupo 84557">
              <path id="Rectángulo_34677" data-name="Rectángulo 34677" d="M2.407,0h45.06a2.407,2.407,0,0,1,2.407,2.407V15.095a0,0,0,0,1,0,0H0a0,0,0,0,1,0,0V2.407A2.407,2.407,0,0,1,2.407,0Z" fill="#f7ae57"/>
            </g>
            <g id="Grupo_84558" data-name="Grupo 84558" transform="translate(6.94 26.164)">
              <rect id="Rectángulo_34678" data-name="Rectángulo 34678" width="20.752" height="1.401" fill="#f7ae57"/>
            </g>
            <g id="Grupo_84559" data-name="Grupo 84559" transform="translate(6.94 32.048)">
              <rect id="Rectángulo_34679" data-name="Rectángulo 34679" width="34.611" height="1.401" fill="#fff"/>
            </g>
            <g id="Grupo_84560" data-name="Grupo 84560" transform="translate(6.94 37.93)">
              <rect id="Rectángulo_34680" data-name="Rectángulo 34680" width="34.611" height="1.401" fill="#fff"/>
            </g>
            <g id="Grupo_84561" data-name="Grupo 84561" transform="translate(6.94 50.364)">
              <rect id="Rectángulo_34681" data-name="Rectángulo 34681" width="34.611" height="1.401" fill="#fff"/>
            </g>
            <g id="Grupo_84562" data-name="Grupo 84562" transform="translate(6.94 56.246)">
              <rect id="Rectángulo_34682" data-name="Rectángulo 34682" width="34.611" height="1.401" fill="#fff"/>
            </g>
            <g id="Grupo_84563" data-name="Grupo 84563" transform="translate(7.387 63.255)">
              <path id="Trazado_118546" data-name="Trazado 118546" d="M97.966,366.487H63.1V352.47H97.966Zm-33.463-1.4H96.564V353.871H64.5Z" transform="translate(-63.101 -352.47)" fill="#f7ae57"/>
            </g>
          </g>
          <g id="Grupo_84566" data-name="Grupo 84566" transform="translate(39.864 17.722)">
            <g id="Grupo_84565" data-name="Grupo 84565">
              <path id="Trazado_118547" data-name="Trazado 118547" d="M87.559,318.7a60.73,60.73,0,0,1,5.815,6.7c.188.25.615.005.425-.249a61.635,61.635,0,0,0-5.891-6.8.246.246,0,0,0-.349.348Z" transform="translate(-87.487 -318.281)" fill="#173449"/>
            </g>
          </g>
          <g id="Grupo_84568" data-name="Grupo 84568" transform="translate(37.459 19.029)">
            <g id="Grupo_84567" data-name="Grupo 84567">
              <path id="Trazado_118548" data-name="Trazado 118548" d="M85.753,319.684l4.348,4.427c.222.226.57-.123.349-.348l-4.35-4.428c-.222-.225-.57.123-.348.349Z" transform="translate(-85.681 -319.262)" fill="#173449"/>
            </g>
          </g>
          <g id="Grupo_84570" data-name="Grupo 84570" transform="translate(2.938 72.191)">
            <g id="Grupo_84569" data-name="Grupo 84569">
              <path id="Trazado_118549" data-name="Trazado 118549" d="M59.8,359.537l7.161,10.4c.178.258.6.013.425-.249l-7.161-10.4c-.177-.26-.6-.013-.425.248Z" transform="translate(-59.761 -359.179)" fill="#173449"/>
            </g>
          </g>
          <g id="Grupo_84572" data-name="Grupo 84572" transform="translate(4.975 4.666)">
            <g id="Grupo_84571" data-name="Grupo 84571">
              <path id="Trazado_118550" data-name="Trazado 118550" d="M62.153,316.85c-.47-2.429-.851-5.5,1.613-7.008,1.944-1.187,4.522-.93,6.675-.643.313.041.31-.451,0-.493a12.982,12.982,0,0,0-5.819.2,4.785,4.785,0,0,0-3.3,4.263,13.787,13.787,0,0,0,.357,3.808c.06.31.535.18.475-.131Z" transform="translate(-61.291 -308.478)" fill="#173449"/>
            </g>
          </g>
        </g>
      </g>
      <g id="Grupo_84576" data-name="Grupo 84576" transform="translate(245.165 416.144)">
        <g id="Grupo_84575" data-name="Grupo 84575">
          <path id="Trazado_118551" data-name="Trazado 118551" d="M192.567,385.193a10.413,10.413,0,0,1,10.139,4.372,9.375,9.375,0,0,1,1.843,5.43c-.007.89-.133,1.77-1.084,2.124a2.164,2.164,0,0,1-1.777-.168,4.005,4.005,0,0,1-1.662-3.067,7.541,7.541,0,0,1,8.328-8.406c1.967.225,3.559,1.413,5.4,2.04,1.292.439,2.605.526,3.571-.57.209-.236-.137-.586-.348-.348-1.606,1.821-4.414-.157-6.113-.92a8.221,8.221,0,0,0-5.191-.553,8.035,8.035,0,0,0-6.2,7.7,5.326,5.326,0,0,0,1.663,4.335,2.578,2.578,0,0,0,3.287-.061c.99-.983.667-2.927.384-4.145a10.636,10.636,0,0,0-2.327-4.478,10.8,10.8,0,0,0-10.038-3.761c-.31.059-.178.533.131.474Z" transform="translate(-192.259 -384.554)" fill="#173449"/>
        </g>
      </g>
      <g id="Grupo_84578" data-name="Grupo 84578" transform="translate(259.984 378.817)">
        <g id="Grupo_84577" data-name="Grupo 84577">
          <path id="Trazado_118552" data-name="Trazado 118552" d="M206.007,356.832a11.981,11.981,0,0,1-.173,6.651c-.617,1.91-2.158,3.547-2.413,5.567-.244,1.938.848,3.676,1.506,5.417.622,1.641.811,4.077-1.021,5.006-.282.144-.033.569.248.425,3.9-1.976.1-7.013-.228-9.717-.306-2.509,1.827-4.605,2.494-6.932a12.522,12.522,0,0,0,.061-6.547.246.246,0,0,0-.474.131Z" transform="translate(-203.386 -356.526)" fill="#173449"/>
        </g>
      </g>
      <g id="Grupo_84580" data-name="Grupo 84580" transform="translate(42.143 408.178)">
        <g id="Grupo_84579" data-name="Grupo 84579">
          <path id="Trazado_118553" data-name="Trazado 118553" d="M42.947,399.916c.9-2.572,4.864-14.6-1.324-14.077-2.437.205-2.027,2.712-.975,4.175a9.673,9.673,0,0,0,6.423,4.166c6.287.7,9.343-6.319,10.75-11.239.316-1.1.8-4.287-1.156-4.367-1.753-.071-2.447,2.746-2.295,4,.3,2.449,2.605,3.77,4.909,3.822,3.453.077,6.136-2.391,8.476-4.62.229-.218-.119-.566-.349-.348-2.753,2.622-7.332,6.469-11.191,3.461a3.673,3.673,0,0,1-.791-4.88c.493-.709,1.364-1.071,1.935-.3a2.246,2.246,0,0,1,.286,1.349,8.928,8.928,0,0,1-.579,2.629c-1.265,3.929-3.1,8.4-7.4,9.75a6.873,6.873,0,0,1-5.936-1.095,11.091,11.091,0,0,1-2.409-2.28c-.842-1.057-1.846-3.248.107-3.716,3.159-.755,3.159,3.611,2.925,5.55a37.332,37.332,0,0,1-1.877,7.878c-.105.3.37.429.474.132Z" transform="translate(-39.819 -378.572)" fill="#173449"/>
        </g>
      </g>
      <g id="Grupo_84582" data-name="Grupo 84582" transform="translate(126.914 318.485)">
        <g id="Grupo_84581" data-name="Grupo 84581">
          <path id="Trazado_118554" data-name="Trazado 118554" d="M105.181,324.279a15.663,15.663,0,0,0,2.993-10.183c-.076-1.109-.289-2.4-1.5-2.776a2.6,2.6,0,0,0-2.628.811,3.071,3.071,0,0,0-.153,3.348,5.756,5.756,0,0,0,3.563,2.626c2.821.914,6.616,1.571,9.219-.262,1.667-1.173,2.376-3.2,4.229-4.193a6.891,6.891,0,0,1,6.234-.15c.284.137.533-.288.248-.425a7.384,7.384,0,0,0-7.589.7c-1.524,1.145-2.221,3.079-3.941,3.991a8.965,8.965,0,0,1-5.755.477c-1.924-.346-4.36-.858-5.535-2.586a2.832,2.832,0,0,1-.273-3.047,1.812,1.812,0,0,1,2.986-.171,5.723,5.723,0,0,1,.429,3.18,14.88,14.88,0,0,1-.408,2.959,15.451,15.451,0,0,1-2.54,5.448c-.186.257.24.5.425.248Z" transform="translate(-103.47 -311.225)" fill="#173449"/>
        </g>
      </g>
      <g id="Grupo_84584" data-name="Grupo 84584" transform="translate(123.59 353.31)">
        <g id="Grupo_84583" data-name="Grupo 84583">
          <path id="Trazado_118555" data-name="Trazado 118555" d="M101.495,371.134c-.5-5.014,5.546-8.316,9.2-4.52.667.694,1.938,2.415,1.584,3.483l-1.5,1.3a2.446,2.446,0,0,1-.811-.78,4.288,4.288,0,0,1-.709-1.437,16.525,16.525,0,0,1,.2-8.4c.478-1.882,1.228-3.79.994-5.767-.205-1.738-1.279-3.039-2.155-4.492a11.345,11.345,0,0,1,.831-12.716c.193-.246-.153-.6-.348-.348a11.917,11.917,0,0,0-1.827,11.43c.94,2.507,3.218,4.4,3.039,7.26-.177,2.831-1.452,5.465-1.594,8.329-.1,1.994-.136,4.756,1.152,6.431.567.74,1.6,1.564,2.537.947,1.255-.827.611-3.017.071-4.067a6.4,6.4,0,0,0-3.725-3.131c-4.021-1.259-7.82,2.488-7.426,6.475.031.312.523.316.493,0Z" transform="translate(-100.974 -337.374)" fill="#173449"/>
        </g>
      </g>
    </g>
  </g>
</svg>
