<svg id="morning" xmlns="http://www.w3.org/2000/svg" width="59" height="44.215" viewBox="0 0 59 44.215">
  <path id="Trazado_118667" data-name="Trazado 118667" d="M60.736,86.437H50.921a.914.914,0,0,1-.914-.914,13.871,13.871,0,1,0-27.743,0,.914.914,0,0,1-.914.914H11.536A4.036,4.036,0,0,0,7.5,90.473V110.1a4.036,4.036,0,0,0,4.036,4.036h49.2a4.036,4.036,0,0,0,4.036-4.036V90.473A4.036,4.036,0,0,0,60.736,86.437Z" transform="translate(-6.636 -70.788)" fill="#ffe07d"/>
  <g id="Grupo_84848" data-name="Grupo 84848" transform="translate(27.839 0.864)">
    <path id="Trazado_118668" data-name="Trazado 118668" d="M443.96,199.955h-3.323a4.036,4.036,0,0,1,4.036,4.036V223.62a4.036,4.036,0,0,1-4.036,4.036h3.323A4.036,4.036,0,0,0,448,223.62V203.991A4.036,4.036,0,0,0,443.96,199.955Z" transform="translate(-417.699 -185.17)" fill="#ffd064"/>
    <path id="Trazado_118669" data-name="Trazado 118669" d="M253.792,85.522a.914.914,0,0,0,.914.914h3.323a.914.914,0,0,1-.914-.914A13.875,13.875,0,0,0,241.582,71.75,13.873,13.873,0,0,1,253.792,85.522Z" transform="translate(-241.582 -71.651)" fill="#ffd064"/>
  </g>
  <path id="Trazado_118670" data-name="Trazado 118670" d="M57.5,264.635V251.451a1.5,1.5,0,0,1,1.5-1.5h42.754a1.5,1.5,0,0,1,1.5,1.5v13.184a1.5,1.5,0,0,1-1.5,1.5H59A1.5,1.5,0,0,1,57.5,264.635Z" transform="translate(-50.874 -228.543)" fill="#f4fbff"/>
  <path id="Trazado_118671" data-name="Trazado 118671" d="M415.994,249.955h-3.323a1.5,1.5,0,0,1,1.5,1.5v13.184a1.5,1.5,0,0,1-1.5,1.5h3.323a1.5,1.5,0,0,0,1.5-1.5V251.452A1.5,1.5,0,0,0,415.994,249.955Z" transform="translate(-365.117 -228.544)" fill="#daf1f4"/>
  <ellipse id="Elipse_4819" data-name="Elipse 4819" cx="4.414" cy="4.414" rx="4.414" ry="4.414" transform="translate(25.086 6.812)" fill="#eab14d"/>
  <path id="Trazado_118672" data-name="Trazado 118672" d="M246.611,123.263a4.415,4.415,0,0,0-1.223.173,4.414,4.414,0,0,1,0,8.482,4.414,4.414,0,1,0,1.223-8.655Z" transform="translate(-217.111 -116.451)" fill="#e49542"/>
  <g id="Grupo_84849" data-name="Grupo 84849" transform="translate(0 0)">
    <path id="Trazado_118673" data-name="Trazado 118673" d="M169.511,278.355a1.043,1.043,0,0,0-.968-.648h0a1.043,1.043,0,0,0-.968.65l-.008.02-3.024,7.94a.864.864,0,1,0,1.615.615l.541-1.421h3.666l.535,1.418a.864.864,0,1,0,1.617-.61l-3-7.94Zm-2.154,5.428,1.183-3.106,1.172,3.106Z" transform="translate(-145.531 -253.098)"/>
    <path id="Trazado_118674" data-name="Trazado 118674" d="M266.579,277.71a1.046,1.046,0,0,0-1.054.721l-.009.03-1.577,5.533-1.635-5.542-.01-.031a1.046,1.046,0,0,0-2.021.145l-1.415,7.843a.864.864,0,0,0,1.7.307l.9-5.007,1.486,5.037.01.031a1.044,1.044,0,0,0,.991.713h.005a1.045,1.045,0,0,0,.99-.723l.009-.03,1.435-5.033.96,5.022a.864.864,0,1,0,1.7-.324l-1.5-7.855a1.047,1.047,0,0,0-.966-.836Z" transform="translate(-229.016 -253.099)"/>
    <path id="Trazado_118675" data-name="Trazado 118675" d="M248.546,91.337v-.53a.864.864,0,1,0-1.729,0v.53a.864.864,0,1,0,1.729,0Z" transform="translate(-218.375 -86.971)"/>
    <path id="Trazado_118676" data-name="Trazado 118676" d="M290.032,107.788l-.374.374a.864.864,0,0,0,1.222,1.222l.374-.374a.864.864,0,0,0-1.222-1.222Z" transform="translate(-256.055 -102.536)"/>
    <path id="Trazado_118677" data-name="Trazado 118677" d="M308.893,154.113h.53a.864.864,0,0,0,0-1.729h-.53a.864.864,0,0,0,0,1.729Z" transform="translate(-272.533 -142.217)"/>
    <path id="Trazado_118678" data-name="Trazado 118678" d="M293.259,195.224a.864.864,0,1,0-1.222,1.222l.375.375a.864.864,0,0,0,1.222-1.222Z" transform="translate(-258.16 -179.896)"/>
    <path id="Trazado_118679" data-name="Trazado 118679" d="M250.183,214.46v.529a.864.864,0,1,0,1.729,0v-.529a.864.864,0,0,0-1.729,0Z" transform="translate(-221.353 -196.375)"/>
    <path id="Trazado_118680" data-name="Trazado 118680" d="M204.975,197.6l-.374.374a.864.864,0,0,0,1.222,1.222l.374-.374a.864.864,0,0,0-1.222-1.222Z" transform="translate(-180.799 -182.002)"/>
    <path id="Trazado_118681" data-name="Trazado 118681" d="M185.77,155.75h-.53a.864.864,0,0,0,0,1.729h.53a.864.864,0,0,0,0-1.729Z" transform="translate(-163.13 -145.195)"/>
    <path id="Trazado_118682" data-name="Trazado 118682" d="M203.443,110.168a.864.864,0,0,0-1.222,1.222l.374.374a.864.864,0,0,0,1.222-1.222Z" transform="translate(-178.694 -104.642)"/>
    <path id="Trazado_118683" data-name="Trazado 118683" d="M54.1,78.937H44.285a.049.049,0,0,1-.049-.049,14.736,14.736,0,1,0-29.471,0,.049.049,0,0,1-.049.049H4.9a4.906,4.906,0,0,0-4.9,4.9V95.951a.864.864,0,1,0,1.729,0V83.837A3.176,3.176,0,0,1,4.9,80.665h9.815a1.78,1.78,0,0,0,1.778-1.778,13.007,13.007,0,0,1,26.014,0,1.78,1.78,0,0,0,1.778,1.778H54.1a3.175,3.175,0,0,1,3.172,3.172v19.629a3.175,3.175,0,0,1-3.172,3.172H4.9a3.176,3.176,0,0,1-3.172-3.172v-4.06a.864.864,0,1,0-1.729,0v4.06a4.906,4.906,0,0,0,4.9,4.9H54.1a4.906,4.906,0,0,0,4.9-4.9V83.837a4.906,4.906,0,0,0-4.9-4.9Z" transform="translate(0 -64.152)"/>
    <path id="Trazado_118684" data-name="Trazado 118684" d="M50,244.816V258a2.364,2.364,0,0,0,2.361,2.361H86.8a.864.864,0,0,0,0-1.729H52.361a.634.634,0,0,1-.633-.633V244.816a.634.634,0,0,1,.633-.633H95.115a.634.634,0,0,1,.633.633V258a.634.634,0,0,1-.633.633H90.251a.864.864,0,0,0,0,1.729h4.864A2.364,2.364,0,0,0,97.477,258V244.816a2.364,2.364,0,0,0-2.361-2.361H52.361A2.364,2.364,0,0,0,50,244.816Z" transform="translate(-44.238 -221.908)"/>
    <path id="Trazado_118685" data-name="Trazado 118685" d="M210.2,121.041a5.279,5.279,0,0,0,10.136,2.066.864.864,0,1,0-1.59-.677,3.55,3.55,0,1,1,0-2.778.864.864,0,1,0,1.59-.677,5.279,5.279,0,0,0-10.136,2.066Z" transform="translate(-185.974 -109.816)"/>
  </g>
</svg>
