<svg id="afternoon" xmlns="http://www.w3.org/2000/svg" width="59" height="44.215" viewBox="0 0 59 44.215">
  <path id="Trazado_118686" data-name="Trazado 118686" d="M60.736,86.437H50.921a.914.914,0,0,1-.914-.914,13.871,13.871,0,1,0-27.743,0,.914.914,0,0,1-.914.914H11.536A4.036,4.036,0,0,0,7.5,90.473V110.1a4.036,4.036,0,0,0,4.036,4.036h49.2a4.036,4.036,0,0,0,4.036-4.036V90.473a4.036,4.036,0,0,0-4.036-4.036Z" transform="translate(-6.636 -70.788)" fill="#365e7d"/>
  <g id="Grupo_84850" data-name="Grupo 84850" transform="translate(27.839 0.864)">
    <path id="Trazado_118687" data-name="Trazado 118687" d="M443.96,199.955h-3.323a4.036,4.036,0,0,1,4.036,4.036V223.62a4.036,4.036,0,0,1-4.036,4.036h3.323A4.036,4.036,0,0,0,448,223.62V203.991a4.036,4.036,0,0,0-4.036-4.036Z" transform="translate(-417.699 -185.17)" fill="#2b4d66"/>
    <path id="Trazado_118688" data-name="Trazado 118688" d="M253.792,85.522a.914.914,0,0,0,.914.914h3.323a.914.914,0,0,1-.914-.914A13.875,13.875,0,0,0,241.582,71.75,13.873,13.873,0,0,1,253.792,85.522Z" transform="translate(-241.582 -71.651)" fill="#2b4d66"/>
  </g>
  <path id="Trazado_118689" data-name="Trazado 118689" d="M57.5,264.635V251.451a1.5,1.5,0,0,1,1.5-1.5h42.754a1.5,1.5,0,0,1,1.5,1.5v13.184a1.5,1.5,0,0,1-1.5,1.5H59A1.5,1.5,0,0,1,57.5,264.635Z" transform="translate(-50.874 -228.543)" fill="#f4fbff"/>
  <path id="Trazado_118690" data-name="Trazado 118690" d="M415.994,249.955h-3.323a1.5,1.5,0,0,1,1.5,1.5v13.184a1.5,1.5,0,0,1-1.5,1.5h3.323a1.5,1.5,0,0,0,1.5-1.5V251.452A1.5,1.5,0,0,0,415.994,249.955Z" transform="translate(-365.117 -228.544)" fill="#daf1f4"/>
  <path id="Trazado_118691" data-name="Trazado 118691" d="M224.809,128.636a3.443,3.443,0,0,1-2.575-5.156.143.143,0,0,0-.121-.217h0a4.414,4.414,0,1,0,4.3,5.413.145.145,0,0,0-.185-.171,3.452,3.452,0,0,1-1.416.131Z" transform="translate(-192.611 -116.451)" fill="#b1e4f9" stroke="#b1e4f9" stroke-miterlimit="10" stroke-width="1"/>
  <path id="Trazado_118692" data-name="Trazado 118692" d="M238.914,125.716a5.052,5.052,0,0,0,4.437,4.592,5.108,5.108,0,0,0,1.052.011,4.4,4.4,0,0,0,.764-1.642.145.145,0,0,0-.185-.171,3.443,3.443,0,0,1-3.991-5.025.144.144,0,0,0-.121-.217h0a4.4,4.4,0,0,0-1.672.329A5.043,5.043,0,0,0,238.914,125.716Z" transform="translate(-211.368 -116.452)" fill="#90d8f9"/>
  <g id="Grupo_84851" data-name="Grupo 84851" transform="translate(0 0)">
    <path id="Trazado_118693" data-name="Trazado 118693" d="M54.1,78.937H44.285a.049.049,0,0,1-.049-.049,14.736,14.736,0,1,0-29.471,0,.049.049,0,0,1-.049.049H4.9a4.906,4.906,0,0,0-4.9,4.9V95.951a.864.864,0,0,0,1.729,0V83.837A3.175,3.175,0,0,1,4.9,80.665h9.815a1.78,1.78,0,0,0,1.778-1.778,13.007,13.007,0,1,1,26.014,0,1.78,1.78,0,0,0,1.778,1.778H54.1a3.175,3.175,0,0,1,3.172,3.172v19.629a3.175,3.175,0,0,1-3.172,3.172H4.9a3.176,3.176,0,0,1-3.172-3.172v-4.06a.864.864,0,1,0-1.729,0v4.06a4.906,4.906,0,0,0,4.9,4.9H54.1a4.906,4.906,0,0,0,4.9-4.9V83.837A4.906,4.906,0,0,0,54.1,78.937Z" transform="translate(0 -64.152)"/>
    <path id="Trazado_118694" data-name="Trazado 118694" d="M50,244.816V258a2.364,2.364,0,0,0,2.361,2.361H86.8a.864.864,0,0,0,0-1.729H52.361a.634.634,0,0,1-.633-.633V244.816a.634.634,0,0,1,.633-.633H95.115a.634.634,0,0,1,.633.633V258a.634.634,0,0,1-.633.633H90.251a.864.864,0,1,0,0,1.729h4.864A2.364,2.364,0,0,0,97.477,258V244.816a2.364,2.364,0,0,0-2.361-2.361H52.361A2.364,2.364,0,0,0,50,244.816Z" transform="translate(-44.238 -221.908)"/>
    <path id="Trazado_118695" data-name="Trazado 118695" d="M257.272,277.71a1.047,1.047,0,0,0-1.063.751l-1.577,5.533L253,278.452a1.046,1.046,0,0,0-2.031.115l-1.416,7.842a.864.864,0,1,0,1.7.307l.9-5.007,1.486,5.037.01.031a1.044,1.044,0,0,0,.991.713h.005a1.045,1.045,0,0,0,.99-.723l.009-.03,1.435-5.033.96,5.022a.864.864,0,0,0,1.7-.325l-1.5-7.855A1.047,1.047,0,0,0,257.272,277.71Z" transform="translate(-220.781 -253.099)"/>
    <path id="Trazado_118696" data-name="Trazado 118696" d="M174.654,277.708a.865.865,0,0,0-.864.864v8.054a.864.864,0,0,0,1.729,0v-2.639c.485,0,1.06-.005,1.378-.005a3.137,3.137,0,1,0,0-6.274Zm3.7,3.137a1.45,1.45,0,0,1-1.453,1.408c-.316,0-.883,0-1.367.005-.007-1.376,0-1.069-.008-2.822H176.9A1.45,1.45,0,0,1,178.35,280.845Z" transform="translate(-153.763 -253.099)"/>
    <path id="Trazado_118697" data-name="Trazado 118697" d="M216.346,116.267a1.009,1.009,0,0,0-.874-.505,5.3,5.3,0,0,0-3.863,1.681,5.284,5.284,0,0,0-1.3,4.711.864.864,0,1,0,1.69-.365,3.483,3.483,0,0,1-.07-.488,3.558,3.558,0,0,1,2.428-3.634,4.31,4.31,0,0,0,3.714,5.192q.218.025.435.028a3.538,3.538,0,0,1-3.315,1.693,3.469,3.469,0,0,1-1.52-.481.864.864,0,1,0-.882,1.487,5.256,5.256,0,0,0,2.271.718q.208.016.414.016a5.248,5.248,0,0,0,5.137-4.083,1.009,1.009,0,0,0-1.282-1.192,2.579,2.579,0,0,1-2.989-3.763A1.013,1.013,0,0,0,216.346,116.267Z" transform="translate(-185.972 -109.815)"/>
  </g>
</svg>
