<svg xmlns="http://www.w3.org/2000/svg" width="820" height="282.48" viewBox="0 0 820 282.48">
  <g id="Grupo_85034" data-name="Grupo 85034" transform="translate(-390 -982)">
    <rect id="Rectángulo_34525" data-name="Rectángulo 34525" width="820" height="259" rx="20" transform="translate(390 1005)" fill="#ffe891"/>
    <g id="Grupo_83604" data-name="Grupo 83604" transform="translate(298.334 835.891)">
      <g id="Grupo_83599" data-name="Grupo 83599">
        <path id="Trazado_117460" data-name="Trazado 117460" d="M282.791,366.515H171.937a73.456,73.456,0,0,1,0,60.724H282.791Z" fill="#fff"/>
        <path id="Trazado_117461" data-name="Trazado 117461" d="M351.225,363.029H261.443s.021,31-1.327,64.21H351.1c13.818,0,25.7-8.74,28.333-20.849a54.229,54.229,0,0,0,.206-22.118C377.2,371.977,365.212,363.029,351.225,363.029Z" fill="#0086f7"/>
        <path id="Trazado_117462" data-name="Trazado 117462" d="M260.116,420.873c26.717-26.382,1.327-51.659,1.327-51.659l-88.368.333,88.171,5.4Z" fill="#242424"/>
        <line id="Línea_139" data-name="Línea 139" y1="0.096" x2="94.011" transform="translate(270.591 419.639)" fill="none" stroke="#242424" stroke-linecap="round" stroke-linejoin="round" stroke-width="1"/>
        <path id="Rectángulo_34521" data-name="Rectángulo 34521" d="M3.264,0h114.8a0,0,0,0,1,0,0V6.528a0,0,0,0,1,0,0H3.264A3.264,3.264,0,0,1,0,3.264v0A3.264,3.264,0,0,1,3.264,0Z" transform="translate(161.741 420.71)" fill="#0086f7"/>
        <path id="Trazado_117463" data-name="Trazado 117463" d="M245.323,376.779H183.359s46.923,5.937,53.612,4.231S245.323,376.779,245.323,376.779Z" fill="#242424"/>
        <path id="Trazado_117464" data-name="Trazado 117464" d="M267.78,395.12H205.816s46.923,5.937,53.612,4.231S267.78,395.12,267.78,395.12Z" fill="#242424"/>
        <path id="Trazado_117465" data-name="Trazado 117465" d="M238.634,410.049H176.67s46.922,5.937,53.612,4.231S238.634,410.049,238.634,410.049Z" fill="#242424"/>
        <path id="Rectángulo_34522" data-name="Rectángulo 34522" d="M3.264,0h114.8a0,0,0,0,1,0,0V6.528a0,0,0,0,1,0,0H3.264A3.264,3.264,0,0,1,0,3.264v0A3.264,3.264,0,0,1,3.264,0Z" transform="translate(161.741 363.029)" fill="#0086f7"/>
      </g>
      <g id="Grupo_83600" data-name="Grupo 83600">
        <path id="Trazado_117466" data-name="Trazado 117466" d="M222.693,319.775H137.017a48.015,48.015,0,0,1,0,42.979h85.676Z" fill="#fff"/>
        <path id="Trazado_117467" data-name="Trazado 117467" d="M275.583,317.308h-69.39s.016,21.941-1.025,45.446h70.318c10.68,0,19.862-6.186,21.9-14.757a35.206,35.206,0,0,0,.159-15.654C295.66,323.641,286.393,317.308,275.583,317.308Z" fill="#ff5f65"/>
        <path id="Trazado_117468" data-name="Trazado 117468" d="M205.168,358.248c15.2-16.692,1.025-36.562,1.025-36.562l-68.3.235,68.144,3.824Z" fill="#242424"/>
        <line id="Línea_140" data-name="Línea 140" y1="0.068" x2="68.187" transform="translate(213.264 357.375)" fill="none" stroke="#242424" stroke-linecap="round" stroke-linejoin="round" stroke-width="1"/>
        <line id="Línea_141" data-name="Línea 141" y1="0.068" x2="68.187" transform="translate(213.264 322.42)" fill="none" stroke="#242424" stroke-linecap="round" stroke-linejoin="round" stroke-width="1"/>
        <path id="Rectángulo_34523" data-name="Rectángulo 34523" d="M2.31,0H91.247a0,0,0,0,1,0,0V4.621a0,0,0,0,1,0,0H2.31A2.31,2.31,0,0,1,0,2.31v0A2.31,2.31,0,0,1,2.31,0Z" transform="translate(129.137 358.133)" fill="#ff5f65"/>
        <path id="Trazado_117469" data-name="Trazado 117469" d="M193.735,327.04h-47.89s27.07,2.537,35.763,2.537S193.735,327.04,193.735,327.04Z" fill="#242424"/>
        <path id="Trazado_117470" data-name="Trazado 117470" d="M190.532,350.6h-47.89s27.071,2.537,35.764,2.537S190.532,350.6,190.532,350.6Z" fill="#242424"/>
        <path id="Trazado_117471" data-name="Trazado 117471" d="M210.205,337.886h-47.89s27.071,2.537,35.763,2.537S210.205,337.886,210.205,337.886Z" fill="#242424"/>
        <path id="Rectángulo_34524" data-name="Rectángulo 34524" d="M2.31,0H91.247a0,0,0,0,1,0,0V4.621a0,0,0,0,1,0,0H2.31A2.31,2.31,0,0,1,0,2.31v0A2.31,2.31,0,0,1,2.31,0Z" transform="translate(129.137 317.308)" fill="#ff5f65"/>
      </g>
      <g id="Grupo_83603" data-name="Grupo 83603">
        <path id="Trazado_117472" data-name="Trazado 117472" d="M354.091,340.8s9.062-2.879,10.944,5.907,5.164,78.559,5.164,78.559H360.158l-15.832-59.818-23.847-8.693S333.106,340.8,354.091,340.8Z" fill="#242424"/>
        <path id="Trazado_117473" data-name="Trazado 117473" d="M260.3,333.317c-.481,11.534-2.4,31.237,10.092,37s41.733,7.689,41.733,7.689l-10.3,45.512,10.343,2.6s28.707-48.764,27.746-60.778-37.01-20.522-37.01-20.522l9.469-12.17Z" fill="#242424"/>
        <path id="Trazado_117474" data-name="Trazado 117474" d="M347.2,287.364s-.683-9.311,6.439-13.742l3.888,3.5Z" fill="#fff"/>
        <path id="Trazado_117475" data-name="Trazado 117475" d="M347.2,287.364l10.326-10.242-3.888-3.5Z" fill="#242424"/>
        <path id="Trazado_117476" data-name="Trazado 117476" d="M299.451,251.682c11.822,3.287,48.031,43.591,44.806,50.685s-19.2-.816-21.132-2.751S288.831,248.73,299.451,251.682Z" fill="#242424"/>
        <path id="Trazado_117477" data-name="Trazado 117477" d="M281.318,251.788c-14.573,26.611-21.73,67.463-21.73,81.008,0,6.07,40.133,5.848,60.165.524,9.873-2.624-16.5-78.47-20.3-81.638S281.318,251.788,281.318,251.788Z" fill="#6b8dff"/>
        <path id="Trazado_117478" data-name="Trazado 117478" d="M275.066,268.536s-5.889,32.3-4.616,36.761,1.751,13.846-1.75,9.867-5.888-7.639-4.933-13.845S275.066,268.536,275.066,268.536Z" fill="#242424"/>
        <path id="Trazado_117479" data-name="Trazado 117479" d="M284.056,262" fill="#242424"/>
        <path id="Trazado_117480" data-name="Trazado 117480" d="M274.9,233.773l6.866,17.921s5.083,8.409,13.939,7.6c6.97-.634,2.906-10.369,2.906-10.369Z" fill="#fff"/>
        <path id="Trazado_117481" data-name="Trazado 117481" d="M299.748,253.487c-.659-4.186-2.116-5.7-2.116-5.7l-15.9-5.7s9.755,10.386,11.906,12.062C297.186,256.918,300.247,256.652,299.748,253.487Z" fill="#242424"/>
        <g id="Grupo_83601" data-name="Grupo 83601">
          <path id="Trazado_117482" data-name="Trazado 117482" d="M301.978,300.454c4.332-2.166,28.441-11.842,35.4-13.379,8.658-1.913,9.823.289,9.823.289l-2.547,5.342s-28.343,8.726-34.3,12.517Z" fill="#fff"/>
          <path id="Trazado_117483" data-name="Trazado 117483" d="M307.743,303.1l2.607,2.119s31.84-11.453,36.31-12.737c0,0-1.415-3.3-31.6,8.011C313.186,301.2,307.743,303.1,307.743,303.1Z" fill="#242424"/>
          <path id="Trazado_117484" data-name="Trazado 117484" d="M347.2,287.364l13.049-13.809a8.383,8.383,0,0,1,8.05,6.156l-13.259,9.345Z" fill="#fff"/>
          <path id="Trazado_117485" data-name="Trazado 117485" d="M301.978,300.454l8.373,4.769.726,52.527-7.527-5.809Z" fill="#fff"/>
          <line id="Línea_142" data-name="Línea 142" x2="2.515" y2="51.409" transform="translate(305.941 302.862)" fill="none" stroke="#242424" stroke-linecap="round" stroke-linejoin="round" stroke-width="1"/>
          <path id="Trazado_117486" data-name="Trazado 117486" d="M311.077,357.75,307.743,303.1l2.608,2.119Z" fill="#242424"/>
          <path id="Trazado_117487" data-name="Trazado 117487" d="M304,332.995c-1.166,1.814-1.685,2.591-.13,3.627s10.1,2.851,11.271,1.037-4.664-6.348-4.664-6.348Z"/>
          <path id="Trazado_117488" data-name="Trazado 117488" d="M306.07,319.392l5.182-4.4,1.814,18.267-4.4,2.98Z"/>
          <path id="Trazado_117489" data-name="Trazado 117489" d="M310.35,305.223l.727,52.527v4.613l32.667-15.878.907-53.779s-4.027.679-21.965,6.913C312.692,303.092,310.35,305.223,310.35,305.223Z" fill="#ffd947"/>
          <path id="Trazado_117490" data-name="Trazado 117490" d="M355.038,289.056,370.9,276.633l-2.841,51.851L353.7,341.116Z" fill="#242424"/>
          <path id="Trazado_117491" data-name="Trazado 117491" d="M344.651,292.706s6.456,1.853,10.387-3.65l-.947,51.739s0,6.63-10.347,5.69Z" fill="#ffd947"/>
        </g>
        <path id="Trazado_117492" data-name="Trazado 117492" d="M368.339,309.557c-1.591,1.727-2.326,4.273-.612,4s3.873-3.13,2.916-3.747A3.255,3.255,0,0,0,368.339,309.557Z" fill="#fff"/>
        <path id="Trazado_117493" data-name="Trazado 117493" d="M355.038,289.056c-3.931,5.5-10.387,3.65-10.387,3.65s-.946-3.963,2.547-5.342S355.038,289.056,355.038,289.056Z" fill="#242424"/>
        <path id="Trazado_117494" data-name="Trazado 117494" d="M311.627,164.127c-16.131-6.683-38.428-2.036-44.963,23.989-6.779,27,6.65,49.717,20.88,57.479a46.372,46.372,0,0,0,24.8,5.6c21.705-1.061,29.759-24.539,31.124-30.645C345.8,210.1,347.263,178.891,311.627,164.127Z" fill="#fff"/>
        <path id="Trazado_117495" data-name="Trazado 117495" d="M343.189,221.949c-.657,2.272-6.657-9.714,1.293-12.805C344.482,209.144,345.735,213.152,343.189,221.949Z" fill="#ebb3b0"/>
        <ellipse id="Elipse_4780" data-name="Elipse 4780" cx="8.414" cy="8.174" rx="8.414" ry="8.174" transform="translate(288.549 233.819) rotate(-84.842)" fill="#ebb3b0"/>
        <path id="Trazado_117496" data-name="Trazado 117496" d="M275.673,214.179c2.9,5.271,5.4-.865,4.864-4.722-1.77-12.655-7.24-18.935-7.24-18.935l-14.287-2.854s-3.486,6.391-.581,20.915a42.953,42.953,0,0,0,15.026,25.444C279.823,239.525,275.673,214.179,275.673,214.179Z" fill="#242424"/>
        <path id="Trazado_117497" data-name="Trazado 117497" d="M344.566,201.25c-4.129-6.8-9.646-3.7-9.894-2.528" fill="none" stroke="#242424" stroke-linecap="round" stroke-linejoin="round" stroke-width="0.5"/>
        <path id="Trazado_117498" data-name="Trazado 117498" d="M313.326,204.736c-10.432-10.039-20.716.309-21.774,9.958" fill="none" stroke="#242424" stroke-linecap="round" stroke-linejoin="round" stroke-width="0.5"/>
        <path id="Trazado_117499" data-name="Trazado 117499" d="M277.938,216.7c-4.084-8.353-13.14-4.577-11.475,3.747,1.4,7.012,7.5,10.541,14.112,8.7" fill="#fff"/>
        <path id="Trazado_117500" data-name="Trazado 117500" d="M306.084,214.456c-.671.059-.764.605-.88,1.237a4.264,4.264,0,0,0,.239,1.937,1.569,1.569,0,0,0,.464.841,1.459,1.459,0,0,0,1.55.023c.315-.3.307-1.057.308-1.5,0-1.017.114-2.418-1.5-2.59a2.907,2.907,0,0,0-.473,2.812c.111.317.441.686.731.535a.5.5,0,0,0,.215-.325,3.593,3.593,0,0,0-.02-2.111,1.4,1.4,0,0,0,.259,2.027,1.258,1.258,0,0,0-.6-1.915" fill="none" stroke="#242424" stroke-linecap="round" stroke-linejoin="round" stroke-width="1"/>
        <path id="Trazado_117501" data-name="Trazado 117501" d="M338.267,207.369c-.6.079-.7.593-.833,1.188a4.064,4.064,0,0,0,.145,1.8,1.353,1.353,0,0,0,.385.769,1.179,1.179,0,0,0,1.327-.059,2.177,2.177,0,0,0,.455-1.82c-.151-1.061-.644-1.857-1.314-1.936a2.925,2.925,0,0,0-.525,2.646c.088.292.371.625.636.474a.525.525,0,0,0,.2-.312,3.505,3.505,0,0,0,.058-1.973,1.32,1.32,0,0,0,.159,1.886,1.144,1.144,0,0,0-.467-1.769" fill="none" stroke="#242424" stroke-linecap="round" stroke-linejoin="round" stroke-width="1"/>
        <path id="Trazado_117502" data-name="Trazado 117502" d="M260.308,167.892c-2.955-7.291-.7-11.8-.7-11.8Z" fill="#242424"/>
        <path id="Trazado_117503" data-name="Trazado 117503" d="M256.515,169.078a9.6,9.6,0,0,0-8.758,1.5Z" fill="#242424"/>
        <path id="Trazado_117504" data-name="Trazado 117504" d="M293.5,226.424a18.387,18.387,0,0,1-4.057-14.055,18.624,18.624,0,0,1,7.63-12.48c7.352-5.239,14.457-.25,16.275,2.024,7.477,9.346,5.7,22.308-2.6,26.914-4.143,2.3-12.852,1.878-16.56-1.812Z" fill="none" stroke="#e06a4f" stroke-linecap="round" stroke-linejoin="round" stroke-width="3"/>
        <path id="Trazado_117505" data-name="Trazado 117505" d="M276.535,213.042l13.139,5.286" fill="none" stroke="#e06a4f" stroke-linecap="round" stroke-linejoin="round" stroke-width="1"/>
        <path id="Trazado_117506" data-name="Trazado 117506" d="M334.443,219.225c-6.853-4.536-8.228-26.227,5.3-26.583,13.626-.358,11.967,35.314-4.6,27.174" fill="none" stroke="#e06a4f" stroke-linecap="round" stroke-linejoin="round" stroke-width="3"/>
        <path id="Trazado_117507" data-name="Trazado 117507" d="M260.522,170.385c12.939-28.9,53.766-28.391,37.664-17.06a217,217,0,0,1,23.666-3.2c12.835-1.042,27.851,3.511,12.835,13.957,20.525-5.131,35.286,20.167,16.026,24.084-13.726,2.792-46.49-14.507-46.49-14.507Z" fill="#242424"/>
        <path id="Trazado_117508" data-name="Trazado 117508" d="M292.2,164.922c28.643,7.487,48.529,24.655,36.359,29.968-15.925,6.951-45.965-5.127-44.986-22.464S292.2,164.922,292.2,164.922Z" fill="#242424"/>
        <path id="Trazado_117509" data-name="Trazado 117509" d="M269.3,190.688c6.555,5.463,9.017,6.829,10.109,2.459s-3.733-8.835-3.733-8.835,9.109,14.126,21.136,6.158-9.279-19.923-17.626-20.973-13.689-1.376-18.661.888c-13.712,6.245-8.158,23.685-3.836,30.646C265.8,215.706,269.3,190.688,269.3,190.688Z" fill="#242424"/>
        <path id="Trazado_117510" data-name="Trazado 117510" d="M305.6,215.495" fill="none" stroke="#fff" stroke-miterlimit="10" stroke-width="0.5"/>
        <path id="Trazado_117511" data-name="Trazado 117511" d="M309.593,233.136s3.149,7.648,14.4-.45" fill="none" stroke="#242424" stroke-linecap="round" stroke-linejoin="round" stroke-width="1"/>
        <g id="Grupo_83602" data-name="Grupo 83602">
          <path id="Trazado_117512" data-name="Trazado 117512" d="M328.388,211.411l5.763,12.643-7.937,2.893" fill="#fff" stroke="#fff" stroke-miterlimit="10" stroke-width="0.461"/>
          <path id="Trazado_117513" data-name="Trazado 117513" d="M328.388,211.411l5.763,12.643-8.214,2.581" fill="none" stroke="#242424" stroke-linecap="round" stroke-linejoin="round" stroke-width="1"/>
        </g>
        <path id="Trazado_117514" data-name="Trazado 117514" d="M318.347,211.08a6.672,6.672,0,0,1,11.308-.748" fill="none" stroke="#e06a4f" stroke-linecap="round" stroke-linejoin="round" stroke-width="1"/>
        <path id="Trazado_117515" data-name="Trazado 117515" d="M338.3,208.527" fill="none" stroke="#fff" stroke-miterlimit="10" stroke-width="0.5"/>
        <path id="Trazado_117516" data-name="Trazado 117516" d="M272.438,218.516s2.553,0,4.085,4.6c0,0-2.206-1.6-3.968-1.16" fill="none" stroke="#242424" stroke-linecap="round" stroke-linejoin="round" stroke-width="1"/>
        <path id="Trazado_117517" data-name="Trazado 117517" d="M295.132,320.27c.972-.389,5.023-1.272,5.023-1.272s9.507-7,13.1-7c6.311,0-5.109,7-5.109,7s6.943-2.754,9.849-2.048c.842.205,2.313.878,2.018,1.869-.574,1.931-8.016,3.034-7.889,3.354s7.93-1.981,9.105-1.926c1.733.081,2.326,2.749.317,3.807-.709.373-2.473.388-8.452,1.929-.383.1-.486.272-.292.224.1-.024,6.67-1.3,8.057-1.268,1.489.035.852,2.31-1.578,3.687-1.331.754-5.16,1.374-5.266,1.539s3.727-.891,4.942-.567c.947.253,1,2.2-2.346,3.54-9.071,3.626-15.648.37-15.648.37l-4.258-.057Z" fill="#fff"/>
        <path id="Trazado_117518" data-name="Trazado 117518" d="M369.229,296.239c-4.972,4.261-4.507,6.287-3.36,6.571s2.87-.267,4.663-2.4c3.271-3.887,3.145-4.723,2.271-5.949C371.727,292.955,369.229,296.239,369.229,296.239Z" fill="#fff"/>
        <path id="Trazado_117519" data-name="Trazado 117519" d="M370.532,300.413c-2.7,2.442-3.947,3.833-3.011,5.224s2.81,1.391,3.122-.232A22.55,22.55,0,0,0,370.532,300.413Z" fill="#fff"/>
        <path id="Trazado_117520" data-name="Trazado 117520" d="M370.643,305.4c-3.434,1.159-4.058,3.246-3.434,4.637s3.122.927,3.434-.232A19.988,19.988,0,0,0,370.643,305.4Z" fill="#fff"/>
        <path id="Trazado_117521" data-name="Trazado 117521" d="M281.664,251.528c-8.871-1.9-46.923,43.719-32.805,71.283,11.032,21.539,48.745,14.42,48.745,14.42l-.415-14.109a7.527,7.527,0,0,0-7.321-7.318c-8.168-.193-20.783-1.611-23.311-8.353C262.756,297.314,281.664,251.528,281.664,251.528Z" fill="#a6bbff"/>
        <path id="Trazado_117522" data-name="Trazado 117522" d="M282.7,256.6c3.342,7.321,21.007,9.389,18.3.637" fill="none" stroke="#242424" stroke-linecap="round" stroke-linejoin="round" stroke-width="1"/>
        <line id="Línea_143" data-name="Línea 143" x1="0.884" y2="45.105" transform="translate(344.291 296.216)" fill="none" stroke="#242424" stroke-linecap="round" stroke-linejoin="round" stroke-width="1"/>
        <line id="Línea_144" data-name="Línea 144" x2="6.131" y2="3.144" transform="translate(303.269 301.29)" fill="none" stroke="#242424" stroke-linecap="round" stroke-linejoin="round" stroke-width="1"/>
        <path id="Trazado_117523" data-name="Trazado 117523" d="M307.743,303.1s15.178-7.946,30.427-12.033" fill="none" stroke="#242424" stroke-linecap="round" stroke-linejoin="round" stroke-width="1"/>
        <path id="Trazado_117524" data-name="Trazado 117524" d="M305.941,302.862" fill="none" stroke="#242424" stroke-linecap="round" stroke-linejoin="round" stroke-width="1"/>
        <path id="Trazado_117525" data-name="Trazado 117525" d="M359.968,423.751s18.013-7.554,23.28-2.907,2.877,7.745,2.877,7.745H360.013Z" fill="#242424"/>
        <path id="Trazado_117526" data-name="Trazado 117526" d="M301.74,423.529s18.013-7.553,23.28-2.906,2.877,7.745,2.877,7.745H301.785Z" fill="#242424"/>
      </g>
    </g>
    <g id="Grupo_83605" data-name="Grupo 83605" transform="translate(803.565 1932.044) rotate(180)">
      <path id="Trazado_117527" data-name="Trazado 117527" d="M37.153,667.565l-48.178,78.346H85.332Z" transform="translate(-86.088 0)" fill="#ff5f65"/>
      <path id="Trazado_117528" data-name="Trazado 117528" d="M-196.435,1047.418h295L50.387,969.072H-148.257Z" transform="translate(0 -139.994)" fill="#6b8dff"/>
      <path id="Trazado_117529" data-name="Trazado 117529" d="M-55.618,819.818l-47.19,76.739H91.883l-47.19-76.739Z" transform="translate(-43.472 -70.693)" fill="#ffd947"/>
    </g>
    <path id="Trazado_118822" data-name="Trazado 118822" d="M-7.969,0H-13.1V-21.328h5.127ZM13.418,0H8.306L.747-13.271V0H-4.395V-21.328H.747L8.291-8.057V-21.328h5.127Z" transform="translate(853 1072)" fill="#12263f"/>
    <path id="Trazado_118826" data-name="Trazado 118826" d="M-17.465-1.492A3.465,3.465,0,0,1-19.078-.254a6.517,6.517,0,0,1-2.41.41A4.674,4.674,0,0,1-23.957-.5a4.346,4.346,0,0,1-1.668-1.855,6.408,6.408,0,0,1-.605-2.789v-.992a5.982,5.982,0,0,1,1.2-3.984,4.179,4.179,0,0,1,3.371-1.414,4.316,4.316,0,0,1,2.867.91,3.965,3.965,0,0,1,1.328,2.582h-1.5A2.48,2.48,0,0,0-21.652-10.3a2.655,2.655,0,0,0-2.285,1.06,5.173,5.173,0,0,0-.785,3.069v.93A4.848,4.848,0,0,0-23.848-2.2,2.836,2.836,0,0,0-21.48-1.07,5.228,5.228,0,0,0-20-1.257a2.283,2.283,0,0,0,1.047-.631V-4.437H-21.59V-5.664h4.125ZM-11.684.156a3.693,3.693,0,0,1-2.8-1.129,4.19,4.19,0,0,1-1.078-3.02v-.266a5.073,5.073,0,0,1,.48-2.246,3.748,3.748,0,0,1,1.344-1.547,3.378,3.378,0,0,1,1.871-.559A3.166,3.166,0,0,1-9.3-7.523a4.7,4.7,0,0,1,.914,3.109v.6h-5.727a3,3,0,0,0,.73,2.02,2.3,2.3,0,0,0,1.777.77,2.517,2.517,0,0,0,1.3-.312,3.259,3.259,0,0,0,.93-.828l.883.688A3.55,3.55,0,0,1-11.684.156Zm-.18-7.578a1.928,1.928,0,0,0-1.469.637A3.1,3.1,0,0,0-14.066-5h4.234v-.109a2.753,2.753,0,0,0-.594-1.707A1.815,1.815,0,0,0-11.863-7.422Zm6.516-1.031L-5.3-7.391A3.08,3.08,0,0,1-2.77-8.609q2.68,0,2.7,3.023V0H-1.512V-5.594A1.946,1.946,0,0,0-1.93-6.945a1.675,1.675,0,0,0-1.277-.437,2.086,2.086,0,0,0-1.234.375,2.546,2.546,0,0,0-.828.984V0H-6.715V-8.453ZM5.621.156a3.693,3.693,0,0,1-2.8-1.129,4.19,4.19,0,0,1-1.078-3.02v-.266A5.073,5.073,0,0,1,2.227-6.5,3.748,3.748,0,0,1,3.57-8.051a3.378,3.378,0,0,1,1.871-.559A3.166,3.166,0,0,1,8-7.523a4.7,4.7,0,0,1,.914,3.109v.6H3.191a3,3,0,0,0,.73,2.02,2.3,2.3,0,0,0,1.777.77A2.517,2.517,0,0,0,7-1.336a3.259,3.259,0,0,0,.93-.828l.883.688A3.55,3.55,0,0,1,5.621.156Zm-.18-7.578a1.928,1.928,0,0,0-1.469.637A3.1,3.1,0,0,0,3.238-5H7.473v-.109a2.753,2.753,0,0,0-.594-1.707A1.815,1.815,0,0,0,5.441-7.422Zm9.234.266a4.331,4.331,0,0,0-.711-.055A1.9,1.9,0,0,0,12.035-6V0H10.59V-8.453H12l.023.977a2.251,2.251,0,0,1,2.016-1.133,1.477,1.477,0,0,1,.641.109ZM20.91,0a3.036,3.036,0,0,1-.2-.891A3.225,3.225,0,0,1,18.3.156,2.984,2.984,0,0,1,16.25-.551a2.287,2.287,0,0,1-.8-1.793,2.39,2.39,0,0,1,1-2.051,4.733,4.733,0,0,1,2.824-.73h1.406v-.664A1.623,1.623,0,0,0,20.23-7a1.821,1.821,0,0,0-1.336-.449,2.108,2.108,0,0,0-1.3.391,1.151,1.151,0,0,0-.523.945H15.621a2,2,0,0,1,.449-1.223,3.066,3.066,0,0,1,1.219-.934,4.1,4.1,0,0,1,1.691-.344,3.342,3.342,0,0,1,2.289.73,2.635,2.635,0,0,1,.859,2.012v3.891a4.757,4.757,0,0,0,.3,1.852V0Zm-2.4-1.1A2.54,2.54,0,0,0,19.8-1.453a2.127,2.127,0,0,0,.883-.914V-4.1H19.551q-2.656,0-2.656,1.555a1.316,1.316,0,0,0,.453,1.063A1.742,1.742,0,0,0,18.512-1.1ZM25.965,0H24.52V-12h1.445Z" transform="translate(1048 1067)" fill="#12263f"/>
    <path id="Trazado_118825" data-name="Trazado 118825" d="M-64.988-5.258h-4.93v4.031h5.727V0h-7.227V-11.375h7.148v1.227h-5.648v3.664h4.93Zm7.359,3.016a1.064,1.064,0,0,0-.441-.91,4.249,4.249,0,0,0-1.539-.559,7.277,7.277,0,0,1-1.742-.562,2.479,2.479,0,0,1-.953-.781,1.869,1.869,0,0,1-.309-1.078,2.193,2.193,0,0,1,.879-1.758,3.432,3.432,0,0,1,2.246-.719,3.532,3.532,0,0,1,2.332.742,2.357,2.357,0,0,1,.895,1.9h-1.453a1.3,1.3,0,0,0-.5-1.023,1.888,1.888,0,0,0-1.27-.43,1.976,1.976,0,0,0-1.234.344,1.082,1.082,0,0,0-.445.9.877.877,0,0,0,.414.789,5.1,5.1,0,0,0,1.5.508A7.8,7.8,0,0,1-57.5-4.3a2.558,2.558,0,0,1,1,.809,1.988,1.988,0,0,1,.324,1.152A2.163,2.163,0,0,1-57.09-.527a3.8,3.8,0,0,1-2.352.684,4.257,4.257,0,0,1-1.8-.359,2.922,2.922,0,0,1-1.223-1A2.42,2.42,0,0,1-62.9-2.6h1.445a1.5,1.5,0,0,0,.582,1.152,2.258,2.258,0,0,0,1.434.426,2.331,2.331,0,0,0,1.316-.332A1.02,1.02,0,0,0-57.629-2.242ZM-47.16-4.133a5.062,5.062,0,0,1-.883,3.109A2.829,2.829,0,0,1-50.434.156,3.1,3.1,0,0,1-52.855-.82V3.25H-54.3v-11.7h1.32l.07.938a2.977,2.977,0,0,1,2.453-1.094,2.882,2.882,0,0,1,2.41,1.148,5.117,5.117,0,0,1,.887,3.2ZM-48.605-4.3a3.735,3.735,0,0,0-.609-2.258,1.963,1.963,0,0,0-1.672-.828,2.125,2.125,0,0,0-1.969,1.164V-2.18a2.129,2.129,0,0,0,1.984,1.156,1.954,1.954,0,0,0,1.652-.824A4.077,4.077,0,0,0-48.605-4.3ZM-41.816.156a3.693,3.693,0,0,1-2.8-1.129,4.19,4.19,0,0,1-1.078-3.02v-.266a5.073,5.073,0,0,1,.48-2.246,3.748,3.748,0,0,1,1.344-1.547A3.378,3.378,0,0,1-42-8.609a3.166,3.166,0,0,1,2.563,1.086,4.7,4.7,0,0,1,.914,3.109v.6h-5.727a3,3,0,0,0,.73,2.02,2.3,2.3,0,0,0,1.777.77,2.517,2.517,0,0,0,1.3-.312,3.259,3.259,0,0,0,.93-.828l.883.688A3.55,3.55,0,0,1-41.816.156ZM-42-7.422a1.928,1.928,0,0,0-1.469.637A3.1,3.1,0,0,0-44.2-5h4.234v-.109a2.753,2.753,0,0,0-.594-1.707A1.815,1.815,0,0,0-42-7.422Zm8.539,6.4a2.082,2.082,0,0,0,1.352-.469,1.649,1.649,0,0,0,.641-1.172H-30.1a2.621,2.621,0,0,1-.5,1.383,3.293,3.293,0,0,1-1.23,1.047,3.55,3.55,0,0,1-1.629.391A3.482,3.482,0,0,1-36.2-1a4.59,4.59,0,0,1-1.02-3.152v-.242a5.089,5.089,0,0,1,.453-2.2,3.451,3.451,0,0,1,1.3-1.492,3.7,3.7,0,0,1,2-.531,3.39,3.39,0,0,1,2.363.852,3.043,3.043,0,0,1,1,2.211h-1.367a1.992,1.992,0,0,0-.621-1.348,1.932,1.932,0,0,0-1.379-.527,2.023,2.023,0,0,0-1.707.793,3.724,3.724,0,0,0-.605,2.293v.273a3.65,3.65,0,0,0,.6,2.25A2.033,2.033,0,0,0-33.457-1.023ZM-26.9,0h-1.453V-8.453H-26.9Zm.016-11.992h1.75L-27.23-9.7l-1.164,0ZM-24.035,0V-7.336h-1.336V-8.453h1.336v-.719a2.937,2.937,0,0,1,.809-2.2,3.136,3.136,0,0,1,2.285-.789,6.881,6.881,0,0,1,2.211.477l-.242,1.219a5.008,5.008,0,0,0-1.859-.391,1.819,1.819,0,0,0-1.34.418,1.723,1.723,0,0,0-.41,1.254v.734h1.727v1.117h-1.727V0Zm6.023,0h-1.453V-8.453h1.453Zm5.742-1.023a2.082,2.082,0,0,0,1.352-.469,1.649,1.649,0,0,0,.641-1.172H-8.91a2.621,2.621,0,0,1-.5,1.383,3.293,3.293,0,0,1-1.23,1.047A3.55,3.55,0,0,1-12.27.156,3.482,3.482,0,0,1-15.016-1a4.59,4.59,0,0,1-1.02-3.152v-.242a5.089,5.089,0,0,1,.453-2.2,3.451,3.451,0,0,1,1.3-1.492,3.7,3.7,0,0,1,2-.531,3.39,3.39,0,0,1,2.363.852,3.043,3.043,0,0,1,1,2.211h-1.367A1.992,1.992,0,0,0-10.9-6.895a1.932,1.932,0,0,0-1.379-.527,2.023,2.023,0,0,0-1.707.793,3.724,3.724,0,0,0-.605,2.293v.273a3.65,3.65,0,0,0,.6,2.25A2.033,2.033,0,0,0-12.27-1.023Zm4.6-3.281A4.993,4.993,0,0,1-7.18-6.539,3.643,3.643,0,0,1-5.82-8.07a3.7,3.7,0,0,1,1.988-.539,3.565,3.565,0,0,1,2.793,1.2A4.6,4.6,0,0,1,.027-4.234v.1A5.036,5.036,0,0,1-.445-1.918,3.589,3.589,0,0,1-1.8-.391a3.743,3.743,0,0,1-2.02.547A3.556,3.556,0,0,1-6.6-1.039,4.575,4.575,0,0,1-7.668-4.2Zm1.453.172a3.616,3.616,0,0,0,.652,2.258,2.088,2.088,0,0,0,1.746.852,2.075,2.075,0,0,0,1.75-.863A3.955,3.955,0,0,0-1.418-4.3a3.61,3.61,0,0,0-.66-2.254,2.1,2.1,0,0,0-1.754-.863,2.075,2.075,0,0,0-1.727.852A3.925,3.925,0,0,0-6.215-4.133ZM5.66-4.594A13.2,13.2,0,0,1,7.328-9.582a7.175,7.175,0,0,1,3.246-3.066l.375,1.258Q8.277-9.352,7.566-4.836a19.376,19.376,0,0,0-.258,2.75Q7.27,1.125,8.777,2.375l-.492,1.18A5.13,5.13,0,0,1,5.926.313,10.87,10.87,0,0,1,5.527-3a13.121,13.121,0,0,1,.1-1.406ZM16.652-3.039q.164-.93-.914-1.422l-1.508-.6q-2.625-1.172-2.492-3.227a2.964,2.964,0,0,1,.625-1.687,3.758,3.758,0,0,1,1.6-1.152,5.67,5.67,0,0,1,2.227-.4,3.857,3.857,0,0,1,2.664.98,3.267,3.267,0,0,1,1,2.543H17.574a1.628,1.628,0,0,0-.34-1.2,1.531,1.531,0,0,0-1.176-.445A2.37,2.37,0,0,0,14.7-9.3a1.458,1.458,0,0,0-.687,1.02q-.148.852,1.141,1.352l1.031.391.594.273q2.3,1.141,2.156,3.2a3.09,3.09,0,0,1-.645,1.738A3.633,3.633,0,0,1,16.727-.2a5.565,5.565,0,0,1-2.176.367,4.873,4.873,0,0,1-2.156-.508,3.349,3.349,0,0,1-1.437-1.367,3.54,3.54,0,0,1-.43-1.875l2.289.008q-.109,1.852,1.82,1.883a2.392,2.392,0,0,0,1.375-.367A1.43,1.43,0,0,0,16.652-3.039ZM27.988-4.2a6.981,6.981,0,0,1-.7,2.359,3.826,3.826,0,0,1-1.32,1.531,3.058,3.058,0,0,1-1.75.477A2.44,2.44,0,0,1,22.285-.75l-.773,4h-2.2l2.023-11.7,2.031-.008-.148.852a2.7,2.7,0,0,1,2.156-1,2.4,2.4,0,0,1,1.93.9,3.922,3.922,0,0,1,.734,2.363A9.133,9.133,0,0,1,27.988-4.2ZM25.8-4.364l.047-.751A2.089,2.089,0,0,0,25.57-6.32a1,1,0,0,0-.855-.462,1.818,1.818,0,0,0-1.586.814L22.5-2.478a1.233,1.233,0,0,0,1.242.822,1.59,1.59,0,0,0,1.328-.618A4.234,4.234,0,0,0,25.8-4.364ZM32.7.156a3.677,3.677,0,0,1-1.965-.543,3.292,3.292,0,0,1-1.277-1.469,4.093,4.093,0,0,1-.328-2.059l.023-.312a5.465,5.465,0,0,1,.719-2.266,4.341,4.341,0,0,1,1.547-1.59,3.827,3.827,0,0,1,2.094-.527,2.924,2.924,0,0,1,2.473,1.2,4.117,4.117,0,0,1,.637,2.962l-.125.962h-5.18a1.814,1.814,0,0,0,.4,1.313,1.521,1.521,0,0,0,1.172.508A2.7,2.7,0,0,0,35-2.6L36-1.352A3.135,3.135,0,0,1,34.629-.23,4.5,4.5,0,0,1,32.7.156Zm.7-6.945a1.565,1.565,0,0,0-1.082.383,3.363,3.363,0,0,0-.848,1.383H34.5l.047-.2a2.071,2.071,0,0,0,.008-.594,1.134,1.134,0,0,0-.383-.707A1.2,1.2,0,0,0,33.4-6.789Zm7.453,5.133a1.447,1.447,0,0,0,1.016-.332,1.632,1.632,0,0,0,.531-.926l2.07-.008a3.037,3.037,0,0,1-.559,1.6A3.394,3.394,0,0,1,42.57-.211,3.847,3.847,0,0,1,40.8.164,3.123,3.123,0,0,1,38.363-.9,3.965,3.965,0,0,1,37.5-3.664l.023-.43.008-.086a5.284,5.284,0,0,1,1.391-3.27,3.761,3.761,0,0,1,2.914-1.16,3.047,3.047,0,0,1,2.27.934A3.3,3.3,0,0,1,44.926-5.3H42.871a1.73,1.73,0,0,0-.3-1.07,1.128,1.128,0,0,0-.891-.422q-1.578-.047-1.914,2.3a7.782,7.782,0,0,0-.086,1.438Q39.762-1.68,40.855-1.656ZM47.652,0H45.434L46.9-8.453h2.219ZM47.16-10.6a1.1,1.1,0,0,1,.344-.867,1.209,1.209,0,0,1,.867-.344,1.215,1.215,0,0,1,.867.3,1.1,1.1,0,0,1,.383.828,1.132,1.132,0,0,1-.324.844,1.215,1.215,0,0,1-.887.375,1.235,1.235,0,0,1-.863-.3A1.091,1.091,0,0,1,47.16-10.6ZM50.051,0l1.18-6.8H50l.3-1.656h1.141l.07-.406a3.973,3.973,0,0,1,1.352-2.465,4.1,4.1,0,0,1,2.727-.855,6.635,6.635,0,0,1,1.27.152q.621.137,1.238.309l-.477,1.883a6.438,6.438,0,0,0-1.992-.391,2.08,2.08,0,0,0-1.273.371,1.7,1.7,0,0,0-.648,1.043l-.07.359h1.711l-.3,1.656H53.441L52.262,0Zm7.117,0H54.949l1.469-8.453h2.211Zm5.578-1.656a1.447,1.447,0,0,0,1.016-.332,1.632,1.632,0,0,0,.531-.926l2.07-.008a3.037,3.037,0,0,1-.559,1.6A3.394,3.394,0,0,1,64.461-.211a3.847,3.847,0,0,1-1.77.375A3.123,3.123,0,0,1,60.254-.9a3.965,3.965,0,0,1-.867-2.766l.023-.43.008-.086a5.284,5.284,0,0,1,1.391-3.27,3.761,3.761,0,0,1,2.914-1.16,3.047,3.047,0,0,1,2.27.934A3.3,3.3,0,0,1,66.816-5.3H64.762a1.73,1.73,0,0,0-.3-1.07,1.128,1.128,0,0,0-.891-.422Q62-6.836,61.66-4.484a7.782,7.782,0,0,0-.086,1.438Q61.652-1.68,62.746-1.656Zm4.008,5.234-.375-1.234q2.68-2.07,3.383-6.625A19.275,19.275,0,0,0,70-6.977q.039-3.211-1.453-4.469l.492-1.18a4.565,4.565,0,0,1,1.582,1.457A6.725,6.725,0,0,1,71.6-8.859a11.6,11.6,0,0,1,.3,2.781,13.865,13.865,0,0,1-.75,4.223,11.039,11.039,0,0,1-1.84,3.441A6.68,6.68,0,0,1,66.754,3.578Z" transform="translate(1048 1148)" fill="#ff5f65"/>
    <path id="Trazado_118827" data-name="Trazado 118827" d="M-101.777-11.375l3.719,9.281,3.719-9.281h1.945V0h-1.5V-4.43l.141-4.781L-97.488,0h-1.148l-3.727-9.187.148,4.758V0h-1.5V-11.375ZM-84.754-.836A3.07,3.07,0,0,1-87.23.156a2.628,2.628,0,0,1-2.059-.785A3.4,3.4,0,0,1-90-2.953v-5.5h1.445v5.461q0,1.922,1.563,1.922a2.163,2.163,0,0,0,2.2-1.234V-8.453h1.445V0h-1.375Zm6.367-1.281,1.969-6.336h1.547L-78.27,1.3q-.789,2.109-2.508,2.109l-.273-.023-.539-.1V2.117l.391.031a1.923,1.923,0,0,0,1.145-.3A2.149,2.149,0,0,0-79.379.766l.32-.859-3.016-8.359H-80.5ZM-66.113.156a3.693,3.693,0,0,1-2.8-1.129,4.19,4.19,0,0,1-1.078-3.02v-.266a5.073,5.073,0,0,1,.48-2.246,3.748,3.748,0,0,1,1.344-1.547,3.378,3.378,0,0,1,1.871-.559A3.166,3.166,0,0,1-63.73-7.523a4.7,4.7,0,0,1,.914,3.109v.6h-5.727a3,3,0,0,0,.73,2.02,2.3,2.3,0,0,0,1.777.77,2.517,2.517,0,0,0,1.3-.312,3.259,3.259,0,0,0,.93-.828l.883.688A3.55,3.55,0,0,1-66.113.156Zm-.18-7.578a1.928,1.928,0,0,0-1.469.637A3.1,3.1,0,0,0-68.5-5h4.234v-.109a2.753,2.753,0,0,0-.594-1.707A1.815,1.815,0,0,0-66.293-7.422Zm10.07,5.18a1.064,1.064,0,0,0-.441-.91A4.249,4.249,0,0,0-58.2-3.711a7.277,7.277,0,0,1-1.742-.562,2.479,2.479,0,0,1-.953-.781,1.869,1.869,0,0,1-.309-1.078,2.193,2.193,0,0,1,.879-1.758,3.432,3.432,0,0,1,2.246-.719,3.532,3.532,0,0,1,2.332.742,2.357,2.357,0,0,1,.895,1.9h-1.453a1.3,1.3,0,0,0-.5-1.023,1.888,1.888,0,0,0-1.27-.43,1.976,1.976,0,0,0-1.234.344,1.082,1.082,0,0,0-.445.9.877.877,0,0,0,.414.789,5.1,5.1,0,0,0,1.5.508A7.8,7.8,0,0,1-56.1-4.3a2.558,2.558,0,0,1,1,.809,1.988,1.988,0,0,1,.324,1.152,2.163,2.163,0,0,1-.906,1.816,3.8,3.8,0,0,1-2.352.684,4.257,4.257,0,0,1-1.8-.359,2.922,2.922,0,0,1-1.223-1A2.42,2.42,0,0,1-61.5-2.6h1.445a1.5,1.5,0,0,0,.582,1.152,2.258,2.258,0,0,0,1.434.426,2.331,2.331,0,0,0,1.316-.332A1.02,1.02,0,0,0-56.223-2.242Zm10.469-1.891a5.062,5.062,0,0,1-.883,3.109A2.829,2.829,0,0,1-49.027.156,3.1,3.1,0,0,1-51.449-.82V3.25h-1.445v-11.7h1.32l.07.938a2.977,2.977,0,0,1,2.453-1.094,2.882,2.882,0,0,1,2.41,1.148,5.117,5.117,0,0,1,.887,3.2ZM-47.2-4.3a3.735,3.735,0,0,0-.609-2.258,1.963,1.963,0,0,0-1.672-.828,2.125,2.125,0,0,0-1.969,1.164V-2.18a2.129,2.129,0,0,0,1.984,1.156,1.954,1.954,0,0,0,1.652-.824A4.077,4.077,0,0,0-47.2-4.3ZM-40.41.156a3.693,3.693,0,0,1-2.8-1.129,4.19,4.19,0,0,1-1.078-3.02v-.266A5.073,5.073,0,0,1-43.8-6.5a3.748,3.748,0,0,1,1.344-1.547,3.378,3.378,0,0,1,1.871-.559,3.166,3.166,0,0,1,2.563,1.086,4.7,4.7,0,0,1,.914,3.109v.6H-42.84a3,3,0,0,0,.73,2.02,2.3,2.3,0,0,0,1.777.77,2.517,2.517,0,0,0,1.3-.312,3.259,3.259,0,0,0,.93-.828l.883.688A3.55,3.55,0,0,1-40.41.156Zm-.18-7.578a1.928,1.928,0,0,0-1.469.637A3.1,3.1,0,0,0-42.793-5h4.234v-.109a2.753,2.753,0,0,0-.594-1.707A1.815,1.815,0,0,0-40.59-7.422Zm8.539,6.4A2.082,2.082,0,0,0-30.7-1.492a1.649,1.649,0,0,0,.641-1.172h1.367a2.621,2.621,0,0,1-.5,1.383,3.293,3.293,0,0,1-1.23,1.047,3.55,3.55,0,0,1-1.629.391A3.482,3.482,0,0,1-34.8-1a4.59,4.59,0,0,1-1.02-3.152v-.242a5.089,5.089,0,0,1,.453-2.2,3.451,3.451,0,0,1,1.3-1.492,3.7,3.7,0,0,1,2-.531,3.39,3.39,0,0,1,2.363.852,3.043,3.043,0,0,1,1,2.211h-1.367a1.992,1.992,0,0,0-.621-1.348,1.932,1.932,0,0,0-1.379-.527,2.023,2.023,0,0,0-1.707.793,3.724,3.724,0,0,0-.605,2.293v.273a3.65,3.65,0,0,0,.6,2.25A2.033,2.033,0,0,0-32.051-1.023ZM-26.582,0V-7.336h-1.336V-8.453h1.336v-.719a2.937,2.937,0,0,1,.809-2.2,3.136,3.136,0,0,1,2.285-.789,6.881,6.881,0,0,1,2.211.477l-.242,1.219a5.008,5.008,0,0,0-1.859-.391,1.819,1.819,0,0,0-1.34.418,1.723,1.723,0,0,0-.41,1.254v.734H-23.4v1.117h-1.727V0Zm6.023,0h-1.453V-8.453h1.453Zm5.742-1.023a2.082,2.082,0,0,0,1.352-.469,1.649,1.649,0,0,0,.641-1.172h1.367a2.621,2.621,0,0,1-.5,1.383,3.293,3.293,0,0,1-1.23,1.047,3.55,3.55,0,0,1-1.629.391A3.482,3.482,0,0,1-17.562-1a4.59,4.59,0,0,1-1.02-3.152v-.242a5.089,5.089,0,0,1,.453-2.2,3.451,3.451,0,0,1,1.3-1.492,3.7,3.7,0,0,1,2-.531,3.39,3.39,0,0,1,2.363.852,3.043,3.043,0,0,1,1,2.211h-1.367a1.992,1.992,0,0,0-.621-1.348,1.932,1.932,0,0,0-1.379-.527,2.023,2.023,0,0,0-1.707.793,3.724,3.724,0,0,0-.605,2.293v.273a3.65,3.65,0,0,0,.6,2.25A2.033,2.033,0,0,0-14.816-1.023Zm4.6-3.281a4.993,4.993,0,0,1,.488-2.234A3.643,3.643,0,0,1-8.367-8.07a3.7,3.7,0,0,1,1.988-.539,3.565,3.565,0,0,1,2.793,1.2A4.6,4.6,0,0,1-2.52-4.234v.1a5.036,5.036,0,0,1-.473,2.215A3.589,3.589,0,0,1-4.344-.391a3.743,3.743,0,0,1-2.02.547,3.556,3.556,0,0,1-2.785-1.2A4.575,4.575,0,0,1-10.215-4.2Zm1.453.172a3.616,3.616,0,0,0,.652,2.258,2.088,2.088,0,0,0,1.746.852,2.075,2.075,0,0,0,1.75-.863A3.955,3.955,0,0,0-3.965-4.3a3.61,3.61,0,0,0-.66-2.254,2.1,2.1,0,0,0-1.754-.863,2.075,2.075,0,0,0-1.727.852A3.925,3.925,0,0,0-8.762-4.133ZM3.113-4.594A13.2,13.2,0,0,1,4.781-9.582a7.175,7.175,0,0,1,3.246-3.066L8.4-11.391Q5.73-9.352,5.02-4.836a19.376,19.376,0,0,0-.258,2.75Q4.723,1.125,6.23,2.375l-.492,1.18A5.13,5.13,0,0,1,3.379.313,10.87,10.87,0,0,1,2.98-3a13.121,13.121,0,0,1,.1-1.406Zm9.461,1.75L16.4-11.375h2.625L13.41,0H11.02L8.973-11.375h2.461Zm9.531,3a3.677,3.677,0,0,1-1.965-.543,3.292,3.292,0,0,1-1.277-1.469,4.093,4.093,0,0,1-.328-2.059l.023-.312a5.465,5.465,0,0,1,.719-2.266,4.341,4.341,0,0,1,1.547-1.59,3.827,3.827,0,0,1,2.094-.527,2.924,2.924,0,0,1,2.473,1.2,4.117,4.117,0,0,1,.637,2.962l-.125.962h-5.18a1.814,1.814,0,0,0,.4,1.313,1.521,1.521,0,0,0,1.172.508A2.7,2.7,0,0,0,24.4-2.6l1.008,1.25A3.135,3.135,0,0,1,24.035-.23,4.5,4.5,0,0,1,22.105.156Zm.7-6.945a1.565,1.565,0,0,0-1.082.383,3.363,3.363,0,0,0-.848,1.383H23.91l.047-.2a2.071,2.071,0,0,0,.008-.594,1.134,1.134,0,0,0-.383-.707A1.2,1.2,0,0,0,22.809-6.789Zm9.539.453a4.548,4.548,0,0,0-.742-.078,2.136,2.136,0,0,0-1.867.883L28.762,0h-2.2l1.469-8.453,2.07-.008-.2,1.031a2.325,2.325,0,0,1,1.969-1.2,3.214,3.214,0,0,1,.766.109Zm3.539,3.117L38.3-8.453h2.453L35.809,1.273a4.231,4.231,0,0,1-1.246,1.641,2.723,2.723,0,0,1-1.652.523,5.035,5.035,0,0,1-1.062-.164l.164-1.719.3.016A1.651,1.651,0,0,0,33.895.781l.484-.9L33-8.453h2.281Zm13.125.836q.125-.625-.867-.906l-.711-.18q-2.523-.7-2.453-2.453a2.428,2.428,0,0,1,1.059-1.949A3.942,3.942,0,0,1,48.5-8.609a3.536,3.536,0,0,1,2.313.758,2.5,2.5,0,0,1,.9,1.977L49.52-5.883a.963.963,0,0,0-1.078-1.1,1.552,1.552,0,0,0-.895.258,1.061,1.061,0,0,0-.465.7q-.117.625.945.883l.313.07a6.285,6.285,0,0,1,1.648.59,2.488,2.488,0,0,1,.879.824,2.04,2.04,0,0,1,.285,1.18,2.251,2.251,0,0,1-.52,1.406,3.18,3.18,0,0,1-1.359.93,4.736,4.736,0,0,1-1.816.3,3.568,3.568,0,0,1-2.344-.809A2.607,2.607,0,0,1,44.16-2.7l2.078.016a1.142,1.142,0,0,0,1.3,1.227,1.845,1.845,0,0,0,1-.25A.987.987,0,0,0,49.012-2.383ZM60.285-4.2a6.981,6.981,0,0,1-.7,2.359A3.826,3.826,0,0,1,58.27-.312a3.058,3.058,0,0,1-1.75.477A2.44,2.44,0,0,1,54.582-.75l-.773,4h-2.2l2.023-11.7,2.031-.008-.148.852a2.7,2.7,0,0,1,2.156-1,2.4,2.4,0,0,1,1.93.9,3.922,3.922,0,0,1,.734,2.363A9.132,9.132,0,0,1,60.285-4.2ZM58.1-4.364l.047-.751a2.089,2.089,0,0,0-.277-1.205,1,1,0,0,0-.855-.462,1.818,1.818,0,0,0-1.586.814l-.633,3.49a1.233,1.233,0,0,0,1.242.822,1.59,1.59,0,0,0,1.328-.618A4.234,4.234,0,0,0,58.1-4.364ZM65,.156a3.677,3.677,0,0,1-1.965-.543,3.292,3.292,0,0,1-1.277-1.469,4.093,4.093,0,0,1-.328-2.059l.023-.312a5.465,5.465,0,0,1,.719-2.266,4.341,4.341,0,0,1,1.547-1.59,3.827,3.827,0,0,1,2.094-.527,2.924,2.924,0,0,1,2.473,1.2,4.117,4.117,0,0,1,.637,2.962l-.125.962h-5.18a1.814,1.814,0,0,0,.4,1.313,1.521,1.521,0,0,0,1.172.508A2.7,2.7,0,0,0,67.293-2.6L68.3-1.352A3.135,3.135,0,0,1,66.926-.23,4.5,4.5,0,0,1,65,.156Zm.7-6.945a1.565,1.565,0,0,0-1.082.383,3.363,3.363,0,0,0-.848,1.383H66.8l.047-.2a2.071,2.071,0,0,0,.008-.594,1.134,1.134,0,0,0-.383-.707A1.2,1.2,0,0,0,65.7-6.789Zm7.453,5.133a1.447,1.447,0,0,0,1.016-.332,1.632,1.632,0,0,0,.531-.926l2.07-.008a3.037,3.037,0,0,1-.559,1.6A3.394,3.394,0,0,1,74.867-.211,3.847,3.847,0,0,1,73.1.164,3.123,3.123,0,0,1,70.66-.9a3.965,3.965,0,0,1-.867-2.766l.023-.43.008-.086a5.284,5.284,0,0,1,1.391-3.27,3.761,3.761,0,0,1,2.914-1.16,3.047,3.047,0,0,1,2.27.934A3.3,3.3,0,0,1,77.223-5.3H75.168a1.73,1.73,0,0,0-.3-1.07,1.128,1.128,0,0,0-.891-.422q-1.578-.047-1.914,2.3a7.782,7.782,0,0,0-.086,1.438Q72.059-1.68,73.152-1.656ZM79.949,0H77.73L79.2-8.453h2.219Zm-.492-10.6a1.1,1.1,0,0,1,.344-.867,1.209,1.209,0,0,1,.867-.344,1.215,1.215,0,0,1,.867.3,1.1,1.1,0,0,1,.383.828,1.132,1.132,0,0,1-.324.844,1.215,1.215,0,0,1-.887.375,1.235,1.235,0,0,1-.863-.3A1.091,1.091,0,0,1,79.457-10.6ZM82.348,0l1.18-6.8H82.3l.3-1.656h1.141l.07-.406a3.973,3.973,0,0,1,1.352-2.465,4.1,4.1,0,0,1,2.727-.855,6.635,6.635,0,0,1,1.27.152q.621.137,1.238.309l-.477,1.883a6.438,6.438,0,0,0-1.992-.391,2.08,2.08,0,0,0-1.273.371A1.7,1.7,0,0,0,86-8.812l-.07.359h1.711l-.3,1.656H85.738L84.559,0Zm7.117,0H87.246l1.469-8.453h2.211Zm5.578-1.656a1.447,1.447,0,0,0,1.016-.332,1.632,1.632,0,0,0,.531-.926l2.07-.008a3.037,3.037,0,0,1-.559,1.6A3.394,3.394,0,0,1,96.758-.211a3.847,3.847,0,0,1-1.77.375A3.123,3.123,0,0,1,92.551-.9a3.965,3.965,0,0,1-.867-2.766l.023-.43.008-.086a5.284,5.284,0,0,1,1.391-3.27,3.761,3.761,0,0,1,2.914-1.16,3.047,3.047,0,0,1,2.27.934A3.3,3.3,0,0,1,99.113-5.3H97.059a1.73,1.73,0,0,0-.3-1.07,1.128,1.128,0,0,0-.891-.422q-1.578-.047-1.914,2.3a7.782,7.782,0,0,0-.086,1.438Q93.949-1.68,95.043-1.656Zm4.008,5.234-.375-1.234q2.68-2.07,3.383-6.625a19.275,19.275,0,0,0,.242-2.7q.039-3.211-1.453-4.469l.492-1.18a4.565,4.565,0,0,1,1.582,1.457,6.725,6.725,0,0,1,.977,2.309,11.6,11.6,0,0,1,.3,2.781,13.865,13.865,0,0,1-.75,4.223,11.039,11.039,0,0,1-1.84,3.441A6.68,6.68,0,0,1,99.051,3.578Z" transform="translate(1048 1224)" fill="#ff5f65"/>
    <path id="Trazado_118823" data-name="Trazado 118823" d="M-1.216-10.225A12.577,12.577,0,0,1-2.373-4.7,8.553,8.553,0,0,1-5.662-1a9.157,9.157,0,0,1-4.856,1.3A9.286,9.286,0,0,1-15.352-.959,8.538,8.538,0,0,1-18.64-4.541a12.215,12.215,0,0,1-1.238-5.347v-1.2a12.633,12.633,0,0,1,1.15-5.53,8.532,8.532,0,0,1,3.3-3.7,9.221,9.221,0,0,1,4.885-1.3,9.131,9.131,0,0,1,4.834,1.289,8.685,8.685,0,0,1,3.3,3.669,12.27,12.27,0,0,1,1.194,5.457Zm-5.229-.894a8.969,8.969,0,0,0-1.062-4.827,3.406,3.406,0,0,0-3.04-1.648q-3.867,0-4.087,5.8l-.015,1.567a9.224,9.224,0,0,0,1.04,4.819,3.4,3.4,0,0,0,3.091,1.685,3.36,3.36,0,0,0,3-1.655,8.972,8.972,0,0,0,1.069-4.761ZM19.248,0H14.136L6.577-13.271V0H1.436V-21.328H6.577L14.121-8.057V-21.328h5.127Z" transform="translate(853 1155)" fill="#12263f"/>
    <path id="Trazado_118824" data-name="Trazado 118824" d="M-5.068-3.984h-7.046L-13.345,0h-5.493l7.822-21.328h4.834L1.7,0H-3.823Zm-5.815-3.97H-6.3l-2.3-7.4Zm29.121-9.4h-6.4V0H6.694V-17.358H.41v-3.97H18.237Z" transform="translate(853 1222)" fill="#12263f"/>
  </g>
</svg>
