<svg xmlns="http://www.w3.org/2000/svg" xmlns:xlink="http://www.w3.org/1999/xlink" width="69" height="69" viewBox="0 0 69 69">
  <defs>
    <clipPath id="clip-path">
      <rect id="Rectángulo_34551" data-name="Rectángulo 34551" width="69" height="69" transform="translate(234 2337)" fill="#ff5f65"/>
    </clipPath>
  </defs>
  <g id="Enmascarar_grupo_91" data-name="Enmascarar grupo 91" transform="translate(-234 -2337)" clip-path="url(#clip-path)">
    <g id="_OUTLINE" data-name="/ OUTLINE" transform="translate(231.708 2334.709)">
      <path id="Trazado_117555" data-name="Trazado 117555" d="M61.187,12.4a34.5,34.5,0,1,0,0,48.79,34.5,34.5,0,0,0,0-48.79Zm-.829,46.335L58.3,56.674,56.674,58.3l2.058,2.058a31.944,31.944,0,0,1-20.79,8.6V65.535h-2.3v3.427a31.944,31.944,0,0,1-20.79-8.6L16.909,58.3l-1.626-1.626-2.058,2.058a31.944,31.944,0,0,1-8.6-20.79H8.048v-2.3H4.621a31.944,31.944,0,0,1,8.6-20.79l2.058,2.058,1.626-1.626-2.058-2.058a31.944,31.944,0,0,1,20.79-8.6V8.048h2.3V4.621a31.944,31.944,0,0,1,20.79,8.6l-2.058,2.058L58.3,16.909l2.058-2.058a31.944,31.944,0,0,1,8.6,20.79H65.535v2.3h3.427a31.944,31.944,0,0,1-8.6,20.79Z" fill="#ff5f65"/>
      <path id="Trazado_117556" data-name="Trazado 117556" d="M47.139,49.438h-2.3a2.3,2.3,0,0,0-2.3,2.3v1.15h-11.5v-1.15a2.3,2.3,0,0,0-2.3-2.3h-2.3a2.3,2.3,0,0,0-2.3,2.3v9.2a2.3,2.3,0,0,0,2.3,2.3h2.3a2.3,2.3,0,0,0,2.3-2.3v-1.15h11.5v1.15a2.3,2.3,0,0,0,2.3,2.3h2.3a2.3,2.3,0,0,0,2.3-2.3v-9.2a2.3,2.3,0,0,0-2.3-2.3Zm-18.4,11.5h-2.3v-9.2h2.3v9.2Zm13.8-3.449h-11.5v-2.3h11.5Zm4.6,3.449h-2.3v-9.2h2.3v9.2Z" fill="#ff5f65"/>
      <path id="Trazado_117557" data-name="Trazado 117557" d="M59.643,33.455a5.749,5.749,0,1,0-11.21,0,4.6,4.6,0,0,0,1.006,9.086h2.3v-2.3h-2.3a2.3,2.3,0,1,1,0-4.6v-.007a5.742,5.742,0,0,0,1.724,1.537l1.151-1.99A3.451,3.451,0,1,1,57.2,33.574a4.606,4.606,0,0,0-3.16,4.367h2.3a2.3,2.3,0,1,1,2.3,2.3h-2.3v2.3h2.3a4.6,4.6,0,0,0,1.007-9.086Z" fill="#ff5f65"/>
      <path id="Trazado_117558" data-name="Trazado 117558" d="M49.775,46.326,51.4,47.952l1.486-1.486v5.272h2.3V46.466l1.486,1.486L58.3,46.326l-4.262-4.262Z" fill="#ff5f65"/>
      <path id="Trazado_117559" data-name="Trazado 117559" d="M28.743,39.288V28.743a3.453,3.453,0,0,0-3.449-3.449H13.8a3.453,3.453,0,0,0-3.449,3.449v16.1A3.453,3.453,0,0,0,13.8,48.289h5.946a3.427,3.427,0,0,0,2.439-1.01l5.551-5.551a3.427,3.427,0,0,0,1.01-2.439Zm-6.9,5.075V42.54a1.151,1.151,0,0,1,1.15-1.15h1.823Zm4.6-5.272H22.995a3.453,3.453,0,0,0-3.449,3.449v3.449H13.8a1.151,1.151,0,0,1-1.15-1.15v-16.1a1.151,1.151,0,0,1,1.15-1.15h11.5a1.151,1.151,0,0,1,1.15,1.15Z" fill="#ff5f65"/>
      <rect id="Rectángulo_34576" data-name="Rectángulo 34576" width="9.198" height="2.299" transform="translate(14.947 29.893)" fill="#ff5f65"/>
      <rect id="Rectángulo_34577" data-name="Rectángulo 34577" width="9.198" height="2.299" transform="translate(14.947 34.492)" fill="#ff5f65"/>
      <rect id="Rectángulo_34578" data-name="Rectángulo 34578" width="2.299" height="2.299" transform="translate(14.947 40.241)" fill="#ff5f65"/>
      <path id="Trazado_117560" data-name="Trazado 117560" d="M31.043,20.159a5.212,5.212,0,0,0,2.783-.8l1.34,1.34L30.23,25.631l1.626,1.626,4.936-4.936,4.936,4.936,1.626-1.626L38.417,20.7l1.15-1.15h2.776a4.373,4.373,0,0,0,3.112-1.289L46.8,16.909a4.4,4.4,0,1,0-6.225-6.225L39.23,12.031a4.373,4.373,0,0,0-1.289,3.113v2.776l-1.15,1.15-1.34-1.34a5.223,5.223,0,0,0-.722-6.47L33.006,9.535l-1.626,1.626L33.1,12.885a2.915,2.915,0,0,1,.646,3.142l-3.619-3.619-1.626,1.626,3.619,3.619a2.915,2.915,0,0,1-3.142-.646l-1.725-1.725-1.626,1.626,1.725,1.725a5.2,5.2,0,0,0,3.687,1.525Zm9.2-5.015a2.088,2.088,0,0,1,.616-1.486L42.2,12.31a2.1,2.1,0,1,1,2.973,2.973L43.829,16.63a2.088,2.088,0,0,1-1.486.616h-2.1Z" fill="#ff5f65"/>
      <path id="Trazado_117561" data-name="Trazado 117561" d="M37.941,32.338v-1.3h-2.3v1.3a4.571,4.571,0,0,0-1.184.493l-1.452-1.452-1.626,1.626,1.452,1.452a4.571,4.571,0,0,0-.493,1.184h-1.3v2.3h1.3a4.571,4.571,0,0,0,.493,1.184l-1.452,1.452L33.006,42.2l1.452-1.452a4.571,4.571,0,0,0,1.184.493v9.343h2.3V41.245a4.571,4.571,0,0,0,1.184-.493L40.577,42.2,42.2,40.577l-1.452-1.452a4.571,4.571,0,0,0,.493-1.184h1.3v-2.3h-1.3a4.571,4.571,0,0,0-.493-1.184L56,19.209l-1.626-1.626L39.126,32.831a4.571,4.571,0,0,0-1.184-.493Zm-1.15,6.753a2.3,2.3,0,1,1,2.3-2.3,2.3,2.3,0,0,1-2.3,2.3Z" fill="#ff5f65"/>
    </g>
  </g>
</svg>
