<svg xmlns="http://www.w3.org/2000/svg" width="152.949" height="158.518" viewBox="0 0 152.949 158.518">
  <g id="idea" transform="translate(-8.967 0.001)">
    <g id="Grupo_84913" data-name="Grupo 84913" transform="translate(12.625 1.198)">
      <g id="Grupo_84912" data-name="Grupo 84912">
        <path id="Trazado_118742" data-name="Trazado 118742" d="M245,224.6H227.846v12.84a4.467,4.467,0,0,0,4.467,4.467h8.217A4.467,4.467,0,0,0,245,237.439Z" transform="translate(-163.527 -156.044)" fill="#a59ca6"/>
        <path id="Trazado_118743" data-name="Trazado 118743" d="M243.87,239.256h-8.217a4.467,4.467,0,0,1-4.467-4.467v-1.113a1.731,1.731,0,0,1,1.731-1.731H245V224.6H227.845v12.84a4.467,4.467,0,0,0,4.467,4.467h8.217a4.468,4.468,0,0,0,4.113-2.722,4.483,4.483,0,0,1-.772.071Z" transform="translate(-163.527 -156.045)" fill="#8f8390"/>
        <path id="Trazado_118744" data-name="Trazado 118744" d="M317.065,290.322l13.642-11.5a6.6,6.6,0,0,0,.775-9.335,6.685,6.685,0,0,0-9.386-.771l-28.356,23.9-10.671,9.247,14.938,5.873Z" transform="translate(-201.6 -185.378)" fill="#ffe0d1"/>
        <path id="Trazado_118745" data-name="Trazado 118745" d="M287.83,303.25,298.5,294l28.356-23.9a6.649,6.649,0,0,1,3.665-1.535,6.694,6.694,0,0,0-8.426.153l-28.356,23.9-10.671,9.247,14.937,5.873.375-.342Z" transform="translate(-201.6 -185.381)" fill="#ffd1c2"/>
        <path id="Trazado_118746" data-name="Trazado 118746" d="M272.472,283.238l21.524-18a6.56,6.56,0,0,0,.291-8.882,6.774,6.774,0,0,0-9.46-.771l-19.179,16.039-14.305,11.082,8.527,10.83Z" transform="translate(-179.726 -176.324)" fill="#ffe0d1"/>
        <path id="Trazado_118747" data-name="Trazado 118747" d="M256.178,284.935l14.305-11.082,19.179-16.039a6.751,6.751,0,0,1,4.532-1.564,6.777,6.777,0,0,0-9.366-.664l-19.179,16.039-14.305,11.082,8.527,10.829L261.744,292Z" transform="translate(-179.727 -176.325)" fill="#ffd1c2"/>
        <path id="Trazado_118748" data-name="Trazado 118748" d="M219.947,32.969a29.109,29.109,0,1,0-52.916,16.752l14.007,21.806v2.835A3.232,3.232,0,0,0,184.27,77.6h13.135a3.232,3.232,0,0,0,3.232-3.232V71.527l14.007-21.806a28.969,28.969,0,0,0,5.3-16.752Z" transform="translate(-117.944 -3.86)" fill="#fbe88c"/>
        <path id="Trazado_118749" data-name="Trazado 118749" d="M179.307,53.436a32.055,32.055,0,0,1-5.544-18.109c0-15,10.148-27.545,23.733-30.7a29.114,29.114,0,0,0-30.465,45.1l14.007,21.806v2.835A3.232,3.232,0,0,0,184.27,77.6h8.319Z" transform="translate(-117.944 -3.86)" fill="#fbe372"/>
        <g id="Grupo_84910" data-name="Grupo 84910" transform="translate(0 85.864)">
          <g id="XMLID_250_">
            <g id="Grupo_84909" data-name="Grupo 84909" transform="translate(0 0)">
              <path id="Trazado_118750" data-name="Trazado 118750" d="M110.2,301.65l.531.059h20.305a6.537,6.537,0,0,0,4.227-1.55L156.807,281.9a6.623,6.623,0,0,1,8.562,10.106l-34.007,28.824a23.523,23.523,0,0,1-12.395,5.4L80.991,330.8,66.252,348.451a1.952,1.952,0,0,1-2.093.608L22.1,335.607a1.952,1.952,0,0,1-.935-3.071L37.4,312.048l1.208-2.55a35.783,35.783,0,0,1,32.33-20.448h32.166a8.3,8.3,0,0,1,7.093,12.6Z" transform="translate(-20.747 -280.333)" fill="#ffe0d1"/>
            </g>
            <path id="Trazado_118751" data-name="Trazado 118751" d="M262.809,280.333a6.6,6.6,0,0,0-4.277,1.568L236.988,300.16a6.537,6.537,0,0,1-4.227,1.55H212.456l-.531-.059a8.347,8.347,0,0,0,.423-.8H168.3v1.593a7.853,7.853,0,0,0,7.853,7.853h28.456l.234,0a13.027,13.027,0,0,0,9.457-4.122,2.872,2.872,0,0,1,2.1-.906H234.9a6.757,6.757,0,0,0,4.447-1.681l22.668-19.8a6.768,6.768,0,0,1,5.35-1.645A6.618,6.618,0,0,0,262.809,280.333Z" transform="translate(-122.472 -280.333)" fill="#ffd1c2"/>
            <path id="Trazado_118752" data-name="Trazado 118752" d="M203.2,316.7a8.289,8.289,0,0,1-8.475,8.292H154.183l-.286-15.482a35.923,35.923,0,0,1,8.842-1.106H194.9a8.292,8.292,0,0,1,8.3,8.3Z" transform="translate(-112.545 -299.685)" fill="#ffe0d1"/>
          </g>
        </g>
        <g id="Grupo_84911" data-name="Grupo 84911" transform="translate(0 94.582)">
          <path id="Trazado_118753" data-name="Trazado 118753" d="M42.026,337.989l1.208-2.55a35.783,35.783,0,0,1,32.33-20.448H107.73a8.278,8.278,0,0,1,3.629.835,8.3,8.3,0,0,0-8.252-7.423H70.941a35.783,35.783,0,0,0-32.33,20.448L37.4,331.4,21.17,351.889a1.952,1.952,0,0,0,.935,3.071l5.166,1.652Z" transform="translate(-20.747 -308.403)" fill="#ffd1c2"/>
        </g>
      </g>
    </g>
    <g id="Grupo_84914" data-name="Grupo 84914" transform="translate(8.967 -0.001)">
      <path id="Trazado_118754" data-name="Trazado 118754" d="M36.859,332.409a37.929,37.929,0,0,0-8.475,11.564l-1.1,2.31L9.47,368.775a2.329,2.329,0,1,0,3.652,2.893l17.984-22.7a2.34,2.34,0,0,0,.279-.448l1.21-2.55a33.288,33.288,0,0,1,7.438-10.15,2.329,2.329,0,1,0-3.173-3.411Z" transform="translate(-8.967 -228.742)"/>
      <path id="Trazado_118755" data-name="Trazado 118755" d="M238.192,257.86a8.962,8.962,0,0,0-12.618-1.042l-1.2,1.021a8.947,8.947,0,0,0-14.571-5.113l-1.068.905a8.966,8.966,0,0,0-14.557-4.984l-17.9,15.173a10.588,10.588,0,0,0-2.889-.4H141.214a38.274,38.274,0,0,0-17.262,4.139,2.329,2.329,0,0,0,2.111,4.153,33.6,33.6,0,0,1,15.151-3.633h32.168a5.964,5.964,0,1,1-.13,11.927H152.439a2.329,2.329,0,1,0,0,4.659h20.737l.215,0a10.535,10.535,0,0,0,7.418-3.028,10.84,10.84,0,0,0,.821-.9h19.681a8.873,8.873,0,0,0,5.731-2.1l21.544-18.258a4.294,4.294,0,0,1,5.553,6.552L200.13,295.746a21.127,21.127,0,0,1-11.166,4.871l-4.2.5a2.329,2.329,0,0,0,.275,4.642,2.387,2.387,0,0,0,.281-.017l4.2-.505a25.764,25.764,0,0,0,13.621-5.942l34.01-28.822a8.963,8.963,0,0,0,1.041-12.618Zm-41.007-5.66a4.294,4.294,0,0,1,5.939,6.181L183.989,274.6q.014-.278.015-.559a10.594,10.594,0,0,0-3.4-7.784Zm-7.731,23.873,23.356-19.794a4.294,4.294,0,0,1,5.553,6.552l-14.333,12.244a4.211,4.211,0,0,1-2.719,1Z" transform="translate(-87.362 -169.964)"/>
      <path id="Trazado_118756" data-name="Trazado 118756" d="M198.573,426.112l-23.885,2.873a2.33,2.33,0,0,0-1.509.819L157.6,448.459a2.329,2.329,0,0,0,3.575,2.987l14.99-17.945,22.968-2.763a2.329,2.329,0,1,0-.557-4.625Z" transform="translate(-111.063 -293.763)"/>
      <path id="Trazado_118757" data-name="Trazado 118757" d="M180.814,66.65S167.2,45.46,167.183,45.433a25.893,25.893,0,0,1-4.425-11.03,2.329,2.329,0,0,0-4.607.689,30.565,30.565,0,0,0,5.2,12.983l13.18,20.518v3.4a4.108,4.108,0,0,0,.923,2.6v8.006a6.8,6.8,0,0,0,6.8,6.8h8.217a6.8,6.8,0,0,0,6.8-6.8V74.587a4.108,4.108,0,0,0,.923-2.6v-3.4l13.18-20.518A30.549,30.549,0,0,0,205.566,5.3c-8.527-5.827-19.208-6.91-29.3-2.972a28.4,28.4,0,0,0-16.044,15.938,34.835,34.835,0,0,0-1.8,6.08,2.329,2.329,0,0,0,4.571.9,30.167,30.167,0,0,1,1.557-5.265A23.731,23.731,0,0,1,177.956,6.673C186.6,3.3,195.7,4.206,202.938,9.151a25.891,25.891,0,0,1,6.586,36.282c-.019.027-13.632,21.218-13.632,21.218a2.332,2.332,0,0,0-.369,1.259v3.552h-.569l1.327-22.517H198.5a6.486,6.486,0,0,0,6.479-6.479v-.257a6.479,6.479,0,0,0-12.947-.381l-.145,2.459H184.84l-.145-2.459a6.479,6.479,0,0,0-12.947.381v.257a6.486,6.486,0,0,0,6.479,6.479h2.221l1.326,22.517h-.591V67.91a2.329,2.329,0,0,0-.369-1.259ZM196.683,42.1a1.821,1.821,0,0,1,3.638.107v.257a1.823,1.823,0,0,1-1.821,1.821h-1.946Zm-18.456,2.185a1.823,1.823,0,0,1-1.821-1.821v-.257a1.821,1.821,0,0,1,3.638-.107l.129,2.185h-1.947ZM194.6,82.594a2.14,2.14,0,0,1-2.137,2.137h-8.217a2.14,2.14,0,0,1-2.137-2.137V76.12H194.6Zm-9.484-33.649h6.5l-1.327,22.517h-3.845Z" transform="translate(-111.801 0.001)"/>
      <path id="Trazado_118758" data-name="Trazado 118758" d="M385.353,101.305a2.329,2.329,0,0,0,2.329,2.329h5.491a2.329,2.329,0,0,0,0-4.659h-5.491A2.329,2.329,0,0,0,385.353,101.305Z" transform="translate(-268.459 -68.237)"/>
      <path id="Trazado_118759" data-name="Trazado 118759" d="M375.817,52.241a2.321,2.321,0,0,0,.809-.146l5.148-1.908a2.329,2.329,0,0,0-1.619-4.368l-5.148,1.908a2.33,2.33,0,0,0,.81,4.514Z" transform="translate(-260.278 -31.488)"/>
      <path id="Trazado_118760" data-name="Trazado 118760" d="M375.008,150.646l5.148,1.908a2.329,2.329,0,0,0,1.619-4.368l-5.148-1.908a2.329,2.329,0,1,0-1.619,4.368Z" transform="translate(-260.278 -100.748)"/>
      <path id="Trazado_118761" data-name="Trazado 118761" d="M95.211,103.635H100.7a2.329,2.329,0,0,0,0-4.659H95.211a2.329,2.329,0,0,0,0,4.659Z" transform="translate(-66.82 -68.237)"/>
      <path id="Trazado_118762" data-name="Trazado 118762" d="M107.366,50.188l5.148,1.908a2.329,2.329,0,0,0,1.619-4.368l-5.148-1.908a2.329,2.329,0,1,0-1.619,4.368Z" transform="translate(-75.758 -31.489)"/>
      <path id="Trazado_118763" data-name="Trazado 118763" d="M115.508,147.652a2.329,2.329,0,0,0-2.994-1.375l-5.148,1.908a2.329,2.329,0,1,0,1.619,4.368l5.148-1.908A2.329,2.329,0,0,0,115.508,147.652Z" transform="translate(-75.758 -100.747)"/>
    </g>
  </g>
</svg>
