<svg xmlns="http://www.w3.org/2000/svg" width="1240" height="270" viewBox="0 0 1240 270">
  <g id="Grupo_85035" data-name="Grupo 85035" transform="translate(-180 -549)">
    <rect id="Rectángulo_34615" data-name="Rectángulo 34615" width="1240" height="270" rx="10" transform="translate(180 549)" fill="#fff0b5"/>
    <g id="Grupo_83719" data-name="Grupo 83719" transform="translate(192.83 546.236)">
      <g id="Grupo_83700" data-name="Grupo 83700" transform="translate(30.17 62.11)">
        <g id="Grupo_83698" data-name="Grupo 83698" transform="translate(19.063 20.9)">
          <path id="Trazado_117604" data-name="Trazado 117604" d="M67.837,75.881c2.776-12.119-3.96-13.106-5.393-6.943-.972-10.728-7.334-6.5-8.029-4.043.348-11.661-18.743-3.044-6.132,10.987-6.826-4.828-5.669,6.047.348,9.518-7.984-2.429-13.075,9.14,9.14,20.364h5.553Z" transform="translate(-41.825 -59.441)" fill="#8ebbec"/>
          <path id="Trazado_117605" data-name="Trazado 117605" d="M53.265,97.739a.3.3,0,0,1-.222-.1c-8.926-10.056-5.677-15.74-2.812-20.753,1.956-3.425,3.646-6.382,1.251-10.267a.3.3,0,0,1,.51-.312c2.579,4.186.723,7.436-1.243,10.875-2.766,4.84-5.9,10.326,2.74,20.061a.3.3,0,0,1-.025.42A.292.292,0,0,1,53.265,97.739Z" transform="translate(-38.399 -55.167)" fill="#fff"/>
          <path id="Trazado_117606" data-name="Trazado 117606" d="M60.284,98.335c14.561-5.9,14.33-13.386,10.4-14.618,10.18-4.011,7.779-13.077,2.293-12.572s-23.352,10.3-19.649,27.189Z" transform="translate(-34.833 -52.013)" fill="#8ebbec"/>
          <rect id="Rectángulo_34603" data-name="Rectángulo 34603" width="10.953" height="88.395" transform="translate(9.39 68.305)" fill="#8ebbec"/>
          <rect id="Rectángulo_34604" data-name="Rectángulo 34604" width="36.133" height="88.395" transform="translate(20.343 68.305)" fill="#8ebbec"/>
          <g id="Grupo_83696" data-name="Grupo 83696" transform="translate(25.451 73.413)">
            <rect id="Rectángulo_34605" data-name="Rectángulo 34605" width="25.917" height="47.652" fill="#fff"/>
            <rect id="Rectángulo_34606" data-name="Rectángulo 34606" width="25.917" height="9.564" transform="translate(0 52.28)" fill="#fff"/>
            <rect id="Rectángulo_34607" data-name="Rectángulo 34607" width="25.917" height="11.707" transform="translate(0 66.472)" fill="#fff"/>
          </g>
          <path id="Trazado_117607" data-name="Trazado 117607" d="M94.766,199.162a.3.3,0,0,1-.3-.3V101.617H47.98v97.248a.3.3,0,0,1-.6,0V101.317a.3.3,0,0,1,.3-.3H94.766a.3.3,0,0,1,.3.3v97.547A.3.3,0,0,1,94.766,199.162Z" transform="translate(-38.292 -33.012)" fill="#8ebbec"/>
          <path id="Trazado_117608" data-name="Trazado 117608" d="M54.378,164.809a.3.3,0,0,1-.3-.3V155.36a.3.3,0,1,1,.6,0v9.151A.3.3,0,0,1,54.378,164.809Z" transform="translate(-34.035 1.341)" fill="#8ebbec"/>
          <path id="Trazado_117609" data-name="Trazado 117609" d="M63.953,109.744H53.719L48.886,87.761h19.9Z" transform="translate(-37.336 -41.439)" fill="#8ebbec"/>
          <path id="Trazado_117610" data-name="Trazado 117610" d="M56.787,103.643C45.1,88.949,51.348,79.172,58.637,80.878c-3.008-7.781,2.314-14.143,7.406-7.9-.463-14.348,8.33-11.6,9.719-3.777,6.479,3.777,1.387,10.625-6.018,11.193,6.018,1.261-.865,6.583-5.234,7.74,8.59.347-4.6,15.5-4.6,15.5Z" transform="translate(-36.444 -57.321)" fill="#8ebbec"/>
          <path id="Trazado_117611" data-name="Trazado 117611" d="M55.423,99.52a.3.3,0,0,1-.291-.229c-3.163-13.023,2.882-17.907,7.738-21.829C66.5,74.531,69.629,72,68.438,66.891a.3.3,0,0,1,.582-.134c1.276,5.476-2.149,8.24-5.775,11.17-4.971,4.016-10.607,8.569-7.531,21.224a.3.3,0,0,1-.221.361A.343.343,0,0,1,55.423,99.52Z" transform="translate(-33.924 -54.938)" fill="#fff"/>
          <g id="Grupo_83697" data-name="Grupo 83697" transform="translate(35.962 51.259)">
            <path id="Trazado_117612" data-name="Trazado 117612" d="M75.6,94.423a3.644,3.644,0,1,1-3.644-3.644A3.643,3.643,0,0,1,75.6,94.423Z" transform="translate(-60.948 -90.779)" fill="#8ebbec"/>
            <path id="Trazado_117613" data-name="Trazado 117613" d="M71.148,94.423A3.645,3.645,0,1,1,67.5,90.779,3.644,3.644,0,0,1,71.148,94.423Z" transform="translate(-63.781 -90.779)" fill="#8ebbec"/>
            <path id="Trazado_117614" data-name="Trazado 117614" d="M73.1,103.535a.3.3,0,0,1-.268-.167l-2.426-4.936a.3.3,0,0,1,.136-.4.3.3,0,0,1,.4.136l2.426,4.936a.3.3,0,0,1-.268.432Z" transform="translate(-59.639 -86.189)" fill="#8ebbec"/>
            <path id="Trazado_117615" data-name="Trazado 117615" d="M64.683,103.535a.292.292,0,0,1-.132-.031.3.3,0,0,1-.137-.4l2.427-4.936a.3.3,0,0,1,.4-.136.3.3,0,0,1,.136.4l-2.426,4.936A.3.3,0,0,1,64.683,103.535Z" transform="translate(-63.448 -86.189)" fill="#8ebbec"/>
            <path id="Trazado_117616" data-name="Trazado 117616" d="M77.806,97.358a5.771,5.771,0,0,1-5.777,5.753h-2.44a5.764,5.764,0,1,1,0-11.528h2.44A5.776,5.776,0,0,1,77.806,97.358Z" transform="translate(-63.811 -90.268)" fill="#8ebbec"/>
            <path id="Trazado_117617" data-name="Trazado 117617" d="M75.4,96.943a4.725,4.725,0,1,1-4.725-4.724A4.725,4.725,0,0,1,75.4,96.943Z" transform="translate(-62.455 -89.864)" fill="#fff"/>
          </g>
        </g>
        <path id="Trazado_117618" data-name="Trazado 117618" d="M59.449,118.555H82.237A21.485,21.485,0,0,1,95.1,122.814c9.555,7.141,29.162,22.678,46.717,42.157a37.885,37.885,0,0,0,24.1,12.292c5.267.568,11.88,1.071,19.876,1.31a21.681,21.681,0,0,1,16.386,8.209l.736.934h-97.2a13.19,13.19,0,0,1-12.64-9.472C89.6,166.558,80.842,145.61,59.449,124.3Z" transform="translate(-11.559 -0.965)" fill="#232997"/>
        <path id="Trazado_117619" data-name="Trazado 117619" d="M113.278,164.1a.3.3,0,0,1-.237-.118,192.915,192.915,0,0,0-27.263-28.956.3.3,0,1,1,.391-.453,193.558,193.558,0,0,1,27.348,29.048.3.3,0,0,1-.239.479Z" transform="translate(5.112 9.171)" fill="#ff7302"/>
        <path id="Trazado_117620" data-name="Trazado 117620" d="M96.1,158.068a.3.3,0,0,1-.272-.175,67.514,67.514,0,0,0-12.613-18.738.3.3,0,1,1,.433-.412,68.1,68.1,0,0,1,12.724,18.9.3.3,0,0,1-.149.4A.309.309,0,0,1,96.1,158.068Z" transform="translate(3.494 11.809)" fill="#ff7302"/>
        <path id="Trazado_117621" data-name="Trazado 117621" d="M39.956,208.5a.3.3,0,0,1-.3-.3V91.374a4.446,4.446,0,0,0-8.891,0V208.2a.3.3,0,0,1-.6,0V91.374a5.043,5.043,0,0,1,10.085,0V208.2A.3.3,0,0,1,39.956,208.5Z" transform="translate(-30.17 -21.448)" fill="#4391ff"/>
        <path id="Trazado_117622" data-name="Trazado 117622" d="M36.153,128.664H257.142a6.6,6.6,0,0,0-6.6-6.6H42.751a6.6,6.6,0,0,0-6.6,6.6Z" transform="translate(-26.367 1.267)" fill="#232997"/>
        <rect id="Rectángulo_34608" data-name="Rectángulo 34608" width="230.476" height="7.636" transform="translate(0.299 129.932)" fill="#4391ff"/>
        <path id="Trazado_117623" data-name="Trazado 117623" d="M80.767,129.693H46.71a9.843,9.843,0,0,1-9.814-9.814h0a9.841,9.841,0,0,1,9.814-9.812H80.767a9.841,9.841,0,0,1,9.814,9.812h0A9.843,9.843,0,0,1,80.767,129.693Z" transform="translate(-25.895 -6.36)" fill="#fff"/>
        <path id="Trazado_117624" data-name="Trazado 117624" d="M39.956,107.083H30.469a.3.3,0,1,1,0-.6h9.487a.3.3,0,1,1,0,.6Z" transform="translate(-30.17 -8.636)" fill="#4391ff"/>
        <path id="Trazado_117625" data-name="Trazado 117625" d="M114.2,95.416c7.9-9.569,1.364-23.625-10.727-31.493l-2.141,1.735s7.023,7.925,5.479,16.891Z" transform="translate(15.067 -35.692)" fill="#ffb8a6"/>
        <g id="Grupo_83699" data-name="Grupo 83699" transform="translate(97.62)">
          <path id="Trazado_117626" data-name="Trazado 117626" d="M92.67,66.911c-7.4-8.447,2.215-11.165,1.456-15.331a8.3,8.3,0,0,1,.991,3.7c3.744-6.943,10.512-4.223,12.653-8.62,0,0-.942,3.991-2.409,5.38,0,0,7.326.231,9.408-2.431,0,0-.862,3.819-2.889,4.745,0,0,3.525.29,3.988-1.968,0,0,2.534,7.67-4.274,9.549s-10.651,8.5-10.651,8.5Z" transform="translate(-89.853 -46.663)" fill="#232997"/>
          <path id="Trazado_117627" data-name="Trazado 117627" d="M107.5,78.7a46.549,46.549,0,0,0,4.689,9.812L95.7,79.886a18.952,18.952,0,0,0,0-13.293s-6.139-.361-4.542-4.858c1.595-4.519,6.911.749,6.911.749s-1.812-9.256,5.56-7.177c7.372,2.054,7.3,1.33,7.3,1.33.919,8.725,4.158,12.542,0,15.563a5.274,5.274,0,0,1-5.147.556A46.473,46.473,0,0,0,107.5,78.7Z" transform="translate(-89.189 -41.362)" fill="#ffb8a6"/>
          <path id="Trazado_117628" data-name="Trazado 117628" d="M103.077,63.564c-.036,0-.069,0-.1,0A7.359,7.359,0,0,1,100.8,63a.3.3,0,0,1,.244-.546,6.735,6.735,0,0,0,1.994.51.339.339,0,0,0,.33-.149.363.363,0,0,0,.031-.36A14.961,14.961,0,0,1,101.954,57a.3.3,0,0,1,.6,0,14.509,14.509,0,0,0,1.387,5.2.953.953,0,0,1-.862,1.361Z" transform="translate(-83.006 -40.282)" fill="#232997"/>
          <path id="Trazado_117629" data-name="Trazado 117629" d="M103.523,63.08a7.432,7.432,0,0,1-4.514-1.528.3.3,0,0,1,.361-.474,6.9,6.9,0,0,0,4.657,1.385h.023a.3.3,0,0,1,.021.6C103.888,63.074,103.7,63.08,103.523,63.08Z" transform="translate(-84.107 -37.54)" fill="#ff7302"/>
          <path id="Trazado_117630" data-name="Trazado 117630" d="M102.36,58.242a.3.3,0,0,1-.144-.038,5.38,5.38,0,0,0-4.712-.219.3.3,0,0,1-.393-.155.3.3,0,0,1,.155-.393,5.978,5.978,0,0,1,5.237.244.3.3,0,0,1-.144.561Z" transform="translate(-85.254 -40.125)" fill="#232997"/>
          <path id="Trazado_117631" data-name="Trazado 117631" d="M102.644,58.11a.3.3,0,0,1-.175-.543,2.248,2.248,0,0,1,1.5-.4.3.3,0,0,1,.268.326.291.291,0,0,1-.327.268,1.606,1.606,0,0,0-1.089.294A.306.306,0,0,1,102.644,58.11Z" transform="translate(-81.912 -39.993)" fill="#232997"/>
          <path id="Trazado_117632" data-name="Trazado 117632" d="M103.225,73.033c-2.272-1.595-6.067-4.882-5.558-9.112.846,1.861,3.842,3.167,3.842,3.167A46.474,46.474,0,0,0,103.225,73.033Z" transform="translate(-84.915 -35.693)" fill="#232997"/>
          <path id="Trazado_117633" data-name="Trazado 117633" d="M91.013,58.876l-.031,0a.3.3,0,0,1-.267-.327A8.92,8.92,0,0,1,93.9,52.562a.3.3,0,0,1,.42.038.3.3,0,0,1-.038.422,8.319,8.319,0,0,0-2.97,5.586A.3.3,0,0,1,91.013,58.876Z" transform="translate(-89.305 -42.958)" fill="#4391ff"/>
          <path id="Trazado_117634" data-name="Trazado 117634" d="M94.733,54.134a.293.293,0,0,1-.15-.041.3.3,0,0,1-.108-.409,7.425,7.425,0,0,1,7.115-3.618.3.3,0,0,1,.267.329.288.288,0,0,1-.327.267,6.817,6.817,0,0,0-6.538,3.324A.3.3,0,0,1,94.733,54.134Z" transform="translate(-86.94 -44.522)" fill="#4391ff"/>
          <path id="Trazado_117635" data-name="Trazado 117635" d="M97.174,53.474a.3.3,0,0,1-.168-.546,10.654,10.654,0,0,1,9.2-1.369.3.3,0,0,1,.2.375.293.293,0,0,1-.373.195,10.071,10.071,0,0,0-8.692,1.294A.288.288,0,0,1,97.174,53.474Z" transform="translate(-85.389 -43.862)" fill="#4391ff"/>
          <path id="Trazado_117636" data-name="Trazado 117636" d="M92.581,60.916a.393.393,0,0,1-.075-.008.3.3,0,0,1-.214-.365c2.084-8.082,8.267-7.079,13.241-6.266,4.159.676,6.747.949,7.46-1.878a.3.3,0,0,1,.363-.216.3.3,0,0,1,.216.363c-.882,3.5-4.4,2.931-8.136,2.321-4.971-.806-10.617-1.729-12.565,5.825A.3.3,0,0,1,92.581,60.916Z" transform="translate(-88.308 -43.16)" fill="#4391ff"/>
          <path id="Trazado_117637" data-name="Trazado 117637" d="M95.465,60.912a.3.3,0,0,1-.208-.083,3.594,3.594,0,0,0-2.664-1.016h-.011a.3.3,0,0,1-.013-.6,4.164,4.164,0,0,1,3.1,1.184.3.3,0,0,1-.208.514Z" transform="translate(-88.308 -38.688)" fill="#ff7302"/>
        </g>
        <path id="Trazado_117638" data-name="Trazado 117638" d="M126.336,125.6c-.846,1.837-1.644,3.335-2.272,4.47-.821,1.475-1.377,2.3-1.377,2.3l-31.54,3.528-.339.049a9.367,9.367,0,0,1,2.1-10.538s8.556-26.247-2.1-40.821L75.75,70.808,88.464,64.38l12.905,6.67,24.7,12.761A38.291,38.291,0,0,1,129.72,92.2C133.659,105.417,129.7,118.131,126.336,125.6Z" transform="translate(-1.197 -35.401)" fill="#8ebbec"/>
        <path id="Trazado_117639" data-name="Trazado 117639" d="M103.525,74.962,90.62,68.292,77.906,74.72S68.215,62.636,74.45,59.108c6.26-3.553,27.431,4.4,27.431,9.981C101.881,69.089,105.508,71.506,103.525,74.962Z" transform="translate(-3.353 -39.313)" fill="#ffb8a6"/>
        <path id="Trazado_117640" data-name="Trazado 117640" d="M86.258,66.149a.288.288,0,0,1-.136-.034L79.38,62.634a.3.3,0,0,1-.129-.4.292.292,0,0,1,.4-.128L86.4,65.585a.3.3,0,0,1-.137.564Z" transform="translate(1.007 -36.871)" fill="#ff7302"/>
        <path id="Trazado_117641" data-name="Trazado 117641" d="M86.3,77.592a.3.3,0,0,1-.3-.258,6.977,6.977,0,0,0-2.664-4.6.3.3,0,0,1-.052-.42.3.3,0,0,1,.419-.054,7.58,7.58,0,0,1,2.89,5,.3.3,0,0,1-.255.337Z" transform="translate(3.553 -30.435)" fill="#4391ff"/>
        <path id="Trazado_117642" data-name="Trazado 117642" d="M88.985,85.3a.3.3,0,0,1-.3-.285A38.922,38.922,0,0,0,85.3,70.954a.3.3,0,0,1,.149-.4.3.3,0,0,1,.4.15,39.537,39.537,0,0,1,3.44,14.281A.3.3,0,0,1,89,85.3Z" transform="translate(4.857 -31.492)" fill="#4391ff"/>
        <path id="Trazado_117643" data-name="Trazado 117643" d="M109.658,87.41A22.109,22.109,0,0,1,87.646,67.535a.3.3,0,0,1,.267-.327.291.291,0,0,1,.329.267,21.523,21.523,0,0,0,30.467,17.346.3.3,0,0,1,.254.541A22.108,22.108,0,0,1,109.658,87.41Z" transform="translate(6.363 -33.605)" fill="#fff"/>
        <path id="Trazado_117644" data-name="Trazado 117644" d="M87.942,106.02a.325.325,0,0,1-.11-.021.3.3,0,0,1-.167-.389,30.57,30.57,0,0,1,35.149-18.538.3.3,0,0,1,.227.357.292.292,0,0,1-.358.227A30,30,0,0,0,88.22,105.832.3.3,0,0,1,87.942,106.02Z" transform="translate(6.363 -21.452)" fill="#fff"/>
        <path id="Trazado_117645" data-name="Trazado 117645" d="M107.219,109.651c-.016,0-.033,0-.049,0a.3.3,0,0,1-.247-.345,31.074,31.074,0,0,0-3.666-20.475.3.3,0,0,1,.11-.407.293.293,0,0,1,.407.111,31.666,31.666,0,0,1,3.739,20.869A.3.3,0,0,1,107.219,109.651Z" transform="translate(16.263 -20.146)" fill="#4391ff"/>
        <path id="Trazado_117646" data-name="Trazado 117646" d="M110.165,84.646a38.291,38.291,0,0,0-3.651-8.386l4.521,2.272S112.316,81.988,110.165,84.646Z" transform="translate(18.358 -27.85)" fill="#8ebbec"/>
        <path id="Trazado_117647" data-name="Trazado 117647" d="M126.553,104.453a21.372,21.372,0,0,0-15.009,28.809H97.405a14.1,14.1,0,0,1-14.042-13c-.023-.386-.047-.774-.047-1.135a14.084,14.084,0,0,1,13.8-14.067l22.139-.46Z" transform="translate(3.612 -9.929)" fill="#ff7302"/>
        <path id="Trazado_117648" data-name="Trazado 117648" d="M148.64,196.766H124.012a3.38,3.38,0,0,1-3.167-4.521c2.03-6.089,2.707-14.139-.556-24.193-8.072-24.942-4.109-34.705-4.109-34.705H101.172a21.372,21.372,0,0,1,15.009-28.809l8.388-.17,1.884-.047a14.192,14.192,0,0,1,13.681,18.9,180.947,180.947,0,0,0-7.324,26.246c-2.03,10.563-2.826,21.463-.942,30.986,1.572,7.805,8.339,12.374,16.967,14.911A.714.714,0,0,1,148.64,196.766Z" transform="translate(13.985 -10.014)" fill="#ffb8a6"/>
        <path id="Trazado_117649" data-name="Trazado 117649" d="M110.307,123.557a.3.3,0,0,1-.2-.522l4.86-4.4a.3.3,0,1,1,.4.443l-4.86,4.4A.3.3,0,0,1,110.307,123.557Z" transform="translate(20.579 -0.961)" fill="#ff7302"/>
        <path id="Trazado_117650" data-name="Trazado 117650" d="M110.732,121.435a.285.285,0,0,1-.131-.031.3.3,0,0,1-.137-.4l1.734-3.549a.3.3,0,1,1,.536.262L111,121.267A.3.3,0,0,1,110.732,121.435Z" transform="translate(20.849 -1.771)" fill="#ff7302"/>
        <path id="Trazado_117651" data-name="Trazado 117651" d="M120.974,107.214l-15.686.314c.628-1.135,1.426-2.633,2.272-4.47l11.36-3.216A11.947,11.947,0,0,0,120.974,107.214Z" transform="translate(17.579 -12.86)" fill="#ff7302"/>
        <path id="Trazado_117652" data-name="Trazado 117652" d="M137.676,128.157c-8.46,10.877-9.305,19.117-.314,33.281a2.266,2.266,0,0,1-3.456,2.877l-9.982-9.282a180.951,180.951,0,0,1,7.324-26.246,14.192,14.192,0,0,0-13.681-18.9l-1.884.047a11.947,11.947,0,0,1-2.054-7.372l23.081-6.525c11.093-3.142,19.528,10.03,12.037,18.8C144.2,120.134,140.141,124.992,137.676,128.157Z" transform="translate(22.869 -15.58)" fill="#ffb8a6"/>
        <path id="Trazado_117653" data-name="Trazado 117653" d="M122.263,109.839a.3.3,0,0,1-.218-.095.3.3,0,0,1,.013-.422l7.557-7.091a.3.3,0,1,1,.409.435l-7.557,7.092A.3.3,0,0,1,122.263,109.839Z" transform="translate(28.179 -11.393)" fill="#ff7302"/>
        <path id="Trazado_117654" data-name="Trazado 117654" d="M128.7,137.72a.3.3,0,0,1-.224-.1L126.164,135a.3.3,0,0,1,.448-.4l2.313,2.624a.3.3,0,0,1-.026.422A.3.3,0,0,1,128.7,137.72Z" transform="translate(30.801 9.171)" fill="#ff7302"/>
        <path id="Trazado_117655" data-name="Trazado 117655" d="M180.864,208.5a.3.3,0,0,1-.3-.3V91.374a4.445,4.445,0,0,0-8.89,0V208.2a.3.3,0,0,1-.6,0V91.374a5.043,5.043,0,0,1,10.085,0V208.2A.3.3,0,0,1,180.864,208.5Z" transform="translate(59.398 -21.448)" fill="#4391ff"/>
        <path id="Trazado_117656" data-name="Trazado 117656" d="M180.864,107.083h-9.488a.3.3,0,0,1,0-.6h9.488a.3.3,0,1,1,0,.6Z" transform="translate(59.398 -8.636)" fill="#4391ff"/>
        <path id="Trazado_117657" data-name="Trazado 117657" d="M88.438,86.748a.3.3,0,0,1-.186-.533,17.691,17.691,0,0,0,6.6-15.36.3.3,0,0,1,.272-.322.292.292,0,0,1,.324.272,18.291,18.291,0,0,1-6.822,15.879A.3.3,0,0,1,88.438,86.748Z" transform="translate(6.678 -31.491)" fill="#4391ff"/>
        <path id="Trazado_117658" data-name="Trazado 117658" d="M41.469,128.508a.3.3,0,0,1-.164-.049,10.105,10.105,0,0,1,5.519-18.574H80.884A10.123,10.123,0,0,1,91,120a.3.3,0,1,1-.6,0,9.524,9.524,0,0,0-9.515-9.513H46.825a9.506,9.506,0,0,0-5.192,17.475.3.3,0,0,1-.164.55Z" transform="translate(-26.011 -6.477)" fill="#ff7302"/>
        <path id="Trazado_117659" data-name="Trazado 117659" d="M122.806,148.348a.375.375,0,0,1-.061,0,.3.3,0,0,1-.232-.353,182.063,182.063,0,0,1,7.032-24.754,13.9,13.9,0,0,0-13.393-18.5h-.007a.3.3,0,0,1,0-.6c.093,0,.19,0,.285,0a14.524,14.524,0,0,1,11.778,6.029,14.254,14.254,0,0,1,1.9,13.272,181.4,181.4,0,0,0-7.009,24.672A.3.3,0,0,1,122.806,148.348Z" transform="translate(24.291 -10.13)" fill="#fff"/>
        <path id="Trazado_117660" data-name="Trazado 117660" d="M76.468,70.257a.3.3,0,0,1-.136-.564l9.348-4.727a.3.3,0,1,1,.27.532L76.6,70.224A.291.291,0,0,1,76.468,70.257Z" transform="translate(-0.93 -35.049)" fill="#4391ff"/>
        <path id="Trazado_117661" data-name="Trazado 117661" d="M109.41,83.331a.3.3,0,0,1-.281-.2l-1.413-3.93a.3.3,0,1,1,.563-.2l1.413,3.932a.3.3,0,0,1-.18.383A.308.308,0,0,1,109.41,83.331Z" transform="translate(19.111 -26.235)" fill="#4391ff"/>
        <path id="Trazado_117662" data-name="Trazado 117662" d="M111.77,79.267a.307.307,0,0,1-.136-.033l-6.114-3.1a.3.3,0,1,1,.27-.532L111.9,78.7a.3.3,0,0,1-.134.566Z" transform="translate(17.623 -28.286)" fill="#fff"/>
        <path id="Trazado_117663" data-name="Trazado 117663" d="M85.8,109.822a.3.3,0,0,1-.218-.505,14.314,14.314,0,0,1,10.136-4.474l25.483-.525h0a.3.3,0,0,1,.007.6l-25.482.527a13.707,13.707,0,0,0-9.714,4.285A.3.3,0,0,1,85.8,109.822Z" transform="translate(5.002 -10.015)" fill="#232997"/>
        <path id="Trazado_117664" data-name="Trazado 117664" d="M135.05,126.516H39.875a.3.3,0,0,1,0-.6H135.05a.3.3,0,1,1,0,.6Z" transform="translate(-24.19 3.715)" fill="#fff"/>
        <path id="Trazado_117665" data-name="Trazado 117665" d="M174.738,126.516H146.507a.3.3,0,0,1,0-.6h28.231a.3.3,0,0,1,0,.6Z" transform="translate(43.59 3.715)" fill="#fff"/>
        <path id="Trazado_117666" data-name="Trazado 117666" d="M102.644,66.826a.3.3,0,0,1-.072-.587,3.976,3.976,0,0,0,1.786-1.3.3.3,0,0,1,.474.361,4.505,4.505,0,0,1-2.117,1.513A.278.278,0,0,1,102.644,66.826Z" transform="translate(15.708 -35.119)" fill="#fff"/>
        <path id="Trazado_117667" data-name="Trazado 117667" d="M94.1,70.2a.276.276,0,0,1-.137-.034l-9.25-4.779a.3.3,0,0,1,.276-.53l9.248,4.779a.3.3,0,0,1-.137.564Z" transform="translate(4.401 -35.118)" fill="#fff"/>
        <path id="Trazado_117668" data-name="Trazado 117668" d="M87.139,115.847a.29.29,0,0,1-.082-.011.3.3,0,0,1-.209-.373c1.572-5.6,6.121-24.844-1.309-37.358a.3.3,0,1,1,.518-.309c7.553,12.722,2.961,32.173,1.372,37.831A.3.3,0,0,1,87.139,115.847Z" transform="translate(4.998 -26.969)" fill="#4391ff"/>
      </g>
      <g id="Grupo_83705" data-name="Grupo 83705" transform="translate(316.437 22.362)">
        <g id="Grupo_83702" data-name="Grupo 83702" transform="translate(0 86.259)">
          <path id="Trazado_117669" data-name="Trazado 117669" d="M250.354,88.848h15.872a6.9,6.9,0,0,1,6.513,4.613l8.649,24.589H264.147l-5.8-21.131H247.822Z" transform="translate(-178.086 -66.359)" fill="#ff7302"/>
          <rect id="Rectángulo_34609" data-name="Rectángulo 34609" width="17.169" height="14.307" transform="translate(0.292 26.303)" fill="#4391ff"/>
          <rect id="Rectángulo_34610" data-name="Rectángulo 34610" width="71.044" height="14.307" transform="translate(88.504 40.61) rotate(180)" fill="#4391ff"/>
          <path id="Trazado_117670" data-name="Trazado 117670" d="M205.478,205.529a.291.291,0,0,1-.291-.291V91.293a.291.291,0,0,1,.291-.291h67.793a.292.292,0,1,1,0,.584h-67.5V205.237A.292.292,0,0,1,205.478,205.529Z" transform="translate(-205.187 -64.99)" fill="#4391ff"/>
          <path id="Trazado_117671" data-name="Trazado 117671" d="M215.976,199.969a.292.292,0,0,1-.293-.291V100.042a.292.292,0,1,1,.584,0v99.636A.291.291,0,0,1,215.976,199.969Z" transform="translate(-198.515 -59.43)" fill="#4391ff"/>
          <path id="Trazado_117672" data-name="Trazado 117672" d="M259.409,195.235a.291.291,0,0,1-.291-.291V107.489a.292.292,0,1,1,.584,0v87.455A.292.292,0,0,1,259.409,195.235Z" transform="translate(-170.906 -54.697)" fill="#4391ff"/>
          <g id="Grupo_83701" data-name="Grupo 83701" transform="translate(2.658)">
            <path id="Trazado_117673" data-name="Trazado 117673" d="M216.632,80.832a.293.293,0,0,1-.283-.221,6.372,6.372,0,0,0-4.845-4.676.291.291,0,0,1-.224-.347.3.3,0,0,1,.347-.224,6.948,6.948,0,0,1,5.288,5.1.294.294,0,0,1-.211.355A.373.373,0,0,1,216.632,80.832Z" transform="translate(-203.976 -74.934)" fill="#4391ff"/>
            <path id="Trazado_117674" data-name="Trazado 117674" d="M230.989,92.549H209.268l-2.456-3.522h26.633Z" transform="translate(-206.812 -66.246)" fill="#232997"/>
            <path id="Trazado_117675" data-name="Trazado 117675" d="M230.989,90.4H209.268l-2.456-3.522h26.633Z" transform="translate(-206.812 -67.614)" fill="#232997"/>
            <path id="Trazado_117676" data-name="Trazado 117676" d="M230.989,88.243H209.268l-2.456-3.522h26.633Z" transform="translate(-206.812 -68.983)" fill="#232997"/>
            <path id="Trazado_117677" data-name="Trazado 117677" d="M221.584,83.593a5.066,5.066,0,1,1-5.066-5.067A5.067,5.067,0,0,1,221.584,83.593Z" transform="translate(-203.862 -72.921)" fill="#ff7302"/>
            <path id="Trazado_117678" data-name="Trazado 117678" d="M214.582,80.7a4.734,4.734,0,0,1,4.513-5.605A6.288,6.288,0,0,1,214.582,80.7Z" transform="translate(-201.925 -75.099)" fill="#8ebbec"/>
          </g>
          <path id="Trazado_117679" data-name="Trazado 117679" d="M264.975,104.239a.294.294,0,0,1-.28-.2L261.54,93.984a.293.293,0,0,1,.558-.177l3.155,10.053a.292.292,0,0,1-.191.366A.26.26,0,0,1,264.975,104.239Z" transform="translate(-169.374 -63.337)" fill="#fff"/>
          <path id="Trazado_117680" data-name="Trazado 117680" d="M266.7,116.055a.291.291,0,0,1-.291-.293V91.586H247.937a.292.292,0,1,1,0-.584H266.7a.292.292,0,0,1,.293.291v24.469A.293.293,0,0,1,266.7,116.055Z" transform="translate(-178.199 -64.99)" fill="#fff"/>
        </g>
        <g id="Grupo_83704" data-name="Grupo 83704" transform="translate(12.534)">
          <g id="Grupo_83703" data-name="Grupo 83703" transform="translate(30.75)">
            <path id="Trazado_117681" data-name="Trazado 117681" d="M235.4,26.644c2.007-1.456,4.2-2.5,4.565-4.282a8.051,8.051,0,0,1-.453,3.693c5.895-4.887,11,.023,14.526-3.157,0,0-2.3,3.25-4.127,3.966,0,0,6.512,2.874,9.354,1.235,0,0-2.164,3.124-4.326,3.221,0,0,3.069,1.542,4.307-.321a7.967,7.967,0,0,1-7.321,7.041c-7.274.823-13.528,9.966-13.528,9.966C225.451,32.333,235.052,26.9,235.4,26.644Z" transform="translate(-231.65 -22.362)" fill="#232997"/>
            <path id="Trazado_117682" data-name="Trazado 117682" d="M233.058,29.677a.276.276,0,0,1-.137-.034.291.291,0,0,1-.121-.394,8.664,8.664,0,0,1,5.043-4.231.293.293,0,1,1,.178.558,8.081,8.081,0,0,0-4.706,3.945A.29.29,0,0,1,233.058,29.677Z" transform="translate(-230.941 -20.683)" fill="#4391ff"/>
            <path id="Trazado_117683" data-name="Trazado 117683" d="M237.809,26.528A.293.293,0,0,1,237.63,26a7.181,7.181,0,0,1,7.724-.667.291.291,0,0,1,.121.394.284.284,0,0,1-.394.121,6.606,6.606,0,0,0-7.094.617A.29.29,0,0,1,237.809,26.528Z" transform="translate(-227.921 -20.996)" fill="#4391ff"/>
            <path id="Trazado_117684" data-name="Trazado 117684" d="M248.547,29a.287.287,0,0,1-.185-.065,9.776,9.776,0,0,0-8.294-2,.292.292,0,0,1-.124-.571,10.353,10.353,0,0,1,8.788,2.115.292.292,0,0,1-.185.519Z" transform="translate(-226.524 -19.966)" fill="#4391ff"/>
            <path id="Trazado_117685" data-name="Trazado 117685" d="M253.233,32.675c-1.65,0-3.546-1.15-5.509-2.342-4.182-2.537-8.926-5.421-13.429.674a.292.292,0,0,1-.471-.347c4.82-6.516,10.023-3.363,14.2-.826,3.5,2.121,5.726,3.307,7.4,1.024a.291.291,0,1,1,.469.343A3.164,3.164,0,0,1,253.233,32.675Z" transform="translate(-230.304 -19.542)" fill="#4391ff"/>
          </g>
          <path id="Trazado_117686" data-name="Trazado 117686" d="M284.235,82.479c.391-5.082-3.242-17.817-5.425-24.967a11.411,11.411,0,0,0-6.413-7.127l-10.413-4.478a5.054,5.054,0,0,0-2.928-3.172l-5.89-2.38a5.871,5.871,0,0,0-3.25-.332l-8.036,1.457a3.559,3.559,0,0,0-2.758,2.429l-6.453,1.372A12.946,12.946,0,0,0,224,51.627L215.06,67.513a14,14,0,0,0-1.838,6.942,14.2,14.2,0,0,0,.9,4.943l14.644-5.725,2.759,22.577-2.759,6.8,40.276,7.172a4.693,4.693,0,0,0,2.736-.3,4.8,4.8,0,0,0,1.724-7.472l-3.126-3.677v-16.3Z" transform="translate(-212.613 -11.196)" fill="#232997"/>
          <path id="Trazado_117687" data-name="Trazado 117687" d="M258.356,158.594l9.264,22.736-14.114,7.54-1.932,1.035-15.54-37.61v-.023L235,149.789c-23.586-56.417-10.965-71.267-10.965-71.267l40.276,7.172a4.693,4.693,0,0,0,2.736-.3l2.184,5.471Z" transform="translate(-207.885 13.336)" fill="#8ebbec"/>
          <path id="Trazado_117688" data-name="Trazado 117688" d="M236.5,91.643h-.013a.292.292,0,0,1-.278-.3,29.81,29.81,0,0,1,31.674-28.413.294.294,0,0,1,.275.309c-.011.162-.147.319-.311.273A29.224,29.224,0,0,0,236.79,91.364.293.293,0,0,1,236.5,91.643Z" transform="translate(-198.004 3.383)" fill="#4391ff"/>
          <path id="Trazado_117689" data-name="Trazado 117689" d="M246.249,56.926l.494-.577a2.762,2.762,0,0,1,2.1-.963h1.088a2.76,2.76,0,0,1,2.761,2.759v1.708A5.55,5.55,0,0,1,251.9,62.7l-3.976,6.664a2.746,2.746,0,0,1-4.153.671l-8.365-7.216Z" transform="translate(-198.511 -1.371)" fill="#ffb8a6"/>
          <path id="Trazado_117690" data-name="Trazado 117690" d="M266.142,76.574a6.259,6.259,0,0,1-9.724,1.518l-9.863-8.553-1.955-1.7-1.539-1.333,3.976-6.644,1.77.851,2.3,1.127,12.3,6.022A6.275,6.275,0,0,1,266.142,76.574Z" transform="translate(-193.646 1.474)" fill="#ffb8a6"/>
          <path id="Trazado_117691" data-name="Trazado 117691" d="M249.544,66.243a6.876,6.876,0,0,1-3.587,2.965L244,67.508a7.111,7.111,0,0,0,4.207-7.127l2.3,1.127A7.1,7.1,0,0,1,249.544,66.243Z" transform="translate(-193.048 1.805)" fill="#ff7302"/>
          <path id="Trazado_117692" data-name="Trazado 117692" d="M247.277,63.74H236.005l-4.964-7.357h21.2Z" transform="translate(-201.286 -0.736)" fill="#4391ff"/>
          <path id="Trazado_117693" data-name="Trazado 117693" d="M232.194,57.836a3.735,3.735,0,0,1,5.308-1.979,2.888,2.888,0,0,1,5.069-.465,3.845,3.845,0,0,1,6.456,2.444Z" transform="translate(-200.554 -2.19)" fill="#8ebbec"/>
          <path id="Trazado_117694" data-name="Trazado 117694" d="M254.433,61.444a10.822,10.822,0,0,1-9.348-16.321.292.292,0,0,1,.5.3,10.246,10.246,0,0,0,13.7,14.217.3.3,0,0,1,.4.118.293.293,0,0,1-.119.4A10.763,10.763,0,0,1,254.433,61.444Z" transform="translate(-193.307 -7.986)" fill="#4391ff"/>
          <path id="Trazado_117695" data-name="Trazado 117695" d="M238.34,94a.312.312,0,0,1-.119-.025.292.292,0,0,1-.147-.386,26.721,26.721,0,0,0-13.138-34.911.292.292,0,0,1,.247-.53,27.3,27.3,0,0,1,13.424,35.678A.293.293,0,0,1,238.34,94Z" transform="translate(-205.275 0.368)" fill="#4391ff"/>
          <path id="Trazado_117696" data-name="Trazado 117696" d="M249.876,76.935a.2.2,0,0,1-.054,0l-7.594-1.43a.293.293,0,0,1,.11-.576l7.594,1.431a.292.292,0,0,1-.056.579Z" transform="translate(-194.326 11.047)" fill="#4391ff"/>
          <path id="Trazado_117697" data-name="Trazado 117697" d="M240.545,54.756c-.185,0-.371,0-.556-.015a11.33,11.33,0,0,1-10.619-9.49c-.041-.244-.072-.489-.095-.734a.292.292,0,1,1,.581-.054c.023.231.052.463.088.7a10.746,10.746,0,0,0,20.987,1.048,10.514,10.514,0,0,0,.3-1.6.292.292,0,1,1,.581.064,11.331,11.331,0,0,1-11.27,10.089Z" transform="translate(-202.41 -8.483)" fill="#4391ff"/>
          <path id="Trazado_117698" data-name="Trazado 117698" d="M243.156,53.966a8.928,8.928,0,0,1-7.181-.116,9.022,9.022,0,0,1-5.246-9.516,2.3,2.3,0,0,1,1.8-1.912l7.742-1.634,7.079,3.046a2.277,2.277,0,0,1,1.384,2.179A9.075,9.075,0,0,1,243.156,53.966Z" transform="translate(-201.543 -10.65)" fill="#fff"/>
          <path id="Trazado_117699" data-name="Trazado 117699" d="M248.475,155.006a.3.3,0,0,1-.272-.182L236.226,125.4a.312.312,0,0,1-.02-.111V84.919a.292.292,0,1,1,.584,0v40.312L248.747,154.6a.294.294,0,0,1-.162.381A.3.3,0,0,1,248.475,155.006Z" transform="translate(-198.004 17.216)" fill="#4391ff"/>
          <path id="Trazado_117700" data-name="Trazado 117700" d="M247.531,160.2l-1.011,6.322H232.589l-2.529-42.9,15.541,37.61Z" transform="translate(-201.91 42.006)" fill="#8ebbec"/>
          <path id="Trazado_117701" data-name="Trazado 117701" d="M250.229,91.411a.29.29,0,0,1-.262-.164l-3.3-6.824a.292.292,0,0,1,.525-.255l3.3,6.822a.293.293,0,0,1-.263.42Z" transform="translate(-191.375 16.822)" fill="#4391ff"/>
          <path id="Trazado_117702" data-name="Trazado 117702" d="M236.442,89.528a.3.3,0,0,1-.247-.136l-3.577-5.612a.293.293,0,0,1,.09-.4.3.3,0,0,1,.4.088l3.577,5.614a.292.292,0,0,1-.247.45Z" transform="translate(-200.313 16.394)" fill="#4391ff"/>
          <path id="Trazado_117703" data-name="Trazado 117703" d="M238.925,93.721a.293.293,0,0,1-.2-.078l-8.756-8.088a.294.294,0,0,1-.015-.414.29.29,0,0,1,.412-.015l8.756,8.088a.292.292,0,0,1,.016.414A.3.3,0,0,1,238.925,93.721Z" transform="translate(-202.026 17.484)" fill="#4391ff"/>
          <path id="Trazado_117704" data-name="Trazado 117704" d="M222.906,90.767a.288.288,0,0,1-.206-.085.294.294,0,0,1,0-.414l6.824-6.852a.293.293,0,0,1,.415.414l-6.824,6.852A.292.292,0,0,1,222.906,90.767Z" transform="translate(-206.644 16.393)" fill="#4391ff"/>
          <path id="Trazado_117705" data-name="Trazado 117705" d="M237.691,110.345a.327.327,0,0,1-.095-.015l-5.579-1.871a.293.293,0,0,1,.188-.555l5.579,1.871a.293.293,0,0,1-.093.569Z" transform="translate(-200.793 32.004)" fill="#4391ff"/>
          <path id="Trazado_117706" data-name="Trazado 117706" d="M233.061,149.853v3.374s-3.742,7.117-3.742,14.6h16.949v-1.3a2.538,2.538,0,0,0-2.2-2.514l-1.027-14.16Z" transform="translate(-202.381 58.678)" fill="#ffb8a6"/>
          <path id="Trazado_117707" data-name="Trazado 117707" d="M239.293,158.826h-5.061a.292.292,0,1,1,0-.584h5.061a.292.292,0,1,1,0,.584Z" transform="translate(-199.444 64.01)" fill="#ff7302"/>
          <path id="Trazado_117708" data-name="Trazado 117708" d="M252.947,141.375a18.74,18.74,0,0,0,5.641,6.716,4.826,4.826,0,0,1,1.474,6.238,15.3,15.3,0,0,0-2.017,7.663c0,7.483-2.6,11.225-2.6,11.225h-9.979s.514-3.963,5.43-3.963c0,0-1.534-14.651-7.151-22.953Z" transform="translate(-193.213 53.289)" fill="#ffb8a6"/>
          <path id="Trazado_117709" data-name="Trazado 117709" d="M251.437,33.886a8.112,8.112,0,0,0-.808,2.275,12.759,12.759,0,0,0-.576,2.6c-.505,4.184.322,8.438-5.241,9.1l-.576,3.724-.206,1.31a5.905,5.905,0,0,1-6.713,3.2c-4.9-.988-4.9-6.322-4.9-6.322s3.288-6.116,3.724-11.839c0,0-5.08-3.311-1.863-6.161,1.678-1.472,3.61.759,3.61.759s-.759-3.955,4.184-3.61C247,29.243,246.288,34.207,251.437,33.886Z" transform="translate(-200.409 -18.207)" fill="#ffb8a6"/>
          <path id="Trazado_117710" data-name="Trazado 117710" d="M235.5,32.909a.3.3,0,0,1-.227-.108l-1.158-1.431A.292.292,0,0,1,234.57,31l1.16,1.431a.293.293,0,0,1-.229.476Z" transform="translate(-199.373 -16.938)" fill="#ff7302"/>
          <path id="Trazado_117711" data-name="Trazado 117711" d="M237.721,36.329a8.706,8.706,0,0,0,3.814,2.066.695.695,0,0,1-.033,1.356,3.175,3.175,0,0,1-3.782-3.422Z" transform="translate(-197.05 -13.484)" fill="#fff"/>
          <path id="Trazado_117712" data-name="Trazado 117712" d="M241.65,41.234l-.576,3.724c-3.126-1.77-3.679-5.632-3.679-5.632A5.451,5.451,0,0,0,241.65,41.234Z" transform="translate(-197.247 -11.578)" fill="#232997"/>
          <path id="Trazado_117713" data-name="Trazado 117713" d="M241.793,38.616a1.328,1.328,0,0,1-.54-.114,8.85,8.85,0,0,1-2.128-1.217.292.292,0,0,1,.379-.443,8.571,8.571,0,0,0,1.986,1.127.727.727,0,0,0,.713-.067.707.707,0,0,0,.306-.638l-.041-.6a7.279,7.279,0,0,1,.26-3.551.293.293,0,0,1,.515.278,7.135,7.135,0,0,0-.191,3.232l.041.607a1.305,1.305,0,0,1-1.3,1.389Z" transform="translate(-196.213 -15.627)" fill="#232997"/>
          <path id="Trazado_117714" data-name="Trazado 117714" d="M242.386,33.9a3.451,3.451,0,0,1-3.1.24,4.871,4.871,0,0,1-.551-.255,3.281,3.281,0,0,1-1.582-2.02,3.976,3.976,0,0,1,2.656-.049,2.081,2.081,0,0,1,.342.1A4.153,4.153,0,0,1,242.386,33.9Z" transform="translate(-197.401 -16.483)" fill="#fff"/>
          <path id="Trazado_117715" data-name="Trazado 117715" d="M241.805,33.819a3.451,3.451,0,0,1-3.1.24,4.871,4.871,0,0,1-.551-.255,1.9,1.9,0,0,1-.085-.486,1.6,1.6,0,0,1,1.16-1.583,2.081,2.081,0,0,1,.342.1A4.153,4.153,0,0,1,241.805,33.819Z" transform="translate(-196.82 -16.404)" fill="#232997"/>
          <path id="Trazado_117716" data-name="Trazado 117716" d="M244.385,33.351a12.709,12.709,0,0,0-.561,2.6c-.023,0-.023-.023-.046-.023a4.538,4.538,0,0,1-.538-.4,2.958,2.958,0,0,1-.631-.793,3.311,3.311,0,0,1-.375-1.006,3.4,3.4,0,0,1,1.753-.4h.165A.888.888,0,0,1,244.385,33.351Z" transform="translate(-194.172 -15.393)" fill="#fff"/>
          <path id="Trazado_117717" data-name="Trazado 117717" d="M242.379,33.741a.288.288,0,0,1-.244-.132,6.426,6.426,0,0,0-4.21-2.807.293.293,0,0,1,.1-.576,7,7,0,0,1,4.593,3.064.29.29,0,0,1-.083.4A.294.294,0,0,1,242.379,33.741Z" transform="translate(-197.063 -17.367)" fill="#232997"/>
          <path id="Trazado_117718" data-name="Trazado 117718" d="M244.951,33.121l-.036,0a10.17,10.17,0,0,0-2.483,0,.278.278,0,0,1-.326-.254.29.29,0,0,1,.254-.325,10.694,10.694,0,0,1,2.627,0,.292.292,0,0,1-.036.582Z" transform="translate(-194.254 -15.945)" fill="#232997"/>
          <path id="Trazado_117719" data-name="Trazado 117719" d="M250.116,59.922,244.362,58.6a.714.714,0,0,0-.559,1.289l4.433,2.974-12.419-.9a.835.835,0,0,0-.291,1.636l10.557,3.044Z" transform="translate(-198.82 0.658)" fill="#ffb8a6"/>
          <path id="Trazado_117720" data-name="Trazado 117720" d="M246.195,67.041a.264.264,0,0,1-.08-.011l-10.556-3.042a1.127,1.127,0,0,1,.393-2.206l11.32.819-3.517-2.359a1.007,1.007,0,0,1,.788-1.817l5.754,1.327a.291.291,0,0,1,.219.352.283.283,0,0,1-.352.218l-5.754-1.328a.424.424,0,0,0-.332.764l4.433,2.972a.288.288,0,0,1,.113.337.292.292,0,0,1-.3.2l-12.418-.9a.551.551,0,0,0-.576.447.542.542,0,0,0,.386.617l10.555,3.044a.292.292,0,0,1-.08.572Z" transform="translate(-198.934 0.544)" fill="#fff"/>
          <path id="Trazado_117721" data-name="Trazado 117721" d="M236.706,55.774l-9.081,25.343A7.61,7.61,0,0,1,216.761,85.2h0a7.613,7.613,0,0,1-2.288-11.348L230.983,52.8V44.03a4.385,4.385,0,0,1,1.734-3.494l1.41-1.071a6.108,6.108,0,0,1,6.961-.414c1.094.707,1.7,1.668.68,2.911l1.045,1.816s1.927,1.1,1.184,2.285c0,0,.605,1.457-1.156.852a3.733,3.733,0,0,0-4.4.991S240.888,53.106,236.706,55.774Z" transform="translate(-212.85 -12.326)" fill="#ffb8a6"/>
          <path id="Trazado_117722" data-name="Trazado 117722" d="M226.876,40.962a.291.291,0,0,1-.144-.546c.059-.033.134-.083.226-.146a4.175,4.175,0,0,1,5.538.178.293.293,0,0,1-.383.443,3.606,3.606,0,0,0-4.832-.134c-.108.072-.2.129-.262.167A.292.292,0,0,1,226.876,40.962Z" transform="translate(-204.12 -11.602)" fill="#ff7302"/>
          <path id="Trazado_117723" data-name="Trazado 117723" d="M227.727,42.121a.293.293,0,0,1-.123-.558,6.858,6.858,0,0,1,4.238-.455.292.292,0,1,1-.16.561,6.353,6.353,0,0,0-3.831.424A.305.305,0,0,1,227.727,42.121Z" transform="translate(-203.578 -10.56)" fill="#ff7302"/>
          <path id="Trazado_117724" data-name="Trazado 117724" d="M233.237,43.265a.3.3,0,0,1-.121-.026,4.735,4.735,0,0,0-4.3-.222.291.291,0,1,1-.232-.533,5.287,5.287,0,0,1,4.778.224.291.291,0,0,1-.121.558Z" transform="translate(-202.963 -9.87)" fill="#ff7302"/>
          <path id="Trazado_117725" data-name="Trazado 117725" d="M225.385,78.277a.286.286,0,0,1-.136-.033.293.293,0,0,1-.121-.4,18.756,18.756,0,0,0,1.318-10.818.292.292,0,0,1,.216-.353.288.288,0,0,1,.35.216,19.453,19.453,0,0,1-1.369,11.23A.29.29,0,0,1,225.385,78.277Z" transform="translate(-205.067 5.801)" fill="#4391ff"/>
          <path id="Trazado_117726" data-name="Trazado 117726" d="M226.4,74.979a.286.286,0,0,1-.164-.049.292.292,0,0,1-.08-.406l1.709-2.542a.292.292,0,1,1,.484.326l-1.709,2.543A.285.285,0,0,1,226.4,74.979Z" transform="translate(-204.426 9.098)" fill="#4391ff"/>
          <path id="Trazado_117727" data-name="Trazado 117727" d="M244.239,33.35a12.709,12.709,0,0,0-.561,2.6c-.023,0-.023-.023-.046-.023a4.539,4.539,0,0,1-.538-.4,2.957,2.957,0,0,1-.631-.793,3.722,3.722,0,0,1,1.544-1.4A.888.888,0,0,1,244.239,33.35Z" transform="translate(-194.026 -15.392)" fill="#232997"/>
        </g>
        <path id="Trazado_117728" data-name="Trazado 117728" d="M222.6,106.662a.294.294,0,0,1-.288-.237c-.023-.124-2.342-12.379-1.711-20.537a.288.288,0,0,1,.316-.268.3.3,0,0,1,.27.314c-.628,8.08,1.675,20.259,1.7,20.382a.291.291,0,0,1-.232.34A.2.2,0,0,1,222.6,106.662Z" transform="translate(-195.459 17.847)" fill="#fff"/>
        <path id="Trazado_117729" data-name="Trazado 117729" d="M244.921,159.722a.29.29,0,0,1-.27-.18l-13.5-32.675a.291.291,0,1,1,.538-.224l13.5,32.675a.293.293,0,0,1-.157.383A.313.313,0,0,1,244.921,159.722Z" transform="translate(-188.697 43.81)" fill="#4391ff"/>
        <path id="Trazado_117730" data-name="Trazado 117730" d="M244.981,145.479a.292.292,0,0,1-.137-.55l6.188-3.314a.292.292,0,0,1,.273.517l-6.188,3.312A.293.293,0,0,1,244.981,145.479Z" transform="translate(-180.078 53.42)" fill="#232997"/>
        <path id="Trazado_117731" data-name="Trazado 117731" d="M238.922,150.264h0l-6.237-.011a.293.293,0,1,1,0-.586h0l6.237.011a.293.293,0,0,1,0,.586Z" transform="translate(-187.894 58.56)" fill="#232997"/>
        <path id="Trazado_117732" data-name="Trazado 117732" d="M223.512,87.281H210.728a.293.293,0,1,1,0-.586h12.784a.293.293,0,1,1,0,.586Z" transform="translate(-201.851 18.531)" fill="#4391ff"/>
        <path id="Trazado_117733" data-name="Trazado 117733" d="M223.512,89.433H210.728a.292.292,0,1,1,0-.584h12.784a.292.292,0,1,1,0,.584Z" transform="translate(-201.851 19.901)" fill="#4391ff"/>
      </g>
      <g id="Grupo_83711" data-name="Grupo 83711" transform="translate(465.445 57.991)">
        <path id="Rectángulo_34611" data-name="Rectángulo 34611" d="M0,0H16.457a1.925,1.925,0,0,1,1.925,1.925v2.2a0,0,0,0,1,0,0H0a0,0,0,0,1,0,0V0A0,0,0,0,1,0,0Z" transform="translate(63.179 81.558)" fill="#232997"/>
        <g id="Grupo_83706" data-name="Grupo 83706" transform="translate(76.121 13.133)">
          <path id="Trazado_117734" data-name="Trazado 117734" d="M348.343,122.565h65.573a2.935,2.935,0,0,0,2.926-2.926h0a2.935,2.935,0,0,0-2.926-2.926H348.343a2.935,2.935,0,0,0-2.926,2.926h0A2.935,2.935,0,0,0,348.343,122.565Z" transform="translate(-341.179 -11.15)" fill="#8ebbec"/>
          <path id="Trazado_117735" data-name="Trazado 117735" d="M367.366,180.428a.3.3,0,0,1-.3-.3V120.407a.3.3,0,1,1,.6,0v59.721A.3.3,0,0,1,367.366,180.428Z" transform="translate(-327.417 -8.992)" fill="#8ebbec"/>
          <path id="Trazado_117736" data-name="Trazado 117736" d="M365.416,159.8a3,3,0,1,0,3-3A3,3,0,0,0,365.416,159.8Z" transform="translate(-328.467 14.333)" fill="#8ebbec"/>
          <path id="Trazado_117737" data-name="Trazado 117737" d="M388.006,159.8a3,3,0,1,0,3-3A3,3,0,0,0,388.006,159.8Z" transform="translate(-314.107 14.333)" fill="#8ebbec"/>
          <path id="Trazado_117738" data-name="Trazado 117738" d="M342.826,159.8a3,3,0,1,0,3-3A3,3,0,0,0,342.826,159.8Z" transform="translate(-342.826 14.333)" fill="#8ebbec"/>
          <path id="Trazado_117739" data-name="Trazado 117739" d="M367.345,137.663h38.142a6.5,6.5,0,0,0,6.206-4.559L434.33,60.8a6.5,6.5,0,0,0-6.2-8.445H389.984a6.5,6.5,0,0,0-6.206,4.559l-22.637,72.3A6.5,6.5,0,0,0,367.345,137.663Z" transform="translate(-331.376 -52.056)" fill="#8ebbec"/>
          <path id="Trazado_117740" data-name="Trazado 117740" d="M411.749,60.527H378.514a.3.3,0,1,1,0-.6h33.235a.3.3,0,0,1,0,.6Z" transform="translate(-320.331 -47.245)" fill="#fff"/>
          <path id="Trazado_117741" data-name="Trazado 117741" d="M406.407,67.956H380.073a.3.3,0,1,1,0-.6h26.334a.3.3,0,0,1,0,.6Z" transform="translate(-319.34 -42.522)" fill="#fff"/>
          <path id="Trazado_117742" data-name="Trazado 117742" d="M399.958,74.723H384.614a.3.3,0,0,1,0-.6h15.344a.3.3,0,0,1,0,.6Z" transform="translate(-316.453 -38.221)" fill="#fff"/>
          <path id="Trazado_117743" data-name="Trazado 117743" d="M418.676,162.106a.3.3,0,0,1-.3-.3v-2.674a9.616,9.616,0,0,0-9.6-9.6H354.681a9.617,9.617,0,0,0-9.606,9.6v2.674a.3.3,0,1,1-.6,0v-2.674a10.215,10.215,0,0,1,10.2-10.2h54.091a10.212,10.212,0,0,1,10.2,10.2v2.674A.3.3,0,0,1,418.676,162.106Z" transform="translate(-341.776 9.33)" fill="#8ebbec"/>
          <path id="Trazado_117744" data-name="Trazado 117744" d="M365.416,150.279a3,3,0,1,0,3-3A3,3,0,0,0,365.416,150.279Z" transform="translate(-328.467 8.28)" fill="#8ebbec"/>
          <path id="Trazado_117745" data-name="Trazado 117745" d="M392.048,133.525a.3.3,0,0,1-.092-.015.3.3,0,0,1-.2-.379L414.4,60.83a6.2,6.2,0,0,0-5.914-8.052.3.3,0,1,1,0-.6,6.8,6.8,0,0,1,6.492,8.837l-22.637,72.3A.3.3,0,0,1,392.048,133.525Z" transform="translate(-311.731 -52.174)" fill="#4391ff"/>
        </g>
        <g id="Grupo_83707" data-name="Grupo 83707" transform="translate(95.957 155.982)">
          <path id="Trazado_117746" data-name="Trazado 117746" d="M365.114,139.509c.123.712.265,1.41.44,2.118,2.91,11.786,13.295,23.462,4.518,28.285-9,4.948-14.185-9.266-14.139-19.189a47.094,47.094,0,0,0-.514-7.28c-.142-.942-.3-1.767-.466-2.507Z" transform="translate(-354.953 -139.509)" fill="#ffb8a6"/>
          <path id="Trazado_117747" data-name="Trazado 117747" d="M365.372,140.8c.213.877.478,1.75.764,2.612,3.579,10.856,11.872,21.213,3.754,25.673-9,4.948-14.184-9.266-14.139-19.189.008-1.693-.072-3.206-.188-4.59-.08-.975-.2-1.876-.326-2.691Z" transform="translate(-354.772 -138.686)" fill="#ff7302"/>
          <path id="Trazado_117748" data-name="Trazado 117748" d="M366.01,142.4c2.48,7.49,7.19,14.744,7.194,19.973a6,6,0,0,1-3.44,5.7c-9,4.948-14.184-9.266-14.139-19.189-.007-.157-.013-.314-.007-.451-.007-1.526-.08-2.88-.182-4.138C358.945,144.432,363.115,143.965,366.01,142.4Z" transform="translate(-354.645 -137.671)" fill="#232997"/>
          <path id="Trazado_117749" data-name="Trazado 117749" d="M373.134,160.03a6,6,0,0,1-3.44,5.7c-9,4.948-14.184-9.266-14.139-19.189-.007-.157-.013-.314-.007-.451,1.51,5.823,3.376,13.515,7.244,17.236C366.565,166.966,371.389,163.59,373.134,160.03Z" transform="translate(-354.576 -135.326)" fill="#ff7302"/>
          <path id="Trazado_117750" data-name="Trazado 117750" d="M359.1,156.058a.289.289,0,0,1-.186-.065.3.3,0,0,1-.047-.419,10.754,10.754,0,0,1,10.61-3.85.294.294,0,0,1,.231.352.3.3,0,0,1-.352.234,10.177,10.177,0,0,0-10.022,3.638A.3.3,0,0,1,359.1,156.058Z" transform="translate(-352.504 -131.886)" fill="#4391ff"/>
          <path id="Trazado_117751" data-name="Trazado 117751" d="M365.353,154.748a.3.3,0,0,1-.237-.118,26.778,26.778,0,0,1-4.567-9.374.3.3,0,0,1,.579-.152,26.183,26.183,0,0,0,4.464,9.165.3.3,0,0,1-.239.479Z" transform="translate(-351.402 -136.094)" fill="#4391ff"/>
          <path id="Trazado_117752" data-name="Trazado 117752" d="M363.772,154.878a.3.3,0,0,1-.239-.118,26.819,26.819,0,0,1-4.567-9.374.3.3,0,0,1,.579-.15,26.247,26.247,0,0,0,4.465,9.163.3.3,0,0,1-.239.479Z" transform="translate(-352.408 -136.012)" fill="#4391ff"/>
        </g>
        <path id="Trazado_117753" data-name="Trazado 117753" d="M348.168,92.242a.307.307,0,0,1-.108-.02.3.3,0,0,1-.17-.386,5.978,5.978,0,0,0-9.717-6.467.293.293,0,0,1-.422-.008.3.3,0,0,1,.007-.424,6.575,6.575,0,0,1,10.687,7.113A.3.3,0,0,1,348.168,92.242Z" transform="translate(-269.985 -19.388)"/>
        <path id="Trazado_117754" data-name="Trazado 117754" d="M402.123,71.917a12.533,12.533,0,0,0-9.814-4.737h-4.3a4.5,4.5,0,0,0-4.5-4.5H372.925a4.5,4.5,0,0,0-4.5,4.5H364.9a12.219,12.219,0,0,0-10.223,5.527L335.9,101.393l12.153,5.739,10.007-9,2.71,30.948H398.7l4.277-23.391,19.055-8.731Z" transform="translate(-271.107 -32.364)" fill="#232997"/>
        <path id="Trazado_117755" data-name="Trazado 117755" d="M364.788,76.76h0A7.766,7.766,0,0,1,357.022,69V67.327a3.341,3.341,0,0,1,3.342-3.34H369c2.735,0,4.15,2.547,3.855,5.267C372.7,70.626,371.239,76.76,364.788,76.76Z" transform="translate(-257.681 -31.532)" fill="#fff"/>
        <path id="Trazado_117756" data-name="Trazado 117756" d="M352.367,81.166a4.733,4.733,0,0,1-1.009-.111.3.3,0,0,1,.131-.584,3.957,3.957,0,0,0,3.669-1.063.3.3,0,0,1,.424.422A4.535,4.535,0,0,1,352.367,81.166Z" transform="translate(-261.43 -21.787)" fill="#8ebbec"/>
        <path id="Trazado_117757" data-name="Trazado 117757" d="M331.955,94.972V93.058a3.225,3.225,0,0,1,1.315-2.6l.6-.438-.008-.043a2.044,2.044,0,0,1,.87-2.113c1.053-.7,2.653-1.439,3.922-.617a3.691,3.691,0,0,1,5.044-1.166c1.088-1.426,3.227-1.464,4.577,1.163.833,1.618,2.419,4.176,3.515,5.9a3.046,3.046,0,0,1-.2,3.543l-2.377,2.972H336.793Z" transform="translate(-273.615 -18.103)" fill="#ffb8a6"/>
        <path id="Trazado_117758" data-name="Trazado 117758" d="M341.877,95.964A1.3,1.3,0,0,1,340.83,93.9l2.7-3.67a.3.3,0,0,1,.481.355l-2.7,3.669a.692.692,0,0,0-.007.816.7.7,0,0,0,.774.267l1.865-.564a.3.3,0,0,1,.173.572l-1.866.564A1.278,1.278,0,0,1,341.877,95.964Z" transform="translate(-268.134 -14.927)" fill="#ff7302"/>
        <path id="Trazado_117759" data-name="Trazado 117759" d="M339.441,98.369h-.077a1.295,1.295,0,0,1-1.284-1.47l1.4-10.314a.3.3,0,1,1,.592.08l-1.4,10.314a.7.7,0,0,0,.692.793h.077a1.431,1.431,0,0,0,1.335-.9,44.8,44.8,0,0,0,2.715-8.981.308.308,0,0,1,.342-.249.3.3,0,0,1,.252.34,45.868,45.868,0,0,1-2.753,9.114A2.032,2.032,0,0,1,339.441,98.369Z" transform="translate(-269.73 -17.333)" fill="#ff7302"/>
        <path id="Trazado_117760" data-name="Trazado 117760" d="M337.983,98.019a1.645,1.645,0,0,1-1.639-1.467l-.993-8.932a.3.3,0,0,1,.265-.329.288.288,0,0,1,.329.263l.993,8.932a1.049,1.049,0,0,0,1.045.936.554.554,0,0,0,.551-.479c.281-1.973,1.2-8.5,1.116-9.748a.3.3,0,0,1,.28-.317.327.327,0,0,1,.319.278c.083,1.269-.757,7.326-1.122,9.871A1.148,1.148,0,0,1,337.983,98.019Z" transform="translate(-271.457 -16.982)" fill="#ff7302"/>
        <path id="Trazado_117761" data-name="Trazado 117761" d="M335.755,95.279a1.027,1.027,0,0,1-.221-.025,1.639,1.639,0,0,1-1.25-1.2l-1.219-4.765a.3.3,0,1,1,.579-.146l1.219,4.763a1.065,1.065,0,0,0,.8.767.455.455,0,0,0,.548-.443V88.895a.3.3,0,0,1,.6,0v5.332a1.052,1.052,0,0,1-1.052,1.052Z" transform="translate(-272.915 -15.889)" fill="#ff7302"/>
        <path id="Trazado_117762" data-name="Trazado 117762" d="M359.2,104.061a.3.3,0,0,1-.3-.3V83.093a.3.3,0,1,1,.6,0v20.668A.3.3,0,0,1,359.2,104.061Z" transform="translate(-256.485 -19.578)" fill="#4391ff"/>
        <path id="Trazado_117763" data-name="Trazado 117763" d="M362.607,85.58a.883.883,0,1,1-.883-.883A.884.884,0,0,1,362.607,85.58Z" transform="translate(-255.254 -18.368)" fill="#ff7302"/>
        <path id="Trazado_117764" data-name="Trazado 117764" d="M362.607,89.122a.883.883,0,1,1-.883-.883A.884.884,0,0,1,362.607,89.122Z" transform="translate(-255.254 -16.117)" fill="#ff7302"/>
        <path id="Trazado_117765" data-name="Trazado 117765" d="M362.607,92.664a.883.883,0,1,1-.883-.883A.883.883,0,0,1,362.607,92.664Z" transform="translate(-255.254 -13.865)" fill="#ff7302"/>
        <path id="Trazado_117766" data-name="Trazado 117766" d="M355.416,71.8H342.849l4.314,15.849h8.966L360.32,71.8Z" transform="translate(-266.69 -26.569)" fill="#8ebbec"/>
        <path id="Trazado_117767" data-name="Trazado 117767" d="M369.41,89.783l-6.394-2.915-3.385-1.528,4.255-8.627,3.879.776,5.172,1.011Z" transform="translate(-256.023 -23.443)" fill="#ffb8a6"/>
        <path id="Trazado_117768" data-name="Trazado 117768" d="M368.2,85.257l13.4,10.671.84-4.593Z" transform="translate(-250.574 -18.012)" fill="#4391ff"/>
        <path id="Trazado_117769" data-name="Trazado 117769" d="M405.432,95.578a9.432,9.432,0,0,1-9,6.6,9.545,9.545,0,0,1-3.88-.846L365.61,89.089l3.525-11.284,29.128,5.713A9.417,9.417,0,0,1,405.432,95.578Z" transform="translate(-252.222 -22.749)" fill="#232997"/>
        <path id="Trazado_117770" data-name="Trazado 117770" d="M367.764,77.489l-4.749,9.38-3.385-1.528,4.255-8.627Z" transform="translate(-256.023 -23.443)" fill="#ff7302"/>
        <path id="Trazado_117771" data-name="Trazado 117771" d="M369.669,81.158l-7.1-8.042-4.964-2.943a3.223,3.223,0,0,0-3.639.239l-3.438,2.7h2.7a1.746,1.746,0,0,0-.131,2.926c-2,.957-1.688,2.7-.254,3.544-1.884.7-1.6,2.722.085,3.358-1.183,1.03-1.323,2.776,2.813,2.776a12.629,12.629,0,0,0,1.439,1.541,7.091,7.091,0,0,0,4.734,1.853,6.792,6.792,0,0,1,3.5.672Z" transform="translate(-261.807 -27.888)" fill="#ffb8a6"/>
        <path id="Trazado_117772" data-name="Trazado 117772" d="M358.474,72.21h-5.515a.3.3,0,1,1,0-.6h5.515a.3.3,0,1,1,0,.6Z" transform="translate(-260.454 -26.685)" fill="#ff7302"/>
        <path id="Trazado_117773" data-name="Trazado 117773" d="M357.291,74.018h-4.333a.3.3,0,1,1,0-.6h4.333a.3.3,0,1,1,0,.6Z" transform="translate(-260.454 -25.537)" fill="#ff7302"/>
        <path id="Trazado_117774" data-name="Trazado 117774" d="M355.56,76.184H352.8a.3.3,0,1,1,0-.6h2.756a.3.3,0,1,1,0,.6Z" transform="translate(-260.552 -24.159)" fill="#ff7302"/>
        <path id="Trazado_117775" data-name="Trazado 117775" d="M354.491,78.22H352.8a.3.3,0,1,1,0-.6h1.686a.3.3,0,1,1,0,.6Z" transform="translate(-260.552 -22.865)" fill="#ff7302"/>
        <path id="Trazado_117776" data-name="Trazado 117776" d="M350.006,85.146a.291.291,0,0,1-.263-.16.3.3,0,0,1,.126-.4,8.436,8.436,0,0,0,3-2.648.3.3,0,1,1,.489.342,9.037,9.037,0,0,1-3.219,2.838A.293.293,0,0,1,350.006,85.146Z" transform="translate(-262.33 -20.207)" fill="#4391ff"/>
        <path id="Trazado_117777" data-name="Trazado 117777" d="M371.236,82.631a.3.3,0,0,1-.283-.2,12.977,12.977,0,0,1,1.613-11.616.3.3,0,0,1,.415-.075.3.3,0,0,1,.075.415,12.386,12.386,0,0,0-1.539,11.082.3.3,0,0,1-.183.379A.294.294,0,0,1,371.236,82.631Z" transform="translate(-249.274 -27.276)" fill="#4391ff"/>
        <path id="Trazado_117778" data-name="Trazado 117778" d="M360.8,79.451l1.644-2.871a1.477,1.477,0,0,1,1.824-.64l3.059,1.205a1.476,1.476,0,0,1,.795,2L366.5,82.6a1.477,1.477,0,0,1-2.079.649l-3.078-1.791A1.477,1.477,0,0,1,360.8,79.451Z" transform="translate(-255.404 -24)" fill="#ff7302"/>
        <path id="Trazado_117779" data-name="Trazado 117779" d="M354.489,71.045a.294.294,0,0,1-.216-.093.3.3,0,0,1,.011-.424l1.806-1.711-1.58-1.933a.3.3,0,0,1,.463-.379l1.755,2.149a.3.3,0,0,1-.026.406l-2.007,1.9A.3.3,0,0,1,354.489,71.045Z" transform="translate(-259.481 -30.001)" fill="#4391ff"/>
        <path id="Trazado_117780" data-name="Trazado 117780" d="M364.192,81.281a.3.3,0,0,1-.141-.563,37.2,37.2,0,0,0,8.392-6.528h-2.12a.3.3,0,0,1-.18-.536,47.26,47.26,0,0,0,4.084-3.489l-1.644-3.636a.3.3,0,0,1,.546-.245l1.727,3.827a.3.3,0,0,1-.06.334,45.734,45.734,0,0,1-3.6,3.149h1.937a.3.3,0,0,1,.222.5,38.429,38.429,0,0,1-9.029,7.154A.309.309,0,0,1,364.192,81.281Z" transform="translate(-253.314 -30.184)" fill="#4391ff"/>
        <path id="Trazado_117781" data-name="Trazado 117781" d="M361.5,76.52a.322.322,0,0,1-.108-.02.3.3,0,0,1-.17-.386c.584-1.521,2.776-2.611,4.536-3.486a7.126,7.126,0,0,0,1.878-1.112.292.292,0,0,1,.411-.1.3.3,0,0,1,.1.411,5.8,5.8,0,0,1-2.12,1.335c-1.58.785-3.744,1.861-4.246,3.165A.3.3,0,0,1,361.5,76.52Z" transform="translate(-255.027 -26.838)" fill="#4391ff"/>
        <g id="Grupo_83708" data-name="Grupo 83708" transform="translate(81.486)">
          <path id="Trazado_117782" data-name="Trazado 117782" d="M374.329,58.244c3.654-11.111-6.67-9.8-7.64-14.1a8.622,8.622,0,0,0,.559,3.952c-6.417-5.126-11.795.237-15.637-3.1,0,0,2.529,3.441,4.5,4.174,0,0-6.925,3.206-10.005,1.5,0,0,2.382,3.307,4.7,3.368,0,0-3.26,1.714-4.622-.26,0,0,.7,8.381,7.984,7.408s13.671,3.808,13.671,3.808Z" transform="translate(-346.106 -44.145)" fill="#232997"/>
          <path id="Trazado_117783" data-name="Trazado 117783" d="M369.345,81.768a6.393,6.393,0,0,1-7.051-5.972,4.7,4.7,0,0,1-.025-.587,25.21,25.21,0,0,0-.211-4.678,4.649,4.649,0,0,1-4.678,1.152c-4.467-1.035-3.973-4.82-5.43-11.378-.095-.424-.188-.847-.283-1.294-.188-.7-.4-1.457-.635-2.233.025.023.095.07.424-.047.635-.236,2.187-1.129,6.042-4.209,5.995-4.819,8.087,4,8.252,4.585.211-.447,2.7-6.23,5.689-4.043a3.448,3.448,0,0,1,.635.564c3.361,3.643-1.6,6.677-1.6,6.677a111.623,111.623,0,0,1,4.419,13.4A6.411,6.411,0,0,1,369.345,81.768Z" transform="translate(-342.975 -39.732)" fill="#ffb8a6"/>
          <path id="Trazado_117784" data-name="Trazado 117784" d="M354.72,61.407a1.219,1.219,0,0,1-.6-.154,1.233,1.233,0,0,1-.628-1.08,14.789,14.789,0,0,0-.8-5.152.3.3,0,1,1,.55-.234,15.237,15.237,0,0,1,.847,5.391.633.633,0,0,0,.321.553.62.62,0,0,0,.638-.02,6.817,6.817,0,0,0,1.312-1.066.3.3,0,1,1,.433.409,7.324,7.324,0,0,1-1.423,1.163A1.23,1.23,0,0,1,354.72,61.407Z" transform="translate(-341.931 -37.494)" fill="#232997"/>
          <path id="Trazado_117785" data-name="Trazado 117785" d="M358.634,57.886a7.438,7.438,0,0,1-4.066,3.366,2.672,2.672,0,0,0,4.066-3.366Z" transform="translate(-340.727 -35.411)" fill="#fff"/>
          <path id="Trazado_117786" data-name="Trazado 117786" d="M354.376,55.766a3.281,3.281,0,0,0,2.938.1,1.742,1.742,0,0,0,.43-.272,3.039,3.039,0,0,0,1.318-2.058,5.279,5.279,0,0,0-2.027.345A5.683,5.683,0,0,0,354.376,55.766Z" transform="translate(-340.849 -38.176)" fill="#fff"/>
          <path id="Trazado_117787" data-name="Trazado 117787" d="M352.792,55.809a1.967,1.967,0,0,1-.335.718,1,1,0,0,1-.214.334,2.423,2.423,0,0,1-.527.455c-.095-.407-.191-.837-.311-1.268L351.43,56a.815.815,0,0,1,.286-.119,1.238,1.238,0,0,1,.288-.072A2.2,2.2,0,0,1,352.792,55.809Z" transform="translate(-342.738 -36.753)" fill="#fff"/>
          <path id="Trazado_117788" data-name="Trazado 117788" d="M358.009,69.83a4.707,4.707,0,0,1-.025-.587,25.213,25.213,0,0,0-.211-4.678s2.069-1.976,2.139-4.091C361.488,63.178,361.393,66.82,358.009,69.83Z" transform="translate(-338.69 -33.765)" fill="#ff7302"/>
          <path id="Trazado_117789" data-name="Trazado 117789" d="M365.038,51.859a.3.3,0,0,1-.262-.154,8.683,8.683,0,0,0-5.131-4.148.3.3,0,1,1,.172-.572,9.28,9.28,0,0,1,5.483,4.433.3.3,0,0,1-.118.4A.287.287,0,0,1,365.038,51.859Z" transform="translate(-337.636 -42.349)" fill="#4391ff"/>
          <path id="Trazado_117790" data-name="Trazado 117790" d="M360.931,48.578a.287.287,0,0,1-.177-.059A7.1,7.1,0,0,0,353.119,48a.3.3,0,0,1-.29-.523,7.694,7.694,0,0,1,8.28.568.3.3,0,0,1,.062.419A.3.3,0,0,1,360.931,48.578Z" transform="translate(-341.93 -42.631)" fill="#4391ff"/>
          <path id="Trazado_117791" data-name="Trazado 117791" d="M349.929,51.459a.3.3,0,0,1-.229-.1.3.3,0,0,1,.034-.422A11.082,11.082,0,0,1,359.1,48.5a.3.3,0,1,1-.118.587,10.5,10.5,0,0,0-8.862,2.3A.292.292,0,0,1,349.929,51.459Z" transform="translate(-343.867 -41.515)" fill="#4391ff"/>
          <path id="Trazado_117792" data-name="Trazado 117792" d="M350.339,55.452a3.39,3.39,0,0,1-2.8-1.521.3.3,0,0,1,.057-.419.3.3,0,0,1,.419.057c1.933,2.553,4.58.882,7.93-1.238,4.433-2.792,9.946-6.274,15.226.608a.3.3,0,0,1-.056.419.3.3,0,0,1-.42-.054c-4.949-6.453-9.989-3.273-14.43-.468C354.153,54.168,352.121,55.45,350.339,55.452Z" transform="translate(-345.237 -41.103)" fill="#4391ff"/>
          <path id="Trazado_117793" data-name="Trazado 117793" d="M361.352,56.108a.291.291,0,0,1-.118-.023.3.3,0,0,1-.159-.393,4.415,4.415,0,0,1,2.489-2.391.3.3,0,0,1,.209.561,3.8,3.8,0,0,0-2.148,2.064A.3.3,0,0,1,361.352,56.108Z" transform="translate(-336.605 -38.337)" fill="#ff7302"/>
          <path id="Trazado_117794" data-name="Trazado 117794" d="M354.284,54.9a.3.3,0,0,1-.18-.059.3.3,0,0,1-.059-.419,5.754,5.754,0,0,1,3.6-2.221.283.283,0,0,1,.347.242.3.3,0,0,1-.24.345,5.168,5.168,0,0,0-3.229,1.994A.3.3,0,0,1,354.284,54.9Z" transform="translate(-341.098 -39.031)" fill="#232997"/>
          <path id="Trazado_117795" data-name="Trazado 117795" d="M354.376,55.631a3.281,3.281,0,0,0,2.938.1,1.742,1.742,0,0,0,.43-.272,3.065,3.065,0,0,0-.708-1.713A5.683,5.683,0,0,0,354.376,55.631Z" transform="translate(-340.849 -38.041)" fill="#232997"/>
          <path id="Trazado_117796" data-name="Trazado 117796" d="M352.457,56.485a1,1,0,0,1-.214.334,2.423,2.423,0,0,1-.527.455c-.095-.407-.191-.837-.311-1.268l.025-.047a.815.815,0,0,1,.286-.119A3.846,3.846,0,0,1,352.457,56.485Z" transform="translate(-342.738 -36.712)" fill="#232997"/>
        </g>
        <path id="Trazado_117797" data-name="Trazado 117797" d="M351.793,165.92l10.638-49.734a18.941,18.941,0,0,1,18.52-14.976h0A15.744,15.744,0,0,1,396.7,116.953v1.717A11.9,11.9,0,0,1,388.472,130q-.378.123-.779.24l-20.22,41.639Z" transform="translate(-261.005 -7.872)" fill="#ff7302"/>
        <path id="Trazado_117798" data-name="Trazado 117798" d="M374.115,120.724a.3.3,0,0,1-.3-.278l-.6-7.953a.3.3,0,0,1,.276-.319l.023,0a.3.3,0,0,1,.3.276l.6,7.953a.3.3,0,0,1-.275.321Z" transform="translate(-247.388 -0.903)" fill="#fff"/>
        <path id="Trazado_117799" data-name="Trazado 117799" d="M375.044,117.443a.318.318,0,0,1-.087-.013.3.3,0,0,1-.2-.371l1.323-4.352a.3.3,0,0,1,.371-.2.3.3,0,0,1,.2.373l-1.323,4.351A.3.3,0,0,1,375.044,117.443Z" transform="translate(-246.415 -0.698)" fill="#fff"/>
        <path id="Trazado_117800" data-name="Trazado 117800" d="M366.754,163.007s-22.317-17.34-35.885-41.82a13.18,13.18,0,0,1,.631-13.738c.141-.206.285-.415.432-.625a13.375,13.375,0,0,1,10.946-5.614H395.29v25.358H360.5L371.033,143Z" transform="translate(-275.343 -7.872)" fill="#ff7302"/>
        <path id="Trazado_117801" data-name="Trazado 117801" d="M358.4,122.754a.329.329,0,0,1-.1-.015.3.3,0,0,1-.186-.379,16.322,16.322,0,0,0-6.78-19.083.3.3,0,0,1,.317-.507,16.917,16.917,0,0,1,7.027,19.782A.3.3,0,0,1,358.4,122.754Z" transform="translate(-261.383 -6.909)" fill="#232997"/>
        <path id="Trazado_117802" data-name="Trazado 117802" d="M354.123,121.706a.3.3,0,0,1-.257-.147c-.077-.131-7.774-13.092-15.625-14.111a.3.3,0,1,1,.075-.594c8.144,1.058,15.743,13.857,16.064,14.4a.3.3,0,0,1-.1.411A.308.308,0,0,1,354.123,121.706Z" transform="translate(-269.786 -4.285)" fill="#232997"/>
        <path id="Trazado_117803" data-name="Trazado 117803" d="M347.816,115.54a.3.3,0,0,1-.3-.291,12.582,12.582,0,0,0-4.586-9.38.3.3,0,1,1,.379-.461,13.179,13.179,0,0,1,4.8,9.825.3.3,0,0,1-.291.307Z" transform="translate(-266.707 -5.248)" fill="#fff"/>
        <g id="Grupo_83709" data-name="Grupo 83709" transform="translate(84.004 158.493)">
          <path id="Trazado_117804" data-name="Trazado 117804" d="M363.957,147.494c-1.433,7.758-.8,16.386-3.314,20.969a6,6,0,0,1-5.759,3.338c-10.274,0-7.969-14.95-3.15-23.625.07-.141.141-.281.211-.4.73-1.34,1.317-2.563,1.834-3.715C356.788,145.873,360.666,147.471,363.957,147.494Z" transform="translate(-347.645 -139.126)" fill="#232997"/>
          <path id="Trazado_117805" data-name="Trazado 117805" d="M352.813,141.044c-.211.728-.471,1.528-.8,2.421l9.757,3.291c.188-.7.4-1.387.635-2.069Z" transform="translate(-344.869 -141.044)" fill="#ffb8a6"/>
          <path id="Trazado_117806" data-name="Trazado 117806" d="M360.643,167.019a6,6,0,0,1-5.759,3.338c-10.274,0-7.969-14.95-3.15-23.625.07-.141.141-.281.211-.4-1.48,5.829-3.549,13.47-1.951,18.594C351.546,169.935,357.4,169.3,360.643,167.019Z" transform="translate(-347.645 -137.682)" fill="#ff7302"/>
          <path id="Trazado_117807" data-name="Trazado 117807" d="M360.389,157.435a.307.307,0,0,1-.195-.07,10.172,10.172,0,0,0-10.535-1.642.292.292,0,0,1-.389-.16.3.3,0,0,1,.16-.389,10.753,10.753,0,0,1,11.152,1.735.3.3,0,0,1,.036.422A.307.307,0,0,1,360.389,157.435Z" transform="translate(-346.627 -132.597)" fill="#4391ff"/>
          <path id="Trazado_117808" data-name="Trazado 117808" d="M355.22,158.641a.3.3,0,0,1-.3-.255,26.824,26.824,0,0,1,.514-10.414.3.3,0,1,1,.579.146,26.175,26.175,0,0,0-.5,10.182.3.3,0,0,1-.252.339Z" transform="translate(-343.201 -136.785)" fill="#4391ff"/>
          <path id="Trazado_117809" data-name="Trazado 117809" d="M353.771,157.992a.3.3,0,0,1-.3-.255,26.824,26.824,0,0,1,.514-10.414.291.291,0,0,1,.361-.216.3.3,0,0,1,.218.361,26.175,26.175,0,0,0-.5,10.182.3.3,0,0,1-.252.339Z" transform="translate(-344.121 -137.198)" fill="#4391ff"/>
          <path id="Trazado_117810" data-name="Trazado 117810" d="M352.406,142.524c-.281.775-.61,1.623-1.011,2.516,3.01,1.811,6.888,3.409,10.18,3.432.164-.893.352-1.786.587-2.656Z" transform="translate(-345.262 -140.103)" fill="#ff7302"/>
        </g>
        <path id="Trazado_117811" data-name="Trazado 117811" d="M313.882,101.335a23.056,23.056,0,0,1,40.852,0Z" transform="translate(-285.103 -15.65)" fill="#8ebbec"/>
        <path id="Trazado_117812" data-name="Trazado 117812" d="M356.727,93.652H311.2L296.287,63.829h45.529Z" transform="translate(-296.287 -31.633)" fill="#8ebbec"/>
        <path id="Trazado_117813" data-name="Trazado 117813" d="M336.705,104.342H326.35L311.439,74.519h10.355Z" transform="translate(-286.656 -24.838)" fill="#8ebbec"/>
        <g id="Grupo_83710" data-name="Grupo 83710" transform="translate(22.364 85.685)">
          <path id="Trazado_117814" data-name="Trazado 117814" d="M437.668,101.708H312.549a2.6,2.6,0,0,1-2.589-2.589h0a2.6,2.6,0,0,1,2.589-2.588H437.668a2.6,2.6,0,0,1,2.588,2.588h0A2.6,2.6,0,0,1,437.668,101.708Z" transform="translate(-309.96 -96.531)" fill="#4391ff"/>
          <path id="Trazado_117815" data-name="Trazado 117815" d="M313.1,199.52a.3.3,0,0,1-.3-.3V108.514a9.012,9.012,0,0,1,9-9,.3.3,0,1,1,0,.6,8.412,8.412,0,0,0-8.4,8.4v90.708A.3.3,0,0,1,313.1,199.52Z" transform="translate(-308.151 -94.635)" fill="#4391ff"/>
          <path id="Trazado_117816" data-name="Trazado 117816" d="M318.425,199.52a.3.3,0,0,1-.3-.3V108.514a9.009,9.009,0,0,1,9-9,.3.3,0,1,1,0,.6,8.412,8.412,0,0,0-8.4,8.4v90.708A.3.3,0,0,1,318.425,199.52Z" transform="translate(-304.769 -94.635)" fill="#4391ff"/>
          <path id="Trazado_117817" data-name="Trazado 117817" d="M390.089,199.52a.3.3,0,0,1-.3-.3V108.514a8.412,8.412,0,0,0-8.4-8.4.3.3,0,0,1,0-.6,9.011,9.011,0,0,1,9,9v90.708A.3.3,0,0,1,390.089,199.52Z" transform="translate(-264.746 -94.635)" fill="#4391ff"/>
          <path id="Trazado_117818" data-name="Trazado 117818" d="M384.77,199.52a.3.3,0,0,1-.3-.3V108.514a8.413,8.413,0,0,0-8.406-8.4.3.3,0,0,1,0-.6,9.012,9.012,0,0,1,9,9v90.708A.3.3,0,0,1,384.77,199.52Z" transform="translate(-268.128 -94.635)" fill="#4391ff"/>
        </g>
        <path id="Trazado_117819" data-name="Trazado 117819" d="M317.33,73.3c1.233,3.458.927,6.261-.682,6.261s-3.916-2.8-5.147-6.261-.927-6.261.682-6.261S316.1,69.842,317.33,73.3Z" transform="translate(-287.098 -29.592)" fill="#fff"/>
        <path id="Trazado_117820" data-name="Trazado 117820" d="M315.49,82.805a.3.3,0,0,1-.267-.165l-3.1-6.2a.3.3,0,0,1,.013-.291.3.3,0,0,1,.254-.141h8.469a.3.3,0,1,1,0,.6h-7.985l2.882,5.771a.3.3,0,0,1-.132.4A.32.32,0,0,1,315.49,82.805Z" transform="translate(-286.242 -23.894)" fill="#4391ff"/>
        <path id="Trazado_117821" data-name="Trazado 117821" d="M352.655,82.04a.3.3,0,0,1-.106-.018,2.265,2.265,0,0,1-1.58-2.043,1.923,1.923,0,0,1,1.014-1.645,2.228,2.228,0,0,1-.872-1.775,2.254,2.254,0,0,1,1.224-1.8,2.019,2.019,0,0,1-.559-1.5,2.393,2.393,0,0,1,1.014-1.6.3.3,0,0,1,.414.082.3.3,0,0,1-.082.415,1.819,1.819,0,0,0-.752,1.158,1.663,1.663,0,0,0,.659,1.3.3.3,0,0,1,.088.265.3.3,0,0,1-.165.224,1.859,1.859,0,0,0-1.241,1.475,1.81,1.81,0,0,0,1.012,1.541.3.3,0,0,1,.147.285.3.3,0,0,1-.195.254,1.472,1.472,0,0,0-1.109,1.318,1.673,1.673,0,0,0,1.194,1.48.3.3,0,0,1-.1.579Z" transform="translate(-261.529 -26.685)" fill="#fff"/>
        <path id="Trazado_117822" data-name="Trazado 117822" d="M357.35,124.2a.282.282,0,0,1-.064-.007.3.3,0,0,1-.229-.355l1.739-8.131A19.22,19.22,0,0,1,370.4,101.891a.3.3,0,1,1,.224.553,18.632,18.632,0,0,0-11.248,13.388l-1.739,8.131A.3.3,0,0,1,357.35,124.2Z" transform="translate(-257.663 -7.454)" fill="#232997"/>
        <path id="Trazado_117823" data-name="Trazado 117823" d="M352.525,144.669a.268.268,0,0,1-.062-.007.3.3,0,0,1-.229-.355l3.5-16.368a.3.3,0,0,1,.355-.229.3.3,0,0,1,.229.355l-3.5,16.368A.3.3,0,0,1,352.525,144.669Z" transform="translate(-260.729 8.97)" fill="#232997"/>
        <path id="Trazado_117824" data-name="Trazado 117824" d="M360.094,144.3a.29.29,0,0,1-.1-.02l-6.759-2.57a.3.3,0,0,1-.173-.386.3.3,0,0,1,.386-.172l6.759,2.568a.3.3,0,0,1-.108.579Z" transform="translate(-260.213 17.504)" fill="#232997"/>
        <path id="Trazado_117825" data-name="Trazado 117825" d="M398.384,96.947H361.5a.3.3,0,1,1,0-.6h36.887a.3.3,0,0,1,0,.6Z" transform="translate(-255.027 -10.962)" fill="#fff"/>
        <path id="Trazado_117826" data-name="Trazado 117826" d="M343.441,99.479a.3.3,0,0,1-.257-.147,17.771,17.771,0,0,0-17.67-8.574.3.3,0,0,1-.337-.257.3.3,0,0,1,.257-.335A18.371,18.371,0,0,1,343.7,99.029a.3.3,0,0,1-.1.407A.282.282,0,0,1,343.441,99.479Z" transform="translate(-277.924 -14.996)" fill="#4391ff"/>
        <path id="Trazado_117827" data-name="Trazado 117827" d="M397.5,83.932a.261.261,0,0,1-.059-.007l-28.863-5.659L367.4,82.033a.3.3,0,0,1-.375.2.3.3,0,0,1-.2-.375l1.26-4.022a.289.289,0,0,1,.342-.2l29.128,5.712a.3.3,0,0,1-.059.592Z" transform="translate(-251.457 -22.865)" fill="#4391ff"/>
        <path id="Trazado_117828" data-name="Trazado 117828" d="M382.614,93.532a.3.3,0,0,1-.132-.031l-15.987-8a.3.3,0,0,1-.134-.4.3.3,0,0,1,.4-.132l15.988,8a.3.3,0,0,1-.134.566Z" transform="translate(-251.765 -18.218)" fill="#4391ff"/>
        <path id="Trazado_117829" data-name="Trazado 117829" d="M363.218,80.883a.292.292,0,0,1-.149-.041l-1.722-1a.3.3,0,0,1-.11-.409.3.3,0,0,1,.407-.106l1.724,1a.3.3,0,0,1,.11.407A.3.3,0,0,1,363.218,80.883Z" transform="translate(-255.027 -21.81)" fill="#fff"/>
        <path id="Trazado_117830" data-name="Trazado 117830" d="M392.259,112.81a.319.319,0,0,1-.087-.013.3.3,0,0,1-.2-.373l16.6-54.51a.3.3,0,0,1,.371-.2.3.3,0,0,1,.2.373l-16.6,54.51A.3.3,0,0,1,392.259,112.81Z" transform="translate(-235.472 -35.525)" fill="#fff"/>
      </g>
      <g id="Grupo_83715" data-name="Grupo 83715" transform="translate(690.831 95.952)">
        <path id="Trazado_117831" data-name="Trazado 117831" d="M497.738,112.8l4.632,9.811,38.888-2.768s10.3-5.934,11.407-5.3-2.7,5.075-2.7,5.075l4.285,6.543s.4,1.778-1.9,1.3c0,0,.4,3.163-2.612,2.53,1.107,1.9-1.9,3.783-3.644,2.961-.554,2.5-6.178,2.09-12.91,0h-40.79V115.314Z" transform="translate(-397.02 -38.465)" fill="#ffb8a6"/>
        <path id="Trazado_117832" data-name="Trazado 117832" d="M512.909,99.618l-4.8-1.449.069-.445a4.724,4.724,0,0,0-3.379-5.278l-14.143-4a4.723,4.723,0,0,0-5.659,2.756h0l-1.878-.566a25.172,25.172,0,0,0-24.859,6.09L438.714,115.8l10.812,4.366v20.7h55.807L531.858,128.4,523.13,108.65A16.331,16.331,0,0,0,512.909,99.618Z" transform="translate(-431.14 -54.062)" fill="#ff7302"/>
        <path id="Trazado_117833" data-name="Trazado 117833" d="M450.967,108.431a27.533,27.533,0,0,1-6.467-.772.3.3,0,0,1-.226-.366.313.313,0,0,1,.368-.226,26.938,26.938,0,0,0,31.6-16.916.3.3,0,0,1,.571.209A27.551,27.551,0,0,1,450.967,108.431Z" transform="translate(-427.611 -52.988)" fill="#ffb8a6"/>
        <path id="Trazado_117834" data-name="Trazado 117834" d="M470,109.723a.3.3,0,0,1-.17-.556,42.544,42.544,0,0,1,33.366-6.224.3.3,0,0,1,.227.366.292.292,0,0,1-.365.227,41.922,41.922,0,0,0-32.886,6.134A.3.3,0,0,1,470,109.723Z" transform="translate(-411.444 -45.419)" fill="#ffb8a6"/>
        <path id="Trazado_117835" data-name="Trazado 117835" d="M478.563,103.861a.292.292,0,0,1-.188-.067.3.3,0,0,1-.049-.427,13.219,13.219,0,0,0,2.6-5.617.3.3,0,0,1,.358-.239.3.3,0,0,1,.239.358,13.8,13.8,0,0,1-2.723,5.875A.3.3,0,0,1,478.563,103.861Z" transform="translate(-406.003 -48.187)" fill="#232997"/>
        <path id="Trazado_117836" data-name="Trazado 117836" d="M472.664,89.907,484.4,93.4a3.391,3.391,0,0,1,2.417,3.477c-.289,4.48-1.953,12.783-10.367,11.911-8.033-.833-8.541-10.324-8.128-15.933A3.375,3.375,0,0,1,472.664,89.907Z" transform="translate(-412.384 -53.107)" fill="#fff"/>
        <path id="Trazado_117837" data-name="Trazado 117837" d="M470.31,132.306l65.82-5.3a10.9,10.9,0,0,1,11.732,9.933h0a10.9,10.9,0,0,1-9.089,11.68l-66.324,10.9Z" transform="translate(-411.056 -29.46)" fill="#232997"/>
        <path id="Trazado_117838" data-name="Trazado 117838" d="M525.126,138.745a.3.3,0,0,1-.286-.2,13.391,13.391,0,0,0-21.025-5.859.3.3,0,0,1-.384-.473,14,14,0,0,1,21.982,6.126.3.3,0,0,1-.183.389A.285.285,0,0,1,525.126,138.745Z" transform="translate(-390.075 -28.108)" fill="#ff7302"/>
        <g id="Grupo_83712" data-name="Grupo 83712" transform="translate(11.162 56.95)">
          <path id="Trazado_117839" data-name="Trazado 117839" d="M510.774,108.465c-7.635.316-8.631,5.553-17.1,5.9-13.852.571-14.078-12.8-29.195-12.176-13.632.563-24.085,15.529-23.346,33.421s12.387,31.921,26.02,31.359c15.166-.625,14.222-13.941,28.092-14.513,8.432-.348,9.9,4.761,17.531,4.447,10.2-.422,18.02-11.613,17.469-24.97C529.692,118.554,520.974,108.045,510.774,108.465Z" transform="translate(-440.789 -102.171)" fill="#fff"/>
          <path id="Trazado_117840" data-name="Trazado 117840" d="M457.061,130.395l125.366-7.1-.267-6.48-125.525,3.258Z" transform="translate(-430.911 -92.861)" fill="#232997"/>
          <path id="Trazado_117841" data-name="Trazado 117841" d="M490.327,124.079a8.651,8.651,0,1,1-9-8.286A8.651,8.651,0,0,1,490.327,124.079Z" transform="translate(-420.488 -93.517)" fill="#232997"/>
          <rect id="Rectángulo_34612" data-name="Rectángulo 34612" width="3.082" height="20.776" transform="translate(22.43 22.122) rotate(-2.363)" fill="#ff7302"/>
          <path id="Trazado_117842" data-name="Trazado 117842" d="M555.147,116.642l-.079-1.907-21.69,3.405.268,6.48,21.9,1.606-.079-1.907a3.842,3.842,0,0,0-.317-7.678Z" transform="translate(-382.129 -94.185)" fill="#ff7302"/>
          <path id="Trazado_117843" data-name="Trazado 117843" d="M456.753,121.962a.3.3,0,0,1-.01-.608l125.659-3.88a.294.294,0,0,1,.314.294.306.306,0,0,1-.294.314l-125.659,3.88Z" transform="translate(-431.029 -92.445)" fill="#fff"/>
          <path id="Trazado_117844" data-name="Trazado 117844" d="M457,126.889a.305.305,0,0,1-.016-.61l125.32-6.713h.016a.3.3,0,0,1,.016.608l-125.32,6.714Z" transform="translate(-430.873 -91.114)" fill="#fff"/>
          <path id="Trazado_117845" data-name="Trazado 117845" d="M456.883,124.4a.305.305,0,0,1-.011-.61l125.445-5.177h.013a.3.3,0,0,1,.013.608L456.9,124.4Z" transform="translate(-430.947 -91.72)" fill="#fff"/>
          <path id="Trazado_117846" data-name="Trazado 117846" d="M452.878,151a.3.3,0,0,1-.2-.074c-6.909-5.841-11.3-15.681-11.737-26.319a43.348,43.348,0,0,1,.07-4.817.3.3,0,0,1,.326-.283.305.305,0,0,1,.281.326,42.506,42.506,0,0,0-.067,4.748c.432,10.473,4.74,20.148,11.52,25.883a.3.3,0,0,1-.2.536Z" transform="translate(-440.908 -91.153)" fill="#ff7302"/>
          <path id="Trazado_117847" data-name="Trazado 117847" d="M456.846,151.136c-9.855-6.291-15.655-18.6-14.773-30.709,0,0,1.827,20.861,16.795,22.767Z" transform="translate(-440.223 -90.567)" fill="#8ebbec"/>
          <path id="Trazado_117848" data-name="Trazado 117848" d="M541.278,118.98a1.238,1.238,0,0,1-1.233-1.158,1.234,1.234,0,0,1,1.155-1.31l6.974-.447a1.236,1.236,0,0,1,.157,2.467h0l-6.974.445C541.331,118.978,541.3,118.98,541.278,118.98Zm6.973-2.31-.039,0-6.974.447a.619.619,0,0,0-.43.211.625.625,0,0,0-.155.453.659.659,0,0,0,.666.586l6.974-.443a.637.637,0,0,0,.43-.213.629.629,0,0,0-.471-1.042Zm.061,1.557h0Z" transform="translate(-377.893 -93.343)" fill="#fff"/>
          <path id="Trazado_117849" data-name="Trazado 117849" d="M548.371,121.954h-.056l-6.983-.3a1.238,1.238,0,0,1-1.183-1.287,1.266,1.266,0,0,1,1.289-1.181l6.983.3a1.235,1.235,0,0,1-.051,2.47Zm-6.986-2.162a.627.627,0,0,0-.026,1.253l6.983.3h0a.574.574,0,0,0,.45-.164.62.62,0,0,0,.2-.435.629.629,0,0,0-.6-.653l-6.983-.3Z" transform="translate(-377.825 -91.356)" fill="#fff"/>
          <path id="Trazado_117850" data-name="Trazado 117850" d="M497.51,156.532l23.763-19.35c11.183-8.955,23.316-7.194,27.292.35h0c5.293,10.04-2.311,20.249-13.5,22.178l-31.62,6.435a8.524,8.524,0,0,0-1.12.27c-3.1.963-18.619,5.723-24.167,6.364-3.97.458-8.577,4.1-11.365,6.652a2.215,2.215,0,0,1-3.629-1.048,50.674,50.674,0,0,1-1.634-8.747,7.141,7.141,0,0,1,6.943-7.706c3.4-.092,8-.142,13.445-.029A23.91,23.91,0,0,0,497.51,156.532Z" transform="translate(-427.813 -83.754)" fill="#ffb8a6"/>
        </g>
        <path id="Trazado_117851" data-name="Trazado 117851" d="M523.2,126.708h-.016a.308.308,0,0,1-.29-.321,6.054,6.054,0,0,0-1.122-3.59.928.928,0,0,1,1.268-1.292,10.22,10.22,0,0,1,3.432,3.556.3.3,0,0,1-.525.309,9.63,9.63,0,0,0-3.227-3.348.322.322,0,0,0-.4.047.317.317,0,0,0-.039.4,6.661,6.661,0,0,1,1.22,3.952A.3.3,0,0,1,523.2,126.708Z" transform="translate(-378.442 -33.02)" fill="#ff7302"/>
        <path id="Trazado_117852" data-name="Trazado 117852" d="M526.289,126.2a17.762,17.762,0,0,0-3.085-5.645.67.67,0,0,1,.833-1.021,18.5,18.5,0,0,1,5.144,4.884Z" transform="translate(-377.535 -34.239)" fill="#ffb8a6"/>
        <path id="Trazado_117853" data-name="Trazado 117853" d="M528.52,124.939a15.447,15.447,0,0,0-3.7-5.489.837.837,0,0,1,1.065-1.279,39.124,39.124,0,0,1,5.37,4.452l-1.909-3.554a1.21,1.21,0,0,1,1.958-1.392,9.227,9.227,0,0,1,2.486,5.633Z" transform="translate(-376.559 -35.614)" fill="#ffb8a6"/>
        <path id="Trazado_117854" data-name="Trazado 117854" d="M441.657,105.1l-5.066,5.538a9.527,9.527,0,0,0,5.776,15.874l38.536,5.12s.268,4.428,11.853,10.625a.88.88,0,0,0,.949-.075.462.462,0,0,0,.182-.316.467.467,0,0,0-.1-.35l-3.139-3.824,3.96,3.237a1,1,0,0,0,1.488-1.3l-2.241-3.638,3.649,2.926a1.018,1.018,0,0,0,1.475-1.371l-2.591-3.773,3.356,2.964a1.193,1.193,0,0,0,1.5.064.846.846,0,0,0,.307-.916c-.543-1.871-2.885-7.815-11.381-11.221C479.992,120.584,441.657,105.1,441.657,105.1Z" transform="translate(-434.084 -43.358)" fill="#ffb8a6"/>
        <g id="Grupo_83713" data-name="Grupo 83713" transform="translate(58.561)">
          <path id="Trazado_117855" data-name="Trazado 117855" d="M471.586,85.373c-5.782-11.3,5.507-11.623,5.825-16.4a9.357,9.357,0,0,1,.064,4.331c6.019-6.574,12.685-1.727,16.244-5.954,0,0-2.134,4.114-4.125,5.231,0,0,7.964,2.274,10.98-.067,0,0-2,3.945-4.475,4.4,0,0,3.783,1.291,4.914-1.053,0,0,.661,9.1-7.316,9.282s-14.017,6.376-14.017,6.376Z" transform="translate(-469.852 -67.353)" fill="#232997"/>
          <path id="Trazado_117856" data-name="Trazado 117856" d="M483.88,103.211c.01.1.021.2.031.294.854,8.3-11.17,11.037-13.56,3.044-.021-.072-.041-.144-.062-.216a11.442,11.442,0,0,1,.741-7.64,43.417,43.417,0,0,0,3.268-12s-6.626-2.092-3.638-6.577c2.995-4.513,7.367,2.728,7.367,2.728s.568-10.643,8.07-6.332c7.511,4.285,7.632,3.471,7.632,3.471-1.4,9.812,1.093,14.891-4.3,17.053a5.959,5.959,0,0,1-5.794-.811A52.432,52.432,0,0,0,483.88,103.211Z" transform="translate(-469.887 -62.187)" fill="#ffb8a6"/>
          <path id="Trazado_117857" data-name="Trazado 117857" d="M482.8,86.127a1.372,1.372,0,0,1-.553-.118,7.9,7.9,0,0,1-1.629-.965.305.305,0,0,1,.376-.481,7.18,7.18,0,0,0,1.5.89.744.744,0,0,0,1.037-.8,16.57,16.57,0,0,1,.015-5.834.3.3,0,0,1,.59.147,15.9,15.9,0,0,0,0,5.592,1.352,1.352,0,0,1-1.336,1.565Z" transform="translate(-463.137 -60.21)" fill="#232997"/>
          <path id="Trazado_117858" data-name="Trazado 117858" d="M483.611,86.151a.2.2,0,0,1-.052,0,8.357,8.357,0,0,1-5.11-3.036.3.3,0,0,1,.476-.379,7.759,7.759,0,0,0,4.739,2.817.3.3,0,0,1-.052.6Z" transform="translate(-464.486 -57.651)" fill="#ff7302"/>
          <path id="Trazado_117859" data-name="Trazado 117859" d="M483.142,80.24a.3.3,0,0,1-.208-.083,6.113,6.113,0,0,0-5.131-1.547.3.3,0,0,1-.35-.25.306.306,0,0,1,.25-.352,6.74,6.74,0,0,1,5.645,1.706.3.3,0,0,1-.206.527Z" transform="translate(-465.079 -60.635)" fill="#232997"/>
          <path id="Trazado_117860" data-name="Trazado 117860" d="M483.476,80.246a.305.305,0,0,1-.111-.589,2.432,2.432,0,0,1,1.729-.028.3.3,0,1,1-.2.572,1.832,1.832,0,0,0-1.3.023A.327.327,0,0,1,483.476,80.246Z" transform="translate(-461.442 -59.642)" fill="#232997"/>
          <path id="Trazado_117861" data-name="Trazado 117861" d="M480.021,96.91c-2.048-2.375-5.3-7.023-3.576-11.518.412,2.272,3.337,4.529,3.337,4.529A52.441,52.441,0,0,0,480.021,96.91Z" transform="translate(-466.027 -55.886)" fill="#232997"/>
          <path id="Trazado_117862" data-name="Trazado 117862" d="M471.1,77.638a.336.336,0,0,1-.1-.018.307.307,0,0,1-.183-.389,10.056,10.056,0,0,1,5.123-5.663.305.305,0,0,1,.265.55,9.447,9.447,0,0,0-4.814,5.319A.305.305,0,0,1,471.1,77.638Z" transform="translate(-469.307 -64.692)" fill="#4391ff"/>
          <path id="Trazado_117863" data-name="Trazado 117863" d="M476.242,73.238a.3.3,0,0,1-.213-.087.3.3,0,0,1,0-.43,8.34,8.34,0,0,1,8.759-1.994.3.3,0,0,1-.206.572,7.726,7.726,0,0,0-8.118,1.847A.3.3,0,0,1,476.242,73.238Z" transform="translate(-466.04 -65.521)" fill="#4391ff"/>
          <path id="Trazado_117864" data-name="Trazado 117864" d="M489.088,74.272a.293.293,0,0,1-.159-.046,11.423,11.423,0,0,0-9.907-.985.3.3,0,0,1-.391-.18.3.3,0,0,1,.182-.391,12,12,0,0,1,10.434,1.037.305.305,0,0,1-.159.564Z" transform="translate(-464.34 -64.443)" fill="#4391ff"/>
          <path id="Trazado_117865" data-name="Trazado 117865" d="M472.51,79.262a.306.306,0,0,1-.268-.451c4.5-8.255,10.988-5.448,16.2-3.2,3.958,1.711,7.081,3.06,8.736-.013a.3.3,0,0,1,.535.288c-1.919,3.567-5.607,1.974-9.511.285-5.242-2.265-11.188-4.835-15.419,2.933A.309.309,0,0,1,472.51,79.262Z" transform="translate(-468.413 -63.591)" fill="#4391ff"/>
          <path id="Trazado_117866" data-name="Trazado 117866" d="M474.8,81.425a.307.307,0,0,1-.26-.144,4.124,4.124,0,0,0-2.66-1.861.3.3,0,1,1,.124-.6,4.749,4.749,0,0,1,3.054,2.138.307.307,0,0,1-.1.42A.3.3,0,0,1,474.8,81.425Z" transform="translate(-468.774 -60.066)" fill="#ff7302"/>
        </g>
        <ellipse id="Elipse_4783" data-name="Elipse 4783" cx="22.746" cy="20.381" rx="22.746" ry="20.381" transform="translate(24.99 98.334)" fill="#232997"/>
        <path id="Trazado_117867" data-name="Trazado 117867" d="M465.2,160a.291.291,0,0,1-.175-.057,16.443,16.443,0,0,1,9.447-29.9c.075,0,.154,0,.229,0a.3.3,0,0,1,0,.608.948.948,0,0,0-.226,0,15.836,15.836,0,0,0-9.1,28.794.306.306,0,0,1-.175.554Z" transform="translate(-418.865 -27.503)" fill="#ff7302"/>
        <path id="Trazado_117868" data-name="Trazado 117868" d="M515.7,154.635s-19.428-11.965-25.6-16.4c-11.836-8.492-23.705-7.315-27.749.355h0c-5.381,10.206,2.351,20.588,13.721,22.547l33.59,3.266c.389.067,14.845,1.91,17.074-.53C536.122,153.6,520.168,158.271,515.7,154.635Z" transform="translate(-417.227 -26.042)" fill="#ffb8a6"/>
        <path id="Trazado_117869" data-name="Trazado 117869" d="M526.407,126.621a.3.3,0,0,1-.286-.2,17.436,17.436,0,0,0-3.031-5.55.973.973,0,0,1,1.212-1.482,16.322,16.322,0,0,1,4.7,4.305c.188.232.366.45.533.648a.3.3,0,0,1-.465.394c-.17-.2-.35-.422-.541-.658a15.845,15.845,0,0,0-4.518-4.158.365.365,0,0,0-.453.556,18.009,18.009,0,0,1,3.14,5.743.3.3,0,0,1-.186.388A.308.308,0,0,1,526.407,126.621Z" transform="translate(-377.654 -34.357)" fill="#ff7302"/>
        <path id="Trazado_117870" data-name="Trazado 117870" d="M528.638,125.362a.307.307,0,0,1-.293-.219,15.038,15.038,0,0,0-3.626-5.362,1.141,1.141,0,0,1,1.451-1.745,36.764,36.764,0,0,1,4.042,3.191l-1.019-1.9a1.516,1.516,0,0,1,2.452-1.742,9.5,9.5,0,0,1,2.566,5.816.3.3,0,0,1-.281.325.289.289,0,0,1-.326-.28,8.9,8.9,0,0,0-2.409-5.45.9.9,0,0,0-1.191-.126.911.911,0,0,0-.275,1.168l1.91,3.553a.3.3,0,0,1-.088.389.3.3,0,0,1-.4-.031,39.1,39.1,0,0,0-5.321-4.411.532.532,0,0,0-.679.813,15.683,15.683,0,0,1,3.777,5.615.3.3,0,0,1-.206.378A.319.319,0,0,1,528.638,125.362Z" transform="translate(-376.677 -35.733)" fill="#ff7302"/>
        <g id="Grupo_83714" data-name="Grupo 83714" transform="translate(44.857 104.031)">
          <path id="Trazado_117871" data-name="Trazado 117871" d="M497.51,156.532l23.763-19.35c11.183-8.955,23.316-7.194,27.292.35h0c5.293,10.04-2.311,20.249-13.5,22.178l-31.62,6.435a8.524,8.524,0,0,0-1.12.27c-3.1.963-18.619,5.723-24.167,6.364-3.97.458-8.577,4.1-11.365,6.652a2.215,2.215,0,0,1-3.629-1.048,50.674,50.674,0,0,1-1.634-8.747,7.141,7.141,0,0,1,6.943-7.706c3.4-.092,8-.142,13.445-.029A23.91,23.91,0,0,0,497.51,156.532Z" transform="translate(-461.508 -130.834)" fill="#ffb8a6"/>
          <path id="Trazado_117872" data-name="Trazado 117872" d="M463.549,160.174a.3.3,0,0,1-.016-.608c1.048-.059,2.591-1.873,3.1-2.568a.3.3,0,0,1,.492.358c-.2.28-2.03,2.733-3.556,2.818Z" transform="translate(-460.404 -114.48)" fill="#ff7302"/>
          <path id="Trazado_117873" data-name="Trazado 117873" d="M462.838,157.868a.3.3,0,0,1-.016-.608c1.05-.059,2.591-1.874,3.1-2.568a.3.3,0,1,1,.492.358c-.2.278-2.028,2.733-3.556,2.818Z" transform="translate(-460.856 -115.946)" fill="#ff7302"/>
          <path id="Trazado_117874" data-name="Trazado 117874" d="M462.533,155.562a.3.3,0,0,1-.018-.608c1.052-.059,2.592-1.874,3.1-2.57a.308.308,0,0,1,.427-.065.3.3,0,0,1,.065.425c-.2.28-2.028,2.733-3.556,2.818Z" transform="translate(-461.051 -117.412)" fill="#ff7302"/>
          <path id="Trazado_117875" data-name="Trazado 117875" d="M474.606,162.33q-.253,0-.505,0a.3.3,0,0,1,.007-.608h.007a23.729,23.729,0,0,0,15.388-5.3l23.763-19.348c6.127-4.907,13.072-7.009,19.059-5.759a12.356,12.356,0,0,1,8.7,6.2.3.3,0,0,1-.126.411.3.3,0,0,1-.411-.128,11.766,11.766,0,0,0-8.283-5.89c-5.807-1.209-12.568.846-18.552,5.638l-23.76,19.346A24.231,24.231,0,0,1,474.606,162.33Z" transform="translate(-453.693 -130.955)" fill="#fff"/>
        </g>
        <path id="Trazado_117876" data-name="Trazado 117876" d="M491.945,153.2a.3.3,0,0,1-.06-.6l14.986-3.05a.311.311,0,0,1,.36.239.3.3,0,0,1-.237.358l-14.987,3.05A.361.361,0,0,1,491.945,153.2Z" transform="translate(-397.497 -15.11)" fill="#fff"/>
        <path id="Trazado_117877" data-name="Trazado 117877" d="M472.626,106.3a.325.325,0,0,1-.11-.021c-4.837-1.886-5.7-8.263-5.849-10.918a.3.3,0,1,1,.609-.034c.141,2.537.955,8.626,5.461,10.385a.3.3,0,0,1-.111.589Z" transform="translate(-413.372 -49.756)" fill="#232997"/>
        <path id="Trazado_117878" data-name="Trazado 117878" d="M439.958,109.056a.3.3,0,0,1-.131-.579,12.853,12.853,0,0,1,7.72-.726.306.306,0,0,1,.257.347.3.3,0,0,1-.347.255,12.316,12.316,0,0,0-7.369.674A.305.305,0,0,1,439.958,109.056Z" transform="translate(-430.543 -41.842)" fill="#ff7302"/>
      </g>
      <g id="Grupo_83718" data-name="Grupo 83718" transform="translate(924.717 116.917)">
        <path id="Trazado_117879" data-name="Trazado 117879" d="M640.889,123.221l-5.406,44.334a13.907,13.907,0,0,1-10.66,11.863l-1.333.309a9.984,9.984,0,0,0-6.546,5.021h119.73a13.658,13.658,0,0,0,9.84-4.163c4.138-4.285,10.208-11.4,13.365-19.05L681.8,123.221Z" transform="translate(-551.733 -52.806)" fill="#232997"/>
        <g id="Grupo_83716" data-name="Grupo 83716">
          <path id="Trazado_117880" data-name="Trazado 117880" d="M587.651,212.413a.3.3,0,0,1-.3-.3V85.608a4.838,4.838,0,1,0-9.676,0V212.116a.3.3,0,0,1-.6,0V85.608a5.436,5.436,0,1,1,10.872,0V212.116A.3.3,0,0,1,587.651,212.413Z" transform="translate(-577.076 -80.171)" fill="#4391ff"/>
          <path id="Trazado_117881" data-name="Trazado 117881" d="M740.237,212.413a.3.3,0,0,1-.3-.3V85.608a4.838,4.838,0,1,0-9.677,0V212.116a.3.3,0,0,1-.6,0V85.608a5.436,5.436,0,1,1,10.872,0V212.116A.3.3,0,0,1,740.237,212.413Z" transform="translate(-480.083 -80.171)" fill="#4391ff"/>
          <path id="Rectángulo_34613" data-name="Rectángulo 34613" d="M3.712,0H235.594a3.711,3.711,0,0,1,3.711,3.711V7.146a0,0,0,0,1,0,0H0a0,0,0,0,1,0,0V3.712A3.712,3.712,0,0,1,3.712,0Z" transform="translate(10.574 63.269)" fill="#232997"/>
          <rect id="Rectángulo_34614" data-name="Rectángulo 34614" width="249.579" height="8.269" transform="translate(0.3 70.415)" fill="#4391ff"/>
          <path id="Trazado_117882" data-name="Trazado 117882" d="M587.651,102.595H577.375a.3.3,0,0,1,0-.6h10.275a.3.3,0,0,1,0,.6Z" transform="translate(-577.076 -66.298)" fill="#4391ff"/>
          <path id="Trazado_117883" data-name="Trazado 117883" d="M740.237,102.595H729.962a.3.3,0,0,1,0-.6h10.275a.3.3,0,0,1,0,.6Z" transform="translate(-480.083 -66.298)" fill="#4391ff"/>
        </g>
        <path id="Trazado_117884" data-name="Trazado 117884" d="M634.665,109.406c3.788-8.347,10.8-5.872,17.407-8.131s23.408-2.409,36.763,4.343,28.359,9.452,43.814,4.951,40.664,3.479,48.616,20.346a65.14,65.14,0,0,1-19.733,47.969,12.371,12.371,0,0,1-8.584,3.41h-80.52a14.885,14.885,0,0,1-14.757-12.56,75.106,75.106,0,0,1-.95-13.7,161.408,161.408,0,0,0-1.425-25.12Z" transform="translate(-540.469 -67.646)" fill="#ff7302"/>
        <g id="Grupo_83717" data-name="Grupo 83717" transform="translate(110.959 33.708)">
          <path id="Trazado_117885" data-name="Trazado 117885" d="M645.213,113.28a.3.3,0,0,1-.15-.558l20.74-11.9a.3.3,0,1,1,.3.517l-20.74,11.9A.307.307,0,0,1,645.213,113.28Z" transform="translate(-644.914 -100.779)" fill="#ffb8a6"/>
          <path id="Trazado_117886" data-name="Trazado 117886" d="M648.267,124.615a.3.3,0,0,1-.149-.558l34.148-19.6a.3.3,0,1,1,.3.517l-34.149,19.6A.3.3,0,0,1,648.267,124.615Z" transform="translate(-642.972 -98.466)" fill="#ffb8a6"/>
          <path id="Trazado_117887" data-name="Trazado 117887" d="M649.092,138.042a.3.3,0,0,1-.149-.558l51.2-29.388a.3.3,0,0,1,.3.519L649.241,138A.3.3,0,0,1,649.092,138.042Z" transform="translate(-642.448 -96.153)" fill="#ffb8a6"/>
          <path id="Trazado_117888" data-name="Trazado 117888" d="M649.918,154.94a.3.3,0,0,1-.149-.558l83.82-48.108a.3.3,0,0,1,.3.518L650.068,154.9A.309.309,0,0,1,649.918,154.94Z" transform="translate(-641.922 -97.312)" fill="#ffb8a6"/>
          <path id="Trazado_117889" data-name="Trazado 117889" d="M651.263,167.87a.3.3,0,0,1-.149-.559L751.1,109.929a.3.3,0,0,1,.3.518l-99.986,57.382A.287.287,0,0,1,651.263,167.87Z" transform="translate(-641.068 -94.989)" fill="#ffb8a6"/>
          <path id="Trazado_117890" data-name="Trazado 117890" d="M661.427,171.4a.3.3,0,0,1-.26-.15.3.3,0,0,1,.11-.407l96.716-55.507a.3.3,0,0,1,.3.518l-96.716,55.506A.288.288,0,0,1,661.427,171.4Z" transform="translate(-634.607 -91.549)" fill="#ffb8a6"/>
          <path id="Trazado_117891" data-name="Trazado 117891" d="M679.611,165.222a.3.3,0,0,1-.26-.15.3.3,0,0,1,.11-.407l70.513-40.469a.3.3,0,1,1,.3.519L679.76,165.183A.3.3,0,0,1,679.611,165.222Z" transform="translate(-623.049 -85.921)" fill="#ffb8a6"/>
          <path id="Trazado_117892" data-name="Trazado 117892" d="M696.613,158.295a.3.3,0,0,1-.149-.558L734.4,135.963a.3.3,0,0,1,.409.111.3.3,0,0,1-.11.407l-37.936,21.772A.288.288,0,0,1,696.613,158.295Z" transform="translate(-612.241 -78.439)" fill="#ffb8a6"/>
        </g>
        <path id="Trazado_117893" data-name="Trazado 117893" d="M616.5,97.939c-1.012-6.9-10.741-3.077-12.5-7.053a5.476,5.476,0,0,0,.644,3.526,8.459,8.459,0,0,0-4.915-.824c-2.288.525-5.34,1.763-6.61,1.238,2.3,2.776,6.76,3.826,6.76,3.826s-7.39-.9-8.89,4.388,8.289,12.079,8.289,12.079l17.856-13.429Z" transform="translate(-568.331 -73.36)" fill="#232997"/>
        <path id="Trazado_117894" data-name="Trazado 117894" d="M621.164,109.1l-5.458-6.379s3.489-3.489.339-6.639-5.121.111-5.121,2.362c0,0-4.107-3.319-8.046-.168s-2.2,7.334-7.316,9.6L611.486,120.5l8.062-.618Z" transform="translate(-565.326 -70.885)" fill="#ffb8a6"/>
        <path id="Trazado_117895" data-name="Trazado 117895" d="M589.1,132.5c-3.826-15.32,1.577-26.723,1.577-26.723a7.182,7.182,0,0,1-.386-7.123,1.569,1.569,0,0,1,1.215-.87l2.637-.37a1.971,1.971,0,0,1,1.523.415c1.315,1.057,3.939,3.592,3.356,6.6l1.886,28.073Z" transform="translate(-570.305 -69.227)" fill="#ffb8a6"/>
        <path id="Trazado_117896" data-name="Trazado 117896" d="M626.99,115.665a.3.3,0,0,1-.3-.27,38.689,38.689,0,0,0-5.288-16.006.3.3,0,0,1,.1-.411.3.3,0,0,1,.41.1,39.248,39.248,0,0,1,5.367,16.255.3.3,0,0,1-.265.327Z" transform="translate(-548.925 -68.241)"/>
        <path id="Trazado_117897" data-name="Trazado 117897" d="M606.914,110.584c2.025-.962,3.544-4.506,3.433-5.857.787,2.926-.339,7.822-.339,7.822Z" transform="translate(-558.109 -64.562)" fill="#232997"/>
        <path id="Trazado_117898" data-name="Trazado 117898" d="M615.66,112.19a.3.3,0,0,1-.247-.132l-2.851-4.236a.3.3,0,0,1,.5-.334l2.851,4.236a.3.3,0,0,1-.082.415A.291.291,0,0,1,615.66,112.19Z" transform="translate(-554.552 -62.891)"/>
        <path id="Trazado_117899" data-name="Trazado 117899" d="M596.594,120.153a39.1,39.1,0,0,1-5.041-16.021,3.21,3.21,0,0,1,5.442-2.485,41.563,41.563,0,0,1,2.975,3.291,4.578,4.578,0,0,0,2.352,1.523,10.068,10.068,0,0,1,4.763,2.727,6.682,6.682,0,0,0,4.956,2.185c7.351.067,12.976,6.891,10.118,12.119C618.858,129.532,596.594,120.153,596.594,120.153Z" transform="translate(-567.878 -67.102)" fill="#fff"/>
        <path id="Trazado_117900" data-name="Trazado 117900" d="M593.424,101.224a.3.3,0,0,1-.219-.1l-1.552-1.688a.3.3,0,0,1,.016-.422.293.293,0,0,1,.422.018l1.554,1.688a.3.3,0,0,1-.221.5Z" transform="translate(-567.861 -68.243)" fill="#ff7302"/>
        <path id="Trazado_117901" data-name="Trazado 117901" d="M610.313,122.507l1.982-17.573a9.4,9.4,0,0,1,13.123-7.567c6.1,2.691,13.515,6.6,19.513,11.7a7.965,7.965,0,0,0,7.077,1.681l4.477-1.109a8.222,8.222,0,0,1,9.889,5.751l4.968,17.631H609.423Z" transform="translate(-556.515 -69.751)" fill="#8ebbec"/>
        <path id="Trazado_117902" data-name="Trazado 117902" d="M623.226,105.644a52.263,52.263,0,0,1-11.355-1.246.3.3,0,0,1-.226-.358.3.3,0,0,1,.357-.226,51.775,51.775,0,0,0,26.882-1.192.3.3,0,0,1,.181.569A52.345,52.345,0,0,1,623.226,105.644Z" transform="translate(-555.106 -65.909)" fill="#fff"/>
        <path id="Trazado_117903" data-name="Trazado 117903" d="M626.893,124.915a.306.306,0,0,1-.119-.025.3.3,0,0,1-.157-.393A26.528,26.528,0,0,1,655,108.773a.3.3,0,1,1-.09.59,25.906,25.906,0,0,0-27.739,15.37A.3.3,0,0,1,626.893,124.915Z" transform="translate(-545.601 -62.186)" fill="#fff"/>
        <path id="Trazado_117904" data-name="Trazado 117904" d="M603.476,106.292a.864.864,0,0,1-.128-.008,1.061,1.061,0,0,1-.785-.515l-2.6-4.455a.3.3,0,1,1,.514-.3l2.606,4.456a.465.465,0,0,0,.729.088,8.246,8.246,0,0,0,1.92-2.632.307.307,0,0,1,.376-.193.3.3,0,0,1,.193.375,9.069,9.069,0,0,1-2.061,2.867A1.075,1.075,0,0,1,603.476,106.292Z" transform="translate(-562.556 -67.018)" fill="#232997"/>
        <path id="Trazado_117905" data-name="Trazado 117905" d="M598.368,105.421a.218.218,0,0,1-.072-.01.3.3,0,0,1-.218-.363,4.3,4.3,0,0,1,2.218-2.781.3.3,0,0,1,.4.131.3.3,0,0,1-.131.4,3.7,3.7,0,0,0-1.91,2.395A.3.3,0,0,1,598.368,105.421Z" transform="translate(-563.731 -66.147)" fill="#232997"/>
        <path id="Trazado_117906" data-name="Trazado 117906" d="M601.991,101.893a.332.332,0,0,1-.07-.008.3.3,0,0,1-.219-.361,5.284,5.284,0,0,1,3.068-3.618.3.3,0,0,1,.393.159.3.3,0,0,1-.159.393,4.683,4.683,0,0,0-2.723,3.208A.3.3,0,0,1,601.991,101.893Z" transform="translate(-561.429 -68.912)" fill="#232997"/>
        <path id="Trazado_117907" data-name="Trazado 117907" d="M603.315,107.253a.317.317,0,0,1-.114-.023.3.3,0,0,1-.16-.391,8.018,8.018,0,0,1,2.92-3.585.3.3,0,0,1,.337.5,7.416,7.416,0,0,0-2.705,3.319A.3.3,0,0,1,603.315,107.253Z" transform="translate(-560.587 -65.531)" fill="#ff7302"/>
        <path id="Trazado_117908" data-name="Trazado 117908" d="M605.953,98.919h-.011a.3.3,0,0,1-.288-.309,4.954,4.954,0,0,1,1.2-3.054.3.3,0,1,1,.453.389,4.365,4.365,0,0,0-1.053,2.684A.3.3,0,0,1,605.953,98.919Z" transform="translate(-558.91 -70.458)" fill="#ff7302"/>
        <path id="Trazado_117909" data-name="Trazado 117909" d="M644.761,113.634c.62,5.892.741,12.41.741,12.41H595.234a59.444,59.444,0,0,1-1.664-8.219,3.851,3.851,0,0,1,2.81-4.245,26.713,26.713,0,0,1,3.787-.679s-4.107-2.251-2.758-4.333c0,0,2.426,1.068,4.612,1.876a7.031,7.031,0,0,1,3.8,3.363c.78,1.5,1.546,2.694,1.546,2.694l22.677-1.688s-.085-3.347,4.559-6.274A6.717,6.717,0,0,1,644.761,113.634Z" transform="translate(-566.612 -62.775)" fill="#ffb8a6"/>
        <path id="Trazado_117910" data-name="Trazado 117910" d="M594.748,114.333a.3.3,0,0,1-.069-.589l3.039-.723a.3.3,0,1,1,.139.581l-3.039.723A.251.251,0,0,1,594.748,114.333Z" transform="translate(-566.033 -59.295)" fill="#ff7302"/>
        <path id="Trazado_117911" data-name="Trazado 117911" d="M594.972,115.785a.3.3,0,0,1-.069-.59l3.039-.723a.3.3,0,1,1,.141.581l-3.041.725A.33.33,0,0,1,594.972,115.785Z" transform="translate(-565.89 -58.373)" fill="#ff7302"/>
        <path id="Trazado_117912" data-name="Trazado 117912" d="M595.225,117.235a.3.3,0,0,1-.07-.589l3.037-.725a.3.3,0,0,1,.361.222.3.3,0,0,1-.222.36l-3.037.723A.247.247,0,0,1,595.225,117.235Z" transform="translate(-565.731 -57.452)" fill="#ff7302"/>
        <path id="Trazado_117913" data-name="Trazado 117913" d="M621,115.5a.3.3,0,0,1-.245-.128,6.5,6.5,0,0,0-3.983-2.637.3.3,0,0,1-.229-.353.3.3,0,0,1,.355-.231,7.092,7.092,0,0,1,4.347,2.877.3.3,0,0,1-.075.417A.3.3,0,0,1,621,115.5Z" transform="translate(-551.993 -59.845)" fill="#ff7302"/>
        <path id="Trazado_117914" data-name="Trazado 117914" d="M653.8,125.773a.3.3,0,0,1-.286-.218L649.3,110.589c-2.841-7.374-9.448-5.561-9.518-5.545l-3.572.885a.287.287,0,0,1-.361-.216.3.3,0,0,1,.217-.363l3.563-.882c.06-.025,7.2-1.968,10.236,5.933l4.226,14.994a.3.3,0,0,1-.206.366A.29.29,0,0,1,653.8,125.773Z" transform="translate(-539.725 -64.871)" fill="#232997"/>
        <path id="Trazado_117915" data-name="Trazado 117915" d="M651.713,123.637H587.844a.3.3,0,0,1,0-.6h63.869a.3.3,0,0,1,0,.6Z" transform="translate(-570.421 -52.923)" fill="#fff"/>
        <path id="Trazado_117916" data-name="Trazado 117916" d="M644.969,123.637h-8.834a.3.3,0,0,1,0-.6h8.834a.3.3,0,0,1,0,.6Z" transform="translate(-539.725 -52.923)" fill="#fff"/>
        <path id="Trazado_117917" data-name="Trazado 117917" d="M610.156,116.76l-.033,0a.3.3,0,0,1-.263-.33l1.323-11.744a.3.3,0,0,1,.594.069l-1.325,11.744A.3.3,0,0,1,610.156,116.76Z" transform="translate(-556.238 -64.757)" fill="#232997"/>
        <path id="Trazado_117918" data-name="Trazado 117918" d="M595.007,122.13a.3.3,0,0,1-.289-.226,61.646,61.646,0,0,1-1.328-6.969,4.26,4.26,0,0,1,.522-2.64.293.293,0,0,1,.406-.111.3.3,0,0,1,.111.407,3.656,3.656,0,0,0-.445,2.269,60.644,60.644,0,0,0,1.313,6.9.3.3,0,0,1-.216.361A.227.227,0,0,1,595.007,122.13Z" transform="translate(-566.728 -59.848)" fill="#fff"/>
        <path id="Trazado_117919" data-name="Trazado 117919" d="M595.263,117.8a.3.3,0,0,1-.27-.172,38.252,38.252,0,0,1-3.623-13.363,3.429,3.429,0,0,1,1.2-2.856,3.589,3.589,0,0,1,3.1-.782.3.3,0,0,1,.226.36.3.3,0,0,1-.357.224,2.991,2.991,0,0,0-2.578.653,2.793,2.793,0,0,0-.99,2.36,37.637,37.637,0,0,0,3.567,13.151.3.3,0,0,1-.146.4A.307.307,0,0,1,595.263,117.8Z" transform="translate(-567.995 -67.219)" fill="#ff7302"/>
        <path id="Trazado_117920" data-name="Trazado 117920" d="M631.431,126.457a.3.3,0,0,1-.3-.293c0-.065-.129-6.574-.739-12.385a6.482,6.482,0,0,0-3.651-5.18,6.2,6.2,0,0,0-6.049.307c-4.426,2.79-4.421,5.983-4.421,6.016a.3.3,0,0,1-.293.3c-.137.028-.3-.124-.306-.291,0-.144-.033-3.551,4.7-6.536a6.8,6.8,0,0,1,6.628-.34,7.084,7.084,0,0,1,3.983,5.658c.613,5.838.739,12.37.743,12.434a.3.3,0,0,1-.294.306Z" transform="translate(-552.541 -62.89)" fill="#232997"/>
        <path id="Trazado_117921" data-name="Trazado 117921" d="M611.332,112.89a.3.3,0,0,1-.021-.6l5.268-.383a.294.294,0,0,1,.321.276.3.3,0,0,1-.278.319l-5.268.383Z" transform="translate(-555.492 -59.996)" fill="#fff"/>
      </g>
    </g>
  </g>
</svg>
