<svg xmlns="http://www.w3.org/2000/svg" xmlns:xlink="http://www.w3.org/1999/xlink" width="113" height="113" viewBox="0 0 113 113">
  <defs>
    <clipPath id="clip-path">
      <rect id="Rectángulo_34622" data-name="Rectángulo 34622" width="113" height="113" transform="translate(324 985)" fill="#fff"/>
    </clipPath>
  </defs>
  <g id="_8" data-name="8" transform="translate(-324 -985)" clip-path="url(#clip-path)">
    <g id="peine" transform="translate(331.291 985)">
      <g id="Grupo_83751" data-name="Grupo 83751">
        <g id="Grupo_83741" data-name="Grupo 83741">
          <path id="Trazado_117922" data-name="Trazado 117922" d="M41.919,74.726V92.952L38.274,96.6H23.694l-1.51-2.267a12.708,12.708,0,0,1,1.588-16.036l3.568-3.568Z" fill="#fcd770"/>
        </g>
        <g id="Grupo_83742" data-name="Grupo 83742">
          <path id="Trazado_117923" data-name="Trazado 117923" d="M36.452,60.145a3.644,3.644,0,0,1-3.645,3.645H22.062A10.934,10.934,0,0,0,11.87,70.762L8.628,79.1A11.878,11.878,0,0,1,7.461,64.444l4.044-6.065A29.16,29.16,0,0,0,16.4,42.2v-5.75a5.468,5.468,0,0,0,5.468,5.468h1.823v3.515A14.858,14.858,0,0,0,36.452,60.145Z" fill="#b27946"/>
        </g>
        <g id="Grupo_83743" data-name="Grupo 83743">
          <path id="Trazado_117924" data-name="Trazado 117924" d="M60.145,34.629a7.291,7.291,0,0,0-7.29-7.29H38.274a7.276,7.276,0,0,1-5.907-3.019h0a16.985,16.985,0,0,0-8.671,6.664H21.871A5.469,5.469,0,0,0,16.4,36.452V23.694A21.871,21.871,0,0,1,38.274,1.823h7.29A25.515,25.515,0,0,1,71.081,27.339V52.855H67.435A3.644,3.644,0,0,0,63.79,56.5v7.29a3.644,3.644,0,0,0,3.645,3.645h3.645v9.425a12.447,12.447,0,0,1-3.645,8.8l1.711,1.711a6.609,6.609,0,0,1,1.934,4.682v.068a6.4,6.4,0,0,1-1.875,4.527l-3.593,3.593a6.224,6.224,0,0,1,1.823,4.4,6.534,6.534,0,0,1-6.536,6.536,8.045,8.045,0,0,1-8.044-8.044V96.6a3.644,3.644,0,0,0-3.645-3.645h5.468A1.822,1.822,0,0,0,56.5,91.129V65.613a1.822,1.822,0,0,0-1.823-1.823H51.032a3.64,3.64,0,0,1-3.645-3.645A14.86,14.86,0,0,0,60.145,45.435Z" fill="#b27946"/>
        </g>
        <g id="Grupo_83744" data-name="Grupo 83744">
          <path id="Trazado_117925" data-name="Trazado 117925" d="M49.21,104.616v2.916a3.645,3.645,0,1,1-7.29,0v-1.458Z" fill="#aab2bd"/>
        </g>
        <g id="Grupo_83745" data-name="Grupo 83745">
          <path id="Trazado_117926" data-name="Trazado 117926" d="M49.21,63.79V92.952h-7.29V65.613a1.822,1.822,0,0,1,1.823-1.823Z" fill="#aab2bd"/>
        </g>
        <g id="Grupo_83746" data-name="Grupo 83746">
          <path id="Trazado_117927" data-name="Trazado 117927" d="M56.5,65.613V91.129a1.822,1.822,0,0,1-1.823,1.823H49.21V63.79h5.468A1.822,1.822,0,0,1,56.5,65.613Z" fill="#ccd1d9"/>
        </g>
        <g id="Grupo_83747" data-name="Grupo 83747">
          <path id="Trazado_117928" data-name="Trazado 117928" d="M23.694,96.6H38.274l3.645-3.645h7.29A3.644,3.644,0,0,1,52.855,96.6v4.3a3.643,3.643,0,0,1-2.93,3.575l-.715.144-7.29,1.458-23.258,4.652a23.228,23.228,0,0,1-4.561.451A12.283,12.283,0,0,1,2.032,96.636a12.385,12.385,0,0,1,.624-2.185L8.628,79.1l3.242-8.336A10.934,10.934,0,0,1,22.062,63.79h5.276V74.726l-3.568,3.568A12.7,12.7,0,0,0,22.183,94.33Z" fill="#f0d0b4"/>
        </g>
        <g id="Grupo_83748" data-name="Grupo 83748">
          <path id="Trazado_117929" data-name="Trazado 117929" d="M71.081,67.435H67.435A3.644,3.644,0,0,1,63.79,63.79V56.5a3.644,3.644,0,0,1,3.645-3.645h3.645V49.21h3.053a3.645,3.645,0,0,1,3.356,2.226l18.148,42.9a12.119,12.119,0,0,1-11.163,16.845A16.491,16.491,0,0,1,73.737,107.2l-8.124-6.962,3.593-3.593a6.4,6.4,0,0,0,1.875-4.527v-.068a6.609,6.609,0,0,0-1.934-4.682l-1.711-1.711a12.447,12.447,0,0,0,3.645-8.8Z" fill="#f0d0b4"/>
        </g>
        <g id="Grupo_83749" data-name="Grupo 83749">
          <path id="Trazado_117930" data-name="Trazado 117930" d="M48.453,62.724a3.642,3.642,0,0,0,2.579,1.066h-7.29a1.822,1.822,0,0,0-1.823,1.823v9.113H27.339V63.79h5.468a3.644,3.644,0,0,0,3.645-3.645A14.858,14.858,0,0,1,23.694,45.435V30.984a16.985,16.985,0,0,1,8.671-6.664h0a7.276,7.276,0,0,0,5.907,3.019H52.855a7.291,7.291,0,0,1,7.29,7.29V45.435A14.86,14.86,0,0,1,47.387,60.145,3.642,3.642,0,0,0,48.453,62.724Z" fill="#f0d0b4"/>
        </g>
        <g id="Grupo_83750" data-name="Grupo 83750">
          <path id="Trazado_117931" data-name="Trazado 117931" d="M23.694,30.984V41.919H21.871a5.468,5.468,0,0,1,0-10.935Z" fill="#f0d0b4"/>
        </g>
      </g>
      <g id="Grupo_83752" data-name="Grupo 83752">
        <path id="Trazado_117932" data-name="Trazado 117932" d="M34.629,40.1A5.474,5.474,0,0,0,40.1,34.629V32.806H36.452v1.823a1.823,1.823,0,1,1-3.645,0V32.806H29.161v1.823A5.474,5.474,0,0,0,34.629,40.1Z"/>
        <path id="Trazado_117933" data-name="Trazado 117933" d="M49.21,40.1a5.474,5.474,0,0,0,5.468-5.468V32.806H51.032v1.823a1.823,1.823,0,0,1-3.645,0V32.806H43.742v1.823A5.474,5.474,0,0,0,49.21,40.1Z"/>
        <path id="Trazado_117934" data-name="Trazado 117934" d="M36.452,47.091l-.094-.28L32.9,47.964l.094.28a9.409,9.409,0,0,0,17.852,0l.094-.28L47.481,46.81l-.094.281a5.763,5.763,0,0,1-10.935,0Z"/>
        <path id="Trazado_117935" data-name="Trazado 117935" d="M97.317,93.622l-18.149-42.9a5.458,5.458,0,0,0-5.036-3.337H72.9V27.339A27.37,27.37,0,0,0,45.565,0h-7.29A23.72,23.72,0,0,0,14.581,23.694V42.2A27.252,27.252,0,0,1,9.989,57.368L5.946,63.433a13.694,13.694,0,0,0,.591,16.013L.959,93.79A14.1,14.1,0,0,0,14.1,113a25.129,25.129,0,0,0,4.919-.487l21.131-4.226a5.467,5.467,0,0,0,10.882-.755v-1.484q.2-.071.4-.158A9.883,9.883,0,0,0,60.9,113a8.369,8.369,0,0,0,8.288-7.293l3.363,2.882A18.334,18.334,0,0,0,84.475,113,13.945,13.945,0,0,0,97.317,93.622ZM38.274,29.161H52.855a5.474,5.474,0,0,1,5.468,5.468V45.435A13.1,13.1,0,0,1,47.129,58.341l-1.565.223v1.581a5.442,5.442,0,0,0,.313,1.823H43.742A3.649,3.649,0,0,0,40.1,65.613V72.9H29.161v-7.29h3.645a5.474,5.474,0,0,0,5.468-5.468V58.565l-1.565-.223A13.1,13.1,0,0,1,25.516,45.435V31.556a15.28,15.28,0,0,1,6.309-5.075,9.084,9.084,0,0,0,6.449,2.681Zm9.113,36.452V91.129H43.742V65.613Zm3.645,25.516V87.484h3.645v3.645Zm3.645-7.29H51.032V80.194h3.645Zm0-7.29H51.032V72.9h3.645Zm0-7.29H51.032V65.613h3.645ZM24.669,94.774,23.7,93.32a10.888,10.888,0,0,1,1.36-13.738l3.034-3.034h12V92.2l-2.578,2.578ZM21.871,40.1a3.645,3.645,0,0,1,0-7.29ZM7.29,71.031a10.023,10.023,0,0,1,1.688-5.577l4.043-6.065a30.876,30.876,0,0,0,5.194-16.634,7.242,7.242,0,0,0,3.655.987v1.693A16.682,16.682,0,0,0,34.032,61.493a1.817,1.817,0,0,1-1.226.475H22.061A12.678,12.678,0,0,0,10.171,70.1l-1.98,5.09a10.036,10.036,0,0,1-.9-4.161ZM18.3,108.938a21.472,21.472,0,0,1-4.2.416A10.455,10.455,0,0,1,4.356,95.111l9.212-23.688a9.056,9.056,0,0,1,8.493-5.81h3.455v8.358L22.482,77a14.528,14.528,0,0,0-2.174,17.769H16.09a5.432,5.432,0,0,0-3.866,1.6L9.647,98.953l2.577,2.577L14.8,98.953a1.811,1.811,0,0,1,1.289-.534H39.029l3.645-3.645H49.21A1.825,1.825,0,0,1,51.032,96.6v4.3a1.827,1.827,0,0,1-1.465,1.787Zm27.26.416a1.824,1.824,0,0,1-1.821-1.787l3.643-.729v.693A1.825,1.825,0,0,1,45.565,109.355Zm15.335,0a6.23,6.23,0,0,1-6.223-6.223V96.6a5.442,5.442,0,0,0-.313-1.823h.313a3.649,3.649,0,0,0,3.645-3.645V65.613a3.649,3.649,0,0,0-3.645-3.645H51.032a1.816,1.816,0,0,1-1.226-.475A16.681,16.681,0,0,0,61.968,45.435V20.909a14.929,14.929,0,0,0-8.3-13.426l-1.63,3.26a11.3,11.3,0,0,1,6.279,9.942,16.377,16.377,0,0,0-12.754-6.1H40.1v3.645h5.468a12.777,12.777,0,0,1,12.076,8.653,9.057,9.057,0,0,0-4.786-1.362H38.274a5.474,5.474,0,0,1-5.468-5.468V14.581H29.161v5.468A9.061,9.061,0,0,0,29.8,23.4a18.966,18.966,0,0,0-4.286,2.8V18.226H21.871V29.161a7.243,7.243,0,0,0-3.645.981V23.694A20.071,20.071,0,0,1,38.274,3.645h7.29A23.72,23.72,0,0,1,69.258,27.339V51.032H67.435A5.474,5.474,0,0,0,61.968,56.5v7.29a5.474,5.474,0,0,0,5.468,5.468h1.823v7.6a10.553,10.553,0,0,1-3.111,7.512l-1.289,1.289,3,3a4.763,4.763,0,0,1,1.4,3.392v.069a4.551,4.551,0,0,1-1.341,3.238l-4.881,4.881,1.289,1.289a4.371,4.371,0,0,1,1.289,3.111,4.718,4.718,0,0,1-4.713,4.713Zm23.575,0a14.687,14.687,0,0,1-9.552-3.534l-6.629-5.682,2.2-2.2A8.171,8.171,0,0,0,72.9,92.122v-.069a8.384,8.384,0,0,0-2.467-5.969l-.5-.5A14.16,14.16,0,0,0,72.9,76.861v-7.6h.265l5.225,33.091,3.6-.568L76.617,67.728l1.561-3.123-3.26-1.63L73.6,65.613H67.435a1.825,1.825,0,0,1-1.823-1.823V56.5a1.825,1.825,0,0,1,1.823-1.823H72.9V51.032h1.229a1.819,1.819,0,0,1,1.679,1.112l18.149,42.9a10.3,10.3,0,0,1-9.485,14.313Z"/>
      </g>
    </g>
  </g>
</svg>
