<svg xmlns="http://www.w3.org/2000/svg" xmlns:xlink="http://www.w3.org/1999/xlink" width="113" height="113" viewBox="0 0 113 113">
  <defs>
    <clipPath id="clip-path">
      <rect id="Rect치ngulo_34623" data-name="Rect치ngulo 34623" width="113" height="113" transform="translate(744 985)" fill="#fff"/>
    </clipPath>
  </defs>
  <g id="_9" data-name="9" transform="translate(-744 -985)" clip-path="url(#clip-path)">
    <g id="jardin" transform="translate(744 985)">
      <g id="Grupo_83793" data-name="Grupo 83793">
        <g id="Grupo_83755" data-name="Grupo 83755">
          <g id="Grupo_83754" data-name="Grupo 83754">
            <path id="Trazado_117936" data-name="Trazado 117936" d="M2.219,101.808H71.135A13.611,13.611,0,0,0,57.524,88.2H2.219Z" fill="#c36f46"/>
          </g>
        </g>
        <g id="Grupo_83757" data-name="Grupo 83757">
          <g id="Grupo_83756" data-name="Grupo 83756">
            <path id="Trazado_117937" data-name="Trazado 117937" d="M57.525,88.2H52.416a13.611,13.611,0,0,1,13.611,13.611h5.109A13.611,13.611,0,0,0,57.525,88.2Z" fill="#b75423"/>
          </g>
        </g>
        <g id="Grupo_83759" data-name="Grupo 83759">
          <g id="Grupo_83758" data-name="Grupo 83758">
            <rect id="Rect치ngulo_34625" data-name="Rect치ngulo 34625" width="6.615" height="12.597" transform="matrix(0.928, -0.373, 0.373, 0.928, 49.219, 24.006)" fill="#4890e3"/>
          </g>
        </g>
        <g id="Grupo_83761" data-name="Grupo 83761">
          <g id="Grupo_83760" data-name="Grupo 83760">
            <path id="Trazado_117938" data-name="Trazado 117938" d="M68.825,17.193l7.55,18.4c2.963,4.2,8.553,5.4,12.423,2.668l15.191-10.719c3.87-2.731,4.613-8.4,1.65-12.6L90.83,1.666Z" fill="#0075ff"/>
          </g>
        </g>
        <g id="Grupo_83763" data-name="Grupo 83763">
          <g id="Grupo_83762" data-name="Grupo 83762">
            <path id="Trazado_117939" data-name="Trazado 117939" d="M71.313,24.382H56.66l2.463,6.776H73.948Z" fill="#0075ff"/>
          </g>
        </g>
        <g id="Grupo_83765" data-name="Grupo 83765">
          <g id="Grupo_83764" data-name="Grupo 83764">
            <path id="Trazado_117940" data-name="Trazado 117940" d="M87.111,111.334H2.512V97.723H73.5a13.611,13.611,0,0,1,13.611,13.611Z" fill="#d47a3d"/>
          </g>
        </g>
        <g id="Grupo_83767" data-name="Grupo 83767">
          <g id="Grupo_83766" data-name="Grupo 83766">
            <path id="Trazado_117941" data-name="Trazado 117941" d="M42.376,33.484a3.515,3.515,0,0,1-7.031,0c0-1.941,3.515-7.77,3.515-7.77S42.376,31.543,42.376,33.484Z" fill="#1bacd6"/>
          </g>
        </g>
        <g id="Grupo_83769" data-name="Grupo 83769">
          <g id="Grupo_83768" data-name="Grupo 83768">
            <path id="Trazado_117942" data-name="Trazado 117942" d="M33.408,60.113H32.2a3.367,3.367,0,0,1-3.368-3.368V44.833h0a7.94,7.94,0,0,1,7.94,7.94v3.973A3.368,3.368,0,0,1,33.408,60.113Z" fill="#f45a3c"/>
          </g>
        </g>
        <g id="Grupo_83771" data-name="Grupo 83771">
          <g id="Grupo_83770" data-name="Grupo 83770">
            <path id="Trazado_117943" data-name="Trazado 117943" d="M40.143,60.113h1.205a3.367,3.367,0,0,0,3.368-3.368V44.833h0a7.94,7.94,0,0,0-7.94,7.94v3.973A3.367,3.367,0,0,0,40.143,60.113Z" fill="#f45a3c"/>
          </g>
        </g>
        <g id="Grupo_83773" data-name="Grupo 83773">
          <g id="Grupo_83772" data-name="Grupo 83772">
            <path id="Trazado_117944" data-name="Trazado 117944" d="M28.836,57.979V62.7a7.744,7.744,0,0,0,7.721,7.721h.438A7.744,7.744,0,0,0,44.716,62.7V57.979Z" fill="#66ab53"/>
          </g>
        </g>
        <g id="Grupo_83775" data-name="Grupo 83775">
          <g id="Grupo_83774" data-name="Grupo 83774">
            <path id="Trazado_117945" data-name="Trazado 117945" d="M105.639,14.948,90.83,1.666,87.97,3.684l12.56,11.264c2.963,4.2,2.22,9.868-1.65,12.6L83.689,38.266a7.921,7.921,0,0,1-2.169,1.075A8.349,8.349,0,0,0,88.8,38.266l15.191-10.719C107.859,24.816,108.6,19.146,105.639,14.948Z" fill="#2052e0"/>
          </g>
        </g>
        <g id="Grupo_83777" data-name="Grupo 83777">
          <g id="Grupo_83776" data-name="Grupo 83776">
            <path id="Trazado_117946" data-name="Trazado 117946" d="M73.5,97.723H68.391A13.611,13.611,0,0,1,82,111.334h5.109A13.611,13.611,0,0,0,73.5,97.723Z" fill="#b75423"/>
          </g>
        </g>
        <g id="Grupo_83779" data-name="Grupo 83779">
          <g id="Grupo_83778" data-name="Grupo 83778">
            <path id="Trazado_117947" data-name="Trazado 117947" d="M39.607,57.979V62.7a7.751,7.751,0,0,1-5.386,7.357,7.654,7.654,0,0,0,2.335.364h.438A7.744,7.744,0,0,0,44.716,62.7V57.979Z" fill="#008653"/>
          </g>
        </g>
        <g id="Grupo_83781" data-name="Grupo 83781">
          <g id="Grupo_83780" data-name="Grupo 83780">
            <path id="Trazado_117948" data-name="Trazado 117948" d="M60.841,64.427a3.515,3.515,0,0,1-7.031,0c0-1.941,3.515-7.77,3.515-7.77S60.841,62.486,60.841,64.427Z" fill="#1bacd6"/>
          </g>
        </g>
        <g id="Grupo_83783" data-name="Grupo 83783">
          <g id="Grupo_83782" data-name="Grupo 83782">
            <path id="Trazado_117949" data-name="Trazado 117949" d="M16.464,52.6a3.515,3.515,0,1,1-7.031,0c0-1.941,3.515-7.769,3.515-7.769S16.464,50.66,16.464,52.6Z" fill="#1bacd6"/>
          </g>
        </g>
        <g id="Grupo_83785" data-name="Grupo 83785">
          <g id="Grupo_83784" data-name="Grupo 83784">
            <path id="Trazado_117950" data-name="Trazado 117950" d="M35.345,89.168c-2.494.4-5.932-1.026-9.431-4.525-4.772-4.772-4.463-12.819-4.463-12.819s8.046-.309,12.819,4.463a22.169,22.169,0,0,1,2.1,2.405" fill="#accd51"/>
          </g>
        </g>
        <g id="Grupo_83787" data-name="Grupo 83787">
          <g id="Grupo_83786" data-name="Grupo 83786">
            <path id="Trazado_117951" data-name="Trazado 117951" d="M34.269,76.286c-4.772-4.772-12.819-4.463-12.819-4.463s-.008.2,0,.545a15.649,15.649,0,0,1,7.712,3.918,22.149,22.149,0,0,1,2.1,2.405l-.911,9.345a8.135,8.135,0,0,0,5,1.131l1.021-10.476A22.172,22.172,0,0,0,34.269,76.286Z" fill="#66ab53"/>
          </g>
        </g>
        <g id="Grupo_83789" data-name="Grupo 83789">
          <g id="Grupo_83788" data-name="Grupo 83788">
            <path id="Trazado_117952" data-name="Trazado 117952" d="M44.8,86.161c-3.813,3.813-7.533,4.544-9.377,2.7s-1.113-5.564,2.7-9.377,10.243-3.566,10.243-3.566S48.614,82.348,44.8,86.161Z" fill="#accd51"/>
          </g>
        </g>
        <g id="Grupo_83791" data-name="Grupo 83791">
          <g id="Grupo_83790" data-name="Grupo 83790">
            <path id="Trazado_117953" data-name="Trazado 117953" d="M48.367,75.918a18.03,18.03,0,0,0-5.114.7c-.058,1.767-.509,6.49-3.561,9.542a14.646,14.646,0,0,1-4,2.94c1.921,1.527,5.47.695,9.1-2.94C48.614,82.348,48.367,75.918,48.367,75.918Z" fill="#66ab53"/>
          </g>
        </g>
        <g id="Grupo_83792" data-name="Grupo 83792">
          <path id="Trazado_117954" data-name="Trazado 117954" d="M38.86,38.666a5.187,5.187,0,0,0,5.181-5.181c0-2.232-2.874-7.17-3.755-8.63a1.666,1.666,0,0,0-2.853,0c-.881,1.46-3.755,6.4-3.755,8.63A5.187,5.187,0,0,0,38.86,38.666Zm0-9.565a16.852,16.852,0,0,1,1.849,4.384,1.849,1.849,0,0,1-3.7,0A16.86,16.86,0,0,1,38.861,29.1Z"/>
          <path id="Trazado_117955" data-name="Trazado 117955" d="M62.507,64.427c0-2.232-2.874-7.17-3.755-8.63a1.666,1.666,0,0,0-2.853,0c-.881,1.46-3.755,6.4-3.755,8.63a5.181,5.181,0,1,0,10.363,0Zm-7.031,0a16.876,16.876,0,0,1,1.85-4.384,16.847,16.847,0,0,1,1.849,4.384,1.849,1.849,0,0,1-3.7,0Z"/>
          <path id="Trazado_117956" data-name="Trazado 117956" d="M12.949,57.784A5.187,5.187,0,0,0,18.13,52.6c0-2.232-2.874-7.17-3.755-8.63a1.666,1.666,0,0,0-2.853,0c-.881,1.46-3.755,6.4-3.755,8.63A5.187,5.187,0,0,0,12.949,57.784Zm0-9.565A16.869,16.869,0,0,1,14.8,52.6a1.849,1.849,0,0,1-3.7,0A16.877,16.877,0,0,1,12.949,48.219Z"/>
          <path id="Trazado_117957" data-name="Trazado 117957" d="M109.464,3.707A10.289,10.289,0,0,0,95,3.169L91.942.426A1.666,1.666,0,0,0,89.869.3l-22,15.527a1.666,1.666,0,0,0-.581,1.993l2.006,4.89H57.622l-.721-1.8A1.666,1.666,0,0,0,54.733,20L48.6,22.462a1.666,1.666,0,0,0-.925,2.167l4.7,11.689a1.666,1.666,0,0,0,2.167.925l6.138-2.466a1.665,1.665,0,0,0,.993-1.953h11.77l1.4,3.407a1.666,1.666,0,0,0,.18.328,11.348,11.348,0,0,0,6.883,4.6,10.63,10.63,0,0,0,2.232.24,9.7,9.7,0,0,0,5.63-1.773l15.191-10.719a10.275,10.275,0,0,0,3.938-10.591c.033-.026.065-.053.1-.082a10.3,10.3,0,0,0,.481-14.528ZM54.839,33.53l-3.455-8.6,3.046-1.224,2.217,5.516.909,2.5a1.658,1.658,0,0,0,.3.508l.029.071Zm5.506-4.038-.585-1.456-.722-1.987H70.174l1.339,3.443Zm42.683-3.306L87.838,36.9a6.582,6.582,0,0,1-5.242,1,8.011,8.011,0,0,1-4.755-3.118L70.87,17.789l19.835-14L104.38,16.057C106.7,19.5,106.113,24.009,103.028,26.186Zm4.524-11.337c-.17-.292-.353-.58-.552-.862a1.664,1.664,0,0,0-.249-.28L97.5,5.408a6.945,6.945,0,0,1,10.055,9.441Z"/>
        </g>
      </g>
      <path id="Trazado_117958" data-name="Trazado 117958" d="M73.5,96.057H71.682a15.208,15.208,0,0,0-14.158-9.525H46.71c3.522-4.287,3.333-10.4,3.322-10.677a1.666,1.666,0,0,0-1.6-1.6c-.264-.009-5.958-.187-10.209,2.957V72a9.4,9.4,0,0,0,8.159-9.3V44.832a1.666,1.666,0,0,0-1.666-1.666,9.6,9.6,0,0,0-7.94,4.207,9.6,9.6,0,0,0-7.94-4.207,1.666,1.666,0,0,0-1.666,1.666v12.8a1.677,1.677,0,0,1,0,.345v4.716a9.4,9.4,0,0,0,7.721,9.236v2.654c-5.25-4.683-13.158-4.44-13.5-4.426a1.666,1.666,0,0,0-1.6,1.6c-.014.358-.277,8.834,4.95,14.06.246.246.494.482.742.711H2.441A1.666,1.666,0,0,0,.775,88.2l0,23.136A1.666,1.666,0,0,0,2.438,113H44.69a1.666,1.666,0,1,0,0-3.332H4.1V99.389h7.5a1.666,1.666,0,1,0,0-3.332h-7.5V89.864H30.223l.046,0A10.082,10.082,0,0,0,34.5,90.9h.071a1.673,1.673,0,0,0,.321-.035v5.193H18.269a1.666,1.666,0,0,0,0,3.332H73.5a11.963,11.963,0,0,1,11.829,10.278H51.354a1.666,1.666,0,1,0,0,3.332H87.111a1.666,1.666,0,0,0,1.666-1.666A15.294,15.294,0,0,0,73.5,96.057ZM38.442,52.773a6.285,6.285,0,0,1,4.608-6.05v9.59H38.442Zm-7.94-6.05a6.286,6.286,0,0,1,4.608,6.05v3.541H30.5Zm0,15.972v-3.05H43.05V62.7a6.062,6.062,0,0,1-6.055,6.055h-.438A6.062,6.062,0,0,1,30.5,62.7Zm2.54,21.794a6.8,6.8,0,0,0-.176,2.82,14.766,14.766,0,0,1-5.774-3.844c-2.963-2.963-3.725-7.5-3.916-9.92,2.417.187,6.939.943,9.916,3.92a20.558,20.558,0,0,1,1.94,2.224,1.662,1.662,0,0,0,.365.358A12.446,12.446,0,0,0,33.041,84.489ZM36.6,87.683a2.441,2.441,0,0,1-.338-2.35A11.188,11.188,0,0,1,39.3,80.662c2.142-2.142,5.365-2.8,7.317-3-.2,1.953-.855,5.176-3,7.317a11.185,11.185,0,0,1-4.671,3.038A2.44,2.44,0,0,1,36.6,87.683Zm1.62,8.374v-4.57a7.557,7.557,0,0,0,1.574-.243,11.112,11.112,0,0,0,3.071-1.38H57.525A11.891,11.891,0,0,1,68,96.057Z"/>
    </g>
  </g>
</svg>
