<svg xmlns="http://www.w3.org/2000/svg" width="142.032" height="138.571" viewBox="0 0 142.032 138.571">
  <g id="Grupo_85041" data-name="Grupo 85041" transform="translate(-1322.301 -191.57)">
    <g id="Grupo_84986" data-name="Grupo 84986" transform="translate(-581.215 -2853.427) rotate(42)">
      <path id="Trazado_118805" data-name="Trazado 118805" d="M3593.166,1018.12a35.137,35.137,0,0,0-2.113-6.9,18,18,0,0,0-3.853-5.727,7.66,7.66,0,0,0-5.1-2.224c-.6-.031-1.205-.05-1.847-.076.04-.205.075-.359.1-.515a11.882,11.882,0,0,0,.3-1.9,1.847,1.847,0,0,0-.169-.937.748.748,0,0,0-1.276-.176,1.954,1.954,0,0,0-.5,1.028,14.7,14.7,0,0,0-.4,2.47.433.433,0,0,1-.386.464c-.466.109-.478.115-.715-.248-.035-.054-.066-.11-.1-.164a6.044,6.044,0,0,0-2.973-2.353,11.549,11.549,0,0,0-5.881-.611,3.84,3.84,0,0,0-1.816.592.743.743,0,0,1-.737.061,2.606,2.606,0,0,1-.681-.349,4.614,4.614,0,0,1-1.692-2.834,1.04,1.04,0,0,1,.469-1.087,1.755,1.755,0,0,1,.6-.286,9.686,9.686,0,0,1,1.325-.24,25.208,25.208,0,0,0,4.911-.964,17.458,17.458,0,0,0,10.034-7.674,23.9,23.9,0,0,0,2.845-6.512,41.06,41.06,0,0,0,1.374-10.3,1.288,1.288,0,0,1,.387-1.028,4.945,4.945,0,0,0,.966-1.432,12.288,12.288,0,0,0,1.136-3.866,17.48,17.48,0,0,0-.144-4.995,30.113,30.113,0,0,0-5.875-13.777A25.084,25.084,0,0,0,3569.946,937a35.038,35.038,0,0,0-11.879-2.242,33.591,33.591,0,0,0-10.176,1.451,31.129,31.129,0,0,0-7.789,3.563c-.1-.129-.156-.2-.208-.281a2.131,2.131,0,0,0-1.592-.97c-.127-.016-.254-.044-.382-.056-.236-.022-.311-.157-.337-.381a3.187,3.187,0,0,0-1.2-2.024,6.158,6.158,0,0,0-2.55-1.309,11.129,11.129,0,0,0-4.879-.125,16.077,16.077,0,0,0-6.646,2.935,20.7,20.7,0,0,0-6.752,8.517,31.464,31.464,0,0,0-2.647,12.652,41.253,41.253,0,0,0,1.022,9.281,72.337,72.337,0,0,0,2.873,9.494c1.388,3.77,2.966,7.464,4.455,11.194a75.483,75.483,0,0,1,3.079,8.923,25.354,25.354,0,0,1,.882,8.5,14.106,14.106,0,0,1-1.531,5.536,8.609,8.609,0,0,1-1.936,2.5,5.084,5.084,0,0,1-4.382,1.262,6.706,6.706,0,0,1-1.551-.514,6.184,6.184,0,0,0-.9-.337.967.967,0,0,0-1.282,1.083,1.747,1.747,0,0,0,.135.557,10.254,10.254,0,0,0,.558,1.118,16.468,16.468,0,0,0,2.931,3.568,16.252,16.252,0,0,0,9.725,4.451,11.065,11.065,0,0,0,3.823-.353c.371-.095.7-.5,1.05-.367.334.122.579.49.864.75a.878.878,0,0,0,.076.059.316.316,0,0,1,.065.5,5.387,5.387,0,0,0-.809,2.249c-.078.443-.116.893-.167,1.34a13.456,13.456,0,0,0,.284,4.885,11.619,11.619,0,0,0,6.179,7.958,17.019,17.019,0,0,0,1.6.677,19.669,19.669,0,0,0,4.6,1.037,27.018,27.018,0,0,0,7.31-.021c1.144-.169,2.285-.365,3.424-.567a.528.528,0,0,1,.644.261,5.39,5.39,0,0,0,1.607,1.642,11.434,11.434,0,0,0,2.011,1.135,17.2,17.2,0,0,0,5.6,1.323,32.247,32.247,0,0,0,9.017-.624,21.42,21.42,0,0,0,5.647-1.894,13.275,13.275,0,0,0,7.188-8.61q.312-1.163.625-2.326a.4.4,0,0,1,.476-.337,4.134,4.134,0,0,0,3.7-1.867,10.223,10.223,0,0,0,1.576-3.179,15.647,15.647,0,0,0,.529-4A29.709,29.709,0,0,0,3593.166,1018.12Z" transform="translate(-0.001 0)" fill="#fff" fill-rule="evenodd"/>
      <g id="Grupo_84985" data-name="Grupo 84985" transform="translate(3512.905 934.413)">
        <path id="Trazado_118806" data-name="Trazado 118806" d="M3540.1,939.768a31.131,31.131,0,0,1,7.789-3.563,33.594,33.594,0,0,1,10.176-1.451A35.039,35.039,0,0,1,3569.946,937a25.084,25.084,0,0,1,11.414,8.567,30.115,30.115,0,0,1,5.875,13.777,17.48,17.48,0,0,1,.144,4.995,12.3,12.3,0,0,1-1.136,3.866,4.944,4.944,0,0,1-.966,1.432,1.29,1.29,0,0,0-.387,1.028,41.049,41.049,0,0,1-1.374,10.3,23.893,23.893,0,0,1-2.846,6.512,17.459,17.459,0,0,1-10.034,7.674,25.211,25.211,0,0,1-4.911.964,9.682,9.682,0,0,0-1.325.24,1.757,1.757,0,0,0-.6.286,1.04,1.04,0,0,0-.469,1.087,4.614,4.614,0,0,0,1.692,2.834,2.61,2.61,0,0,0,.681.349.743.743,0,0,0,.738-.061,3.839,3.839,0,0,1,1.816-.592,11.547,11.547,0,0,1,5.881.611,6.042,6.042,0,0,1,2.973,2.353c.035.054.066.11.1.164.237.362.249.357.715.248a.433.433,0,0,0,.386-.464,14.647,14.647,0,0,1,.4-2.47,1.951,1.951,0,0,1,.5-1.028.748.748,0,0,1,1.276.176,1.847,1.847,0,0,1,.169.937,11.827,11.827,0,0,1-.3,1.9c-.025.156-.06.309-.1.515.641.026,1.244.044,1.847.076a7.66,7.66,0,0,1,5.1,2.224,18,18,0,0,1,3.852,5.727,35.12,35.12,0,0,1,2.112,6.9,29.7,29.7,0,0,1,.735,6.891,15.646,15.646,0,0,1-.528,4,10.239,10.239,0,0,1-1.576,3.179,4.135,4.135,0,0,1-3.7,1.867.4.4,0,0,0-.476.337q-.311,1.163-.625,2.326a13.274,13.274,0,0,1-7.188,8.61,21.43,21.43,0,0,1-5.647,1.894,32.246,32.246,0,0,1-9.017.624,17.2,17.2,0,0,1-5.6-1.323,11.425,11.425,0,0,1-2.011-1.135,5.388,5.388,0,0,1-1.607-1.642.528.528,0,0,0-.644-.261c-1.139.2-2.28.4-3.424.567a27.018,27.018,0,0,1-7.31.021,19.671,19.671,0,0,1-4.6-1.037,17.047,17.047,0,0,1-1.6-.677,11.62,11.62,0,0,1-6.179-7.958,13.444,13.444,0,0,1-.284-4.885c.051-.447.089-.9.167-1.34a5.393,5.393,0,0,1,.809-2.249.316.316,0,0,0-.065-.5.959.959,0,0,1-.076-.059c-.284-.26-.529-.628-.864-.75-.352-.129-.679.272-1.05.367a11.066,11.066,0,0,1-3.823.353,16.253,16.253,0,0,1-9.725-4.451,16.461,16.461,0,0,1-2.93-3.568,10.256,10.256,0,0,1-.559-1.118,1.74,1.74,0,0,1-.135-.557.967.967,0,0,1,1.282-1.083,6.181,6.181,0,0,1,.9.337,6.71,6.71,0,0,0,1.551.514,5.083,5.083,0,0,0,4.382-1.262,8.6,8.6,0,0,0,1.936-2.5,14.093,14.093,0,0,0,1.531-5.536,25.355,25.355,0,0,0-.882-8.5,75.49,75.49,0,0,0-3.079-8.923c-1.489-3.73-3.067-7.424-4.455-11.194a72.374,72.374,0,0,1-2.873-9.494,41.253,41.253,0,0,1-1.022-9.281,31.464,31.464,0,0,1,2.647-12.652,20.7,20.7,0,0,1,6.752-8.517,16.08,16.08,0,0,1,6.646-2.935,11.129,11.129,0,0,1,4.879.125,6.158,6.158,0,0,1,2.55,1.309,3.186,3.186,0,0,1,1.2,2.024c.026.224.1.359.337.381.128.012.254.039.382.056a2.131,2.131,0,0,1,1.593.97C3539.945,939.566,3540.006,939.639,3540.1,939.768Zm18.923,104.378c-.049-.037-.094-.094-.148-.1s-.108.034-.163.054a.3.3,0,0,0,.06.07c.053.033.111.057.167.085a.578.578,0,0,0,.429.273,13.809,13.809,0,0,0,3.056,1.164,20.869,20.869,0,0,0,4.582.589,33.631,33.631,0,0,0,8.6-.984,16.584,16.584,0,0,0,5.68-2.562,10.472,10.472,0,0,0,4.014-5.28,28.545,28.545,0,0,0,1.271-5.237,76.15,76.15,0,0,0,.581-8.559c0-.142.075-.323-.152-.435-.441.282-.885.593-1.354.859a19.637,19.637,0,0,1-3.82,1.588,58.866,58.866,0,0,1-12.687,2.292,70.912,70.912,0,0,1-7.517.208,40.344,40.344,0,0,1-6.329-.6,13.67,13.67,0,0,1-3.943-1.225.394.394,0,0,0-.366-.062c-.126.125-.085.29-.08.441a27.184,27.184,0,0,0,.45,4.312,16.2,16.2,0,0,0,1.4,4.393.677.677,0,0,0,.752.427,7.379,7.379,0,0,0,4.832-2.132c.386-.387.767-.78,1.16-1.159a4.631,4.631,0,0,1,1.407-1,1.219,1.219,0,0,1,1.8,1.074,3.567,3.567,0,0,1-.1,1.148c-.043.188-.1.373-.133.562-.052.315.093.478.427.479a2.964,2.964,0,0,0,.575-.052c.5-.1,1-.217,1.506-.326.627-.136,1.253-.279,1.883-.4a3.457,3.457,0,0,1,1.622.117,1.351,1.351,0,0,1,1.1,1.647,1.321,1.321,0,0,0,0,.311c.144.06.289.122.435.181a1.328,1.328,0,0,1,.483,2.158,5.034,5.034,0,0,1-.708.647,1.032,1.032,0,0,0-.382.417,3.842,3.842,0,0,1-1.5,1.718,1.214,1.214,0,0,0-.5.558,3.107,3.107,0,0,1-1.417,1.525,6.987,6.987,0,0,1-2.136.862,11.151,11.151,0,0,1-4.5.026Zm-42.668-27.4-.125-.068.079.115a.806.806,0,0,0,.324.569,20.931,20.931,0,0,0,2.684,2.49,15.65,15.65,0,0,0,10.247,3.3,9.363,9.363,0,0,0,1.329-.209.722.722,0,0,0,.6-.551c.4-1.293.96-2.522,1.466-3.772a53.314,53.314,0,0,1,3.182-6.91,26.036,26.036,0,0,1,4.791-6.129,14.041,14.041,0,0,1,2.545-1.9l1-.574a.461.461,0,0,0,.252-.382,13.4,13.4,0,0,0-.088-3.736,25.913,25.913,0,0,0-1.405-4.3,1.478,1.478,0,0,0-.79-.8,21.725,21.725,0,0,1-2.72-1.646,12.829,12.829,0,0,1-4.433-5.112,4.944,4.944,0,0,0-.263-.515.241.241,0,0,0-.331-.094c-.146.068-.286.149-.435.208a4.579,4.579,0,0,1-3.743-.084,6.45,6.45,0,0,1-1.743-1.195,6.3,6.3,0,0,1-2.033-4.241c-.016-.224-.012-.442-.229-.6a3.293,3.293,0,0,1-1.1-1.769,26.384,26.384,0,0,1-1.579-8,8.894,8.894,0,0,1-.084-1.244c.175-1.243.1-2.5.273-3.746.2-1.5.4-2.991.73-4.463a32.679,32.679,0,0,1,5.649-12.255c.431-.589.428-.587-.194-1.076a4.478,4.478,0,0,1-.43-.386,2.7,2.7,0,0,1-.709-2.918,5.886,5.886,0,0,1,1.34-2.207,13.2,13.2,0,0,1,5.606-3.8,1.465,1.465,0,0,0,.179-.07.3.3,0,0,0,.117-.479,3.866,3.866,0,0,0-1.225-1.07,7.336,7.336,0,0,0-3.43-.834,10.833,10.833,0,0,0-3.88.63,16.24,16.24,0,0,0-7.355,5.262,21.067,21.067,0,0,0-3.551,6.585,30.112,30.112,0,0,0-1.5,7.242c-.059.7-.039,1.411-.144,2.115a4.754,4.754,0,0,0,.008,1.346,12.44,12.44,0,0,1,.111,1.537,28.321,28.321,0,0,0,.487,4.3,63.928,63.928,0,0,0,3.092,11.027c1.285,3.533,2.753,7,4.152,10.484a87.884,87.884,0,0,1,3.122,8.705,30.857,30.857,0,0,1,1.334,8.922,17.794,17.794,0,0,1-1.209,6.3,11.053,11.053,0,0,1-3.4,4.713,6.9,6.9,0,0,1-5.805,1.377C3516.864,1016.816,3516.61,1016.787,3516.356,1016.751Zm67.8-48.235a10.88,10.88,0,0,0,1.6-6.383,20.791,20.791,0,0,0-.488-3.912,28.68,28.68,0,0,0-3.711-9.359,27.475,27.475,0,0,0-4.722-5.7,22.649,22.649,0,0,0-5.687-3.766,26.515,26.515,0,0,0-4.43-1.621,36.541,36.541,0,0,0-8.745-1.286,23.779,23.779,0,0,0-2.693.126c-1.09.09-2.17.224-3.246.413a29.449,29.449,0,0,0-12.489,5.3,31.47,31.47,0,0,0-3.867,3.333,38.006,38.006,0,0,0-3.66,4.35,33.5,33.5,0,0,0-4.791,9.094,29.48,29.48,0,0,0-1.206,5.055,31.058,31.058,0,0,0-.455,4.5c0,.9-.01,1.8,0,2.7a12.775,12.775,0,0,0,.084,1.444c.253,1.977.759,3.906,1.129,5.861a.184.184,0,0,0,.106.126.186.186,0,0,0,.162-.058c.149-.248.272-.51.425-.755a3.873,3.873,0,0,1,4.909-1.468,4.1,4.1,0,0,1,1.971,1.643c.285.466.587.922.891,1.376.075.113.135.3.36.191-.039-.348-.106-.7-.112-1.045a11.307,11.307,0,0,1,.793-4.235,2.238,2.238,0,0,1,.4-.653.889.889,0,0,1,1.13-.233,5.543,5.543,0,0,1,.515.264,1.815,1.815,0,0,0,1.919-.089,3.48,3.48,0,0,0,.6-.473,6.523,6.523,0,0,0,1.552-2.525,17.278,17.278,0,0,0,.97-5.285c.024-.514,0-1.034.068-1.541a9.3,9.3,0,0,0-.008-2.59,3.492,3.492,0,0,1,0-1.057.819.819,0,0,1,1.377-.53,3.563,3.563,0,0,1,.514.57,27.164,27.164,0,0,0,4.255,4.319,16.1,16.1,0,0,0,3.721,2.207,9.644,9.644,0,0,0,2.8.694,4.849,4.849,0,0,0,4.272-1.789,2.932,2.932,0,0,0,.712-1.552c.024-.158.01-.323.034-.481a.964.964,0,0,1,1.625-.7,7.268,7.268,0,0,1,.787.71,13.58,13.58,0,0,0,5.464,3.149,6.718,6.718,0,0,0,2.278.331,2,2,0,0,0,1.573-.811,2.224,2.224,0,0,0,.387-1.74c-.05-.349-.115-.7-.15-1.047a.924.924,0,0,1,1.421-.919,6.341,6.341,0,0,1,1.026.713c.571.469,1.112.975,1.68,1.448a14.147,14.147,0,0,0,4,2.473A21.08,21.08,0,0,1,3584.154,968.516Zm-9.273-3.155c-.021.162-.033.29-.053.416a3.589,3.589,0,0,1-3.368,3.164,6.772,6.772,0,0,1-2.109-.143,14.35,14.35,0,0,1-5.946-2.849c-.219-.173-.39-.42-.7-.5a1.774,1.774,0,0,0-.162.239,6.533,6.533,0,0,1-7.061,3.875,13.167,13.167,0,0,1-6.233-2.639,20.254,20.254,0,0,1-3.677-3.536c-.1-.131-.164-.371-.444-.276,0,.926.005,1.857,0,2.787a16.374,16.374,0,0,1-.43,3.729,10.245,10.245,0,0,1-1.661,3.768,5.081,5.081,0,0,1-1.79,1.583,3.291,3.291,0,0,1-3.233.043c-.129-.071-.25-.211-.506-.077a9.79,9.79,0,0,0-.429,4.3c.062.38.159.755.235,1.133a3.536,3.536,0,0,1,.081,1.15.855.855,0,0,1-1.354.653,3.131,3.131,0,0,1-.564-.521,15.239,15.239,0,0,1-2.142-2.964,1.906,1.906,0,0,0-.968-.9,2.7,2.7,0,0,0-3.877,1.943,3.567,3.567,0,0,0-.107,1.05,5.1,5.1,0,0,0,2.992,4.407,2.662,2.662,0,0,0,3.152-.3,1.317,1.317,0,0,1,.152-.119.8.8,0,0,1,1.242.25,6.5,6.5,0,0,1,.349.686,12.506,12.506,0,0,0,3.6,4.47,20.2,20.2,0,0,0,9.382,4.013c1.214.186,2.434.2,3.654.272.642.036,1.288.035,1.927.1a3.1,3.1,0,0,1,2.693,1.769,4.033,4.033,0,0,1-1.71,5.55,10.68,10.68,0,0,1-1.42.6c-.572.215-1.155.4-1.728.605-.235.085-.279.254-.115.448.207.245.425.482.655.706a9.669,9.669,0,0,0,5.772,2.632,7.759,7.759,0,0,0,3.612-.388,5.428,5.428,0,0,0,3.327-3.633.256.256,0,0,0-.186-.37,4.706,4.706,0,0,1-1.5-.652,5.877,5.877,0,0,1-2.318-3.45,2.739,2.739,0,0,1,1.858-3.449,7.667,7.667,0,0,1,1.588-.393,30.2,30.2,0,0,0,3.973-.764,15.7,15.7,0,0,0,9.108-6.25,24.139,24.139,0,0,0,3.331-6.816,36.962,36.962,0,0,0,1.478-9.7c.006-.192,0-.386-.015-.578a.67.67,0,0,0-.477-.655c-.334-.113-.666-.236-1-.338a15.052,15.052,0,0,1-6.255-3.682A1.042,1.042,0,0,0,3574.88,965.361Zm1.583,38.8a.7.7,0,0,0-.29-.376,8.2,8.2,0,0,0-4.359-1.888,26.125,26.125,0,0,0-3.466-.16c-.18,0-.38-.061-.53.11a6.345,6.345,0,0,1-.059.856,6.87,6.87,0,0,1-4.642,5.558,10.77,10.77,0,0,1-11.558-3.486,2.646,2.646,0,0,1-.654-2.2c-.122-.084-.246-.037-.368-.01a22.524,22.524,0,0,0-5.074,1.8,14.048,14.048,0,0,0-3.7,2.589,22.106,22.106,0,0,0-3.295,4.019,30.482,30.482,0,0,0-2.43,4.489c-.936,2.221-1.836,4.456-2.75,6.685-.061.148-.105.3-.167.452a1.012,1.012,0,0,0,.359,1.282,6.988,6.988,0,0,0,1.037.7,27.177,27.177,0,0,0,10.681,3.446l.118-.432c.042-.155.073-.314.129-.464a3.019,3.019,0,0,1,.267-.613.889.889,0,0,1,1.606.705,4.218,4.218,0,0,1-.715,1.462,2.282,2.282,0,0,1-1.516.93c-.271.046-.658-.079-.789.217a2.168,2.168,0,0,0-.027.851c0,.16.025.321.042.48a3.791,3.791,0,0,0,1.515,2.694,6.958,6.958,0,0,0,1.59.9,16.077,16.077,0,0,0,3.046.9c.146.029.313.082.455-.107-.1-.25-.2-.516-.3-.785a20.33,20.33,0,0,1-.993-10.718,2.977,2.977,0,0,1,.97-1.725,7.608,7.608,0,0,1,1.684-1.115,22.56,22.56,0,0,1,4.045-1.547,55.787,55.787,0,0,1,8.975-1.763,70.411,70.411,0,0,1,8.274-.515c.482,0,.964.031,1.446.033.441,0,.479-.033.584-.459.169-.686.329-1.375.5-2.06a2.987,2.987,0,0,0,.255-.914c-.038-.369-.484-.476-.747-.7a3.651,3.651,0,0,1-.955-4.214c.139-.289.257-.589.4-.877a.923.923,0,0,0-.013-.827,2.012,2.012,0,0,1,.713-2.707C3575.99,1004.483,3576.234,1004.326,3576.464,1004.163Zm-42.3,22.172c-.069.1-.125.143-.14.2a14.967,14.967,0,0,0-.545,5.725c.558,4.4,2.768,7.53,7.018,9.077.362.132.73.247,1.1.356a21.362,21.362,0,0,0,3.406.65,27.747,27.747,0,0,0,7.215-.012c1.242-.171,2.486-.326,3.728-.5a4.013,4.013,0,0,1,2.166.3,9.563,9.563,0,0,0,4.348.664,6.031,6.031,0,0,0,2.2-.492c-.45-.171-.776-.285-1.094-.419a.253.253,0,0,1-.015-.406,3.989,3.989,0,0,1,1.085-.387,14.1,14.1,0,0,0,1.941-.566c.173-.073.358-.124.433-.369a7.958,7.958,0,0,1-2.124-.038c-.3-.051-.748-.056-.794-.408-.055-.415.45-.35.7-.505a1.174,1.174,0,0,1,.374-.083c.6-.121,1.2-.24,1.8-.364a6.285,6.285,0,0,0,1.821-.609,1.859,1.859,0,0,0,.678-.527.189.189,0,0,0-.087-.309,2.117,2.117,0,0,0-1.673-.093,10.979,10.979,0,0,1-2.608.671,2.6,2.6,0,0,1-1.147-.034c-.155-.046-.326-.082-.36-.271-.041-.229.119-.357.295-.439a5.548,5.548,0,0,1,.8-.319c.462-.134.934-.236,1.4-.355.28-.071.565-.13.836-.228a6.272,6.272,0,0,0,.786-.361.325.325,0,0,0,.149-.212c.015-.11-.093-.16-.189-.158-.417.006-.837-.005-1.25.041-.446.05-.885.158-1.328.236s-.885.166-1.331.223a3.075,3.075,0,0,1-1.524-.1,1.251,1.251,0,0,1-.91-1.494c.056-.38.184-.748.262-1.125a1.3,1.3,0,0,0,.018-.471.2.2,0,0,0-.282-.166,3.3,3.3,0,0,0-1,.74c-.486.469-.951.959-1.43,1.435a7.954,7.954,0,0,1-4.406,2.212,14.387,14.387,0,0,1-7.835-1.008,6.669,6.669,0,0,1-1.809-1.094,4.5,4.5,0,0,1-1.714-3.619,7.044,7.044,0,0,1,.176-1.689C3539.258,1028.629,3539.989,1029.064,3534.167,1026.335Zm53.788,6.541a5.841,5.841,0,0,0,2.535-1.809,8.106,8.106,0,0,0,1.516-3.3,17.078,17.078,0,0,0,.322-4.7,37.488,37.488,0,0,0-2.29-10.314,19.855,19.855,0,0,0-3.326-5.724,8.554,8.554,0,0,0-4.135-2.7,2.589,2.589,0,0,0-.949-.128,15.687,15.687,0,0,0-2.956.41,5.91,5.91,0,0,0-1.519.6,4.4,4.4,0,0,0-.772.567.781.781,0,0,0-.2,1.035,2.453,2.453,0,0,1,.07,2.055,9.06,9.06,0,0,0-.28.921,2.211,2.211,0,0,0,.6,2.128,3.8,3.8,0,0,0,.758.589,6.636,6.636,0,0,0,4.162.908c.416-.037.83-.095,1.247-.121a4.252,4.252,0,0,1,.672.031.273.273,0,0,1,.265.234.454.454,0,0,1-.089.263c-.152.234-.5.283-.592.585a7.035,7.035,0,0,1,1.073,2.777,2.8,2.8,0,0,0,.128.94c.176.316.623.266.947.384a7.64,7.64,0,0,1,1.987.96,2.249,2.249,0,0,1,1,1.679,4.521,4.521,0,0,0,.148.652,10.953,10.953,0,0,1,.276,1.613,36.128,36.128,0,0,1-.124,5.778A35.015,35.015,0,0,1,3587.956,1032.876Zm-12.639-14.638a1.587,1.587,0,0,0-.885-.085c-2.408.11-4.814.249-7.212.519a65.183,65.183,0,0,0-9.1,1.623,26.8,26.8,0,0,0-4.375,1.491,10.159,10.159,0,0,0-1.768.981,3.254,3.254,0,0,0-.89.873.626.626,0,0,0,.069.875,2.809,2.809,0,0,0,.949.649,13.673,13.673,0,0,0,2.855.86.912.912,0,0,0,.873-.272,6.337,6.337,0,0,1,1.967-1.2,13,13,0,0,1,5.718-1.143,1.1,1.1,0,0,0,.874-.292,6.654,6.654,0,0,1,1.883-1.154c.706-.31,1.417-.611,2.14-.878a20.867,20.867,0,0,1,5.838-1.183c.744-.051.822.131.952-.829Zm-18.7,7.94a1.12,1.12,0,0,0,.729.2c1.185.084,2.371.2,3.558.228a71.161,71.161,0,0,0,9.337-.345,67.867,67.867,0,0,0,9.394-1.6,27.671,27.671,0,0,0,4.657-1.542,1.767,1.767,0,0,0,.82-.505,7.576,7.576,0,0,0-4.736-1.5,1.428,1.428,0,0,0,.136.277c.109.128.2.258.113.427s-.271.147-.424.115c-.251-.053-.5-.121-.746-.193a3.71,3.71,0,0,0-2.818.3c.181.248.36.472.514.712a.885.885,0,0,1,.165.639c-.027.147-.152.246-.27.2a2.28,2.28,0,0,1-.573-.34,2.671,2.671,0,0,0-2.8-.425c-.837.327-1.667.671-2.5,1.012-.208.085-.407.191-.611.285-.177.082-.385.186-.5-.042-.11-.211.079-.354.228-.474.225-.181.452-.362.692-.523a8.657,8.657,0,0,1,3.588-1.564c.163-.023.317-.093.275-.3-.032-.162-.174-.168-.3-.152q-.908.113-1.815.237a29.016,29.016,0,0,0-6.781,2.127c-.285.114-.281.249-.143.5.091.161-.048.318-.227.336-.735.076-1.471.134-2.207.2a24.053,24.053,0,0,0-6.186,1.384A.969.969,0,0,0,3556.62,1026.179Zm-9.805-24.047c.67-.171,1.224-.328,1.784-.453a6.164,6.164,0,0,1,3.424-.04.582.582,0,0,0,.371,0,16.574,16.574,0,0,0,2.474-1.068,2.469,2.469,0,0,0,1.177-3.14,1.3,1.3,0,0,0-.89-.942,3.055,3.055,0,0,0-.946-.167c-.579-.014-1.158-.022-1.736-.042a24.725,24.725,0,0,1-6.283-.9c-.2-.059-.4-.222-.67-.057a16.3,16.3,0,0,1,1.17,3.237A11.441,11.441,0,0,1,3546.815,1002.131Zm-8.024-61.609a1.414,1.414,0,0,0-1.107-.435,3.851,3.851,0,0,0-1.6.292,11.9,11.9,0,0,0-4.7,3.4,4.532,4.532,0,0,0-.774,1.32,1.38,1.38,0,0,0,.206,1.445,7.036,7.036,0,0,0,.663.69.261.261,0,0,0,.412-.042c.107-.119.206-.245.308-.369a34.131,34.131,0,0,1,6.11-5.825C3538.482,940.877,3538.708,940.794,3538.791,940.523Zm39.793,77.819c-1.365-.081-1.169-.033-1.377.748a3.958,3.958,0,0,0-.089.571c-.04.362.021.41.361.569a1.574,1.574,0,0,0,1.034.007,9.975,9.975,0,0,1,4.581.189,5.591,5.591,0,0,1,2.587,1.421c.336.339.426.323.769-.029.565-.582.541-1.022-.094-1.527a3.489,3.489,0,0,0-.483-.316,8.558,8.558,0,0,0-1.788-.706A30.753,30.753,0,0,0,3578.584,1018.342Zm-.645-3.665c-.049.346-.1.721-.154,1.1-.065.443-.136.885-.2,1.329a.268.268,0,0,0,.246.337,2.763,2.763,0,0,0,.382.04,32.436,32.436,0,0,1,4.3.41.963.963,0,0,0,.3-.064,15.855,15.855,0,0,1-.867-2.763c-.075-.361-.169-.427-.539-.357a7.927,7.927,0,0,1-2.865-.04A.812.812,0,0,0,3577.939,1014.677Z" transform="translate(-3512.905 -934.413)" fill="#14120f" fill-rule="evenodd"/>
        <path id="Trazado_118807" data-name="Trazado 118807" d="M3793.1,1292.611a3.1,3.1,0,0,1-1.75,2.613,2.427,2.427,0,0,1-3.275-.907c-.069-.108-.128-.222-.194-.332a3.19,3.19,0,0,1,.16-3.775,2.626,2.626,0,0,1,4.4.044A4.03,4.03,0,0,1,3793.1,1292.611Z" transform="translate(-3753.369 -1245.146)" fill="#14120f" fill-rule="evenodd"/>
        <path id="Trazado_118808" data-name="Trazado 118808" d="M3975.748,1274.159a11.244,11.244,0,0,1-.123,1.147,2.643,2.643,0,0,1-2.777,2.171,2.413,2.413,0,0,1-2.114-1.3,3.547,3.547,0,0,1,1.248-4.645,2.554,2.554,0,0,1,1.662-.37,2.319,2.319,0,0,1,1.965,1.753A3.177,3.177,0,0,1,3975.748,1274.159Z" transform="translate(-3913.702 -1229.461)" fill="#14120f" fill-rule="evenodd"/>
        <path id="Trazado_118809" data-name="Trazado 118809" d="M3888.657,1347.194a5.7,5.7,0,0,1-.26,1.421,2.64,2.64,0,0,1-2.373,1.822,2.589,2.589,0,0,1-2.656-1.367,3.4,3.4,0,0,1-.207-3.226.272.272,0,0,1,.531.086c.022.223.025.448.054.67a3.847,3.847,0,0,0,.676,1.778,1.641,1.641,0,0,0,1.766.7,1.524,1.524,0,0,0,1.221-1.214,3.859,3.859,0,0,0,.14-1.044c0-.287.021-.575.047-.862a.313.313,0,0,1,.239-.272.393.393,0,0,1,.355.1.988.988,0,0,1,.341.566C3888.6,1346.657,3888.626,1346.977,3888.657,1347.194Z" transform="translate(-3837.056 -1294.75)" fill="#14120f" fill-rule="evenodd"/>
      </g>
    </g>
    <g id="Grupo_84982" data-name="Grupo 84982" transform="translate(1029.782 82.194)">
      <g id="Grupo_84978" data-name="Grupo 84978">
        <path id="Trazado_118784" data-name="Trazado 118784" d="M292.65,158.686q.027-2.4.239-4.781t.422-4.782q.08-.767.132-1.493a10.754,10.754,0,0,1,.211-1.465c0-.212,0-.357-.012-.436a.441.441,0,0,1,0-.159.08.08,0,0,1,.039-.053.33.33,0,0,0,.08-.119l.409.014.818.026.807.026c.246.01.387.013.422.013a.7.7,0,0,1,.185.688c-.052.3-.089.563-.105.792q-.028.529-.119,1.664t-.225,2.549q-.133,1.415-.238,2.972t-.158,2.933q-.054,1.374,0,2.417a3.794,3.794,0,0,0,.264,1.44q.66,0,1.413-.053l1.506-.106c.5-.035.994-.057,1.48-.066a7.483,7.483,0,0,1,1.36.092l.105.133a.724.724,0,0,1,.318.488,3.081,3.081,0,0,1,.105.806,2.337,2.337,0,0,1-.119.766q-.119.343-.383.343a1.458,1.458,0,0,1-.4,0c-.123-.017-.256-.035-.4-.052a10.451,10.451,0,0,1-1.611.145q-.844.012-1.638.066-.448.025-.99.026c-.361,0-.726,0-1.1-.013s-.74-.013-1.109-.013-.7.008-.977.026a.307.307,0,0,0-.185-.066,2.77,2.77,0,0,0-.277-.013,2.621,2.621,0,0,1-.265-.013c-.079-.009-.128-.04-.145-.093,0-.123.008-.409.026-.858s.035-.934.053-1.453.035-1,.052-1.44.028-.73.028-.872Z"/>
      </g>
      <g id="Grupo_84979" data-name="Grupo 84979">
        <path id="Trazado_118785" data-name="Trazado 118785" d="M304.538,162.833a7.084,7.084,0,0,1-.132-1.492q0-.885.039-1.836t.093-1.836q.053-.885.053-1.519h.026q.159-2.3.158-4.649,0-.846.08-1.691t.08-1.691v-1.492a6.486,6.486,0,0,1,.158-1.466,1.05,1.05,0,0,1,.674-.265c.184.018.444.044.779.08.017.035.079.062.184.079s.225.035.357.053a2.756,2.756,0,0,0,.37.026.6.6,0,0,1,.225.027q-.132,3.752-.12,7.436t-.118,7.436l-.106,2.88a2.525,2.525,0,0,1-.317.158,2.766,2.766,0,0,1-.37.093,1.242,1.242,0,0,1-.475-.014,2.5,2.5,0,0,1-.318-.039q-.237-.04-.5-.106c-.176-.044-.343-.083-.5-.119A1.89,1.89,0,0,0,304.538,162.833Z"/>
      </g>
      <g id="Grupo_84980" data-name="Grupo 84980">
        <path id="Trazado_118786" data-name="Trazado 118786" d="M323.98,145.4a4.917,4.917,0,0,1-.607.978q-.5.687-1.176,1.559t-1.427,1.822q-.751.951-1.386,1.757t-1.031,1.374c-.263.379-.387.594-.37.647l.054.132a4.633,4.633,0,0,0,.475.74q.371.5.806,1.029t.859,1q.422.477.633.714c.334.37.7.753,1.1,1.149s.783.8,1.162,1.215.731.837,1.057,1.268a6.641,6.641,0,0,1,.779,1.308.867.867,0,0,1-.264.344,3.77,3.77,0,0,1-.489.356c-.184.115-.366.22-.542.317a2.65,2.65,0,0,1-.422.2c-.088,0-.2,0-.343-.013s-.23-.048-.265-.119a3.066,3.066,0,0,1-.185-.317,1.127,1.127,0,0,0-.21-.291q-.16-.21-.622-.753t-1.083-1.241q-.621-.7-1.334-1.466t-1.334-1.387q-.621-.621-1.109-1.044t-.674-.422a3.633,3.633,0,0,0-.845.871q-.424.582-.792,1.031v1.268l-.186,3.3a3.046,3.046,0,0,1-.316.185,3,3,0,0,1-.358.092,1.316,1.316,0,0,1-.488-.013.722.722,0,0,1-.317-.026c-.159-.035-.327-.075-.5-.119s-.343-.088-.5-.132a1.548,1.548,0,0,0-.317-.067,7,7,0,0,1-.119-1.558q.014-.951.066-1.981t.119-1.982q.066-.949.066-1.585l.026-.026q.159-2.3.159-4.623,0-.845.08-1.691t.079-1.69v-1.506a6.848,6.848,0,0,1,.158-1.48,1.2,1.2,0,0,1,.674-.251c.184.01.444.04.779.093.018.035.079.062.185.079a3.572,3.572,0,0,0,.356.04c.133.009.256.013.37.013a.618.618,0,0,1,.225.026q-.08,2.352-.132,4.676t-.079,4.676a10.344,10.344,0,0,1,.806-1.057,12.5,12.5,0,0,0,.8-1.03q.237-.342.674-.964t.964-1.347q.528-.726,1.123-1.493t1.162-1.427q.567-.658,1.069-1.162a4.044,4.044,0,0,1,.846-.687,1.53,1.53,0,0,1,.66-.079,2.865,2.865,0,0,1,.741.145,1.853,1.853,0,0,1,.554.291C323.963,145.183,324.016,145.292,323.98,145.4Z"/>
      </g>
      <g id="Grupo_84981" data-name="Grupo 84981">
        <path id="Trazado_118787" data-name="Trazado 118787" d="M336.133,144.923a2.437,2.437,0,0,1,.343.039c.158.027.317.058.475.093s.313.075.463.119.268.075.356.092c.017.176.031.344.04.5s.013.317.013.476a.906.906,0,0,0,0,.3c.018.1.03.194.039.291a.661.661,0,0,1-.039.29.623.623,0,0,1-.238.278.949.949,0,0,1-.3.027h-.541c-.194,0-.375,0-.542.013s-.26.031-.277.066q-.635.08-1.281.132t-1.282.132q-.819.079-1.637.092a9.489,9.489,0,0,0-1.638.172,4.325,4.325,0,0,0-.158.951q-.054.635-.093,1.361t-.053,1.4c-.01.449-.013.8-.013,1.043a1,1,0,0,0,.633.185,8.114,8.114,0,0,0,1.111-.026q.633-.054,1.36-.133t1.387-.118a10.458,10.458,0,0,1,1.176-.013,1.373,1.373,0,0,1,.726.184,1.081,1.081,0,0,1,.171.41,3.08,3.08,0,0,1,.054,1.136,1.189,1.189,0,0,1-.119.409,10.2,10.2,0,0,1-1.176.079q-.858.027-1.77.053t-1.677.106a1.621,1.621,0,0,0-.925.264l-1.215.079q.025.4.053,1.1t.039,1.452q.012.753.026,1.454c.009.466.023.832.04,1.1a15.953,15.953,0,0,0,1.6-.2q1.069-.171,2.218-.277a16.322,16.322,0,0,1,2.127-.066,2.143,2.143,0,0,1,1.347.383.521.521,0,0,0,.079.317,1.027,1.027,0,0,1,.133.4,3.986,3.986,0,0,1,.053.554,1.03,1.03,0,0,1-.265.555,3.382,3.382,0,0,1-.832.211q-.621.106-1.439.212t-1.757.211q-.939.106-1.81.172t-1.572.1q-.7.04-1.017.04a2.329,2.329,0,0,1-.66-.092,1.288,1.288,0,0,1-.555-.33,1.361,1.361,0,0,0-.092-.516,1.7,1.7,0,0,1-.119-.515,3.322,3.322,0,0,1-.053-.607,3.413,3.413,0,0,0-.053-.608,7.127,7.127,0,0,1-.172-1.585q-.014-.951.04-1.981t.118-2.035q.066-1,.041-1.743c0-.123.008-.374.026-.753s.04-.823.066-1.334.053-1.057.079-1.638.048-1.122.066-1.624.026-.938.026-1.308a2.848,2.848,0,0,0-.053-.713,39.746,39.746,0,0,1,4.439-.621Q333.809,144.948,336.133,144.923Z"/>
      </g>
    </g>
  </g>
</svg>
