<svg xmlns="http://www.w3.org/2000/svg" width="141" height="101.99" viewBox="0 0 141 101.99">
  <g id="Grupo_85043" data-name="Grupo 85043" transform="translate(-1034.333 -461.857)">
    <g id="Grupo_84983" data-name="Grupo 84983" transform="translate(-2261.332 -1528.062)">
      <path id="Trazado_118788" data-name="Trazado 118788" d="M3436.4,2040.672a17.257,17.257,0,0,0-8.713-13.114,35.844,35.844,0,0,0-7.54-3.294,85.4,85.4,0,0,0-15.079-3.142c-5.764-.67-11.541-1.221-17.309-1.859a122.94,122.94,0,0,1-13.642-2.122,98.37,98.37,0,0,1-28.275-11.022c-4.18-2.453-8.2-5.151-12.229-7.849q-3.5-2.347-7.067-4.6a25.172,25.172,0,0,0-5.3-2.6c-7.08-2.422-13.309-1.03-18.622,4.261a20.89,20.89,0,0,0-4.2,6.214,31.348,31.348,0,0,0-2.753,13.606,36.275,36.275,0,0,0,4.008,16.228,51.035,51.035,0,0,0,7.926,11.269,85.769,85.769,0,0,0,18.853,15.38,105.138,105.138,0,0,0,34.619,13.328c4.05.8,8.119,1.457,12.222,1.927a131.646,131.646,0,0,0,13.421,1.011c1.734-.06,3.474-.056,5.2-.192a96.209,96.209,0,0,0,13.288-2.042,68.1,68.1,0,0,0,16.185-5.712,31.424,31.424,0,0,0,8.694-6.27A22.321,22.321,0,0,0,3436.4,2040.672Z" transform="translate(0 0)" fill="#fff" fill-rule="evenodd"/>
      <path id="Trazado_118789" data-name="Trazado 118789" d="M3405.622,2338.528c-1.18.259-1.994.414-2.8.617-5.218,1.32-10.425,2.685-15.655,3.958-1.8.438-3.64.686-5.472.959a7.973,7.973,0,0,1-1.969-.009,4.288,4.288,0,0,1-4.046-5.094,9.773,9.773,0,0,1,.532-1.891c.153-.444.385-.859.66-1.461a4.383,4.383,0,0,0-.936.008c-3.526.932-7.046,1.887-10.571,2.824-2.311.615-4.62,1.244-6.946,1.8a15.527,15.527,0,0,1-3.021.4,9.02,9.02,0,0,1-2.485-.256,4.11,4.11,0,0,1-3.134-3.916,7.116,7.116,0,0,1,.616-3.325c.578-1.313,1.229-2.594,1.853-3.886.309-.64.627-1.276,1-2.028a4.7,4.7,0,0,0-1.084-.354,9.783,9.783,0,0,0-4.194.835c-2.373.989-4.714,2.055-7.068,3.091a8.719,8.719,0,0,1-1.312.568,1.075,1.075,0,0,1-.79-.229c-.246-.188-.116-.71.181-.947a3.093,3.093,0,0,1,.45-.295c2.415-1.319,4.816-2.663,7.252-3.942a21.749,21.749,0,0,1,5.038-1.862,8.449,8.449,0,0,1,3.2-.262,3.19,3.19,0,0,1,2.824,2.821,5.779,5.779,0,0,1-.265,2.835c-.52,1.4-1.078,2.788-1.614,4.184-.214.557-.419,1.118-.611,1.684-.034.1.022.228.055.481a7.052,7.052,0,0,0,1.108.234,28.932,28.932,0,0,0,6.078-.46,67.434,67.434,0,0,0,14.514-3.95c1-.393,2.014-.768,3.04-1.088a3.1,3.1,0,0,1,4.023,3.924,22.4,22.4,0,0,1-1.046,2.469,8.645,8.645,0,0,0-.922,1.889c.345.548.868.438,1.324.459a43.46,43.46,0,0,0,7.516-.494,84.632,84.632,0,0,0,14.337-3.229c.855-.264,1.736-.448,2.6-.673a2.391,2.391,0,0,1,2.947,2.95,8.6,8.6,0,0,1-.631,1.862c-.352.825-.772,1.62-1.15,2.434a4.615,4.615,0,0,0-.591,1.818,2.377,2.377,0,0,0,1.641.754,21.075,21.075,0,0,0,3.2.369c4.667-.04,9.335-.151,14-.239.658-.012,1.316-.071,1.97-.04a.742.742,0,0,1,.528.4c.129.33-.129.551-.417.676a3.175,3.175,0,0,1-.684.209c-3.645.675-7.237,1.627-10.925,2.085a44.963,44.963,0,0,1-8.05.543,12.527,12.527,0,0,1-2.824-.444,4.309,4.309,0,0,1-3.221-4.6,7.688,7.688,0,0,1,.874-3.085C3404.843,2340.011,3405.155,2339.437,3405.622,2338.528Z" transform="translate(-33.091 -256.86)" fill="#151210" fill-rule="evenodd"/>
      <path id="Trazado_118790" data-name="Trazado 118790" d="M3386.718,2074.293a131.646,131.646,0,0,1-13.421-1.011c-4.1-.47-8.172-1.129-12.222-1.927a105.139,105.139,0,0,1-34.619-13.328,85.769,85.769,0,0,1-18.853-15.38,51.035,51.035,0,0,1-7.926-11.269,36.272,36.272,0,0,1-4.008-16.228,31.344,31.344,0,0,1,2.753-13.606,20.89,20.89,0,0,1,4.2-6.214c5.313-5.291,11.542-6.683,18.622-4.261a25.172,25.172,0,0,1,5.3,2.6q3.561,2.255,7.067,4.6c4.024,2.7,8.049,5.4,12.229,7.849a98.37,98.37,0,0,0,28.275,11.022,122.94,122.94,0,0,0,13.642,2.122c5.768.638,11.545,1.189,17.309,1.859a85.379,85.379,0,0,1,15.079,3.142,35.831,35.831,0,0,1,7.54,3.294,17.256,17.256,0,0,1,8.712,13.114,22.32,22.32,0,0,1-6.312,19.4,31.43,31.43,0,0,1-8.694,6.271,68.114,68.114,0,0,1-16.185,5.712,96.209,96.209,0,0,1-13.288,2.042C3390.191,2074.237,3388.451,2074.233,3386.718,2074.293Zm.064-3.175c1.973-.08,3.952-.09,5.919-.253a82.954,82.954,0,0,0,12.378-2.087,59.6,59.6,0,0,0,15.521-5.972,28.2,28.2,0,0,0,7.68-6.129,19.225,19.225,0,0,0,4.838-13.714c-.232-5.658-2.642-10.105-7.694-12.948a33.09,33.09,0,0,0-5.363-2.487,67.72,67.72,0,0,0-11.65-2.891c-5.147-.815-10.342-1.2-15.521-1.72-5.359-.538-10.7-1.177-16.007-2.123a98.84,98.84,0,0,1-31.466-11.684c-4.528-2.564-8.908-5.386-13.234-8.286q-3.354-2.248-6.781-4.388a27.434,27.434,0,0,0-4.968-2.482,14.507,14.507,0,0,0-8.289-.673,14.01,14.01,0,0,0-7.538,4.589,18.742,18.742,0,0,0-3.639,6.142,31.434,31.434,0,0,0-.534,19.759,37.359,37.359,0,0,0,6.146,12.094,63.747,63.747,0,0,0,10.636,11.151,98.5,98.5,0,0,0,37.327,19.312,130.44,130.44,0,0,0,18.641,3.691A125.32,125.32,0,0,0,3386.781,2071.119Z" transform="translate(0 0)" fill="#151210" fill-rule="evenodd"/>
      <path id="Trazado_118791" data-name="Trazado 118791" d="M3723.411,2196.187q.553-5.259,1.107-10.517a11.261,11.261,0,0,1,.249-1.769,1.877,1.877,0,0,1,3.713.465,17.393,17.393,0,0,1-.111,2.149c-.388,4.168-.816,8.332-1.172,12.5-.146,1.727-.135,3.467-.214,5.2a8.086,8.086,0,0,1-.184,1.6,1.858,1.858,0,0,1-1.631,1.465,1.9,1.9,0,0,1-1.965-.976,10.5,10.5,0,0,1-.542-1.131c-1.867-3.95-3.423-8.028-4.993-12.1-.185-.48-.419-.941-.616-1.377-.484.069-.39.374-.4.574q-.525,7.158-1.029,14.319a9.4,9.4,0,0,1-.09,1.072,1.895,1.895,0,0,1-3.766-.1,6.041,6.041,0,0,1,0-1.25c.318-4.716.6-9.434.983-14.143.2-2.441.571-4.868.9-7.3a4.415,4.415,0,0,1,.474-1.526,2.065,2.065,0,0,1,3.349-.434,4.722,4.722,0,0,1,.883,1.336c.539,1.2,1.03,2.419,1.508,3.645.956,2.451,1.887,4.911,2.834,7.365.125.323.285.633.428.95Z" transform="translate(-320.119 -147.974)" fill="#151210" fill-rule="evenodd"/>
      <path id="Trazado_118792" data-name="Trazado 118792" d="M3623.2,2178.868a17.72,17.72,0,0,1-6.12,13.071,13.065,13.065,0,0,1-7.7,3.052,2.084,2.084,0,0,1-2.341-1.519,4.21,4.21,0,0,1-.3-2.445c.638-3.95,1.292-7.9,1.876-11.857.479-3.249.868-6.511,1.3-9.768.07-.532.1-1.074.217-1.6a2.443,2.443,0,0,1,3.067-2,11.3,11.3,0,0,1,4.887,2.123,13.139,13.139,0,0,1,5.114,9.684C3623.222,2178.031,3623.2,2178.45,3623.2,2178.868Zm-9.153-8.788c-.159.266-.308.407-.331.567q-1.421,9.761-2.814,19.525a1.7,1.7,0,0,0,.133.543,6.5,6.5,0,0,0,3.228-1.509,13.455,13.455,0,0,0,4.935-12.27,8.784,8.784,0,0,0-3.46-5.88A11.614,11.614,0,0,0,3614.046,2170.08Z" transform="translate(-239.291 -135.271)" fill="#151210" fill-rule="evenodd"/>
      <path id="Trazado_118793" data-name="Trazado 118793" d="M3431.693,2122.083c-.391-.063-.493.285-.641.506-.7,1.044-1.365,2.111-2.06,3.158a6.5,6.5,0,0,1-.871,1.133,1.876,1.876,0,0,1-3.015-2.118,8.7,8.7,0,0,1,.8-1.4q4.692-6.8,9.407-13.576c.889-1.277,1.81-2.532,2.742-3.779a3.276,3.276,0,0,1,4.428-1,8.429,8.429,0,0,1,4.5,8.988,8.335,8.335,0,0,1-7.516,6.886,11.957,11.957,0,0,1-1.787-.04c-.522-.029-1.044-.094-1.65-.15a17.667,17.667,0,0,0-.359,3.082c-.145,2.029-.288,4.059-.46,6.085a7.2,7.2,0,0,1-.3,1.582,1.9,1.9,0,0,1-2.051,1.378,1.856,1.856,0,0,1-1.608-1.868c-.01-.774.11-1.55.167-2.325q.229-3.133.444-6.265C3431.868,2122.274,3431.755,2122.18,3431.693,2122.083Zm3.947-5.8a6.631,6.631,0,0,0,.627.248c.459.133.92.265,1.387.362a4.436,4.436,0,0,0,5.356-3.069,4.051,4.051,0,0,0-2.01-4.96A56.693,56.693,0,0,0,3435.641,2116.283Z" transform="translate(-99.461 -88.193)" fill="#151210" fill-rule="evenodd"/>
      <path id="Trazado_118794" data-name="Trazado 118794" d="M3540.989,2183.569c-1.931-.532-3.736-.865-5.6-1.2-.661.871-1.275,1.672-1.88,2.479-.646.861-1.267,1.743-1.934,2.587a4.26,4.26,0,0,1-1.021.986,1.709,1.709,0,0,1-2.017-.1,1.749,1.749,0,0,1-.688-2.052,6.553,6.553,0,0,1,.805-1.385c1.439-1.986,2.932-3.934,4.345-5.938,2.654-3.764,5.267-7.558,7.9-11.34.444-.638.85-1.307,1.337-1.909a4.466,4.466,0,0,1,1.181-1.072,1.962,1.962,0,0,1,2.911,1.105,4.547,4.547,0,0,1,.213,1.758c-.224,2.923-.5,5.841-.765,8.76q-.466,5.093-.954,10.183c-.1,1.012-.2,2.025-.341,3.031a6.742,6.742,0,0,1-.4,1.559,1.885,1.885,0,0,1-2.011,1.179,1.827,1.827,0,0,1-1.583-1.879,13.91,13.91,0,0,1,.2-1.959A29.944,29.944,0,0,0,3540.989,2183.569Zm-3.024-4.7c1.089.224,1.9.4,2.715.553a5.815,5.815,0,0,0,.669.053,15.417,15.417,0,0,0,.419-6.059C3540.44,2175.18,3539.239,2176.909,3537.965,2178.872Z" transform="translate(-178.554 -134.199)" fill="#151210" fill-rule="evenodd"/>
      <path id="Trazado_118795" data-name="Trazado 118795" d="M3498.165,2135.044c-1.1,1.364-2.012,3.113-4.555,8.7a9.421,9.421,0,0,0,.779.606c.758.477,1.578.868,2.283,1.411a1.864,1.864,0,0,1,.4,2.437,1.9,1.9,0,0,1-2.2.77,8.17,8.17,0,0,1-1.134-.527c-.631-.316-1.256-.643-1.863-.954a38.008,38.008,0,0,0-3.622,7.273,5.1,5.1,0,0,0,2.066.972,18.791,18.791,0,0,1,1.872.612,1.846,1.846,0,0,1,1.149,2.325,1.871,1.871,0,0,1-2.263,1.3,14.479,14.479,0,0,1-5.312-2.075,5.091,5.091,0,0,1-1.063-.952,2.645,2.645,0,0,1-.571-2.68,26.8,26.8,0,0,1,1.106-2.641c1.7-3.428,3.44-6.839,5.155-10.261,1.071-2.139,2.1-4.3,3.194-6.427a17.14,17.14,0,0,1,1.593-2.593,3.027,3.027,0,0,1,4.107-1.1c1.752.762,3.447,1.658,5.155,2.519a2.786,2.786,0,0,1,.842.654,1.723,1.723,0,0,1,.3,2,1.685,1.685,0,0,1-1.72,1.057,4.7,4.7,0,0,1-1.524-.454c-1.031-.474-2.031-1.017-3.053-1.515C3498.922,2135.318,3498.528,2135.189,3498.165,2135.044Z" transform="translate(-144.885 -108.436)" fill="#151210" fill-rule="evenodd"/>
      <path id="Trazado_118796" data-name="Trazado 118796" d="M3799.924,2199.665a2.85,2.85,0,0,0-1.952-.455c-.537-.029-1.082.006-1.61-.075a1.454,1.454,0,0,1-1.21-1.368,1.472,1.472,0,0,1,.98-1.543,1.921,1.921,0,0,1,.694-.161,25.061,25.061,0,0,1,3.391.182,3.371,3.371,0,0,1,2.992,3.475,14.452,14.452,0,0,1-.808,5.468,7.962,7.962,0,0,1-2.248,3.406,5.289,5.289,0,0,1-7.321.006,9.319,9.319,0,0,1-2.248-3.207,20.329,20.329,0,0,1-1.615-6.042,21.833,21.833,0,0,1,.53-8.89,12.016,12.016,0,0,1,1.68-3.548c2.31-3.283,7.576-3.816,10.375-1.342a4.537,4.537,0,0,1,.75.763,1.593,1.593,0,0,1-.1,1.846,1.523,1.523,0,0,1-1.788.424,8.751,8.751,0,0,1-1.056-.67,4.14,4.14,0,0,0-5.908,1.359,10.148,10.148,0,0,0-1.333,4.248,21.389,21.389,0,0,0,.994,9.553,7.734,7.734,0,0,0,1.549,2.806,2.257,2.257,0,0,0,3.7-.043,4.108,4.108,0,0,0,.617-.877A9.228,9.228,0,0,0,3799.924,2199.665Z" transform="translate(-379.38 -149.345)" fill="#151210" fill-rule="evenodd"/>
      <path id="Trazado_118797" data-name="Trazado 118797" d="M3386.615,2084.081c.776-.3,1.383-.518,1.983-.76a5.5,5.5,0,0,1,2.814-.327,2.824,2.824,0,0,1,2.38,3.812,4.725,4.725,0,0,1-1.63,2.308,11.885,11.885,0,0,1-9.224,2.518,2.321,2.321,0,0,1-1.944-1.379,15.623,15.623,0,0,1-1.713-7.776,12.95,12.95,0,0,1,.361-2.109,4.106,4.106,0,0,1,1.18-1.973,3.088,3.088,0,0,1,4.71.338,4.57,4.57,0,0,1,.946,2.475C3386.549,2082.1,3386.565,2082.992,3386.615,2084.081Z" transform="translate(-64.304 -67.356)" fill="#151210" fill-rule="evenodd"/>
      <path id="Trazado_118798" data-name="Trazado 118798" d="M3333.587,2023.771l-9.313,9.889c.087.424.184.761.221,1.1a1.665,1.665,0,0,1-.926,1.787,1.77,1.77,0,0,1-2.016-.232,2.51,2.51,0,0,1-.393-.366c-.757-.925-1.545-1.83-2.248-2.8a1.809,1.809,0,0,1-.1-2.321c.53-.689,1.177-.827,2.25-.474.22.072.435.162.7.26l9.2-9.73c-.246-.351-.5-.666-.7-1.009a1.734,1.734,0,0,1,.238-2.283,1.875,1.875,0,0,1,2.171-.2,1.443,1.443,0,0,1,.293.206c1.041.987,2.091,1.966,3.109,2.976a2.646,2.646,0,0,1,.568.9,1.685,1.685,0,0,1-1.354,2.275A15.689,15.689,0,0,1,3333.587,2023.771Z" transform="translate(-17.523 -20.95)" fill="#151210" fill-rule="evenodd"/>
      <path id="Trazado_118799" data-name="Trazado 118799" d="M3688.161,2192.041c-.149,3.166-.28,6.334-.459,9.5a12.825,12.825,0,0,1-.393,2.652,5.938,5.938,0,0,1-.938,1.905,1.808,1.808,0,0,1-2.271.463,1.777,1.777,0,0,1-.97-2.11c1.022-2.646.785-5.422.935-8.152.23-4.179.349-8.365.527-12.547a17.113,17.113,0,0,1,.192-2.143,1.926,1.926,0,0,1,1.973-1.71,1.947,1.947,0,0,1,1.772,1.925,11.509,11.509,0,0,1-.02,1.254q-.157,4.482-.318,8.963Z" transform="translate(-298.043 -146.166)" fill="#151210" fill-rule="evenodd"/>
    </g>
  </g>
</svg>
