<svg xmlns="http://www.w3.org/2000/svg" width="71.141" height="52.751" viewBox="0 0 71.141 52.751">
  <g id="Grupo_85042" data-name="Grupo 85042" transform="translate(-1089.43 -159.357)">
    <g id="Grupo_84977" data-name="Grupo 84977" transform="translate(1199.36 75.235)">
      <path id="Trazado_118782" data-name="Trazado 118782" d="M-42.011,91.809c-3.083-3.451-7.961-4.464-12.292-5.143a212.4,212.4,0,0,0-40.874-2.388c-4.358.168-8.772.737-11.545,3.736-2.437,2.632-2.831,6.328-3.007,9.584a138.063,138.063,0,0,0,.015,15.232c.167,2.955.485,6.047,2.334,8.527,2.519,3.382,6.994,4.453,11.455,5.105A211.457,211.457,0,0,0-70.6,128.617a18.638,18.638,0,0,0,15.573,8.256,21.632,21.632,0,0,0,4.063-.394l2.479-.474-2.227-1.187a16.186,16.186,0,0,1-6.467-6.359c3.846-.3,8.355-1.139,11.76-4.02,4.9-4.144,5.845-10.885,6.395-17.434C-38.568,101.521-38.419,95.831-42.011,91.809Z" transform="translate(0)" fill="#fff"/>
      <g id="Grupo_84976" data-name="Grupo 84976" transform="translate(-109.931 84.122)">
        <g id="Grupo_84972" data-name="Grupo 84972">
          <path id="Trazado_118783" data-name="Trazado 118783" d="M-42.011,91.809c-3.083-3.451-7.961-4.464-12.292-5.143a212.406,212.406,0,0,0-40.874-2.388c-4.358.168-8.772.737-11.545,3.736-2.437,2.632-2.831,6.328-3.009,9.584a138.406,138.406,0,0,0,.017,15.232c.167,2.955.485,6.047,2.334,8.527,2.518,3.382,6.994,4.453,11.455,5.105A211.433,211.433,0,0,0-70.6,128.617a18.638,18.638,0,0,0,15.573,8.256,21.632,21.632,0,0,0,4.063-.394l2.479-.474-2.228-1.187a16.186,16.186,0,0,1-6.467-6.359c3.848-.3,8.356-1.139,11.76-4.02,4.9-4.144,5.847-10.885,6.4-17.434C-38.568,101.521-38.419,95.831-42.011,91.809Zm-4.564,31.271c-3.408,2.884-8.237,3.487-12.062,3.691l-1.308.068.545,1.191a18.09,18.09,0,0,0,5.706,7.014,16.783,16.783,0,0,1-15.684-7.794l-.256-.391-.469-.011A209.552,209.552,0,0,1-95.666,124.7c-4.081-.6-8.153-1.545-10.286-4.406-1.552-2.085-1.831-4.881-1.984-7.566a136.541,136.541,0,0,1-.015-15.035c.16-2.946.5-6.274,2.536-8.472,2.333-2.522,6.332-3.012,10.306-3.166,2.674-.1,5.386-.154,8.065-.154a210.511,210.511,0,0,1,32.463,2.523,32.719,32.719,0,0,1,6.733,1.634L-56.912,96.2a.67.67,0,0,0-.179.931.67.67,0,0,0,.555.294.67.67,0,0,0,.376-.115l9.747-6.6a10.663,10.663,0,0,1,2.795,2.023,120.377,120.377,0,0,1-15.746,11.4.671.671,0,0,0-.225.92.672.672,0,0,0,.573.323.675.675,0,0,0,.348-.1,121.842,121.842,0,0,0,15.9-11.5,10.374,10.374,0,0,1,1.526,3.181l-8.863,6.7a.668.668,0,0,0-.129.938.666.666,0,0,0,.534.266.666.666,0,0,0,.4-.136l8.391-6.347a22.457,22.457,0,0,1,.326,4.083c-1.968,1.455-3.87,2.8-5.709,4.09-1.712,1.2-3.329,2.343-4.809,3.443a.67.67,0,0,0-.136.936.669.669,0,0,0,.538.27.673.673,0,0,0,.4-.132c1.469-1.093,3.077-2.224,4.778-3.421,1.58-1.11,3.218-2.273,4.9-3.5-.042.9-.1,1.81-.175,2.713-.029.337-.058.675-.089,1.011l-8.587,6.5a.668.668,0,0,0-.129.938.666.666,0,0,0,.534.266.664.664,0,0,0,.4-.135l7.591-5.744C-41.673,114.909-42.863,119.941-46.575,123.08Z" transform="translate(109.931 -84.122)" fill="#231f20"/>
        </g>
        <g id="Grupo_84973" data-name="Grupo 84973" transform="translate(16.039 20.826)">
          <circle id="Elipse_4821" data-name="Elipse 4821" cx="2.52" cy="2.52" r="2.52" fill="#231f20"/>
        </g>
        <g id="Grupo_84974" data-name="Grupo 84974" transform="translate(33.051 20.826)">
          <circle id="Elipse_4822" data-name="Elipse 4822" cx="2.52" cy="2.52" r="2.52" fill="#231f20"/>
        </g>
        <g id="Grupo_84975" data-name="Grupo 84975" transform="translate(50.062 20.826)">
          <circle id="Elipse_4823" data-name="Elipse 4823" cx="2.52" cy="2.52" r="2.52" fill="#231f20"/>
        </g>
      </g>
    </g>
  </g>
</svg>
