<svg xmlns="http://www.w3.org/2000/svg" width="1145" height="611.424" viewBox="0 0 1145 611.424">
  <g id="Grupo_85031" data-name="Grupo 85031" transform="translate(-228 -456.576)">
    <g id="Grupo_84994" data-name="Grupo 84994" transform="translate(24 34)">
      <path id="Trazado_118824" data-name="Trazado 118824" d="M-89.985-6.035h-5.391v3.4h6.367V0H-98.8V-14.219h9.814v2.646h-6.387v3h5.391ZM-75.737,0h-3.408l-5.039-8.848V0h-3.428V-14.219h3.428l5.029,8.848v-8.848h3.418Zm13.809-1.758A5.511,5.511,0,0,1-64.243-.342,9.982,9.982,0,0,1-67.583.2a5.955,5.955,0,0,1-4.463-1.709A6.918,6.918,0,0,1-73.833-6.27l-.01-1.23a8.485,8.485,0,0,1,.742-3.667,5.511,5.511,0,0,1,2.124-2.412,6.008,6.008,0,0,1,3.2-.845,6.3,6.3,0,0,1,4.126,1.216A5.152,5.152,0,0,1-61.938-9.58h-3.3a2.7,2.7,0,0,0-.762-1.7,2.458,2.458,0,0,0-1.66-.508,2.237,2.237,0,0,0-1.992,1.094,5.84,5.84,0,0,0-.713,3.125v.859a5.717,5.717,0,0,0,.728,3.2,2.573,2.573,0,0,0,2.29,1.069,2.88,2.88,0,0,0,1.992-.6V-5.244h-2.383V-7.6h5.811Zm5.42-.879h5.967V0h-9.395V-14.219h3.428ZM-45.444,0h-3.418V-14.219h3.418Zm9.717-3.779a1.408,1.408,0,0,0-.532-1.172,6.615,6.615,0,0,0-1.87-.869,17.942,17.942,0,0,1-2.187-.869q-2.764-1.357-2.764-3.73a3.345,3.345,0,0,1,.688-2.085,4.453,4.453,0,0,1,1.948-1.406,7.582,7.582,0,0,1,2.832-.5,6.632,6.632,0,0,1,2.749.547,4.352,4.352,0,0,1,1.89,1.558A4.068,4.068,0,0,1-32.3-10h-3.418a1.719,1.719,0,0,0-.532-1.348,2.075,2.075,0,0,0-1.44-.479,2.339,2.339,0,0,0-1.45.405,1.243,1.243,0,0,0-.532,1.03,1.252,1.252,0,0,0,.586.991,7.389,7.389,0,0,0,2.061.918A12.623,12.623,0,0,1-34.6-7.461,4.07,4.07,0,0,1-32.3-3.8a3.472,3.472,0,0,1-1.406,2.93A6.255,6.255,0,0,1-37.563.2a7.653,7.653,0,0,1-3.13-.62,4.719,4.719,0,0,1-2.109-1.7,4.428,4.428,0,0,1-.708-2.485h3.438a2.181,2.181,0,0,0,.591,1.685,2.793,2.793,0,0,0,1.919.542,2.206,2.206,0,0,0,1.343-.366A1.209,1.209,0,0,0-35.728-3.779ZM-18.657,0h-3.408V-5.937h-5.049V0h-3.428V-14.219h3.428v5.645h5.049v-5.645h3.408Zm7.148,0V-14.219h4.58a6.737,6.737,0,0,1,3.389.854,6.006,6.006,0,0,1,2.349,2.412A7.283,7.283,0,0,1-.337-7.461v.654a7.325,7.325,0,0,1-.825,3.5A6.032,6.032,0,0,1-3.486-.884,6.589,6.589,0,0,1-6.831,0Zm3.428-11.572v8.936H-6.89a2.666,2.666,0,0,0,2.266-1.05,5.145,5.145,0,0,0,.791-3.12v-.615a5.1,5.1,0,0,0-.791-3.105,2.713,2.713,0,0,0-2.3-1.045ZM13.462-6.816a8.385,8.385,0,0,1-.771,3.682A5.7,5.7,0,0,1,10.5-.669,6.1,6.1,0,0,1,7.261.2,6.191,6.191,0,0,1,4.038-.64,5.692,5.692,0,0,1,1.846-3.027a8.144,8.144,0,0,1-.825-3.564v-.8a8.422,8.422,0,0,1,.767-3.687,5.688,5.688,0,0,1,2.2-2.466,6.147,6.147,0,0,1,3.257-.869,6.087,6.087,0,0,1,3.223.859,5.79,5.79,0,0,1,2.2,2.446,8.18,8.18,0,0,1,.8,3.638Zm-3.486-.6a5.979,5.979,0,0,0-.708-3.218,2.271,2.271,0,0,0-2.026-1.1q-2.578,0-2.725,3.867l-.01,1.045A6.149,6.149,0,0,0,5.2-3.6,2.268,2.268,0,0,0,7.261-2.48a2.24,2.24,0,0,0,2-1.1,5.982,5.982,0,0,0,.713-3.174ZM24.048-6.035H18.657v3.4h6.367V0H15.229V-14.219h9.814v2.646H18.657v3h5.391Zm9.707,2.256a1.408,1.408,0,0,0-.532-1.172,6.615,6.615,0,0,0-1.87-.869,17.941,17.941,0,0,1-2.187-.869Q26.4-8.047,26.4-10.42A3.345,3.345,0,0,1,27.09-12.5a4.453,4.453,0,0,1,1.948-1.406,7.582,7.582,0,0,1,2.832-.5,6.632,6.632,0,0,1,2.749.547,4.352,4.352,0,0,1,1.89,1.558A4.068,4.068,0,0,1,37.183-10H33.765a1.719,1.719,0,0,0-.532-1.348,2.075,2.075,0,0,0-1.44-.479,2.339,2.339,0,0,0-1.45.405,1.243,1.243,0,0,0-.532,1.03A1.252,1.252,0,0,0,30.4-9.4a7.389,7.389,0,0,0,2.061.918,12.623,12.623,0,0,1,2.422,1.021,4.07,4.07,0,0,1,2.3,3.662,3.472,3.472,0,0,1-1.406,2.93A6.255,6.255,0,0,1,31.919.2a7.653,7.653,0,0,1-3.13-.62,4.719,4.719,0,0,1-2.109-1.7,4.427,4.427,0,0,1-.708-2.485h3.438A2.181,2.181,0,0,0,30-2.925a2.793,2.793,0,0,0,1.919.542,2.206,2.206,0,0,0,1.343-.366A1.209,1.209,0,0,0,33.755-3.779ZM54.937-5.3l1.631-8.916h3.4L56.948,0H53.394l-1.9-8.105L49.624,0H46.079L43.052-14.219H46.46L48.091-5.3l1.953-8.916h2.91ZM73.345-6.816a8.385,8.385,0,0,1-.771,3.682A5.7,5.7,0,0,1,70.381-.669,6.1,6.1,0,0,1,67.144.2,6.191,6.191,0,0,1,63.921-.64a5.692,5.692,0,0,1-2.192-2.388A8.144,8.144,0,0,1,60.9-6.592v-.8a8.422,8.422,0,0,1,.767-3.687,5.688,5.688,0,0,1,2.2-2.466,6.147,6.147,0,0,1,3.257-.869,6.087,6.087,0,0,1,3.223.859,5.79,5.79,0,0,1,2.2,2.446,8.18,8.18,0,0,1,.8,3.638Zm-3.486-.6a5.979,5.979,0,0,0-.708-3.218,2.271,2.271,0,0,0-2.026-1.1q-2.578,0-2.725,3.867l-.01,1.045A6.149,6.149,0,0,0,65.083-3.6,2.268,2.268,0,0,0,67.144-2.48a2.24,2.24,0,0,0,2-1.1,5.982,5.982,0,0,0,.713-3.174ZM80.4-5.029H78.54V0H75.112V-14.219h5.6A6.246,6.246,0,0,1,84.663-13.1a3.8,3.8,0,0,1,1.426,3.17,4.616,4.616,0,0,1-.6,2.458,4.263,4.263,0,0,1-1.88,1.58L86.577-.147V0H82.905ZM78.54-7.666h2.168a1.946,1.946,0,0,0,1.47-.514,1.987,1.987,0,0,0,.493-1.434,2.01,2.01,0,0,0-.5-1.444,1.928,1.928,0,0,0-1.465-.524H78.54ZM92.993-5.293,91.587-3.75V0H88.159V-14.219h3.428v6.27l1.191-1.807,3.066-4.463h4.238l-4.8,6.289,4.8,7.93H96.021Z" transform="translate(774 437)" fill="#12263f"/>
      <rect id="Rectángulo_34779" data-name="Rectángulo 34779" width="190" height="68" rx="10" transform="translate(364 834)" fill="#6b8dff"/>
      <rect id="Rectángulo_34773" data-name="Rectángulo 34773" width="190" height="68" rx="10" transform="translate(994 834)" fill="#6b8dff"/>
      <rect id="Rectángulo_34774" data-name="Rectángulo 34774" width="190" height="71" rx="10" transform="translate(489 654)" fill="#6b8dff"/>
      <rect id="Rectángulo_34780" data-name="Rectángulo 34780" width="190" height="46" rx="23" transform="translate(334 535)" fill="#c4d1ff"/>
      <rect id="Rectángulo_34772" data-name="Rectángulo 34772" width="190" height="46" rx="23" transform="translate(964 535)" fill="#c4d1ff"/>
      <rect id="Rectángulo_34771" data-name="Rectángulo 34771" width="190" height="46" rx="23" transform="translate(1149 651)" fill="#c4d1ff"/>
      <rect id="Rectángulo_34781" data-name="Rectángulo 34781" width="190" height="46" rx="23" transform="translate(204 666)" fill="#c4d1ff"/>
      <rect id="Rectángulo_34782" data-name="Rectángulo 34782" width="190" height="46" rx="23" transform="translate(204 988)" fill="#c4d1ff"/>
      <rect id="Rectángulo_34775" data-name="Rectángulo 34775" width="190" height="46" rx="23" transform="translate(469 988)" fill="#c4d1ff"/>
      <rect id="Rectángulo_34776" data-name="Rectángulo 34776" width="226" height="55" rx="27.5" transform="translate(828 968)" fill="#c4d1ff"/>
      <rect id="Rectángulo_34777" data-name="Rectángulo 34777" width="230" height="55" rx="27.5" transform="translate(1119 968)" fill="#c4d1ff"/>
      <rect id="Rectángulo_34778" data-name="Rectángulo 34778" width="190" height="71" rx="10" transform="translate(889 654)" fill="#6b8dff"/>
      <path id="Trazado_118826" data-name="Trazado 118826" d="M-60.122-4.824V0H-63.55V-14.219h5.674a6.608,6.608,0,0,1,2.886.6,4.526,4.526,0,0,1,1.943,1.709,4.667,4.667,0,0,1,.688,2.515,4.114,4.114,0,0,1-1.489,3.325,6.179,6.179,0,0,1-4.087,1.245Zm0-2.646h2.246a2.118,2.118,0,0,0,1.519-.5,1.85,1.85,0,0,0,.522-1.406,2.287,2.287,0,0,0-.537-1.592,1.9,1.9,0,0,0-1.465-.605h-2.285Zm15.83-.117-1.084-.078a1.947,1.947,0,0,0-1.992.977V0h-3.291V-10.566h3.086l.107,1.357a2.548,2.548,0,0,1,2.314-1.553,3.209,3.209,0,0,1,.918.117ZM-37.993.2a5.432,5.432,0,0,1-3.936-1.45,5.008,5.008,0,0,1-1.5-3.774V-5.3a6.489,6.489,0,0,1,.6-2.861,4.395,4.395,0,0,1,1.753-1.919,5.292,5.292,0,0,1,2.734-.679A4.574,4.574,0,0,1-34.829-9.38,5.43,5.43,0,0,1-33.54-5.527v1.279h-6.543a2.372,2.372,0,0,0,.771,1.4,2.3,2.3,0,0,0,1.543.508,2.958,2.958,0,0,0,2.441-1.094l1.5,1.777A4.2,4.2,0,0,1-35.566-.308,5.891,5.891,0,0,1-37.993.2Zm-.371-8.418q-1.445,0-1.719,1.914h3.32v-.254a1.63,1.63,0,0,0-.4-1.226A1.593,1.593,0,0,0-38.364-8.223Zm15.957,3.018a6.372,6.372,0,0,1-1.108,3.931A3.554,3.554,0,0,1-26.509.2,3.046,3.046,0,0,1-28.9-.869V4.063h-3.291V-10.566h3.076l.1.977a3.046,3.046,0,0,1,2.49-1.172,3.582,3.582,0,0,1,3.037,1.44,6.45,6.45,0,0,1,1.084,3.96ZM-25.7-5.41q0-2.812-1.641-2.812a1.549,1.549,0,0,0-1.562.84v4.16a1.6,1.6,0,0,0,1.582.879q1.572,0,1.621-2.715Zm4.326.029A6.236,6.236,0,0,1-20.757-8.2a4.4,4.4,0,0,1,1.768-1.9,5.323,5.323,0,0,1,2.705-.664,4.858,4.858,0,0,1,3.74,1.47,5.64,5.64,0,0,1,1.367,4v.117a5.472,5.472,0,0,1-1.372,3.921A4.871,4.871,0,0,1-16.265.2a4.927,4.927,0,0,1-3.623-1.353,5.29,5.29,0,0,1-1.475-3.667Zm3.291.205a3.932,3.932,0,0,0,.459,2.148,1.529,1.529,0,0,0,1.357.684q1.758,0,1.8-2.705v-.332q0-2.842-1.816-2.842-1.65,0-1.787,2.451ZM-4.194-2.969a.76.76,0,0,0-.439-.674A6.685,6.685,0,0,0-6.3-4.17a7.615,7.615,0,0,1-2.031-.718A3.4,3.4,0,0,1-9.556-5.967a2.577,2.577,0,0,1-.42-1.455,2.92,2.92,0,0,1,1.2-2.4,4.948,4.948,0,0,1,3.145-.942,5.482,5.482,0,0,1,3.359.947A2.962,2.962,0,0,1-1-7.324H-4.3q0-1.27-1.338-1.27a1.326,1.326,0,0,0-.869.288.892.892,0,0,0-.352.718.819.819,0,0,0,.43.713,4.06,4.06,0,0,0,1.372.449,11.857,11.857,0,0,1,1.655.42A3.007,3.007,0,0,1-1.021-3.066,2.767,2.767,0,0,1-2.3-.713,5.632,5.632,0,0,1-5.63.2,5.747,5.747,0,0,1-8.052-.293a4.05,4.05,0,0,1-1.66-1.328,3.007,3.007,0,0,1-.6-1.768h3.076a1.272,1.272,0,0,0,.488,1.069,2.009,2.009,0,0,0,1.2.337,1.58,1.58,0,0,0,1.011-.273A.875.875,0,0,0-4.194-2.969ZM3.989,0H.688V-10.566h3.3ZM.493-13.291A1.469,1.469,0,0,1,1-14.443a1.916,1.916,0,0,1,1.318-.449,1.916,1.916,0,0,1,1.318.449,1.469,1.469,0,0,1,.508,1.152,1.469,1.469,0,0,1-.508,1.152,1.916,1.916,0,0,1-1.318.449A1.916,1.916,0,0,1,1-12.139,1.469,1.469,0,0,1,.493-13.291Zm9.99,10.947a1.464,1.464,0,0,0,1.074-.376,1.379,1.379,0,0,0,.371-1.05h3.086A3.653,3.653,0,0,1,13.77-.918,4.631,4.631,0,0,1,10.562.2,4.689,4.689,0,0,1,6.929-1.25a5.7,5.7,0,0,1-1.328-4v-.137a6.436,6.436,0,0,1,.591-2.827A4.3,4.3,0,0,1,7.9-10.1a5.081,5.081,0,0,1,2.637-.659A4.573,4.573,0,0,1,13.8-9.619a4.053,4.053,0,0,1,1.211,3.1H11.929a1.807,1.807,0,0,0-.4-1.26,1.382,1.382,0,0,0-1.074-.439q-1.279,0-1.494,1.631a11.508,11.508,0,0,0-.068,1.426,4.52,4.52,0,0,0,.381,2.207A1.319,1.319,0,0,0,10.483-2.344ZM19.878,0h-3.3V-10.566h3.3Zm-3.5-13.291a1.469,1.469,0,0,1,.508-1.152,1.916,1.916,0,0,1,1.318-.449,1.916,1.916,0,0,1,1.318.449,1.469,1.469,0,0,1,.508,1.152,1.469,1.469,0,0,1-.508,1.152,1.916,1.916,0,0,1-1.318.449,1.916,1.916,0,0,1-1.318-.449A1.469,1.469,0,0,1,16.382-13.291Zm5.107,7.91A6.236,6.236,0,0,1,22.1-8.2a4.4,4.4,0,0,1,1.768-1.9,5.323,5.323,0,0,1,2.705-.664,4.858,4.858,0,0,1,3.74,1.47,5.64,5.64,0,0,1,1.367,4v.117a5.472,5.472,0,0,1-1.372,3.921A4.871,4.871,0,0,1,26.6.2a4.927,4.927,0,0,1-3.623-1.353A5.29,5.29,0,0,1,21.5-4.824Zm3.291.205a3.932,3.932,0,0,0,.459,2.148,1.529,1.529,0,0,0,1.357.684q1.758,0,1.8-2.705v-.332q0-2.842-1.816-2.842-1.65,0-1.787,2.451Zm11.377-5.391.107,1.24a3.583,3.583,0,0,1,3.018-1.436,3.015,3.015,0,0,1,2.466.986,4.7,4.7,0,0,1,.845,2.969V0h-3.3V-6.67a1.783,1.783,0,0,0-.322-1.177A1.491,1.491,0,0,0,37.8-8.223a1.569,1.569,0,0,0-1.436.762V0H33.071V-10.566ZM49.526.2a5.432,5.432,0,0,1-3.936-1.45,5.008,5.008,0,0,1-1.5-3.774V-5.3a6.489,6.489,0,0,1,.6-2.861,4.395,4.395,0,0,1,1.753-1.919,5.292,5.292,0,0,1,2.734-.679A4.574,4.574,0,0,1,52.69-9.38a5.43,5.43,0,0,1,1.289,3.853v1.279H47.437a2.372,2.372,0,0,0,.771,1.4,2.3,2.3,0,0,0,1.543.508,2.958,2.958,0,0,0,2.441-1.094L53.7-1.66A4.2,4.2,0,0,1,51.953-.308,5.891,5.891,0,0,1,49.526.2Zm-.371-8.418q-1.445,0-1.719,1.914h3.32v-.254a1.63,1.63,0,0,0-.4-1.226A1.593,1.593,0,0,0,49.155-8.223Zm11.68,5.254a.76.76,0,0,0-.439-.674,6.685,6.685,0,0,0-1.67-.527,7.615,7.615,0,0,1-2.031-.718,3.4,3.4,0,0,1-1.221-1.079,2.577,2.577,0,0,1-.42-1.455,2.92,2.92,0,0,1,1.2-2.4,4.948,4.948,0,0,1,3.145-.942,5.482,5.482,0,0,1,3.359.947,2.962,2.962,0,0,1,1.27,2.49h-3.3q0-1.27-1.338-1.27a1.326,1.326,0,0,0-.869.288.892.892,0,0,0-.352.718.819.819,0,0,0,.43.713,4.06,4.06,0,0,0,1.372.449,11.857,11.857,0,0,1,1.655.42,3.007,3.007,0,0,1,2.383,2.939A2.767,2.767,0,0,1,62.725-.713,5.632,5.632,0,0,1,59.4.2a5.747,5.747,0,0,1-2.422-.488,4.05,4.05,0,0,1-1.66-1.328,3.007,3.007,0,0,1-.6-1.768H57.8a1.272,1.272,0,0,0,.488,1.069,2.009,2.009,0,0,0,1.2.337A1.58,1.58,0,0,0,60.5-2.256.875.875,0,0,0,60.835-2.969ZM-44.536,21.639a6.455,6.455,0,0,1,1.084-3.955,3.568,3.568,0,0,1,3.027-1.445,3.035,3.035,0,0,1,2.383,1.113V12h3.3V27H-37.7l-.166-1.133A3.116,3.116,0,0,1-40.444,27.2a3.562,3.562,0,0,1-2.988-1.445A6.659,6.659,0,0,1-44.536,21.639Zm3.291.205q0,2.813,1.641,2.813a1.62,1.62,0,0,0,1.563-.918V19.715a1.576,1.576,0,0,0-1.543-.937q-1.523,0-1.65,2.461ZM-27.759,27.2a5.432,5.432,0,0,1-3.936-1.45,5.008,5.008,0,0,1-1.5-3.774V21.7a6.489,6.489,0,0,1,.6-2.861,4.395,4.395,0,0,1,1.753-1.919,5.292,5.292,0,0,1,2.734-.679,4.574,4.574,0,0,1,3.516,1.382,5.43,5.43,0,0,1,1.289,3.853v1.279h-6.543a2.372,2.372,0,0,0,.771,1.4,2.3,2.3,0,0,0,1.543.508,2.958,2.958,0,0,0,2.441-1.094l1.5,1.777a4.2,4.2,0,0,1-1.743,1.353A5.891,5.891,0,0,1-27.759,27.2Zm-.371-8.418q-1.445,0-1.719,1.914h3.32v-.254a1.63,1.63,0,0,0-.4-1.226A1.593,1.593,0,0,0-28.13,18.777Zm14.961-4.971v2.627h1.738v2.285h-1.738v4.834a1.234,1.234,0,0,0,.215.83,1.152,1.152,0,0,0,.85.234,4.828,4.828,0,0,0,.82-.059v2.354a6.074,6.074,0,0,1-1.855.283,3.448,3.448,0,0,1-2.51-.8,3.282,3.282,0,0,1-.811-2.432V18.719h-1.348V16.434h1.348V13.807ZM-6.665,27h-3.3V16.434h3.3Zm-3.5-13.291a1.469,1.469,0,0,1,.508-1.152,1.916,1.916,0,0,1,1.318-.449,1.916,1.916,0,0,1,1.318.449,1.469,1.469,0,0,1,.508,1.152,1.469,1.469,0,0,1-.508,1.152,1.916,1.916,0,0,1-1.318.449,1.916,1.916,0,0,1-1.318-.449A1.469,1.469,0,0,1-10.161,13.709ZM.474,27.2a5.432,5.432,0,0,1-3.936-1.45,5.008,5.008,0,0,1-1.5-3.774V21.7a6.489,6.489,0,0,1,.6-2.861,4.395,4.395,0,0,1,1.753-1.919,5.292,5.292,0,0,1,2.734-.679A4.574,4.574,0,0,1,3.638,17.62a5.43,5.43,0,0,1,1.289,3.853v1.279H-1.616a2.372,2.372,0,0,0,.771,1.4A2.3,2.3,0,0,0,.7,24.656,2.958,2.958,0,0,0,3.14,23.563l1.5,1.777A4.2,4.2,0,0,1,2.9,26.692,5.891,5.891,0,0,1,.474,27.2ZM.1,18.777q-1.445,0-1.719,1.914H1.7v-.254a1.63,1.63,0,0,0-.4-1.226A1.593,1.593,0,0,0,.1,18.777ZM9.36,16.434l.107,1.24a3.633,3.633,0,0,1,3.018-1.436A2.675,2.675,0,0,1,15.19,17.83,3.517,3.517,0,0,1,18.3,16.238q3.213,0,3.3,3.887V27H18.3V20.33a2.014,2.014,0,0,0-.273-1.182,1.164,1.164,0,0,0-1-.371,1.559,1.559,0,0,0-1.455.869l.01.137V27h-3.3V20.35a2.117,2.117,0,0,0-.264-1.2,1.161,1.161,0,0,0-1.006-.371,1.578,1.578,0,0,0-1.445.869V27H6.274V16.434Zm23.926,5.361a6.372,6.372,0,0,1-1.108,3.931,3.554,3.554,0,0,1-2.993,1.47,3.046,3.046,0,0,1-2.393-1.064v4.932H23.5V16.434h3.076l.1.977a3.046,3.046,0,0,1,2.49-1.172,3.582,3.582,0,0,1,3.037,1.44,6.45,6.45,0,0,1,1.084,3.96ZM30,21.59q0-2.812-1.641-2.812a1.549,1.549,0,0,0-1.562.84v4.16a1.6,1.6,0,0,0,1.582.879q1.572,0,1.621-2.715Zm4.326.029a6.236,6.236,0,0,1,.615-2.817A4.4,4.4,0,0,1,36.7,16.9a5.323,5.323,0,0,1,2.705-.664,4.858,4.858,0,0,1,3.74,1.47,5.64,5.64,0,0,1,1.367,4v.117a5.472,5.472,0,0,1-1.372,3.921,4.871,4.871,0,0,1-3.716,1.45,4.927,4.927,0,0,1-3.623-1.353,5.29,5.29,0,0,1-1.475-3.667Zm3.291.205a3.932,3.932,0,0,0,.459,2.148,1.529,1.529,0,0,0,1.357.684q1.758,0,1.8-2.705v-.332q0-2.842-1.816-2.842-1.65,0-1.787,2.451Z" transform="translate(586 685)" fill="#12263f"/>
      <path id="Trazado_118823" data-name="Trazado 118823" d="M-28.057-5.029h-1.855V0H-33.34V-14.219h5.6A6.246,6.246,0,0,1-23.789-13.1a3.8,3.8,0,0,1,1.426,3.17,4.616,4.616,0,0,1-.6,2.458,4.263,4.263,0,0,1-1.88,1.58l2.969,5.741V0h-3.672Zm-1.855-2.637h2.168a1.946,1.946,0,0,0,1.47-.514,1.987,1.987,0,0,0,.493-1.434,2.01,2.01,0,0,0-.5-1.444,1.928,1.928,0,0,0-1.465-.524h-2.168ZM-14.15-1.143A3.393,3.393,0,0,1-16.973.2,3.328,3.328,0,0,1-19.6-.815,4.251,4.251,0,0,1-20.5-3.721v-6.846h3.291V-3.7a1.183,1.183,0,0,0,1.318,1.357,1.72,1.72,0,0,0,1.611-.811v-7.412h3.311V0h-3.086Zm8.818-12.051v2.627h1.738v2.285H-5.332v4.834a1.234,1.234,0,0,0,.215.83,1.152,1.152,0,0,0,.85.234,4.828,4.828,0,0,0,.82-.059V-.088A6.074,6.074,0,0,1-5.3.2a3.448,3.448,0,0,1-2.51-.8,3.282,3.282,0,0,1-.811-2.432V-8.281H-9.971v-2.285h1.348v-2.627ZM1.172,0h-3.3V-10.566h3.3Zm-3.5-13.291a1.469,1.469,0,0,1,.508-1.152A1.916,1.916,0,0,1-.5-14.893a1.916,1.916,0,0,1,1.318.449,1.469,1.469,0,0,1,.508,1.152A1.469,1.469,0,0,1,.82-12.139,1.916,1.916,0,0,1-.5-11.689a1.916,1.916,0,0,1-1.318-.449A1.469,1.469,0,0,1-2.324-13.291Zm8.545,2.725.107,1.24a3.583,3.583,0,0,1,3.018-1.436,3.015,3.015,0,0,1,2.466.986,4.7,4.7,0,0,1,.845,2.969V0h-3.3V-6.67a1.783,1.783,0,0,0-.322-1.177,1.491,1.491,0,0,0-1.172-.376,1.569,1.569,0,0,0-1.436.762V0H3.135V-10.566ZM20.43,0a3.716,3.716,0,0,1-.312-.947A3.06,3.06,0,0,1,17.578.2a3.749,3.749,0,0,1-2.539-.9,2.875,2.875,0,0,1-1.045-2.271,2.955,2.955,0,0,1,1.27-2.6,6.468,6.468,0,0,1,3.691-.879h1.016v-.559q0-1.462-1.26-1.462a1.03,1.03,0,0,0-1.172,1.158H14.248a2.95,2.95,0,0,1,1.3-2.487,5.479,5.479,0,0,1,3.325-.956,4.8,4.8,0,0,1,3.193.986,3.429,3.429,0,0,1,1.2,2.705v4.678a4.79,4.79,0,0,0,.449,2.227V0ZM18.369-2.148a1.836,1.836,0,0,0,1.021-.264,1.653,1.653,0,0,0,.581-.6V-4.7h-.957q-1.719,0-1.719,1.543a.942.942,0,0,0,.3.728A1.1,1.1,0,0,0,18.369-2.148Zm12.256-.82a.76.76,0,0,0-.439-.674,6.685,6.685,0,0,0-1.67-.527,7.615,7.615,0,0,1-2.031-.718,3.4,3.4,0,0,1-1.221-1.079,2.577,2.577,0,0,1-.42-1.455,2.92,2.92,0,0,1,1.2-2.4,4.948,4.948,0,0,1,3.145-.942,5.482,5.482,0,0,1,3.359.947,2.962,2.962,0,0,1,1.27,2.49h-3.3q0-1.27-1.338-1.27a1.326,1.326,0,0,0-.869.288.892.892,0,0,0-.352.718.819.819,0,0,0,.43.713,4.06,4.06,0,0,0,1.372.449,11.857,11.857,0,0,1,1.655.42A3.007,3.007,0,0,1,33.8-3.066,2.767,2.767,0,0,1,32.515-.713,5.631,5.631,0,0,1,29.189.2a5.747,5.747,0,0,1-2.422-.488,4.05,4.05,0,0,1-1.66-1.328,3.007,3.007,0,0,1-.6-1.768h3.076a1.272,1.272,0,0,0,.488,1.069,2.009,2.009,0,0,0,1.2.337,1.58,1.58,0,0,0,1.011-.273A.875.875,0,0,0,30.625-2.969Z" transform="translate(984 697)" fill="#12263f"/>
      <path id="Trazado_118833" data-name="Trazado 118833" d="M-54.3-4.824V0h-3.428V-14.219h5.674a6.608,6.608,0,0,1,2.886.6,4.526,4.526,0,0,1,1.943,1.709,4.667,4.667,0,0,1,.688,2.515,4.114,4.114,0,0,1-1.489,3.325,6.179,6.179,0,0,1-4.087,1.245Zm0-2.646h2.246a2.118,2.118,0,0,0,1.519-.5,1.85,1.85,0,0,0,.522-1.406,2.287,2.287,0,0,0-.537-1.592,1.9,1.9,0,0,0-1.465-.605H-54.3ZM-39.014,0a3.716,3.716,0,0,1-.312-.947A3.06,3.06,0,0,1-41.865.2a3.749,3.749,0,0,1-2.539-.9,2.875,2.875,0,0,1-1.045-2.271,2.955,2.955,0,0,1,1.27-2.6,6.468,6.468,0,0,1,3.691-.879h1.016v-.559q0-1.462-1.26-1.462A1.03,1.03,0,0,0-41.9-7.319H-45.2a2.95,2.95,0,0,1,1.3-2.487,5.479,5.479,0,0,1,3.325-.956,4.8,4.8,0,0,1,3.193.986,3.429,3.429,0,0,1,1.2,2.705v4.678a4.79,4.79,0,0,0,.449,2.227V0Zm-2.061-2.148a1.836,1.836,0,0,0,1.021-.264,1.653,1.653,0,0,0,.581-.6V-4.7h-.957q-1.719,0-1.719,1.543a.942.942,0,0,0,.3.728A1.1,1.1,0,0,0-41.074-2.148Zm12.256-.82a.76.76,0,0,0-.439-.674,6.685,6.685,0,0,0-1.67-.527,7.615,7.615,0,0,1-2.031-.718A3.4,3.4,0,0,1-34.18-5.967a2.577,2.577,0,0,1-.42-1.455,2.92,2.92,0,0,1,1.2-2.4,4.948,4.948,0,0,1,3.145-.942,5.482,5.482,0,0,1,3.359.947,2.962,2.962,0,0,1,1.27,2.49h-3.3q0-1.27-1.338-1.27a1.326,1.326,0,0,0-.869.288.892.892,0,0,0-.352.718.819.819,0,0,0,.43.713,4.06,4.06,0,0,0,1.372.449,11.857,11.857,0,0,1,1.655.42,3.007,3.007,0,0,1,2.383,2.939A2.767,2.767,0,0,1-26.929-.713,5.631,5.631,0,0,1-30.254.2a5.747,5.747,0,0,1-2.422-.488,4.05,4.05,0,0,1-1.66-1.328,3.007,3.007,0,0,1-.6-1.768h3.076a1.272,1.272,0,0,0,.488,1.069,2.009,2.009,0,0,0,1.2.337,1.58,1.58,0,0,0,1.011-.273A.875.875,0,0,0-28.818-2.969ZM-18.154,0a3.716,3.716,0,0,1-.312-.947A3.06,3.06,0,0,1-21.006.2a3.749,3.749,0,0,1-2.539-.9A2.875,2.875,0,0,1-24.59-2.979a2.955,2.955,0,0,1,1.27-2.6,6.468,6.468,0,0,1,3.691-.879h1.016v-.559q0-1.462-1.26-1.462a1.03,1.03,0,0,0-1.172,1.158h-3.291a2.95,2.95,0,0,1,1.3-2.487,5.479,5.479,0,0,1,3.325-.956,4.8,4.8,0,0,1,3.193.986,3.429,3.429,0,0,1,1.2,2.705v4.678a4.79,4.79,0,0,0,.449,2.227V0Zm-2.061-2.148a1.836,1.836,0,0,0,1.021-.264,1.653,1.653,0,0,0,.581-.6V-4.7h-.957q-1.719,0-1.719,1.543a.942.942,0,0,0,.3.728A1.1,1.1,0,0,0-20.215-2.148ZM-9.658-13.193v2.627H-7.92v2.285H-9.658v4.834a1.234,1.234,0,0,0,.215.83,1.152,1.152,0,0,0,.85.234,4.828,4.828,0,0,0,.82-.059V-.088A6.074,6.074,0,0,1-9.629.2a3.448,3.448,0,0,1-2.51-.8,3.282,3.282,0,0,1-.811-2.432V-8.281H-14.3v-2.285h1.348v-2.627ZM-3.154,0h-3.3V-10.566h3.3Zm-3.5-13.291a1.469,1.469,0,0,1,.508-1.152,1.916,1.916,0,0,1,1.318-.449,1.916,1.916,0,0,1,1.318.449A1.469,1.469,0,0,1-3-13.291a1.469,1.469,0,0,1-.508,1.152,1.916,1.916,0,0,1-1.318.449,1.916,1.916,0,0,1-1.318-.449A1.469,1.469,0,0,1-6.65-13.291ZM3.984.2A5.432,5.432,0,0,1,.049-1.255a5.008,5.008,0,0,1-1.5-3.774V-5.3a6.489,6.489,0,0,1,.6-2.861A4.395,4.395,0,0,1,.9-10.083a5.292,5.292,0,0,1,2.734-.679A4.574,4.574,0,0,1,7.148-9.38,5.43,5.43,0,0,1,8.438-5.527v1.279H1.895a2.372,2.372,0,0,0,.771,1.4,2.3,2.3,0,0,0,1.543.508A2.958,2.958,0,0,0,6.65-3.437l1.5,1.777A4.2,4.2,0,0,1,6.411-.308,5.891,5.891,0,0,1,3.984.2ZM3.613-8.223q-1.445,0-1.719,1.914h3.32v-.254a1.63,1.63,0,0,0-.4-1.226A1.593,1.593,0,0,0,3.613-8.223Zm9.258-2.344.107,1.24A3.633,3.633,0,0,1,16-10.762,2.675,2.675,0,0,1,18.7-9.17a3.517,3.517,0,0,1,3.105-1.592q3.213,0,3.3,3.887V0h-3.3V-6.67a2.014,2.014,0,0,0-.273-1.182,1.164,1.164,0,0,0-1-.371,1.559,1.559,0,0,0-1.455.869l.01.137V0h-3.3V-6.65a2.117,2.117,0,0,0-.264-1.2,1.161,1.161,0,0,0-1.006-.371,1.578,1.578,0,0,0-1.445.869V0H9.785V-10.566ZM36.8-5.205a6.372,6.372,0,0,1-1.108,3.931A3.554,3.554,0,0,1,32.7.2,3.046,3.046,0,0,1,30.3-.869V4.063H27.012V-10.566h3.076l.1.977a3.046,3.046,0,0,1,2.49-1.172,3.582,3.582,0,0,1,3.037,1.44A6.45,6.45,0,0,1,36.8-5.361ZM33.506-5.41q0-2.812-1.641-2.812a1.549,1.549,0,0,0-1.562.84v4.16a1.6,1.6,0,0,0,1.582.879q1.572,0,1.621-2.715Zm4.326.029A6.236,6.236,0,0,1,38.447-8.2a4.4,4.4,0,0,1,1.768-1.9,5.323,5.323,0,0,1,2.705-.664,4.858,4.858,0,0,1,3.74,1.47,5.64,5.64,0,0,1,1.367,4v.117a5.472,5.472,0,0,1-1.372,3.921A4.871,4.871,0,0,1,42.939.2a4.927,4.927,0,0,1-3.623-1.353,5.29,5.29,0,0,1-1.475-3.667Zm3.291.205a3.932,3.932,0,0,0,.459,2.148,1.529,1.529,0,0,0,1.357.684q1.758,0,1.8-2.705v-.332q0-2.842-1.816-2.842-1.65,0-1.787,2.451ZM55.01-2.969a.76.76,0,0,0-.439-.674A6.685,6.685,0,0,0,52.9-4.17a7.615,7.615,0,0,1-2.031-.718,3.4,3.4,0,0,1-1.221-1.079,2.577,2.577,0,0,1-.42-1.455,2.92,2.92,0,0,1,1.2-2.4,4.948,4.948,0,0,1,3.145-.942,5.482,5.482,0,0,1,3.359.947,2.962,2.962,0,0,1,1.27,2.49H54.9q0-1.27-1.338-1.27a1.326,1.326,0,0,0-.869.288.892.892,0,0,0-.352.718.819.819,0,0,0,.43.713,4.06,4.06,0,0,0,1.372.449,11.857,11.857,0,0,1,1.655.42,3.007,3.007,0,0,1,2.383,2.939A2.767,2.767,0,0,1,56.9-.713,5.632,5.632,0,0,1,53.574.2a5.747,5.747,0,0,1-2.422-.488,4.05,4.05,0,0,1-1.66-1.328,3.007,3.007,0,0,1-.6-1.768h3.076a1.272,1.272,0,0,0,.488,1.069,2.009,2.009,0,0,0,1.2.337,1.58,1.58,0,0,0,1.011-.273A.875.875,0,0,0,55.01-2.969Z" transform="translate(1089 875)" fill="#12263f"/>
      <path id="Trazado_118828" data-name="Trazado 118828" d="M-62.036-2.637h5.967V0h-9.395V-14.219h3.428ZM-51.3,0h-3.3V-10.566h3.3Zm-3.5-13.291a1.469,1.469,0,0,1,.508-1.152,1.916,1.916,0,0,1,1.318-.449,1.916,1.916,0,0,1,1.318.449,1.469,1.469,0,0,1,.508,1.152,1.469,1.469,0,0,1-.508,1.152,1.916,1.916,0,0,1-1.318.449,1.916,1.916,0,0,1-1.318-.449A1.469,1.469,0,0,1-54.8-13.291Zm9.766,9.355-.928.928V0h-3.291V-15.01h3.291v7.969l.332-.439,2.48-3.086H-39.2l-3.7,4.346L-38.96,0h-3.77ZM-33.228.2a5.432,5.432,0,0,1-3.936-1.45,5.008,5.008,0,0,1-1.5-3.774V-5.3a6.489,6.489,0,0,1,.6-2.861,4.395,4.395,0,0,1,1.753-1.919,5.292,5.292,0,0,1,2.734-.679A4.574,4.574,0,0,1-30.063-9.38a5.43,5.43,0,0,1,1.289,3.853v1.279h-6.543a2.372,2.372,0,0,0,.771,1.4A2.3,2.3,0,0,0-33-2.344a2.958,2.958,0,0,0,2.441-1.094l1.5,1.777A4.2,4.2,0,0,1-30.8-.308,5.891,5.891,0,0,1-33.228.2ZM-33.6-8.223q-1.445,0-1.719,1.914H-32v-.254a1.63,1.63,0,0,0-.4-1.226A1.593,1.593,0,0,0-33.6-8.223Zm16.8,4.355,2.832-10.352h3.828L-14.927,0h-3.75l-4.746-14.219h3.8Zm13.076.9a.76.76,0,0,0-.439-.674,6.685,6.685,0,0,0-1.67-.527,7.615,7.615,0,0,1-2.031-.718A3.4,3.4,0,0,1-9.087-5.967a2.577,2.577,0,0,1-.42-1.455,2.92,2.92,0,0,1,1.2-2.4,4.948,4.948,0,0,1,3.145-.942A5.482,5.482,0,0,1-1.8-9.814a2.962,2.962,0,0,1,1.27,2.49h-3.3q0-1.27-1.338-1.27a1.326,1.326,0,0,0-.869.288.892.892,0,0,0-.352.718.819.819,0,0,0,.43.713,4.06,4.06,0,0,0,1.372.449,11.857,11.857,0,0,1,1.655.42A3.007,3.007,0,0,1-.552-3.066,2.767,2.767,0,0,1-1.836-.713,5.632,5.632,0,0,1-5.161.2,5.747,5.747,0,0,1-7.583-.293a4.05,4.05,0,0,1-1.66-1.328,3.007,3.007,0,0,1-.6-1.768h3.076a1.272,1.272,0,0,0,.488,1.069,2.009,2.009,0,0,0,1.2.337,1.58,1.58,0,0,0,1.011-.273A.875.875,0,0,0-3.726-2.969ZM6.118,0V-14.219H10.7a6.737,6.737,0,0,1,3.389.854,6.006,6.006,0,0,1,2.349,2.412,7.283,7.283,0,0,1,.854,3.491v.654a7.325,7.325,0,0,1-.825,3.5A6.032,6.032,0,0,1,14.141-.884,6.589,6.589,0,0,1,10.8,0ZM9.546-11.572v8.936h1.191A2.666,2.666,0,0,0,13-3.687a5.145,5.145,0,0,0,.791-3.12v-.615A5.1,5.1,0,0,0,13-10.527a2.713,2.713,0,0,0-2.3-1.045ZM22.368,0h-3.3V-10.566h3.3Zm-3.5-13.291a1.469,1.469,0,0,1,.508-1.152,1.916,1.916,0,0,1,1.318-.449,1.916,1.916,0,0,1,1.318.449,1.469,1.469,0,0,1,.508,1.152,1.469,1.469,0,0,1-.508,1.152,1.916,1.916,0,0,1-1.318.449,1.916,1.916,0,0,1-1.318-.449A1.469,1.469,0,0,1,18.872-13.291ZM29.927-2.969a.76.76,0,0,0-.439-.674,6.685,6.685,0,0,0-1.67-.527,7.615,7.615,0,0,1-2.031-.718,3.4,3.4,0,0,1-1.221-1.079,2.577,2.577,0,0,1-.42-1.455,2.92,2.92,0,0,1,1.2-2.4,4.948,4.948,0,0,1,3.145-.942,5.482,5.482,0,0,1,3.359.947,2.962,2.962,0,0,1,1.27,2.49h-3.3q0-1.27-1.338-1.27a1.326,1.326,0,0,0-.869.288.892.892,0,0,0-.352.718.819.819,0,0,0,.43.713,4.06,4.06,0,0,0,1.372.449,11.857,11.857,0,0,1,1.655.42A3.007,3.007,0,0,1,33.1-3.066,2.767,2.767,0,0,1,31.816-.713,5.631,5.631,0,0,1,28.491.2a5.747,5.747,0,0,1-2.422-.488,4.05,4.05,0,0,1-1.66-1.328,3.007,3.007,0,0,1-.6-1.768H26.89a1.272,1.272,0,0,0,.488,1.069,2.009,2.009,0,0,0,1.2.337,1.58,1.58,0,0,0,1.011-.273A.875.875,0,0,0,29.927-2.969ZM38.11,0h-3.3V-15h3.3Zm5.5,0h-3.3V-10.566h3.3Zm-3.5-13.291a1.469,1.469,0,0,1,.508-1.152,1.916,1.916,0,0,1,1.318-.449,1.916,1.916,0,0,1,1.318.449,1.469,1.469,0,0,1,.508,1.152,1.469,1.469,0,0,1-.508,1.152,1.916,1.916,0,0,1-1.318.449,1.916,1.916,0,0,1-1.318-.449A1.469,1.469,0,0,1,40.112-13.291Zm9.766,9.355-.928.928V0H45.659V-15.01H48.95v7.969l.332-.439,2.48-3.086h3.945l-3.7,4.346L55.952,0h-3.77ZM61.685.2a5.432,5.432,0,0,1-3.936-1.45,5.008,5.008,0,0,1-1.5-3.774V-5.3a6.489,6.489,0,0,1,.6-2.861A4.395,4.395,0,0,1,58.6-10.083a5.292,5.292,0,0,1,2.734-.679A4.574,4.574,0,0,1,64.849-9.38a5.43,5.43,0,0,1,1.289,3.853v1.279H59.595a2.372,2.372,0,0,0,.771,1.4,2.3,2.3,0,0,0,1.543.508,2.958,2.958,0,0,0,2.441-1.094l1.5,1.777A4.2,4.2,0,0,1,64.111-.308,5.891,5.891,0,0,1,61.685.2Zm-.371-8.418q-1.445,0-1.719,1.914h3.32v-.254a1.63,1.63,0,0,0-.4-1.226A1.593,1.593,0,0,0,61.313-8.223Z" transform="translate(459 875)" fill="#12263f"/>
      <path id="Trazado_118829" data-name="Trazado 118829" d="M-17.07-2.637H-11.1V0H-20.5V-14.219h3.428Zm6.846-2.744A6.236,6.236,0,0,1-9.609-8.2a4.4,4.4,0,0,1,1.768-1.9,5.323,5.323,0,0,1,2.705-.664A4.858,4.858,0,0,1-1.4-9.292a5.64,5.64,0,0,1,1.367,4v.117A5.472,5.472,0,0,1-1.4-1.255,4.871,4.871,0,0,1-5.117.2,4.927,4.927,0,0,1-8.74-1.157a5.29,5.29,0,0,1-1.475-3.667Zm3.291.205a3.932,3.932,0,0,0,.459,2.148,1.529,1.529,0,0,0,1.357.684q1.758,0,1.8-2.705v-.332q0-2.842-1.816-2.842-1.65,0-1.787,2.451ZM5.488-3.916l1.67-6.65h3.467L7.178,0H3.818L.371-10.566H3.848ZM16.719.2a5.432,5.432,0,0,1-3.936-1.45,5.008,5.008,0,0,1-1.5-3.774V-5.3a6.489,6.489,0,0,1,.6-2.861,4.395,4.395,0,0,1,1.753-1.919,5.292,5.292,0,0,1,2.734-.679A4.574,4.574,0,0,1,19.883-9.38a5.43,5.43,0,0,1,1.289,3.853v1.279H14.629a2.372,2.372,0,0,0,.771,1.4,2.3,2.3,0,0,0,1.543.508,2.958,2.958,0,0,0,2.441-1.094l1.5,1.777A4.2,4.2,0,0,1,19.146-.308,5.891,5.891,0,0,1,16.719.2Zm-.371-8.418q-1.445,0-1.719,1.914h3.32v-.254a1.63,1.63,0,0,0-.4-1.226A1.593,1.593,0,0,0,16.348-8.223Z" transform="translate(299 1018)" fill="#12263f"/>
      <path id="Trazado_118831" data-name="Trazado 118831" d="M36.621,16.176V21H33.193V6.781h5.674a6.608,6.608,0,0,1,2.886.6A4.526,4.526,0,0,1,43.7,9.091a4.667,4.667,0,0,1,.688,2.515A4.114,4.114,0,0,1,42.9,14.931a6.179,6.179,0,0,1-4.087,1.245Zm0-2.646h2.246a2.118,2.118,0,0,0,1.519-.5,1.85,1.85,0,0,0,.522-1.406,2.287,2.287,0,0,0-.537-1.592,1.9,1.9,0,0,0-1.465-.605H36.621Zm15.83-.117-1.084-.078a1.947,1.947,0,0,0-1.992.977V21H46.084V10.434H49.17l.107,1.357a2.548,2.548,0,0,1,2.314-1.553,3.209,3.209,0,0,1,.918.117Zm6.3,7.783a5.432,5.432,0,0,1-3.936-1.45,5.008,5.008,0,0,1-1.5-3.774V15.7a6.489,6.489,0,0,1,.6-2.861,4.395,4.395,0,0,1,1.753-1.919,5.292,5.292,0,0,1,2.734-.679,4.574,4.574,0,0,1,3.516,1.382A5.43,5.43,0,0,1,63.2,15.473v1.279H56.66a2.372,2.372,0,0,0,.771,1.4,2.3,2.3,0,0,0,1.543.508,2.958,2.958,0,0,0,2.441-1.094l1.5,1.777a4.2,4.2,0,0,1-1.743,1.353A5.891,5.891,0,0,1,58.75,21.2Zm-.371-8.418q-1.445,0-1.719,1.914h3.32v-.254a1.63,1.63,0,0,0-.4-1.226A1.593,1.593,0,0,0,58.379,12.777Zm11.68,5.254a.76.76,0,0,0-.439-.674,6.684,6.684,0,0,0-1.67-.527,7.615,7.615,0,0,1-2.031-.718A3.4,3.4,0,0,1,64.7,15.033a2.577,2.577,0,0,1-.42-1.455,2.92,2.92,0,0,1,1.2-2.4,4.948,4.948,0,0,1,3.145-.942,5.482,5.482,0,0,1,3.359.947,2.962,2.962,0,0,1,1.27,2.49h-3.3q0-1.27-1.338-1.27a1.326,1.326,0,0,0-.869.288.892.892,0,0,0-.352.718.819.819,0,0,0,.43.713,4.06,4.06,0,0,0,1.372.449,11.857,11.857,0,0,1,1.655.42,3.007,3.007,0,0,1,2.383,2.939,2.767,2.767,0,0,1-1.284,2.354,5.631,5.631,0,0,1-3.325.908,5.747,5.747,0,0,1-2.422-.488,4.05,4.05,0,0,1-1.66-1.328,3.007,3.007,0,0,1-.6-1.768h3.076a1.272,1.272,0,0,0,.488,1.069,2.009,2.009,0,0,0,1.2.337,1.58,1.58,0,0,0,1.011-.273A.875.875,0,0,0,70.059,18.031ZM79.883,21.2a5.432,5.432,0,0,1-3.936-1.45,5.008,5.008,0,0,1-1.5-3.774V15.7a6.489,6.489,0,0,1,.6-2.861A4.395,4.395,0,0,1,76.8,10.917a5.292,5.292,0,0,1,2.734-.679,4.574,4.574,0,0,1,3.516,1.382,5.43,5.43,0,0,1,1.289,3.853v1.279H77.793a2.372,2.372,0,0,0,.771,1.4,2.3,2.3,0,0,0,1.543.508,2.958,2.958,0,0,0,2.441-1.094l1.5,1.777a4.2,4.2,0,0,1-1.743,1.353A5.891,5.891,0,0,1,79.883,21.2Zm-.371-8.418q-1.445,0-1.719,1.914h3.32v-.254a1.63,1.63,0,0,0-.4-1.226A1.593,1.593,0,0,0,79.512,12.777Zm9.17-2.344.107,1.24a3.583,3.583,0,0,1,3.018-1.436,3.015,3.015,0,0,1,2.466.986,4.7,4.7,0,0,1,.845,2.969V21h-3.3V14.33a1.783,1.783,0,0,0-.322-1.177,1.491,1.491,0,0,0-1.172-.376,1.569,1.569,0,0,0-1.436.762V21H85.6V10.434Zm12.09-2.627v2.627h1.738v2.285h-1.738v4.834a1.234,1.234,0,0,0,.215.83,1.152,1.152,0,0,0,.85.234,4.828,4.828,0,0,0,.82-.059v2.354a6.074,6.074,0,0,1-1.855.283,3.448,3.448,0,0,1-2.51-.8,3.282,3.282,0,0,1-.811-2.432V12.719H96.133V10.434H97.48V7.807Z" transform="translate(873 985)" fill="#12263f"/>
      <path id="Trazado_118827" data-name="Trazado 118827" d="M-32.583-2.656h-4.7L-38.1,0h-3.662l5.215-14.219h3.223L-28.071,0h-3.682ZM-36.46-5.3H-33.4l-1.533-4.932Zm12.939-7.891v2.627h1.738v2.285h-1.738v4.834a1.234,1.234,0,0,0,.215.83,1.152,1.152,0,0,0,.85.234,4.828,4.828,0,0,0,.82-.059V-.088A6.074,6.074,0,0,1-23.491.2,3.448,3.448,0,0,1-26-.605a3.282,3.282,0,0,1-.811-2.432V-8.281h-1.348v-2.285h1.348v-2.627Zm4.189,17.021-1.66-.781.332-.664a5.416,5.416,0,0,0,.713-2.422V-2.48h2.637l-.01,2.119A5.3,5.3,0,0,1-17.9,1.924,5.806,5.806,0,0,1-19.331,3.828ZM2.075-6.816A8.385,8.385,0,0,1,1.3-3.135,5.7,5.7,0,0,1-.889-.669,6.1,6.1,0,0,1-4.126.2,6.191,6.191,0,0,1-7.349-.64,5.692,5.692,0,0,1-9.541-3.027a8.144,8.144,0,0,1-.825-3.564v-.8A8.422,8.422,0,0,1-9.6-11.079a5.688,5.688,0,0,1,2.2-2.466,6.147,6.147,0,0,1,3.257-.869,6.087,6.087,0,0,1,3.223.859,5.79,5.79,0,0,1,2.2,2.446,8.18,8.18,0,0,1,.8,3.638Zm-3.486-.6a5.979,5.979,0,0,0-.708-3.218,2.271,2.271,0,0,0-2.026-1.1q-2.578,0-2.725,3.867l-.01,1.045A6.149,6.149,0,0,0-6.187-3.6,2.268,2.268,0,0,0-4.126-2.48a2.24,2.24,0,0,0,2-1.1,5.982,5.982,0,0,0,.713-3.174Zm8.125-3.154.107,1.24a3.583,3.583,0,0,1,3.018-1.436,3.015,3.015,0,0,1,2.466.986,4.7,4.7,0,0,1,.845,2.969V0h-3.3V-6.67a1.783,1.783,0,0,0-.322-1.177,1.491,1.491,0,0,0-1.172-.376,1.569,1.569,0,0,0-1.436.762V0H3.628V-10.566ZM16.128,3.828l-1.66-.781.332-.664a5.416,5.416,0,0,0,.713-2.422V-2.48h2.637L18.14-.361a5.3,5.3,0,0,1-.576,2.285A5.806,5.806,0,0,1,16.128,3.828ZM29.146,0H25.728V-14.219h3.418ZM34.4-10.566l.107,1.24a3.583,3.583,0,0,1,3.018-1.436,3.015,3.015,0,0,1,2.466.986,4.7,4.7,0,0,1,.845,2.969V0h-3.3V-6.67a1.783,1.783,0,0,0-.322-1.177,1.491,1.491,0,0,0-1.172-.376,1.569,1.569,0,0,0-1.436.762V0H31.313V-10.566Z" transform="translate(299 697)" fill="#12263f"/>
      <path id="Trazado_118825" data-name="Trazado 118825" d="M-43.687-5.2A6.44,6.44,0,0,1-44.761-1.2,3.6,3.6,0,0,1-47.788.2a3.122,3.122,0,0,1-2.6-1.279L-50.522,0h-2.949V-15h3.291v5.283a3.013,3.013,0,0,1,2.373-1.045,3.6,3.6,0,0,1,3.047,1.416,6.473,6.473,0,0,1,1.074,3.984Zm-3.3-.21a4.3,4.3,0,0,0-.405-2.169,1.366,1.366,0,0,0-1.245-.648,1.576,1.576,0,0,0-1.543.848v4.192a1.585,1.585,0,0,0,1.563.838,1.4,1.4,0,0,0,1.475-1.131A8.121,8.121,0,0,0-46.987-5.405Zm8.975.8,1.758-5.957h3.525L-37.036,1.768l-.186.449a3.272,3.272,0,0,1-3.242,2.051,5.158,5.158,0,0,1-1.357-.195V1.729h.43a2.251,2.251,0,0,0,1.06-.2A1.216,1.216,0,0,0-39.79.81l.264-.7L-43.2-10.566h3.516Zm7.295,8.438-1.66-.781.332-.664a5.416,5.416,0,0,0,.713-2.422V-2.48H-28.7l-.01,2.119a5.3,5.3,0,0,1-.576,2.285A5.806,5.806,0,0,1-30.718,3.828ZM-15.21-1.143A3.393,3.393,0,0,1-18.032.2,3.328,3.328,0,0,1-20.664-.815a4.251,4.251,0,0,1-.894-2.905v-6.846h3.291V-3.7a1.183,1.183,0,0,0,1.318,1.357,1.72,1.72,0,0,0,1.611-.811v-7.412h3.311V0h-3.086ZM-7.2-10.566l.107,1.24a3.583,3.583,0,0,1,3.018-1.436,3.015,3.015,0,0,1,2.466.986A4.7,4.7,0,0,1-.767-6.807V0h-3.3V-6.67A1.783,1.783,0,0,0-4.39-7.847a1.491,1.491,0,0,0-1.172-.376A1.569,1.569,0,0,0-7-7.461V0h-3.291V-10.566Zm12.09-2.627v2.627H6.626v2.285H4.888v4.834a1.234,1.234,0,0,0,.215.83,1.152,1.152,0,0,0,.85.234,4.828,4.828,0,0,0,.82-.059V-.088A6.074,6.074,0,0,1,4.917.2a3.448,3.448,0,0,1-2.51-.8A3.282,3.282,0,0,1,1.6-3.037V-8.281H.249v-2.285H1.6v-2.627ZM11.392,0h-3.3V-10.566h3.3ZM7.9-13.291A1.469,1.469,0,0,1,8.4-14.443a1.916,1.916,0,0,1,1.318-.449,1.916,1.916,0,0,1,1.318.449,1.469,1.469,0,0,1,.508,1.152,1.469,1.469,0,0,1-.508,1.152,1.916,1.916,0,0,1-1.318.449A1.916,1.916,0,0,1,8.4-12.139,1.469,1.469,0,0,1,7.9-13.291ZM16.89,0h-3.3V-15h3.3Zm3.184,3.828-1.66-.781.332-.664a5.416,5.416,0,0,0,.713-2.422V-2.48h2.637l-.01,2.119a5.3,5.3,0,0,1-.576,2.285A5.806,5.806,0,0,1,20.073,3.828ZM30.015,0V-8.281H28.481v-2.285h1.533v-.84a3.651,3.651,0,0,1,1.064-2.8,4.206,4.206,0,0,1,2.988-1A6.544,6.544,0,0,1,35.61-15l.01,2.422a3.007,3.007,0,0,0-.811-.088q-1.494,0-1.494,1.289v.811h2.061v2.285H33.315V0Zm6.1-5.381A6.236,6.236,0,0,1,36.733-8.2,4.4,4.4,0,0,1,38.5-10.1a5.323,5.323,0,0,1,2.705-.664,4.858,4.858,0,0,1,3.74,1.47,5.64,5.64,0,0,1,1.367,4v.117a5.472,5.472,0,0,1-1.372,3.921A4.871,4.871,0,0,1,41.226.2,4.927,4.927,0,0,1,37.6-1.157a5.29,5.29,0,0,1-1.475-3.667Zm3.291.205a3.932,3.932,0,0,0,.459,2.148,1.529,1.529,0,0,0,1.357.684q1.758,0,1.8-2.705v-.332q0-2.842-1.816-2.842-1.65,0-1.787,2.451ZM54.155-7.588l-1.084-.078a1.947,1.947,0,0,0-1.992.977V0H47.788V-10.566h3.086l.107,1.357A2.548,2.548,0,0,1,53.3-10.762a3.209,3.209,0,0,1,.918.117Z" transform="translate(429 565)" fill="#12263f"/>
      <path id="Trazado_118835" data-name="Trazado 118835" d="M-57.842-5.3l1.631-8.916h3.4L-55.83,0h-3.555l-1.9-8.105L-63.154,0H-66.7l-3.027-14.219h3.408L-64.687-5.3l1.953-8.916h2.91Zm9.434-4.131a3.294,3.294,0,0,1,2.7-1.328,3.284,3.284,0,0,1,2.637,1.035,4.651,4.651,0,0,1,.908,3.057V0h-3.3V-6.592a1.86,1.86,0,0,0-.342-1.235,1.469,1.469,0,0,0-1.162-.4,1.582,1.582,0,0,0-1.436.645V0H-51.7V-15h3.291ZM-34.385,0A3.716,3.716,0,0,1-34.7-.947,3.06,3.06,0,0,1-37.236.2a3.749,3.749,0,0,1-2.539-.9A2.875,2.875,0,0,1-40.82-2.979a2.955,2.955,0,0,1,1.27-2.6,6.468,6.468,0,0,1,3.691-.879h1.016v-.559q0-1.462-1.26-1.462a1.03,1.03,0,0,0-1.172,1.158h-3.291a2.95,2.95,0,0,1,1.3-2.487,5.479,5.479,0,0,1,3.325-.956,4.8,4.8,0,0,1,3.193.986,3.429,3.429,0,0,1,1.2,2.705v4.678a4.79,4.79,0,0,0,.449,2.227V0Zm-2.061-2.148a1.836,1.836,0,0,0,1.021-.264,1.653,1.653,0,0,0,.581-.6V-4.7H-35.8q-1.719,0-1.719,1.543a.942.942,0,0,0,.3.728A1.1,1.1,0,0,0-36.445-2.148Zm10.557-11.045v2.627h1.738v2.285h-1.738v4.834a1.234,1.234,0,0,0,.215.83,1.152,1.152,0,0,0,.85.234A4.828,4.828,0,0,0-24-2.441V-.088A6.074,6.074,0,0,1-25.859.2a3.448,3.448,0,0,1-2.51-.8,3.282,3.282,0,0,1-.811-2.432V-8.281h-1.348v-2.285h1.348v-2.627Zm11.846,0v2.627H-12.3v2.285h-1.738v4.834a1.234,1.234,0,0,0,.215.83,1.152,1.152,0,0,0,.85.234,4.828,4.828,0,0,0,.82-.059V-.088A6.074,6.074,0,0,1-14.014.2a3.448,3.448,0,0,1-2.51-.8,3.282,3.282,0,0,1-.811-2.432V-8.281h-1.348v-2.285h1.348v-2.627ZM-7.539,0h-3.3V-10.566h3.3Zm-3.5-13.291a1.469,1.469,0,0,1,.508-1.152,1.916,1.916,0,0,1,1.318-.449,1.916,1.916,0,0,1,1.318.449,1.469,1.469,0,0,1,.508,1.152,1.469,1.469,0,0,1-.508,1.152,1.916,1.916,0,0,1-1.318.449,1.916,1.916,0,0,1-1.318-.449A1.469,1.469,0,0,1-11.035-13.291ZM-2.4-10.566l.107,1.24A3.633,3.633,0,0,1,.723-10.762,2.675,2.675,0,0,1,3.428-9.17a3.517,3.517,0,0,1,3.105-1.592q3.213,0,3.3,3.887V0h-3.3V-6.67A2.014,2.014,0,0,0,6.26-7.852a1.164,1.164,0,0,0-1-.371,1.559,1.559,0,0,0-1.455.869l.01.137V0H.518V-6.65a2.117,2.117,0,0,0-.264-1.2A1.161,1.161,0,0,0-.752-8.223,1.578,1.578,0,0,0-2.2-7.354V0H-5.488V-10.566ZM16.826.2a5.432,5.432,0,0,1-3.936-1.45,5.008,5.008,0,0,1-1.5-3.774V-5.3a6.489,6.489,0,0,1,.6-2.861,4.395,4.395,0,0,1,1.753-1.919,5.292,5.292,0,0,1,2.734-.679A4.574,4.574,0,0,1,19.99-9.38a5.43,5.43,0,0,1,1.289,3.853v1.279H14.736a2.372,2.372,0,0,0,.771,1.4,2.3,2.3,0,0,0,1.543.508,2.958,2.958,0,0,0,2.441-1.094L21-1.66A4.2,4.2,0,0,1,19.253-.308,5.891,5.891,0,0,1,16.826.2Zm-.371-8.418q-1.445,0-1.719,1.914h3.32v-.254a1.63,1.63,0,0,0-.4-1.226A1.593,1.593,0,0,0,16.455-8.223ZM31.055,0h-3.3V-10.566h3.3Zm-3.5-13.291a1.469,1.469,0,0,1,.508-1.152,1.916,1.916,0,0,1,1.318-.449,1.916,1.916,0,0,1,1.318.449,1.469,1.469,0,0,1,.508,1.152,1.469,1.469,0,0,1-.508,1.152,1.916,1.916,0,0,1-1.318.449,1.916,1.916,0,0,1-1.318-.449A1.469,1.469,0,0,1,27.559-13.291ZM38.613-2.969a.76.76,0,0,0-.439-.674A6.685,6.685,0,0,0,36.5-4.17a7.615,7.615,0,0,1-2.031-.718,3.4,3.4,0,0,1-1.221-1.079,2.577,2.577,0,0,1-.42-1.455,2.92,2.92,0,0,1,1.2-2.4,4.948,4.948,0,0,1,3.145-.942,5.482,5.482,0,0,1,3.359.947,2.962,2.962,0,0,1,1.27,2.49h-3.3q0-1.27-1.338-1.27a1.326,1.326,0,0,0-.869.288.892.892,0,0,0-.352.718.819.819,0,0,0,.43.713,4.06,4.06,0,0,0,1.372.449,11.857,11.857,0,0,1,1.655.42,3.007,3.007,0,0,1,2.383,2.939A2.767,2.767,0,0,1,40.5-.713,5.632,5.632,0,0,1,37.178.2a5.747,5.747,0,0,1-2.422-.488A4.05,4.05,0,0,1,33.1-1.621a3.007,3.007,0,0,1-.6-1.768h3.076a1.272,1.272,0,0,0,.488,1.069,2.009,2.009,0,0,0,1.2.337,1.58,1.58,0,0,0,1.011-.273A.875.875,0,0,0,38.613-2.969ZM51.777,0h-3.3V-10.566h3.3Zm-3.5-13.291a1.469,1.469,0,0,1,.508-1.152,1.916,1.916,0,0,1,1.318-.449,1.916,1.916,0,0,1,1.318.449,1.469,1.469,0,0,1,.508,1.152,1.469,1.469,0,0,1-.508,1.152,1.916,1.916,0,0,1-1.318.449,1.916,1.916,0,0,1-1.318-.449A1.469,1.469,0,0,1,48.281-13.291Zm9.355.1v2.627h1.738v2.285H57.637v4.834a1.234,1.234,0,0,0,.215.83,1.152,1.152,0,0,0,.85.234,4.828,4.828,0,0,0,.82-.059V-.088A6.074,6.074,0,0,1,57.666.2a3.448,3.448,0,0,1-2.51-.8,3.282,3.282,0,0,1-.811-2.432V-8.281H53v-2.285h1.348v-2.627ZM63.105-4.5a6.356,6.356,0,0,1,.322-2.251,3.521,3.521,0,0,1,1.045-1.431,6.947,6.947,0,0,0,1.1-1.108,1.809,1.809,0,0,0,.376-1.108q0-1.475-1.27-1.475a1.178,1.178,0,0,0-.947.43,1.827,1.827,0,0,0-.381,1.162h-3.3a3.937,3.937,0,0,1,1.23-3.042,4.906,4.906,0,0,1,3.4-1.089,5.1,5.1,0,0,1,3.374,1.006,3.53,3.53,0,0,1,1.2,2.861,3.333,3.333,0,0,1-.322,1.475,4.984,4.984,0,0,1-1.035,1.357L66.768-6.67a2.642,2.642,0,0,0-.664.942A3.735,3.735,0,0,0,65.9-4.5Zm-.4,2.969a1.516,1.516,0,0,1,.522-1.187,1.892,1.892,0,0,1,1.3-.464,1.892,1.892,0,0,1,1.3.464,1.516,1.516,0,0,1,.522,1.187,1.516,1.516,0,0,1-.522,1.187,1.892,1.892,0,0,1-1.3.464,1.892,1.892,0,0,1-1.3-.464A1.516,1.516,0,0,1,62.705-1.533Z" transform="translate(1059 565)" fill="#12263f"/>
      <path id="Trazado_118834" data-name="Trazado 118834" d="M-24.258,0h-3.408V-5.937h-5.049V0h-3.428V-14.219h3.428v5.645h5.049v-5.645h3.408Zm1.6-5.381A6.236,6.236,0,0,1-22.041-8.2a4.4,4.4,0,0,1,1.768-1.9,5.323,5.323,0,0,1,2.705-.664,4.858,4.858,0,0,1,3.74,1.47,5.64,5.64,0,0,1,1.367,4v.117a5.472,5.472,0,0,1-1.372,3.921A4.871,4.871,0,0,1-17.549.2a4.927,4.927,0,0,1-3.623-1.353,5.29,5.29,0,0,1-1.475-3.667Zm3.291.205a3.932,3.932,0,0,0,.459,2.148,1.529,1.529,0,0,0,1.357.684q1.758,0,1.8-2.705v-.332q0-2.842-1.816-2.842-1.65,0-1.787,2.451ZM-1.2-5.2A6.44,6.44,0,0,1-2.275-1.2,3.6,3.6,0,0,1-5.3.2,3.122,3.122,0,0,1-7.9-1.084L-8.037,0h-2.949V-15H-7.7v5.283a3.013,3.013,0,0,1,2.373-1.045A3.6,3.6,0,0,1-2.275-9.346,6.473,6.473,0,0,1-1.2-5.361Zm-3.3-.21a4.3,4.3,0,0,0-.405-2.169,1.366,1.366,0,0,0-1.245-.648A1.576,1.576,0,0,0-7.7-7.374v4.192a1.585,1.585,0,0,0,1.563.838A1.4,1.4,0,0,0-4.658-3.475,8.121,8.121,0,0,0-4.5-5.405Zm14.561.21A6.44,6.44,0,0,1,8.984-1.2,3.6,3.6,0,0,1,5.957.2a3.122,3.122,0,0,1-2.6-1.279L3.223,0H.273V-15H3.564v5.283a3.013,3.013,0,0,1,2.373-1.045A3.6,3.6,0,0,1,8.984-9.346a6.473,6.473,0,0,1,1.074,3.984Zm-3.3-.21a4.3,4.3,0,0,0-.405-2.169,1.366,1.366,0,0,0-1.245-.648,1.576,1.576,0,0,0-1.543.848v4.192a1.585,1.585,0,0,0,1.563.838A1.4,1.4,0,0,0,6.6-3.475,8.121,8.121,0,0,0,6.758-5.405ZM14.98,0h-3.3V-10.566h3.3Zm-3.5-13.291a1.469,1.469,0,0,1,.508-1.152,1.916,1.916,0,0,1,1.318-.449,1.916,1.916,0,0,1,1.318.449,1.469,1.469,0,0,1,.508,1.152,1.469,1.469,0,0,1-.508,1.152,1.916,1.916,0,0,1-1.318.449,1.916,1.916,0,0,1-1.318-.449A1.469,1.469,0,0,1,11.484-13.291ZM22.119.2a5.432,5.432,0,0,1-3.936-1.45,5.008,5.008,0,0,1-1.5-3.774V-5.3a6.489,6.489,0,0,1,.6-2.861,4.395,4.395,0,0,1,1.753-1.919,5.292,5.292,0,0,1,2.734-.679A4.574,4.574,0,0,1,25.283-9.38a5.43,5.43,0,0,1,1.289,3.853v1.279H20.029a2.372,2.372,0,0,0,.771,1.4,2.3,2.3,0,0,0,1.543.508,2.958,2.958,0,0,0,2.441-1.094l1.5,1.777A4.2,4.2,0,0,1,24.546-.308,5.891,5.891,0,0,1,22.119.2Zm-.371-8.418q-1.445,0-1.719,1.914h3.32v-.254a1.63,1.63,0,0,0-.4-1.226A1.593,1.593,0,0,0,21.748-8.223Zm11.68,5.254a.76.76,0,0,0-.439-.674,6.685,6.685,0,0,0-1.67-.527,7.615,7.615,0,0,1-2.031-.718,3.4,3.4,0,0,1-1.221-1.079,2.577,2.577,0,0,1-.42-1.455,2.92,2.92,0,0,1,1.2-2.4,4.948,4.948,0,0,1,3.145-.942,5.482,5.482,0,0,1,3.359.947,2.962,2.962,0,0,1,1.27,2.49h-3.3q0-1.27-1.338-1.27a1.326,1.326,0,0,0-.869.288.892.892,0,0,0-.352.718.819.819,0,0,0,.43.713,4.06,4.06,0,0,0,1.372.449,11.857,11.857,0,0,1,1.655.42A3.007,3.007,0,0,1,36.6-3.066,2.767,2.767,0,0,1,35.317-.713,5.632,5.632,0,0,1,31.992.2,5.747,5.747,0,0,1,29.57-.293a4.05,4.05,0,0,1-1.66-1.328,3.007,3.007,0,0,1-.6-1.768h3.076a1.272,1.272,0,0,0,.488,1.069,2.009,2.009,0,0,0,1.2.337,1.58,1.58,0,0,0,1.011-.273A.875.875,0,0,0,33.428-2.969Z" transform="translate(1244 681)" fill="#12263f"/>
      <path id="Trazado_118830" data-name="Trazado 118830" d="M-8.252,0H-11.66V-5.937h-5.049V0h-3.428V-14.219h3.428v5.645h5.049v-5.645h3.408ZM-.283,0A3.716,3.716,0,0,1-.6-.947,3.06,3.06,0,0,1-3.135.2a3.749,3.749,0,0,1-2.539-.9A2.875,2.875,0,0,1-6.719-2.979a2.955,2.955,0,0,1,1.27-2.6,6.468,6.468,0,0,1,3.691-.879H-.742v-.559q0-1.462-1.26-1.462A1.03,1.03,0,0,0-3.174-7.319H-6.465a2.95,2.95,0,0,1,1.3-2.487,5.479,5.479,0,0,1,3.325-.956,4.8,4.8,0,0,1,3.193.986,3.429,3.429,0,0,1,1.2,2.705v4.678A4.79,4.79,0,0,0,3.008-.166V0ZM-2.344-2.148a1.836,1.836,0,0,0,1.021-.264,1.653,1.653,0,0,0,.581-.6V-4.7H-1.7q-1.719,0-1.719,1.543a.942.942,0,0,0,.3.728A1.1,1.1,0,0,0-2.344-2.148ZM8.213-13.193v2.627H9.951v2.285H8.213v4.834a1.234,1.234,0,0,0,.215.83,1.152,1.152,0,0,0,.85.234,4.828,4.828,0,0,0,.82-.059V-.088A6.074,6.074,0,0,1,8.242.2a3.448,3.448,0,0,1-2.51-.8,3.282,3.282,0,0,1-.811-2.432V-8.281H3.574v-2.285H4.922v-2.627ZM16.357.2a5.432,5.432,0,0,1-3.936-1.45,5.008,5.008,0,0,1-1.5-3.774V-5.3a6.489,6.489,0,0,1,.6-2.861,4.395,4.395,0,0,1,1.753-1.919,5.292,5.292,0,0,1,2.734-.679A4.574,4.574,0,0,1,19.521-9.38a5.43,5.43,0,0,1,1.289,3.853v1.279H14.268a2.372,2.372,0,0,0,.771,1.4,2.3,2.3,0,0,0,1.543.508,2.958,2.958,0,0,0,2.441-1.094l1.5,1.777A4.2,4.2,0,0,1,18.784-.308,5.891,5.891,0,0,1,16.357.2Zm-.371-8.418q-1.445,0-1.719,1.914h3.32v-.254a1.63,1.63,0,0,0-.4-1.226A1.593,1.593,0,0,0,15.986-8.223Z" transform="translate(572 1018)" fill="#12263f"/>
      <path id="Trazado_118832" data-name="Trazado 118832" d="M45.5,17.133,48.332,6.781H52.16L47.375,21h-3.75L38.879,6.781h3.8ZM58.156,21.2a5.432,5.432,0,0,1-3.936-1.45,5.008,5.008,0,0,1-1.5-3.774V15.7a6.489,6.489,0,0,1,.6-2.861,4.395,4.395,0,0,1,1.753-1.919,5.292,5.292,0,0,1,2.734-.679A4.574,4.574,0,0,1,61.32,11.62a5.43,5.43,0,0,1,1.289,3.853v1.279H56.066a2.372,2.372,0,0,0,.771,1.4,2.3,2.3,0,0,0,1.543.508,2.958,2.958,0,0,0,2.441-1.094l1.5,1.777a4.2,4.2,0,0,1-1.743,1.353A5.891,5.891,0,0,1,58.156,21.2Zm-.371-8.418q-1.445,0-1.719,1.914h3.32v-.254a1.63,1.63,0,0,0-.4-1.226A1.593,1.593,0,0,0,57.785,12.777Zm12.539.635-1.084-.078a1.947,1.947,0,0,0-1.992.977V21H63.957V10.434h3.086l.107,1.357a2.548,2.548,0,0,1,2.314-1.553,3.209,3.209,0,0,1,.918.117Zm11,2.393A6.44,6.44,0,0,1,80.246,19.8a3.6,3.6,0,0,1-3.027,1.4,3.122,3.122,0,0,1-2.6-1.279L74.484,21H71.535V6h3.291v5.283A3.013,3.013,0,0,1,77.2,10.238a3.6,3.6,0,0,1,3.047,1.416,6.473,6.473,0,0,1,1.074,3.984Zm-3.3-.21a4.3,4.3,0,0,0-.405-2.169,1.366,1.366,0,0,0-1.245-.648,1.576,1.576,0,0,0-1.543.848v4.192a1.585,1.585,0,0,0,1.563.838,1.4,1.4,0,0,0,1.475-1.131A8.121,8.121,0,0,0,78.02,15.595ZM88.3,18.031a.76.76,0,0,0-.439-.674,6.684,6.684,0,0,0-1.67-.527,7.615,7.615,0,0,1-2.031-.718,3.4,3.4,0,0,1-1.221-1.079,2.577,2.577,0,0,1-.42-1.455,2.92,2.92,0,0,1,1.2-2.4,4.948,4.948,0,0,1,3.145-.942,5.482,5.482,0,0,1,3.359.947,2.962,2.962,0,0,1,1.27,2.49H88.2q0-1.27-1.338-1.27a1.326,1.326,0,0,0-.869.288.892.892,0,0,0-.352.718.819.819,0,0,0,.43.713,4.06,4.06,0,0,0,1.372.449,11.857,11.857,0,0,1,1.655.42,3.007,3.007,0,0,1,2.383,2.939,2.767,2.767,0,0,1-1.284,2.354,5.631,5.631,0,0,1-3.325.908,5.747,5.747,0,0,1-2.422-.488,4.05,4.05,0,0,1-1.66-1.328,3.007,3.007,0,0,1-.6-1.768h3.076a1.272,1.272,0,0,0,.488,1.069,2.009,2.009,0,0,0,1.2.337,1.58,1.58,0,0,0,1.011-.273A.875.875,0,0,0,88.3,18.031Z" transform="translate(1169 985)" fill="#12263f"/>
      <path id="Trazado_118811" data-name="Trazado 118811" d="M1560.333-10831h-125" transform="translate(-881 11700)" fill="none" stroke="#3c3fa7" stroke-width="3"/>
      <path id="Trazado_118812" data-name="Trazado 118812" d="M1655.333-10950.333v-71h-95" transform="translate(-881 11710.333)" fill="none" stroke="#3c3fa7" stroke-width="3"/>
      <path id="Trazado_118813" data-name="Trazado 118813" d="M1875.333-10831H1814v-25h-63.667" transform="translate(-881 11700)" fill="none" stroke="#3c3fa7" stroke-width="3"/>
      <path id="Trazado_118814" data-name="Trazado 118814" d="M1884-10971v55.5H1712" transform="translate(-900 11695.5)" fill="none" stroke="#3c3fa7" stroke-width="3"/>
      <circle id="Elipse_4824" data-name="Elipse 4824" cx="95" cy="95" r="95" transform="translate(679 760)" fill="#ffd947"/>
      <path id="Trazado_118836" data-name="Trazado 118836" d="M-33.6-2.824h7.242L-26.854,0H-37.529l2.965-17.062h3.434ZM-18.99.234A5.516,5.516,0,0,1-21.937-.58a4.938,4.938,0,0,1-1.916-2.2,6.14,6.14,0,0,1-.492-3.088l.035-.469a8.2,8.2,0,0,1,1.078-3.4,6.512,6.512,0,0,1,2.32-2.385,5.741,5.741,0,0,1,3.141-.791,4.386,4.386,0,0,1,3.709,1.8,6.175,6.175,0,0,1,.955,4.442l-.187,1.444h-7.77a2.721,2.721,0,0,0,.6,1.969,2.281,2.281,0,0,0,1.758.762A4.054,4.054,0,0,0-15.545-3.9l1.512,1.875A4.7,4.7,0,0,1-16.1-.346,6.745,6.745,0,0,1-18.99.234Zm1.055-10.418a2.348,2.348,0,0,0-1.623.574A5.045,5.045,0,0,0-20.83-7.535h4.547l.07-.3A3.106,3.106,0,0,0-16.2-8.73a1.7,1.7,0,0,0-.574-1.061A1.8,1.8,0,0,0-17.936-10.184Zm10.8,6,3.609-8.5H.041L-6.088,0H-9.252L-11.42-12.68h3.352ZM5.443.234A5.516,5.516,0,0,1,2.5-.58,4.938,4.938,0,0,1,.58-2.783,6.14,6.14,0,0,1,.088-5.871L.123-6.34A8.2,8.2,0,0,1,1.2-9.738a6.512,6.512,0,0,1,2.32-2.385,5.741,5.741,0,0,1,3.141-.791,4.386,4.386,0,0,1,3.709,1.8,6.175,6.175,0,0,1,.955,4.442l-.187,1.444H3.369a2.721,2.721,0,0,0,.6,1.969A2.281,2.281,0,0,0,5.725-2.5,4.054,4.054,0,0,0,8.889-3.9L10.4-2.027A4.7,4.7,0,0,1,8.338-.346,6.745,6.745,0,0,1,5.443.234ZM6.5-10.184a2.348,2.348,0,0,0-1.623.574A5.045,5.045,0,0,0,3.6-7.535H8.15l.07-.3a3.106,3.106,0,0,0,.012-.891,1.7,1.7,0,0,0-.574-1.061A1.8,1.8,0,0,0,6.5-10.184ZM15.615,0H12.287l3.129-18h3.316ZM32.2,0h-3.3l2.25-12.984L26.994-11.73l.516-2.895,7.125-2.461.434-.012Z" transform="translate(774 912.5)" fill="#ff5f65"/>
      <path id="Trazado_118815" data-name="Trazado 118815" d="M1940-11119v44h-75v30" transform="translate(-881 11700)" fill="none" stroke="#ff5f65" stroke-width="3"/>
      <path id="Trazado_118810" data-name="Trazado 118810" d="M1960.333-11014H2001v52h127v-42" transform="translate(-881 11700)" fill="none" stroke="#ff5f65" stroke-width="3"/>
      <path id="Trazado_118816" data-name="Trazado 118816" d="M1409-11142h64v98" transform="translate(-885 11700)" fill="none" stroke="#ff5f65" stroke-width="3"/>
      <path id="Trazado_118820" data-name="Trazado 118820" d="M1370-11010h-96" transform="translate(-881 11700)" fill="none" stroke="#ff5f65" stroke-width="3"/>
      <path id="Trazado_118821" data-name="Trazado 118821" d="M1330.333-10798v48H1184v36" transform="translate(-881 11700)" fill="none" stroke="#ff5f65" stroke-width="3"/>
      <path id="Trazado_118817" data-name="Trazado 118817" d="M1350.333-10798v45H1444v42" transform="translate(-881 11700)" fill="none" stroke="#ff5f65" stroke-width="3"/>
      <path id="Trazado_118818" data-name="Trazado 118818" d="M1960.333-10798v31H1816v35" transform="translate(-881 11700)" fill="none" stroke="#ff5f65" stroke-width="3"/>
      <path id="Trazado_118819" data-name="Trazado 118819" d="M2065.333-10831H2125v99" transform="translate(-881 11700)" fill="none" stroke="#ff5f65" stroke-width="3"/>
      <g id="signo" transform="translate(732 794.077)">
        <path id="Trazado_118764" data-name="Trazado 118764" d="M27.5,53H39.962V66.846H27.5Z" transform="translate(8.269 20)" fill="#7a829c"/>
        <path id="Trazado_118765" data-name="Trazado 118765" d="M27.5,53H39.962v2.769H27.5Z" transform="translate(8.269 20)" fill="#646d8b"/>
        <path id="Trazado_118766" data-name="Trazado 118766" d="M29.5,53h9.692V66.846H29.5Z" transform="translate(9.038 20)" fill="#646d8b"/>
        <path id="Trazado_118767" data-name="Trazado 118767" d="M29.5,53h9.692v2.769H29.5Z" transform="translate(9.038 20)" fill="#505a76"/>
        <rect id="Rectángulo_34769" data-name="Rectángulo 34769" width="72" height="72" rx="6" transform="translate(6 0.923)" fill="#fafdff"/>
        <path id="Trazado_118768" data-name="Trazado 118768" d="M13.538,3A5.538,5.538,0,0,0,8,8.538V66.692a8.256,8.256,0,0,0,1.219,4.317,8.257,8.257,0,0,0,4.319,1.222H68.923a8.308,8.308,0,0,0,8.308-8.308V8.538a8.256,8.256,0,0,0-1.219-4.317A8.257,8.257,0,0,0,71.692,3Z" transform="translate(0.769 0.769)" fill="#eef6ff"/>
        <rect id="Rectángulo_34770" data-name="Rectángulo 34770" width="61" height="60" rx="2" transform="translate(72 6.923) rotate(90)" fill="#6bc9f2"/>
        <path id="Trazado_118769" data-name="Trazado 118769" d="M70.154,62.385V7H14.769A2.769,2.769,0,0,0,12,9.769V65.154H67.385A2.769,2.769,0,0,0,70.154,62.385Z" transform="translate(2.308 2.308)" fill="#7dd7f8"/>
        <g id="Grupo_84964" data-name="Grupo 84964" transform="translate(17.769 12.077)">
          <path id="Trazado_118771" data-name="Trazado 118771" d="M21.423,47.077H17.269V37.385a1.385,1.385,0,1,0-2.769,0V48.462a1.385,1.385,0,0,0,1.385,1.385h5.538a1.385,1.385,0,1,0,0-2.769Z" transform="translate(-14.5 1.385)" fill="#12263f"/>
          <path id="Trazado_118772" data-name="Trazado 118772" d="M50.423,47.077H46.269V37.385a1.385,1.385,0,1,0-2.769,0V48.462a1.385,1.385,0,0,0,1.385,1.385h5.538a1.385,1.385,0,0,0,0-2.769Z" transform="translate(-3.346 1.385)" fill="#12263f"/>
          <path id="Trazado_118773" data-name="Trazado 118773" d="M28.423,38.769a1.385,1.385,0,0,0,0-2.769H22.885A1.385,1.385,0,0,0,21.5,37.385V48.462a1.385,1.385,0,0,0,1.385,1.385h5.538a1.385,1.385,0,0,0,0-2.769H24.269V44.308h2.769a1.385,1.385,0,1,0,0-2.769H24.269V38.769Z" transform="translate(-11.808 1.385)" fill="#12263f"/>
          <path id="Trazado_118774" data-name="Trazado 118774" d="M43.423,38.769a1.385,1.385,0,0,0,0-2.769H37.885A1.385,1.385,0,0,0,36.5,37.385V48.462a1.385,1.385,0,0,0,1.385,1.385h5.538a1.385,1.385,0,0,0,0-2.769H39.269V44.308h2.769a1.385,1.385,0,1,0,0-2.769H39.269V38.769Z" transform="translate(-6.038 1.385)" fill="#12263f"/>
          <path id="Trazado_118775" data-name="Trazado 118775" d="M37.221,36.063a1.386,1.386,0,0,0-1.735.909l-2.14,6.848-2.14-6.848a1.385,1.385,0,1,0-2.644.826l3.462,11.077a1.385,1.385,0,0,0,2.644,0L38.13,37.8a1.385,1.385,0,0,0-.909-1.735Z" transform="translate(-9.116 1.384)" fill="#12263f"/>
          <path id="Trazado_118822" data-name="Trazado 118822" d="M15.3-14.316V16.965H8.578V-6.72a8.049,8.049,0,0,1-1.312.928A13.547,13.547,0,0,1,5.655-5a14.385,14.385,0,0,1-1.771.6,12.936,12.936,0,0,1-1.814.352V-9.729a28.038,28.038,0,0,0,4.95-1.963,28.172,28.172,0,0,0,4.2-2.625Z" transform="translate(14.16 14.794)" fill="#12263f"/>
        </g>
      </g>
    </g>
  </g>
</svg>
